<svg xmlns="http://www.w3.org/2000/svg" width="40" height="53" viewBox="0 0 40 53">
  <g fill="#FFF" fill-rule="evenodd">
    <path d="M16.51 40.52c.93-.088 1.305-.535 1.914-.906.147.374.678.956 1.104.956.555 0 1.256-.532 1.256-1.164 0-1.536-.253-1.536-.253-3.072 0-6.216-.27-5.945.02-12.432.19-4.356.04-4.36.04-8.72 0-.555-.35-.892-1.05-1.04-.54-.114-1.08.485-1.08 1.04 0 4.36.02 4.313.02 8.672 0 6.217-.18 6.264-.18 12.48 0 1.11-.65 1.75-1.76 1.75s-1.61-.64-1.65-1.75c-.17-4.713-.44-7.718-.47-10.132-.03-3.064.22-4.988.45-10.282.03-.556-.25-1.87-1.34-1.87-.55 0-.94.577-.94 1.133 0 10.576.04 10.576.04 21.15 0 2.223 1.71 4.4 3.92 4.187m10.6-25.94c.08-1.11.48-1.757 1.59-1.757s2.02.808 2.02 1.918c0 2.83-.12 2.67.02 5.49.33 6.74-.3 6.18-.1 12.34.04 1.11-.81 1.71-1.92 1.71-1.11 0-1.61-.82-1.61-1.93 0-9.06-.47-10.01.028-17.76m1.33 22.08c.9.09 1.76.09 2.37-.29.16.35.5 1.03.91 1.03.56 0 1.06-.54 1.06-1.09 0-1.51.32-2.76.32-4.27 0-6.24-.05-5.56-.05-11.8 0-2.82.19-3 .19-5.83 0-6.54-.23-6.87-.23-13.42-.025-.57-.75-.99-1.31-.99-.557 0-.85.42-.85.98 0 4.81.416 5.34.11 10.14-.59-.34-1.546-.78-2.28-.78-2.22 0-3.89 2.04-3.96 4.26-.275 8.48.137 9.06.137 18.13 0 2.22 1.36 3.73 3.57 3.95m-1.92 12.25c-.1-.09-.19-.17-.33-.38a.22.22 0 1 0-.37.24c.17.26.3.37.41.46.11.09.2.17.33.38a.222.222 0 0 0 .31.06.22.22 0 0 0 .06-.3c-.17-.25-.29-.36-.41-.46m-1.97.48a.225.225 0 0 0-.216-.23c-.12-.01-.23.09-.238.22-.025.664.08 1.004.18 1.334.096.304.186.593.163 1.18a.224.224 0 0 0 .21.23h.01c.12 0 .22-.094.222-.215a3.433 3.433 0 0 0-.19-1.33c-.09-.31-.18-.598-.16-1.18M23 41.587c.07.33.14.67.42 1.283a.233.233 0 0 0 .42-.2c-.26-.57-.32-.87-.39-1.19a5.29 5.29 0 0 0-.42-1.29.232.232 0 0 0-.424.2c.26.57.32.87.39 1.19m-.31 7.64c-.21.27-.29.44-.358.59a2.038 2.038 0 0 1-.3.5.226.226 0 0 0 .178.36c.07 0 .14-.03.18-.082.21-.27.29-.44.36-.59.067-.14.127-.27.3-.49a.226.226 0 0 0-.35-.28m2.47-9.094c-.15.31-.182.49-.215.654-.03.15-.06.29-.18.55a.226.226 0 0 0 .41.19c.14-.31.18-.49.21-.652.03-.15.06-.29.18-.55a.226.226 0 0 0-.41-.19"/>
    <path d="M22.898 44.66c-.115-.365-.248-.556-.542-.56-.274-.006-.45-.025-.745.158-.96.632-1.62.926-2.17 1.133-.94.35-1.64.79-2.18 1.11-1.32.77-2.6 1.65-5.39 1.95-1.38.15-1.98-.27-2.9-1.06-.49-.42-.85-1.03-.97-2.34-.28-3.14.25-10.98.25-22.31 0-2.2-1.74-3.74-3.89-3.84-.79-.04-1.54-.11-2.2.28-.06-.52-.54-1.12-1.09-1.12-.49 0-.8.35-.77.83.11 1.97-.16 2.08-.16 3.85 0 2.04-.12 1.97-.12 4 0 8.62.45 8.54.44 17.32 0 .39.3.74.69.75.57.02 1.52-.22 1.51-1.02-.08-8.67-.29-8.54-.4-17.07-.02-1.46-.52-4.64.23-5.46.38-.41 1.25-.37 1.81-.41 1.26-.1 1.75 1.1 1.8 2.2.55 13.57-.54 11.87-.49 21.55 0 1.5.63 3.84 1.83 4.74.81.62 2.3.93 3.39.89.44-.02.83 0 1.4-.1 3.62-.64 3.97-1.77 5.96-2.33 0 0 .69-.13 1.06-.01.1.04.2.09.32.16.68.365 1.07.195 1.57.09.5-.1.5-.07.94-.013.82.107.95.12 1.3-.07.13-.08.25-.35.12-.56a.12.12 0 0 0-.12-.06c-.512.08-.85.077-1.07.06-.24-.015-.632.03-.88-.253a.068.068 0 0 0-.09-.01c-.16.1-.264.115-.52.176-.31.08-.814-.03-.82-.12-.013-.22.32.07.795-.04.318-.08.55-.33.698-.526.25-.32.28-.44.27-.683-.01-.24.11-.553.238-.51.12.048-.05.33.07.38.12.05.19-.24.31-.195.15.06.08.08.09.23.01.082.08.21.22.31.09.06.24.11.31.15.14.08.127.24-.002.24-.14.01-.465-.36-.54-.298-.1.087.14.25-.004.29-.18.05-.162-.194-.433-.135-.08.02-.19.1-.262.2-.1.13-.16.3-.07.4.16.18.36.12.66.15.27.02.72.107 1.198-.05.33-.124.71-.27.44-.79-.48-.95-.85-1.05-1.02-1.59m15.25-39.8c.63 0 .99-.192 1.19-.792.18-.55.097-.994-.01-1.32-.19-.6-.55-.775-1.18-.775-.63 0-1.18.58-1.18 1.21 0 .23.07.47.07.61.03.63.49 1.06 1.12 1.06M26.81 45.07c.052-.187-.147-.25-.282-.506-.02-.045-.21.04-.26.05-.213.057-.48.07-.81.185-.173.07-.51.2-.322.64.066.15.205.19.393.18.26-.03 1.24-.39 1.28-.55m-.45-.86c.04-.08-.18-.42-.24-.79-.01-.03-.04-.05-.07-.04-1.63.34-1.3.73-1.23 1.09.02.15.18.15.22.15.4-.01 1.26-.31 1.31-.42M26 46.47c.54-.1 1.55-.35 1.59-.59a.445.445 0 0 0-.31-.486c-.35-.1-1.632.392-1.72.51-.09.114-.096.15-.037.286a.618.618 0 0 0 .32.286c.03.01.11.002.16-.007m1.296-.1c-.32.12-1.42.11-1.31.59.04.2.37.38 1.21.05.12-.05.25-.11.4-.15a.205.205 0 0 0 .14-.15.33.33 0 0 0-.06-.3c-.11-.16-.13-.16-.39-.05"/>
    <path d="M39.81 23.144c0-3.804-.13-3.804-.13-7.607 0-3.803-.59-3.804-.52-7.606.017-.84-.175-1.52-1.227-1.11-.652.26-1.194.91-1.232 1.61-.18 3.2.5 3.69.55 7.32.04 3.52.18 3.9.18 7.71s-.12 3.5-.12 7.3.01 3.75.01 7.55c0 1.22-.86 2.4-1.87 2.91-.65.34-1.35.63-2.25.99-2.5.94-3.35.9-3.62.83-.03-.01-.07-.02-.1-.04a2.305 2.305 0 0 1-.69-.5c-.49-.5-1.85-.03-2.2.33-.37.39-.03.99.18 1.37.42.74.18.98.49.91.24-.05.48-.27.35-.77-.18-.69-.47-.8-.39-.92.14-.19.27.17.47.53.02.03.03.11.08.07.07-.04.39-.58.44-.76.06-.21.14-.11.09.01a23.62 23.62 0 0 1-.31.81c-.05.13.04.17.08.17.11-.01.36-.1.44-.16.13-.09.16-.01.09.06-.03.04-.21.25-.56.34-.14.04-.18.24-.17.39.03.26.14.41.5.61.64.36 1.03.17 1.04.32.007.11-.32.13-.78.04-.53-.1-.65-.46-.752-.35-.13.15.11.17.12.37.007.15-.1.14-.04.32.07.19.12.16.14.25.027.11.02.17 0 .3a.075.075 0 0 0 .096.09c.76-.2 1.56-.38 1.88-.9.36-.57.46-1.02 1.62-1.46l.098-.03c1.08-.28 1.69-.68 4.21-1.65 1.9-.73 3.496-2.56 3.5-4.6.02-3.59.42-3.66.42-7.39 0-3.8-.03-3.8-.03-7.6"/>
  </g>
</svg>