<svg xmlns="http://www.w3.org/2000/svg" width="106" height="140" viewBox="0 0 106 140">
    <defs>
        <path id="a" d="M271.437 301.93H.059V.481h271.378v301.447z"/>
    </defs>
    <g fill="none" fill-rule="evenodd">
        <path fill="#1D1E1B" d="M45.247 74.285c4.19-1.012 7.166 2.99 11.14 3.519 1.934.258 3.965.128 5.651 1.246 2.169 1.44 3.895 3.592 5.575 5.553.336.392.898-.178.565-.568-1.67-1.948-3.362-3.967-5.454-5.477-1.664-1.2-3.5-1.264-5.48-1.464-4.389-.445-7.625-4.69-12.21-3.583-.5.121-.287.894.213.774"/>
        <path fill="#1D1E1B" d="M60.682 77.856c1.484-.077 2.4-.733 3.748-1.215 1.45-.517 1.988-.103 3.26.334.537.186.908.223 1.472.133.506-.08.292-.853-.212-.773-1.341.212-2.404-1.135-3.805-.838-1.593.336-2.752 1.468-4.463 1.557-.511.025-.515.828 0 .802"/>
        <path fill="#1D1E1B" d="M64.861 76.39c1.364-.763 2.613-1.687 3.696-2.821 1.165-1.219 1.985-2.768 3.4-3.727.423-.287.025-.982-.403-.692-1.227.83-1.981 2.016-2.92 3.135-1.176 1.4-2.586 2.522-4.176 3.412-.448.252-.046.945.403.693M75.148 62.31c.853-1.89 3.26-3.692 4.923-4.826 1.61-1.098 5.192-2.925 6.981-1.194l.84 2.335-.49 1.109c-.312.6-.706 1.154-1.012 1.758a12.336 12.336 0 0 0-.898 2.334c-.696 2.535-.304 5.168-.712 7.743-.079.505.69.723.77.213.285-1.802.172-3.601.317-5.412.192-2.395 1.151-4.15 2.224-6.231.943-1.827.983-3.77-1.073-4.783-2.026-.997-4.471-.244-6.32.79-2.197 1.229-5.182 3.416-6.24 5.76-.21.467.477.875.69.405M60.272 116.794c1.131-2.364 3.198-3.845 5.069-5.576 1.697-1.571 2.876-3.32 3.621-5.522.9-2.662 1.773-5.262 2.778-7.887 1.045-2.734.912-5.51.661-8.381-.043-.51-.843-.515-.798 0 .288 3.299.235 6.183-1.102 9.264-.962 2.22-1.53 4.508-2.308 6.79-.92 2.701-2.588 4.45-4.672 6.279-1.56 1.37-3.028 2.725-3.938 4.628-.222.463.466.87.69.405"/>
        <path fill="#1D1E1B" d="M72.515 93.47c3.669-7.173 8.305-13.802 12.809-20.472.29-.43-.402-.831-.69-.406-4.503 6.67-9.14 13.3-12.808 20.473-.235.458.454.864.69.405M57.72 112.963c-1.375-6.741-4.778-11.799-9.794-16.34-6.14-5.561-11.316-12.794-13.817-20.774-.154-.491-.925-.281-.77.213 2.319 7.4 6.953 14.4 12.517 19.745 2.145 2.06 4.42 3.942 6.258 6.306 2.53 3.253 4.015 7.04 4.836 11.064.103.505.872.292.77-.214M47.922 92.853c-3.127-4.77-5.839-9.752-7.388-15.28-1.462-5.213-1.555-10.883-4.315-15.657-.258-.447-.949-.044-.69.405 2.924 5.057 2.893 11.226 4.606 16.719 1.593 5.11 4.178 9.763 7.098 14.219.281.43.973.028.69-.406M48.081 77.022c-1.614.236-3.711.317-4.57-1.374-.805-1.582-.628-3.853-.35-5.546.085-.506-.685-.723-.768-.214-.334 2.02-.62 5.133.836 6.825 1.233 1.434 3.374 1.33 5.064 1.084.507-.074.292-.848-.212-.775"/>
        <path fill="#1D1E1B" d="M45.292 75.64c-.77-4.064 3.482-7.067 2.652-11.222-.1-.506-.87-.292-.77.213.81 4.06-3.437 7.076-2.652 11.223.096.507.866.292.77-.213M46.026 63.063a18.524 18.524 0 0 0-5.855-4.382c-.463-.22-.868.472-.404.693a17.99 17.99 0 0 1 5.695 4.257c.345.384.908-.185.564-.568"/>
        <path fill="#1D1E1B" d="M48.144 66.132a14.019 14.019 0 0 0 6.47-6.411c.23-.461-.459-.868-.69-.406a13.318 13.318 0 0 1-6.183 6.124c-.462.224-.058.916.403.693M53.695 58.186c-.258-1.3-.994-2.394-2.064-3.16-.42-.3-.82.396-.403.693.903.645 1.482 1.593 1.698 2.681.1.506.869.292.77-.214"/>
        <path fill="#1D1E1B" d="M54.054 60.53c2.311-.374 4.29 1.37 6.609 1.079 1.657-.209 2.975-1.203 3.852-2.595.275-.438-.416-.84-.69-.405-1.464 2.323-3.797 2.5-6.201 1.686-1.299-.44-2.411-.76-3.783-.539-.505.083-.29.857.213.775"/>
        <path fill="#1D1E1B" d="M62.586 60.604c.873 3.186 3.225 5.404 5.963 7.08 2.907 1.78 5.568 3.142 8.806 1.381.45-.246.048-.94-.403-.693-3.076 1.673-5.914-.013-8.556-1.73-2.339-1.518-4.284-3.493-5.04-6.251-.137-.498-.906-.286-.77.213"/>
        <path fill="#1D1E1B" d="M77.17 67.756l-5.19-12.718c-.193-.472-.966-.265-.77.213l5.19 12.72c.193.47.966.265.77-.215M47.086 50.21c1.973-1.651 3.753-2.81 6.42-2.19 1.814.422 3.612 1.11 5.361 1.747A86.914 86.914 0 0 1 69.89 54.7c.454.242.858-.451.403-.693-4.257-2.26-8.676-4.189-13.243-5.723-1.823-.613-3.93-1.556-5.897-1.268-1.805.264-3.276 1.492-4.631 2.626-.395.331.172.896.564.568M38.862 56.606a35.548 35.548 0 0 0 7.197-5.361c.372-.358-.194-.925-.565-.567a34.752 34.752 0 0 1-7.034 5.236c-.449.253-.046.946.402.692"/>
        <path fill="#1D1E1B" d="M40.022 62.671c-1.84-4.513-1.661-8.653-.97-13.37.48-3.28-.371-6.274-1.75-9.241-.216-.468-.905-.06-.689.405.771 1.66 1.461 3.462 1.73 5.286.319 2.179-.287 4.281-.562 6.426-.47 3.663.082 7.3 1.471 10.708.193.472.966.265.77-.214"/>
        <path fill="#1D1E1B" d="M37.343 40.369c.552-2.753 2.575-4.818 3.41-7.464.855-2.706.617-5.573.063-8.313-.102-.506-.872-.292-.77.213.658 3.255.764 6.569-.777 9.6-.978 1.923-2.263 3.593-2.695 5.75-.102.505.668.72.77.214"/>
        <path fill="#1D1E1B" d="M40.912 24.68c.144-2.193 1.493-3.872 2.321-5.828.781-1.842.908-3.865.677-5.841-.382-3.285-2.974-6.164-6.248-6.762-.502-.092-.717.682-.212.774 4.448.812 6.186 5.15 5.655 9.247-.393 3.043-2.789 5.314-2.99 8.41-.034.516.764.515.797 0M32.34 22.864l4.738-15.246c.153-.493-.617-.705-.77-.213L31.57 22.65c-.154.494.617.705.77.213M33.973 63.297c-2.708-2.801-1.612-6.848-2.362-10.317-.55-2.54-1.974-4.717-3.945-6.372-.392-.329-.96.236-.565.567 3.063 2.57 3.91 5.75 4.067 9.642.105 2.594.362 5.104 2.24 7.048.36.37.924-.197.565-.568"/>
        <path fill="#1D1E1B" d="M29.36 48.268c-.757-2.902 1.01-5.985.933-8.975-.067-2.576-.815-5.023-2.078-7.255-.255-.448-.945-.044-.69.406 1.565 2.761 2.271 5.88 1.846 9.047-.322 2.407-1.42 4.541-.781 6.99.13.5.9.288.77-.213"/>
        <path fill="#1D1E1B" d="M29.195 33.964c-.697-2.65 2.335-4.89 2.914-7.398.475-2.056.186-4.218-.604-6.157-1.313-3.223-4.17-7.104-8.054-6.577-.507.068-.292.842.211.774 4.666-.633 8.063 6.323 7.87 10.2-.119 2.388-1.328 3.896-2.474 5.852-.682 1.162-.98 2.202-.633 3.52.13.498.901.286.77-.214M35.787 39.956l-2.614.368c-.507.071-.291.845.212.774L36 40.73c.506-.071.29-.845-.212-.775"/>
        <path fill="#1D1E1B" d="M32.012 25.095c1.573.193 3.14.213 4.715.058.507-.05.512-.853 0-.803a21.391 21.391 0 0 1-4.715-.058c-.508-.062-.504.741 0 .803M38.813 24.814c-.668.35-1.37.572-2.115.686-.507.079-.291.852.212.774a7.35 7.35 0 0 0 2.306-.767c.456-.24.053-.932-.403-.693M17.976 44.112c-.615-2.665.188-5.172 1.049-7.678.742-2.162 1.363-4.3 1.728-6.562.749-4.647 1.222-9.352 1.812-14.021.065-.511-.734-.506-.798 0-.67 5.297-1.036 10.76-2.19 15.974-.92 4.158-3.38 8.132-2.37 12.5.116.504.886.29.77-.213"/>
        <path fill="#1D1E1B" d="M21.628 23.375c.484-.045.984-.025 1.436-.238.584-.275.811-.848.812-1.467.002-.517-.797-.518-.798 0-.002.907-.761.84-1.45.903-.508.047-.513.85 0 .802"/>
        <path fill="#1D1E1B" d="M24.004 15.996a13.768 13.768 0 0 0-.926 5.674c.024.514.822.517.798 0-.085-1.89.214-3.7.897-5.46.187-.482-.584-.69-.77-.214M20.26 53.423c.342 2.347 1.854 4.028 3.29 5.806 1.923 2.38 2.52 4.895 3.35 7.77.143.496.913.285.77-.213-.671-2.324-1.094-4.75-2.503-6.76-1.548-2.207-3.728-4.006-4.137-6.817-.073-.509-.843-.293-.77.214"/>
        <path fill="#1D1E1B" d="M26.851 66.818a11.072 11.072 0 0 0 4.847 6.498c.438.274.84-.42.404-.693-2.221-1.389-3.78-3.486-4.481-6.019-.138-.497-.908-.285-.77.214M8.038 43.069c2.39-.865 6.503.275 8.31 2.013 1.993 1.917 2.727 5.126 3.652 7.643.178.48.949.273.77-.213-1.035-2.815-1.874-6.477-4.35-8.427-2.073-1.634-6.058-2.708-8.594-1.79-.48.173-.273.95.212.774M7.695 44.988c.36 2.23 1.614 3.99 2.686 5.926 1.294 2.338 2.035 4.897 2.617 7.494 1.047 4.686 1.646 9.484 4.007 13.743.25.45.94.046.688-.406-2.431-4.387-2.944-9.375-4.07-14.186-.5-2.13-1.132-4.243-2.105-6.206-1.09-2.197-2.653-4.093-3.053-6.579-.082-.508-.851-.293-.77.214M18.048 75.034c.175 3.064.636 6.087 1.435 9.052.844 3.131 2.188 6.034 3.28 9.075 2.214 6.168 4.731 13.307 3.748 19.922-1.703 11.454-6.617 23.316-15.51 30.957-.39.337.177.903.565.569 8.862-7.617 13.67-19.226 15.597-30.582 1.103-6.505-.918-12.752-2.895-18.903-1.041-3.24-2.513-6.313-3.525-9.56a43.729 43.729 0 0 1-1.897-10.53c-.03-.514-.827-.517-.798 0M49.318 142.955c2.024-3.794 3.922-7.585 5.19-11.709 1.25-4.064 2.251-8.224 4.862-11.67.31-.41-.382-.81-.69-.405-2.382 3.145-3.46 6.885-4.569 10.62-1.338 4.504-3.277 8.625-5.482 12.758-.243.455.446.861.689.406M65.661 106.435a8.307 8.307 0 0 0-3.979-5.469c-.445-.26-.847.434-.403.693 1.88 1.09 3.153 2.86 3.613 4.99.108.504.878.29.77-.214M66.989 102.473l-.846-1.264c-.285-.427-.977-.026-.69.404l.846 1.265c.286.426.977.025.69-.405M69.18 100.901c-.303-.753-.88-1.304-1.663-1.526-.496-.14-.707.634-.213.774.496.14.91.48 1.107.966.19.472.964.265.77-.214M68.266 80.534c1.313 2.362 2.78 4.823 5.35 5.947.468.205.874-.486.404-.693-2.451-1.073-3.813-3.408-5.064-5.659-.25-.45-.94-.046-.69.405M71.388 69.457c1.21 2.922 3.94 4.834 7.1 4.905.514.012.514-.79 0-.803a7.008 7.008 0 0 1-6.33-4.316c-.195-.47-.967-.264-.77.214M62.716 55.866l-1.402 1.788c-.316.401.246.972.564.567l1.403-1.787c.314-.401-.247-.973-.565-.568M72.77 60.278c-1.026.268-1.441 1.303-1.16 2.291.195.685.675 1.214 1.1 1.764.722.93 1.327 1.914 1.856 2.967.232.461.92.055.689-.405-.44-.878-.93-1.716-1.509-2.51-.466-.64-2.567-2.863-.763-3.334.496-.129.286-.903-.212-.773M25.017 46.597l-1.8 1.259c-.419.293-.02.989.403.693l1.8-1.26c.418-.293.02-.989-.403-.692M25.48 33.656a7.69 7.69 0 0 0-2.545.313c-.49.145-.282.92.213.773a7.003 7.003 0 0 1 2.332-.284c.514.023.512-.78 0-.802"/>
        <path fill="#1D1E1B" d="M20.023 53.162c-.957 1.163-2.147 2.069-3.54 2.64-.47.191-.265.968.212.773 1.523-.624 2.842-1.569 3.893-2.845.325-.395-.237-.966-.565-.568M20.927 55.427a4.037 4.037 0 0 0-1.758 1.734c-.24.457.45.863.69.405a3.313 3.313 0 0 1 1.47-1.446c.46-.232.056-.924-.402-.693M25.913 67.655a6.188 6.188 0 0 1-3.644 2.607c-.497.13-.286.905.212.774a7.027 7.027 0 0 0 4.12-2.975c.286-.432-.406-.834-.688-.406M26.485 70.066l-1.603 1.432c-.385.344.181.91.565.568l1.602-1.432c.385-.344-.182-.91-.564-.568M31.717 78.403a55.814 55.814 0 0 1-5.28 3.495c-.444.26-.043.953.403.693a55.731 55.731 0 0 0 5.28-3.495c.408-.305.01-1.002-.403-.693M29.184 83.043a5.528 5.528 0 0 0-2.864 1.201c-.402.321.166.887.565.568a4.545 4.545 0 0 1 2.299-.967c.504-.06.51-.863 0-.802M62.75 112.883c-.606-3.532-2.183-6.69-4.616-9.307-.352-.378-.916.19-.565.568 2.346 2.523 3.828 5.55 4.41 8.952.087.508.857.293.77-.213M28.807 117.043a137.057 137.057 0 0 1-3.305 9.698c-.185.482.587.69.77.214a136.377 136.377 0 0 0 3.304-9.698c.149-.496-.62-.708-.77-.214M22.673 133.22a15.663 15.663 0 0 0-2.203 2.462c-.303.418.39.82.69.406a14.69 14.69 0 0 1 2.077-2.3c.384-.346-.182-.912-.564-.568M54.533 118.379a24.155 24.155 0 0 0-4.761-8.014c-.344-.386-.907.183-.564.567a23.093 23.093 0 0 1 4.556 7.66c.172.482.944.274.77-.213M29.346 90.768l-.337.592c-.256.449.433.854.689.404l.337-.59c.256-.45-.434-.854-.69-.406M46.512 80.564c2.79 2.061 6.24 3.27 9.505 4.33 3.105 1.008 6.312 1.909 9.558 2.308.509.062.504-.74 0-.803-3.17-.389-6.315-1.296-9.346-2.28-3.21-1.04-6.571-2.221-9.314-4.247-.414-.307-.814.389-.403.692M46.742 85.12c3.996 3.542 8.75 6.5 14.026 7.565.502.101.716-.672.213-.774-5.14-1.037-9.782-3.908-13.675-7.359-.384-.34-.95.225-.564.568M10.49 3.924c-2.168 1.2-3.754 3.117-4.559 5.467-.168.488.603.699.77.212a8.976 8.976 0 0 1 4.192-4.985c.45-.25.047-.943-.403-.694M1.528.96A16.112 16.112 0 0 0 .314 6.683c-.016.516.782.515.798 0a15.522 15.522 0 0 1 1.186-5.511c.196-.477-.576-.685-.77-.214M98.511 69.688v4.815c0 .516.798.518.798 0v-4.815c0-.517-.798-.518-.798 0M104.952 72.397l-.4 2.407c-.083.506.686.723.77.214l.4-2.408c.083-.505-.686-.723-.77-.213M79.949 105.664l-2.56 5.948c-.202.47.486.88.69.406l2.56-5.948c.2-.469-.486-.88-.69-.406M81.401 110.819a16.063 16.063 0 0 1-3.53 4.333c-.39.337.177.903.565.567a16.69 16.69 0 0 0 3.654-4.495c.253-.451-.437-.857-.689-.405M12.36 99.077c.738 3.42.97 6.85.71 10.338-.038.514.761.513.799 0a36.685 36.685 0 0 0-.74-10.553c-.11-.504-.88-.29-.77.215M7.115 105.51c.271 1.401.271 2.799 0 4.2-.098.505.672.721.77.214.3-1.547.3-3.081 0-4.628-.098-.506-.868-.292-.77.214"/>
    </g>
</svg>
