<?xml version="1.0" encoding="UTF-8"?>
<svg width="320px" height="88px" viewBox="0 0 320 88" version="1.1" xmlns="http://www.w3.org/2000/svg" xmlns:xlink="http://www.w3.org/1999/xlink">
    <!-- Generator: Sketch 48.2 (47327) - http://www.bohemiancoding.com/sketch -->
    <title>Page 1</title>
    <desc>Created with Sketch.</desc>
    <defs></defs>
    <g id="Homepage-Mobile" stroke="none" stroke-width="1" fill="none" fill-rule="evenodd" transform="translate(0.000000, -1577.000000)">
        <g id="Page-1" transform="translate(-229.000000, 1576.000000)">
            <polygon id="Fill-1" fill="#FFFFFF" points="406.05273 44.9475415 409.305844 38.3935415 413.640267 41.9020537 412.241088 45.2608179 410.426657 46.4578829 407.276437 45.9232"></polygon>
            <g id="Group-238" transform="translate(0.000000, 0.039504)">
                <path d="M385.597709,51.6466959 C385.569229,50.7702569 385.44888,49.8680943 385.287189,48.8997854 C385.122741,47.9158585 384.950026,46.9346878 384.779148,45.9525984 C384.760774,45.7036309 384.72862,45.4500699 384.661554,45.1836472 C384.649611,45.1322 384.633075,45.0825902 384.620213,45.0320618 C384.324392,43.3462488 384.023977,41.6604358 383.723563,39.9755415 C383.22379,37.1588098 383.125489,32.5901187 381.405685,29.7706309 C381.205408,29.3875333 380.939904,29.0421024 380.618359,28.738013 C379.955977,28.0489886 379.119961,27.5639154 378.057945,27.3765008 C377.536124,27.1247772 376.909571,26.9998341 376.181042,27.0494439 L374.382229,27.1725496 C373.662888,27.2221593 373.051034,27.4031431 372.537481,27.6741593 C372.257278,27.7458179 371.974319,27.8505496 371.688603,27.9901919 C362.702807,32.5138667 351.387189,32.5267285 341.56905,33.1973789 C330.377457,33.9617366 319.167489,34.4330293 307.95201,34.6351431 C307.606579,34.641574 307.289628,34.690265 306.99105,34.763761 L160.361148,27.9369073 C145.109823,27.2276715 129.859416,26.5165984 114.60901,25.8073626 C113.984294,25.7788829 113.438587,25.8735089 112.967294,26.0600049 C107.738059,25.6603707 102.481262,25.5629886 97.2253837,25.5602325 C95.7453593,25.5602325 94.2644163,25.5620699 92.7834732,25.5629886 C65.2803756,23.6217772 37.6459041,23.408639 10.2107902,20.5119805 C8.4533187,20.1913545 6.69952195,19.8578667 4.9484813,19.4958992 C0.953058537,18.6690699 -1.19945366,23.4316065 0.698578862,25.8698341 C0.585578862,26.9153138 0.907123577,27.9892732 1.86073333,28.8381512 C2.03804228,28.9961675 2.22086341,29.1449967 2.40276585,29.2965821 C2.51852195,29.9800943 2.67010732,30.9943382 2.67194472,30.9998504 C2.89335122,32.0297122 3.11475772,33.059574 3.33616423,34.0885171 C3.74314797,35.9755252 4.14921301,37.863452 4.55527805,39.7504602 C4.92918862,41.4858829 5.35270894,43.1184114 5.24889593,44.9034439 C5.14692033,46.6691837 4.78954634,48.3467285 4.99074146,50.1216553 C5.21949756,52.1501431 6.06745691,54.117078 7.49603415,55.5135008 C7.97375772,56.9292163 9.16531057,58.1014764 11.0706927,58.1961024 C32.7575057,59.2645496 54.4737171,59.6733707 76.185335,59.3904114 C86.9534081,59.2489317 97.7196439,58.9402488 108.477611,58.4652813 C112.911254,58.2686797 117.355002,58.0968829 121.785888,57.8102488 C122.019237,57.834135 122.261774,57.846078 122.521766,57.8295415 C134.556725,57.073452 146.596278,56.3926959 158.639506,55.7799236 C172.841676,56.2034439 187.048441,56.4395496 201.25888,56.2659154 C225.239685,55.9746878 249.065229,53.8139073 272.960595,52.1391187 C274.237587,52.1235008 275.51366,52.1032894 276.790652,52.0885902 C283.784709,52.0086634 290.778766,51.9544602 297.772823,51.9241431 C307.531246,52.6591024 317.211579,53.1202894 326.9994,52.9347122 C328.589668,52.9043951 330.167993,52.9310374 331.736213,53.0063707 C332.170758,53.1175333 332.603465,53.2323707 333.037091,53.3527203 C340.010018,55.3031187 346.36466,58.9255496 353.352286,60.8373626 C361.108863,62.958639 369.111652,64.3366878 376.972961,66.0123951 C380.763514,66.8199317 382.893059,62.5727854 381.477343,60.0417691 C381.636278,59.8277122 381.777758,59.6017122 381.901782,59.3692813 C381.919237,59.3545821 381.93118,59.3453951 381.950473,59.3288585 C382.187498,59.1478748 382.421766,58.9650537 382.654197,58.7794764 C383.171424,58.3136959 383.722644,57.7661512 384.081855,57.1552163 C384.113091,57.1019317 384.139733,57.0449724 384.169132,56.9907691 C385.690498,55.7165333 386.087376,53.6586472 385.597709,51.6466959" id="Fill-4" fill="#EFEBD3"></path>
                <path d="M412.53158,43.7515789 C411.911459,44.6179122 411.184767,45.3795138 410.345995,46.0373024 C408.869646,45.931652 407.438312,45.5632537 406.052914,44.9082211 C406.808085,43.7332049 407.318881,42.4552943 407.770881,41.1406358 C408.066702,40.7455951 408.299133,40.3349366 408.424076,39.9196846 C409.364824,40.2017252 410.318434,40.477335 411.198548,40.9155545 C411.79754,41.2141317 412.27802,41.6514325 412.780548,42.0574976 C412.557304,42.5921805 412.472784,43.180148 412.53158,43.7515789 M813.503353,61.0075057 C812.639776,53.6597496 811.776198,46.3119935 810.911702,38.9642374 C811.793654,36.7961073 810.091304,33.9389528 807.718304,33.5530992 C807.190971,33.4189691 806.609434,33.4015138 805.985637,33.5227821 C786.009442,33.7331642 766.039678,34.347774 746.089207,35.3592618 C717.583808,34.8401967 689.079328,36.9807659 660.577605,38.1181154 C643.093841,38.4635463 625.619263,39.2095301 608.169491,40.3413675 C572.021434,41.381335 535.878889,42.654652 499.748288,44.1897984 C489.053711,44.6445545 478.360971,45.122278 467.66915,45.6192943 C461.566231,44.8466683 455.446776,44.1824488 449.36315,43.2986602 C446.632776,42.0152374 443.991515,40.5517496 441.638727,38.6950585 C439.520207,37.023026 437.883085,34.8622455 435.736085,33.226961 C433.768231,31.7285626 432.522475,29.4051724 430.255125,28.3505057 C427.691954,27.1580341 425.3998,28.1153187 422.764971,28.1777902 C419.84902,28.2466927 417.161824,27.3013512 414.260572,27.9655707 C414.136548,27.9389285 414.018954,27.9040179 413.886662,27.8874813 C413.049727,27.784587 412.213711,27.699148 411.374938,27.6247333 C410.711637,27.4869285 410.04558,27.3555545 409.362068,27.3803593 C407.575198,27.4419122 405.107572,28.4497252 404.097003,29.9857902 C403.328971,31.1525382 402.123637,32.032652 401.904987,33.5080829 C401.623865,35.3950911 402.954141,37.1093837 404.224702,38.3523837 C404.298198,38.424961 404.380881,38.4800829 404.459889,38.5425545 C404.010646,38.6748472 403.59815,38.9091154 403.22332,39.1994244 C401.389597,39.7368634 399.96745,41.2940585 399.784629,43.2637496 C399.707459,44.0970098 399.821377,44.7869528 400.06667,45.385026 C400.148434,45.8857171 400.319312,46.374465 400.541637,46.8430016 C400.75202,47.2848959 401.00558,47.6780992 401.303239,48.0630341 C401.34458,48.1172374 401.396946,48.1741967 401.452068,48.2329935 C401.400621,48.3009772 401.35193,48.3744732 401.30967,48.4599122 C400.480085,50.121839 399.583434,51.5568472 400.622483,53.3850585 C401.495247,54.9211236 403.068979,55.5384894 404.396499,56.5224163 C403.802101,57.1581561 403.568751,57.9307821 403.578857,58.746587 C403.310597,59.5054325 403.381337,60.3607415 403.995028,61.1664407 C404.16958,61.3961154 404.344133,61.6248715 404.518686,61.8536276 C404.797052,62.2192699 405.112166,62.503148 405.447491,62.7190423 C407.770881,64.6630098 410.743792,65.4246114 413.691898,66.1347659 C415.627597,66.6005463 417.557784,66.9110667 419.499914,67.117774 C422.402085,68.1944894 425.725938,68.2891154 428.7898,68.4526439 C431.106759,68.5757496 433.43658,68.4700992 435.642377,67.6928797 C437.729662,66.9560829 439.619426,65.7902537 441.733353,65.1067415 C446.294694,63.633148 451.075605,63.3382455 455.81793,62.9257496 C457.000296,62.8228553 458.179906,62.7006683 459.359515,62.5711317 C492.474946,64.6731154 525.610589,61.5568878 558.735207,60.9836195 C562.040686,60.9257415 565.346166,60.8990992 568.652564,60.902774 C581.830385,61.647839 595.031174,62.0254244 608.223694,62.4195463 C627.724922,63.0029203 647.16919,63.181148 666.641938,61.7985057 C670.682377,61.5109528 674.724654,61.2206439 678.767849,61.0139366 C687.988833,61.4356195 697.202467,62.1025951 706.426207,63.1398065 C717.057393,64.3341154 727.683068,65.5881398 738.379483,66.0043106 C749.033637,66.4186439 759.697898,66.1917252 770.351133,65.9179528 C781.758621,65.6248878 793.16519,65.3226358 804.571759,65.0231398 C805.582328,65.1388959 806.59106,65.263839 807.598873,65.4053187 C808.936499,65.5927333 810.259426,65.3391724 811.217629,64.5702211 C812.576385,63.9096764 813.678824,62.5040667 813.503353,61.0075057" id="Fill-6" fill="#D6906D"></path>
                <path d="M460.371646,52.9430724 C460.341329,52.5370073 460.200768,52.2035195 459.999573,51.9370967 C460.007841,50.6729667 459.909541,49.4033244 459.69824,48.1116333 C459.626581,47.6798447 459.448354,47.3638122 459.208573,47.1460805 C459.162638,46.8034057 459.116703,46.4616496 459.065256,46.1189748 C459.021159,45.8268285 458.905402,45.5842919 458.740955,45.3904463 C458.644492,44.6224138 458.441459,44.0868122 457.440996,43.9003163 C455.831435,43.6008203 454.211768,43.348178 452.598533,43.0716496 C452.073037,42.9816171 451.383093,43.4253488 451.624711,44.044552 C451.686264,44.2007309 451.741386,44.3569098 451.792833,44.5130886 L452.117134,45.9297228 C452.178687,46.1979829 452.322923,46.3605927 452.500232,46.4414382 C452.502988,46.4671618 452.503907,46.4919667 452.5085,46.5176902 C452.83372,48.0987715 453.20763,49.6605602 453.62472,51.2131618 C453.872768,53.9086252 453.508045,56.6803407 452.551679,59.2131943 C452.511256,59.278422 452.473589,59.3464057 452.432248,59.4116333 C452.267801,59.6679504 452.182362,59.9242675 452.154801,60.1704789 C452.040882,60.4258772 451.921451,60.6794382 451.794671,60.927487 C451.376663,61.746048 452.351402,62.4690642 453.037671,61.8866089 C453.056045,61.8709911 453.074419,61.8553732 453.093711,61.8397553 C453.512638,62.0841293 454.01976,62.2017228 454.517695,62.1236333 C455.8985,61.907739 457.52276,62.442422 458.445134,61.0992837 C459.005541,60.2843976 459.19663,59.2673976 459.546654,58.3275683 C459.694565,58.0345033 459.834207,57.7350073 459.9665,57.4309179 C459.971093,57.4226496 459.974768,57.4125439 459.98028,57.4042756 L459.978443,57.4033569 C460.041833,57.2572837 460.105224,57.1121293 460.166776,56.9633 C460.377159,56.453422 460.322955,55.9995846 460.113492,55.6339423 C460.387264,54.8061943 460.443305,53.9077065 460.371646,52.9430724" id="Fill-8" fill="#E35205"></path>
                <path d="M406.238859,45.231052 C407.482777,42.9912634 408.418932,40.607239 408.965558,38.1019463 C409.200745,37.0233935 409.333037,35.9402472 409.457062,34.8451577 C409.533314,34.1726699 409.600379,33.4073935 409.982558,32.8203447 C410.493354,32.0385317 411.412972,31.7197431 412.244395,31.4184098 C414.862688,30.4712309 417.523241,29.6361333 420.209517,28.9039301 C422.795655,28.1974504 426.04785,26.9324016 428.718509,27.7509626 C431.331289,28.5511496 433.320273,31.2622309 435.060289,33.2282472 C436.747021,35.134548 438.407111,37.0785154 440.327192,38.7588163 C441.934915,40.1653447 443.719029,41.398239 445.715363,42.1855642 C448.091119,43.1208 450.680932,43.3017837 453.193574,43.5957675 C456.465062,43.9779463 459.735631,44.3601252 463.007119,44.7423041 C464.555127,44.9223691 466.104054,45.1465317 467.655737,45.2852553 C468.736127,45.3798813 469.822948,45.3054667 470.903338,45.4028488 C471.24142,45.4331659 471.238663,44.9049138 470.903338,44.8745967 C469.961672,44.7909951 469.01633,44.843361 468.074663,44.7891577 C466.556972,44.7000439 465.033769,44.4501577 463.523428,44.2746862 C460.596452,43.9329301 457.669476,43.591174 454.74342,43.2494179 C451.785208,42.903987 448.652444,42.7873122 445.855924,41.6766049 C443.33685,40.6761415 441.174233,38.9416374 439.26885,37.0472797 C437.247712,35.0371659 435.470029,32.8028894 433.508607,30.736735 C431.969785,29.1152309 430.272948,27.3724585 427.952314,27.0481577 C425.436915,26.6972146 422.700111,27.6829789 420.30598,28.3306618 C417.617867,29.0573528 414.956395,29.8869382 412.335346,30.8267675 C411.418485,31.1556618 410.383111,31.4698569 409.742777,32.254426 C409.063859,33.0886049 409.004143,34.1956374 408.892062,35.2209057 C408.516314,38.6641902 407.464403,41.9375154 405.783184,44.9646293 C405.617818,45.2613691 406.073493,45.5277919 406.238859,45.231052" id="Fill-10" fill="#081F2C"></path>
                <path d="M406.547082,29.500074 C408.24392,30.150513 409.939838,30.8018707 411.635757,31.4523098 C411.953627,31.5744967 412.090513,31.0646187 411.776318,30.9433504 C410.080399,30.2929114 408.383562,29.6415537 406.687643,28.9901959 C406.370692,28.8689276 406.232887,29.3788057 406.547082,29.500074" id="Fill-12" fill="#081F2C"></path>
                <path d="M411.057528,30.6565325 C411.110812,29.7488577 410.799373,28.899061 410.19395,28.2247358 C409.966113,27.9711748 409.59404,28.3450854 409.82004,28.5977276 C410.338186,29.173752 410.575211,29.8866626 410.530194,30.6565325 C410.509983,30.9955325 411.038235,30.9946138 411.057528,30.6565325" id="Fill-14" fill="#081F2C"></path>
                <path d="M411.907141,31.1168008 C412.192856,30.5913049 412.330661,30.0180366 412.306775,29.4190447 C412.292994,29.0809634 411.765661,29.079126 411.779441,29.4190447 C411.799653,29.9280041 411.694921,30.4038902 411.451466,30.8512967 C411.289775,31.1489553 411.744531,31.415378 411.907141,31.1168008" id="Fill-16" fill="#081F2C"></path>
                <path d="M408.432437,38.1945512 C407.283144,38.085226 405.763615,38.2037382 404.674038,37.8380959 C403.633152,37.4889902 402.598697,35.110478 402.331355,34.1100146 C401.933559,32.6180472 403.010274,31.4145512 403.861908,30.3001691 C404.633615,29.2932748 405.512811,28.3019984 406.642811,27.6883073 C407.953794,26.9772341 409.39064,27.084722 410.827485,27.1756732 C412.203697,27.2629496 413.579908,27.350226 414.955201,27.4384211 C417.878502,27.6239984 420.802721,27.8095756 423.726022,27.9951528 C424.065022,28.0172016 424.064103,27.4898683 423.726022,27.4678195 C419.942819,27.2271203 416.159615,26.9873398 412.375493,26.7466407 C410.850453,26.6501772 409.198632,26.3617057 407.691046,26.7236732 C406.504087,27.0075512 405.490762,27.725974 404.641884,28.5812829 C403.008437,30.2266732 401.029559,32.4159333 402.041965,34.8128195 C402.298282,35.4209984 402.604209,36.0135593 402.934022,36.5849902 C403.172884,37.001161 403.626721,38.0282667 404.070453,38.2855024 C404.452632,38.5069089 405.177485,38.4132016 405.612949,38.4545431 C406.552778,38.5436569 407.492607,38.6336894 408.432437,38.7218846 C408.770518,38.754039 408.767762,38.225787 408.432437,38.1945512" id="Fill-18" fill="#081F2C"></path>
                <path d="M415.55502,45.1386309 C418.319385,42.1602081 417.70845,37.4197203 420.921141,34.7711106 C421.183889,34.5542976 420.80906,34.1831431 420.549068,34.3981187 C417.303304,37.0733707 417.944556,41.7890537 415.182028,44.765639 C414.951434,45.0136878 415.323507,45.3875984 415.55502,45.1386309" id="Fill-20" fill="#081F2C"></path>
                <path d="M405.936974,45.9963285 C408.038958,47.4010195 410.557112,47.7289951 412.940218,46.8663366 C413.25625,46.7514992 413.119364,46.2425398 412.799657,46.3582959 C410.535063,47.1777756 408.205242,46.8782797 406.203397,45.5406537 C405.919519,45.3514016 405.655852,45.8089138 405.936974,45.9963285" id="Fill-22" fill="#081F2C"></path>
                <path d="M417.757601,40.8896472 C418.849934,40.0334195 420.204097,39.8257935 421.471902,39.3499073 C422.482471,38.9714033 423.403926,38.4431512 424.267503,37.7973057 C424.535763,37.5961106 424.273015,37.1376797 424.00108,37.3416309 C422.829739,38.2180699 421.575715,38.7913382 420.180211,39.2166959 C419.161373,39.528135 418.230731,39.8542732 417.384609,40.5166553 C417.117267,40.7261187 417.493015,41.0972732 417.757601,40.8896472" id="Fill-24" fill="#081F2C"></path>
                <path d="M419.161649,40.0005301 C420.186917,40.5783919 419.729405,42.3625057 419.682551,43.293148 C419.625592,44.4286602 419.599868,45.4961886 418.53234,46.185213 C417.280153,46.9936683 415.401413,47.3675789 413.961811,47.7414894 C411.46938,48.3910098 408.932852,48.3110829 406.377031,48.2881154 C406.038031,48.2853593 406.038031,48.8136114 406.377031,48.8163675 C408.229128,48.8319854 410.106031,48.9091561 411.947104,48.6758065 C413.669665,48.4571561 415.326998,47.916961 416.966876,47.3675789 C418.605836,46.8181967 419.940706,46.2623837 420.144657,44.3717008 C420.29073,43.0248878 420.909015,40.3790341 419.428072,39.545774 C419.131332,39.3785707 418.864909,39.8342455 419.161649,40.0005301" id="Fill-26" fill="#081F2C"></path>
                <path d="M400.599699,43.0903911 C400.749447,40.7807813 402.337878,39.1216106 404.470179,38.4041065 C404.790805,38.2966187 404.653,37.7876593 404.329618,37.8960659 C401.960293,38.6916593 400.236813,40.5391634 400.072366,43.0903911 C400.050317,43.4293911 400.57765,43.4275537 400.599699,43.0903911" id="Fill-28" fill="#081F2C"></path>
                <path d="M401.899291,47.5888016 C401.540998,47.1579317 401.183624,46.7270618 400.82625,46.2952732 C400.609437,46.0343626 400.237364,46.4091919 400.453259,46.668265 C400.810633,47.1000537 401.168925,47.5309236 401.526299,47.9617935 C401.743112,48.2236228 402.114267,47.8487935 401.899291,47.5888016" id="Fill-30" fill="#081F2C"></path>
                <path d="M430.204413,36.9842569 C428.783185,37.4840293 427.343584,37.9148992 425.881933,38.2787041 C425.553039,38.3604683 425.691763,38.8694276 426.022494,38.7876634 C427.484145,38.4229398 428.922828,37.9929886 430.344055,37.4932163 C430.662844,37.381135 430.525958,36.8712569 430.204413,36.9842569" id="Fill-32" fill="#081F2C"></path>
                <path d="M417.05645,53.6151008 C418.582409,53.1796374 420.09275,52.6173935 420.713791,51.0289626 C421.006856,50.2774667 421.061978,49.4478813 420.958165,48.6541252 C420.816685,47.5847593 419.809791,46.2682634 420.014661,45.2117593 C420.079889,44.8791902 419.570929,44.7377106 419.50662,45.0702797 C419.227336,46.5089626 420.398677,47.6656049 420.474011,49.1061252 C420.598035,51.5002553 418.975612,52.5200114 416.915889,53.1061415 C416.58975,53.1989301 416.728474,53.7088081 417.05645,53.6151008" id="Fill-34" fill="#081F2C"></path>
                <path d="M401.502229,54.4916317 C405.360766,58.5706561 411.414993,54.3437211 415.878034,53.849461 C416.212441,53.812713 416.216115,53.2853797 415.878034,53.3221276 C413.540863,53.5802821 411.359872,54.4530463 409.114571,55.0961358 C406.573449,55.8237455 403.871554,56.2288919 401.875221,54.1186398 C401.640953,53.8705911 401.26888,54.2445016 401.502229,54.4916317" id="Fill-36" fill="#081F2C"></path>
                <path d="M401.407603,47.6659724 C401.425977,48.4542163 400.953766,49.0311593 400.634977,49.7119154 C400.360286,50.2980455 400.283115,50.8621268 400.388766,51.5006228 C400.443888,51.8350293 400.951928,51.6935496 400.897725,51.3600618 C400.667132,49.9673138 401.966172,49.0329967 401.934937,47.6659724 C401.927587,47.3269724 401.400254,47.3260537 401.407603,47.6659724" id="Fill-38" fill="#081F2C"></path>
                <path d="M405.142483,49.8057146 C405.564166,51.2168366 405.637662,52.6389829 405.34919,54.0840967 C405.283044,54.4157472 405.792003,54.5581455 405.85815,54.2246577 C406.164995,52.687674 406.099767,51.1672268 405.651442,49.6660724 C405.55406,49.3408528 405.045101,49.4795764 405.142483,49.8057146" id="Fill-40" fill="#081F2C"></path>
                <path d="M416.537476,49.2620285 C416.6762,49.9528902 416.733159,50.6455894 416.717541,51.349313 C416.710192,51.6892317 417.238444,51.6892317 417.245793,51.349313 C417.26233,50.5987358 417.193428,49.8573455 417.046436,49.1214675 C416.979371,48.7888984 416.47133,48.930378 416.537476,49.2620285" id="Fill-42" fill="#081F2C"></path>
                <path d="M417.944648,49.6532106 C418.060404,50.2145358 418.100827,50.7767797 418.074185,51.350048 C418.058567,51.689048 418.5859,51.6881293 418.601518,51.350048 C418.630916,50.729926 418.57855,50.1199098 418.453607,49.5126496 C418.384705,49.1800805 417.876664,49.3215602 417.944648,49.6532106" id="Fill-44" fill="#081F2C"></path>
                <path d="M403.249963,40.664474 C402.413028,42.1307179 402.17141,43.7650837 402.538889,45.4113927 C402.612385,45.7430431 403.121345,45.6024821 403.04693,45.2717504 C402.710686,43.7632463 402.939442,42.2731163 403.705637,40.9308967 C403.874678,40.6359943 403.419003,40.3695715 403.249963,40.664474" id="Fill-46" fill="#081F2C"></path>
                <path d="M401.854826,40.8053106 C401.441411,41.475961 401.242972,42.2329691 401.278802,43.0202943 C401.29442,43.3583756 401.821753,43.360213 401.806135,43.0202943 C401.774899,42.3174894 401.941184,41.6698065 402.310501,41.0717333 C402.488728,40.7823431 402.033054,40.516839 401.854826,40.8053106" id="Fill-48" fill="#081F2C"></path>
                <path d="M404.128239,56.0894333 C404.006052,56.4091407 403.4778,56.4431325 403.309678,56.7481407 C403.23067,56.8932951 403.231589,57.0384496 403.18841,57.2001407 C402.977109,57.9819537 403.087353,59.1771813 403.239857,59.9700187 C403.382255,60.7104902 403.710231,61.3811407 404.290849,61.8790756 C404.582995,62.1289618 404.926589,62.2254252 405.233434,62.4330512 C405.667979,62.7288724 405.902247,63.1496366 406.301881,63.4638317 C406.565548,63.6714577 406.942215,63.301222 406.674873,63.0908398 C406.232979,62.7426528 405.98493,62.2805472 405.499857,61.9773764 C404.521442,61.3664415 403.934393,60.9291407 403.733198,59.6622545 C403.601824,58.8326691 403.502605,57.538222 404.077711,56.8556285 C404.422223,56.4458886 404.439678,56.7453846 404.637198,56.2299943 C404.758467,55.9130431 404.248589,55.7752382 404.128239,56.0894333" id="Fill-50" fill="#081F2C"></path>
                <path d="M409.43143,62.3902398 C411.600479,61.913435 413.873341,61.5827033 415.999211,60.9432886 C417.423194,60.5151748 418.501747,59.2069472 419.472812,58.1357439 C420.37865,57.1380366 420.277593,56.208313 419.674007,55.0590203 C419.027243,53.8270447 418.074552,53.5495976 416.742438,53.4467033 C416.404357,53.420061 416.406194,53.948313 416.742438,53.9740366 C417.674918,54.0466138 418.533902,54.1899309 419.067666,55.0452398 C419.540796,55.8013293 419.671251,56.7705569 419.246812,57.610248 C419.020812,58.0567358 418.359349,58.5068984 418.004731,58.8615163 C417.621633,59.2436951 417.257828,59.665378 416.813178,59.9768171 C415.812715,60.6777846 414.33269,60.774248 413.155837,61.0324024 C411.86782,61.3153618 410.579804,61.5992398 409.290869,61.8812805 C408.959219,61.9538577 409.09978,62.4628171 409.43143,62.3902398" id="Fill-52" fill="#081F2C"></path>
                <path d="M412.085276,63.5916228 C412.445407,62.5553301 413.211602,61.7569805 414.212984,61.318761 C414.524423,61.1846309 414.255244,60.7298748 413.94748,60.8640049 C412.818398,61.3555089 411.979626,62.2925821 411.576317,63.4510618 C411.465154,63.7726065 411.974114,63.9113301 412.085276,63.5916228" id="Fill-54" fill="#081F2C"></path>
                <path d="M406.391822,58.8797065 C406.548001,60.2265195 407.067066,61.4272593 407.949017,62.4589585 C408.169505,62.717113 408.541578,62.3432024 408.322009,62.085048 C407.539277,61.1700236 407.058798,60.0776902 406.919155,58.8797065 C406.88057,58.5462187 406.353237,58.5425439 406.391822,58.8797065" id="Fill-56" fill="#081F2C"></path>
                <path d="M405.487454,60.5573431 C405.615154,61.0911073 405.989983,61.4898228 406.497105,61.6855057 C406.814056,61.806774 406.951861,61.2968959 406.637666,61.1756276 C406.301422,61.0460911 406.079097,60.7612943 405.996414,60.4167821 C405.917406,60.0869691 405.408446,60.2266114 405.487454,60.5573431" id="Fill-58" fill="#081F2C"></path>
                <path d="M418.864725,58.2417618 C418.828896,59.6142984 418.925359,60.9721358 419.14401,62.3262984 C419.197294,62.6616236 419.706254,62.5192252 419.65205,62.1866561 C419.441668,60.8775098 419.358067,59.566526 419.392059,58.2417618 C419.401246,57.9027618 418.872993,57.9027618 418.864725,58.2417618" id="Fill-60" fill="#081F2C"></path>
                <path d="M419.9193,51.7336967 C421.318479,55.0566317 420.611999,59.3837049 423.78243,61.7833472 C424.053446,61.9882171 424.316194,61.5307049 424.048853,61.3276724 C421.063999,59.0685911 421.747511,54.7249813 420.428259,51.5940545 C420.298723,51.2853715 419.787007,51.4204203 419.9193,51.7336967" id="Fill-62" fill="#081F2C"></path>
                <path d="M420.230647,51.3021837 C421.54255,53.6228179 422.625696,56.0426715 423.480086,58.5681756 C423.588493,58.8878829 424.098371,58.750078 423.989046,58.4276146 C423.119956,55.8598504 422.020273,53.3968179 420.686322,51.035761 C420.519119,50.7408585 420.062525,51.0063626 420.230647,51.3021837" id="Fill-64" fill="#081F2C"></path>
                <path d="M425.894887,54.4449618 C427.779139,55.3985715 429.775472,55.958978 431.884806,56.0857585 C432.223806,56.1059699 432.221968,55.5777179 431.884806,55.5584252 C429.862749,55.4371569 427.965635,54.9033927 426.16131,53.989287 C425.858139,53.8367829 425.590798,54.291539 425.894887,54.4449618" id="Fill-66" fill="#081F2C"></path>
                <path d="M420.504695,49.5383732 C421.229549,50.6499992 422.093126,51.6458691 423.088996,52.5241455 C423.342557,52.7473894 423.717386,52.376235 423.461988,52.1511537 C422.50011,51.3022756 421.661337,50.3468285 420.96037,49.2719504 C420.775711,48.9880724 420.318199,49.251739 420.504695,49.5383732" id="Fill-68" fill="#081F2C"></path>
                <path d="M401.5794,48.0033187 C403.073205,48.6473268 404.77188,48.735522 406.377766,48.8163675 C406.716766,48.8329041 406.715847,48.3055707 406.377766,48.2890341 C404.871099,48.2127821 403.249595,48.1530667 401.845823,47.5476439 C401.53714,47.4144325 401.267961,47.8691886 401.5794,48.0033187" id="Fill-70" fill="#081F2C"></path>
                <path d="M434.517154,27.3495829 C433.337545,26.2067211 432.000837,25.2769976 430.51622,24.5751114 C430.211211,24.4308756 429.942951,24.8856317 430.249797,25.0317049 C431.694911,25.7142984 432.995789,26.6100301 434.144163,27.7216561 C434.388537,27.9586805 434.762447,27.5856886 434.517154,27.3495829" id="Fill-72" fill="#081F2C"></path>
                <path d="M434.515776,22.4169951 C433.874524,22.0210358 433.182744,21.7325642 432.450541,21.556174 C432.120728,21.4771659 431.979248,21.9852065 432.30998,22.0651333 C433.002679,22.2323366 433.643012,22.4987593 434.249354,22.8726699 C434.538744,23.0508976 434.804248,22.5952228 434.515776,22.4169951" id="Fill-74" fill="#081F2C"></path>
                <path d="M395.636611,14.7614748 C396.314611,11.001239 397.117554,7.26856423 398.04544,3.56253171 C398.127204,3.2318 397.618245,3.09215772 397.535562,3.42105203 C396.608594,7.12708455 395.80657,10.8615967 395.127651,14.6218325 C395.067936,14.9534829 395.576895,15.0958813 395.636611,14.7614748" id="Fill-76" fill="#081F2C"></path>
                <path d="M389.824276,11.4204415 C388.601488,7.7631 386.971715,4.28123008 384.939553,1.00331138 C384.760407,0.715758537 384.303813,0.980343902 384.483878,1.26973415 C386.492154,4.50906748 388.107228,7.94500244 389.315317,11.5600837 C389.422805,11.8807098 389.932683,11.7438236 389.824276,11.4204415" id="Fill-78" fill="#081F2C"></path>
                <path d="M382.225715,13.7799366 C380.595943,12.1850748 378.965252,10.5892943 377.334561,8.99443252 C377.092024,8.75648943 376.718114,9.1294813 376.961569,9.36742439 C378.591341,10.9632049 380.222033,12.5580667 381.852724,14.1529285 C382.09526,14.3908715 382.469171,14.0187984 382.225715,13.7799366" id="Fill-80" fill="#081F2C"></path>
                <path d="M399.375992,75.067278 C400.551927,79.5689041 401.471545,84.1265707 402.132089,88.7320098 C402.179862,89.0664163 402.688821,88.9240179 402.641049,88.5914488 C401.979585,83.9860098 401.060886,79.4283431 399.884951,74.9276358 C399.798593,74.5987415 399.289634,74.7383837 399.375992,75.067278" id="Fill-82" fill="#081F2C"></path>
                <path d="M392.668753,78.9834171 C392.466639,81.1543033 392.264525,83.3251894 392.061493,85.4960756 C392.030257,85.8341569 392.55759,85.8314008 392.589745,85.4960756 C392.791859,83.3251894 392.993972,81.1543033 393.196086,78.9834171 C393.227322,78.6453358 392.699989,78.6471732 392.668753,78.9834171" id="Fill-84" fill="#081F2C"></path>
                <path d="M386.262112,78.8541561 C385.054941,81.4889854 383.991088,84.1798553 383.073307,86.929522 C382.96582,87.2519854 383.474779,87.3907089 383.582267,87.0691642 C384.485348,84.3626764 385.52899,81.7140667 386.717787,79.1196602 C386.858348,78.8137333 386.403592,78.5454732 386.262112,78.8541561" id="Fill-86" fill="#081F2C"></path>
                <path d="M417.818602,59.2295472 C417.271058,60.3613846 416.962375,61.5556935 416.896228,62.8115553 C416.878773,63.1523927 417.406107,63.151474 417.423562,62.8115553 C417.485115,61.6494008 417.767155,60.5451244 418.274277,59.4959699 C418.421269,59.1909618 417.966513,58.9236203 417.818602,59.2295472" id="Fill-88" fill="#081F2C"></path>
                <path d="M416.605185,66.0327902 C423.234518,67.5220016 430.4509,69.0222374 436.835859,65.847213 C437.13903,65.6965463 436.872607,65.2408715 436.568518,65.3915382 C430.32412,68.4976602 423.221656,66.9781317 416.745746,65.5238309 C416.415014,65.450335 416.273534,65.9583756 416.605185,66.0327902" id="Fill-90" fill="#081F2C"></path>
                <path d="M407.4554,64.0643854 C409.619855,64.8581415 411.698872,65.9036211 414.060847,65.5692146 C414.396172,65.5214423 414.253774,65.0124829 413.921205,65.0602553 C411.677741,65.3790439 409.640067,64.3060033 407.595961,63.555426 C407.276254,63.4387512 407.138449,63.9486293 407.4554,64.0643854" id="Fill-92" fill="#081F2C"></path>
                <path d="M416.046707,55.9530984 C416.084374,56.8148382 416.121122,57.6774967 416.158789,58.5392366 C416.173488,58.8782366 416.700821,58.880074 416.686122,58.5392366 C416.649374,57.6774967 416.611707,56.8148382 416.574041,55.9530984 C416.56026,55.6150171 416.032008,55.6131797 416.046707,55.9530984" id="Fill-94" fill="#081F2C"></path>
                <path d="M415.130213,55.9549358 C415.057636,56.8166756 415.134807,57.6627976 415.355294,58.5006512 C415.440733,58.8277081 415.950611,58.6889846 415.863335,58.3591715 C415.65479,57.5663341 415.589563,56.7707407 415.658465,55.9549358 C415.686026,55.6159358 415.158693,55.6177732 415.130213,55.9549358" id="Fill-96" fill="#081F2C"></path>
                <path d="M411.480589,32.9067024 C412.15767,33.2760195 412.843938,33.6278813 413.543987,33.9540195 C414.194426,34.2571902 415.086483,34.474922 415.44202,35.1538407 C415.600036,35.455174 416.055711,35.1887512 415.898613,34.8874179 C415.567881,34.2571902 414.958784,34.0164911 414.335906,33.7381252 C413.455792,33.344922 412.593133,32.914052 411.747011,32.4519463 C411.448434,32.2884179 411.182011,32.7440927 411.480589,32.9067024" id="Fill-98" fill="#081F2C"></path>
                <path d="M410.603139,33.5912252 C410.947651,33.7281114 411.240716,33.943087 411.491521,34.2141033 C411.723033,34.4639894 412.095107,34.0900789 411.865432,33.8401927 C411.549399,33.4993553 411.17457,33.2540626 410.742781,33.0822659 C410.427667,32.9573228 410.290781,33.4662821 410.603139,33.5912252" id="Fill-100" fill="#081F2C"></path>
                <path d="M410.381549,34.9306886 C410.788533,35.0795179 411.17163,35.2724447 411.53911,35.5030382 C411.827581,35.6831033 412.092167,35.2274285 411.805533,35.0473634 C411.399467,34.7928837 410.971354,34.5861764 410.521191,34.4217293 C410.202402,34.3041358 410.064598,34.8140138 410.381549,34.9306886" id="Fill-102" fill="#081F2C"></path>
                <path d="M445.372872,57.0216374 C445.276408,57.9559545 445.163408,58.8875154 445.032953,59.817239 C444.987018,60.1498081 445.495059,60.2940439 445.541912,59.9578 C445.678798,58.9812228 445.799148,58.0028081 445.900205,57.0216374 C445.935115,56.6844748 445.407782,56.6872309 445.372872,57.0216374" id="Fill-104" fill="#081F2C"></path>
                <path d="M445.743383,49.094274 C445.75257,50.7791683 445.706635,52.4622252 445.608334,54.1443634 C445.588123,54.4833634 446.115456,54.4824447 446.135667,54.1443634 C446.234887,52.4622252 446.279903,50.7791683 446.270716,49.094274 C446.268879,48.755274 445.741546,48.7543553 445.743383,49.094274" id="Fill-106" fill="#081F2C"></path>
                <path d="M447.843162,54.0484512 C447.728324,55.7820366 447.401267,57.4632561 446.866585,59.1141585 C446.761853,59.4375407 447.270812,59.5771829 447.375544,59.2547195 C447.924926,57.5569634 448.252902,55.8279715 448.371414,54.0484512 C448.393463,53.7094512 447.866129,53.7112886 447.843162,54.0484512" id="Fill-108" fill="#081F2C"></path>
                <path d="M517.642343,62.4351642 C556.168912,61.8508715 594.693644,60.441587 633.228481,61.0460911 C642.918002,61.1985951 652.590067,61.589961 662.282343,61.3740667 C671.766993,61.1618472 681.216733,60.9082862 690.694953,61.486148 C709.644042,62.6427902 728.499424,65.1701317 747.492611,65.6129447 C769.112359,66.1173106 790.750481,64.3065545 812.350018,65.8692618 C812.689018,65.8949854 812.68718,65.3658146 812.350018,65.3419285 C793.087652,63.9473431 773.788538,65.2316846 754.505961,65.1728878 C735.472351,65.1159285 716.604107,62.8825707 697.650424,61.4392943 C687.967335,60.7006602 678.345798,60.4572049 668.637904,60.6914732 C659.141311,60.9202293 649.697083,60.8623512 640.201408,60.6510504 C621.127376,60.2266114 602.045993,60.3368553 582.970124,60.6391073 C561.193278,60.9845382 539.420107,61.5770992 517.642343,61.9078309 C517.303343,61.9133431 517.301506,62.4406764 517.642343,62.4351642" id="Fill-110" fill="#081F2C"></path>
                <path d="M436.8354,65.8470293 C440.799587,63.4032894 445.40962,62.7271268 449.986579,62.5185821 C454.779433,62.3008504 459.59801,62.2833951 464.390863,62.4754033 C474.875977,62.8943301 485.318831,63.0946065 495.81405,62.9384276 C501.717611,62.8511512 507.620254,62.7151837 513.522896,62.552574 C513.861896,62.543387 513.862815,62.0160537 513.522896,62.0252407 C502.780546,62.3201431 492.029928,62.5737041 481.282985,62.4864276 C470.984367,62.4019073 460.719741,61.5612976 450.417449,61.9728748 C445.609896,62.1639642 440.737115,62.8217528 436.568977,65.3913545 C436.280506,65.5695821 436.545091,66.0261756 436.8354,65.8470293" id="Fill-112" fill="#081F2C"></path>
                <path d="M435.645776,63.9450463 C434.55528,62.7259325 432.908972,62.0534447 431.665972,60.9877537 C430.292516,59.8099813 429.133118,58.4337699 428.161134,56.9087293 C427.979232,56.6220951 427.522638,56.8866805 427.705459,57.175152 C428.621402,58.6129163 429.695362,59.9284935 430.965004,61.072274 C432.283337,62.2610707 434.105118,63.0134854 435.272785,64.3180382 C435.499703,64.5725179 435.871776,64.1976886 435.645776,63.9450463" id="Fill-114" fill="#081F2C"></path>
                <path d="M428.660907,66.4320569 C428.982451,65.8312276 429.147817,65.182626 429.148736,64.5000325 C429.149654,64.1601138 428.622321,64.1601138 428.621402,64.5000325 C428.620484,65.0907561 428.484516,65.6447317 428.205232,66.1656341 C428.045378,66.4651301 428.501053,66.7315528 428.660907,66.4320569" id="Fill-116" fill="#081F2C"></path>
                <path d="M385.446124,49.5078724 C386.503546,52.8207016 385.656506,56.9337179 381.852172,57.8331244 C381.522359,57.9102951 381.662002,58.4192545 381.992733,58.341165 C386.062571,57.379287 387.10162,52.9603439 385.955083,49.3682301 C385.852189,49.044848 385.342311,49.1826528 385.446124,49.5078724" id="Fill-118" fill="#081F2C"></path>
                <path d="M375.616777,26.8408992 C377.383436,26.8473301 379.71142,27.0604683 380.961769,28.484452 C382.121167,29.8055415 381.939265,31.8358667 382.270915,33.4546146 C383.156541,37.7835252 384.387598,41.9948423 385.013233,46.3825496 C385.060086,46.7178748 385.569046,46.5745577 385.521273,46.2419886 C384.800094,41.1772 383.218094,36.2933951 382.485891,31.2469805 C382.265403,29.7237772 381.874956,28.3034683 380.511607,27.4307041 C379.08946,26.5193545 377.26768,26.3199967 375.616777,26.3135659 C375.276859,26.3126472 375.276859,26.8399805 375.616777,26.8408992" id="Fill-120" fill="#081F2C"></path>
                <path d="M374.471986,29.3547358 C372.954295,29.2086626 371.501832,29.3005325 370.129295,30.0125244 C369.827962,30.1687033 370.094385,30.624378 370.395718,30.4681992 C371.685572,29.7993862 373.054433,29.7461016 374.471986,29.8820691 C374.810067,29.9142236 374.807311,29.3859715 374.471986,29.3547358" id="Fill-122" fill="#081F2C"></path>
                <path d="M380.281105,59.522061 C382.649511,59.6240366 383.083137,55.5551179 383.329349,53.9271829 C383.631601,51.9290122 383.68856,49.9721829 383.455211,47.9602317 C383.238398,46.1044593 382.819471,44.2744106 382.683503,42.4094512 C382.394113,38.4351585 382.96095,30.1631911 377.362398,29.6615813 C377.024316,29.6312642 377.027072,30.1585976 377.362398,30.1889146 C382.491495,30.6482642 381.892503,38.7934512 382.15617,42.4094512 C382.416162,45.9887033 383.429487,49.4172886 382.927877,53.0369634 C382.723926,54.513313 382.398707,59.0856789 380.281105,58.9947276 C379.941186,58.9800285 379.942105,59.5073618 380.281105,59.522061" id="Fill-124" fill="#081F2C"></path>
                <path d="M379.110315,42.9495545 C379.252713,45.7157577 379.284867,48.368961 378.978941,51.1305707 C378.941274,51.4668146 379.469526,51.4649772 379.506274,51.1305707 C379.812201,48.3698797 379.780965,45.7157577 379.637648,42.9495545 C379.620193,42.6114732 379.092859,42.6096358 379.110315,42.9495545" id="Fill-126" fill="#081F2C"></path>
                <path d="M338.458794,53.2212545 C345.56677,53.7972789 352.91912,55.2883276 359.790071,52.6038886 C360.103347,52.4817016 359.966461,51.9718236 359.64951,52.0949293 C352.823575,54.7628317 345.518079,53.265352 338.458794,52.6930024 C338.119794,52.6663602 338.121632,53.1936935 338.458794,53.2212545" id="Fill-128" fill="#081F2C"></path>
                <path d="M366.127901,49.1372691 C367.533511,48.560326 369.15134,48.6136106 370.612072,48.1744724 C371.897332,47.7877 373.017226,47.1308301 374.076486,46.3131878 C374.341072,46.1083179 374.079242,45.649887 373.810063,45.8584317 C372.686494,46.724765 371.51699,47.393578 370.135267,47.7592203 C368.777429,48.1202691 367.288218,48.0945455 365.98734,48.6283098 C365.677738,48.7560089 365.813706,49.2668057 366.127901,49.1372691" id="Fill-130" fill="#081F2C"></path>
                <path d="M369.406095,48.2634943 C369.55125,48.5877951 369.427225,48.9479252 369.581567,49.272226 C369.799298,49.7279008 370.369811,50.0586325 370.740965,50.3645593 C371.64129,51.1059496 372.565502,51.8142667 373.509006,52.4996163 C373.784615,52.698974 374.047363,52.2414618 373.775428,52.0439415 C372.909095,51.4155512 372.05838,50.7651122 371.229713,50.0861935 C370.834672,49.7637301 370.39829,49.4807707 370.162185,49.0241772 C369.986713,48.6860959 370.01703,48.3443398 369.86177,47.9970715 C369.723046,47.6874699 369.26829,47.9557301 369.406095,48.2634943" id="Fill-132" fill="#081F2C"></path>
                <path d="M369.786988,48.4679967 C370.515516,49.0440211 371.343264,49.3747528 372.269313,49.4528423 C372.607394,49.4822407 372.605557,48.9530699 372.269313,48.9255089 C371.49485,48.8602813 370.769996,48.577322 370.15998,48.0950049 C369.896313,47.8864602 369.520565,48.2576146 369.786988,48.4679967" id="Fill-134" fill="#081F2C"></path>
                <path d="M369.623276,49.3113626 C368.450097,50.3733789 367.544259,51.6806878 367.080316,53.201135 C366.981097,53.5272732 367.490056,53.6659967 367.589276,53.3416959 C368.027495,51.9057691 368.890154,50.6866553 369.996267,49.6843545 C370.24891,49.4555984 369.874999,49.0835252 369.623276,49.3113626" id="Fill-136" fill="#081F2C"></path>
                <path d="M369.632646,49.492622 C368.502646,48.8991423 367.095199,48.6308821 365.825557,48.7888984 C365.493907,48.8302398 365.489313,49.3584919 365.825557,49.3171504 C367.006085,49.1683211 368.312476,49.3943211 369.366224,49.9482967 C369.666638,50.106313 369.93398,49.6506382 369.632646,49.492622" id="Fill-138" fill="#081F2C"></path>
                <path d="M364.20295,50.1403049 C363.203406,50.9799959 362.242446,53.0764675 363.274146,54.2487276 C363.526788,54.5344431 363.830877,54.6272317 364.186414,54.7246138 C364.943422,54.9331585 365.642552,55.0535081 366.345357,55.4522236 C367.300804,55.9970122 368.017389,56.7962805 369.149227,56.9708333 C370.45378,57.1701911 371.908999,56.8468089 373.214471,56.7338089 C374.360089,56.632752 376.106536,56.800874 377.157528,56.2698659 C378.724828,55.4779472 379.342194,52.6805081 379.506641,51.1306626 C379.542471,50.7935 379.015137,50.7962561 378.978389,51.1306626 C378.877333,52.0879472 378.655926,53.016752 378.251698,53.8931911 C377.754682,54.9699065 377.287064,55.7489634 376.030284,55.9602642 C374.283837,56.2533293 372.420715,56.2992642 370.654056,56.4288008 C369.567235,56.5078089 368.72295,56.4242073 367.786796,55.8169472 C367.194235,55.4320122 366.679763,54.983687 366.026568,54.6924593 C365.739015,54.5638415 365.437682,54.4591098 365.134511,54.3764268 C364.423438,54.1825813 364.39404,54.3084431 363.874975,53.5881829 C363.397251,52.9248821 363.354991,52.6547846 363.593853,51.8913455 C363.771162,51.3245081 364.126698,50.8899634 364.575942,50.5132967 C364.835934,50.2946463 364.461105,49.9234919 364.20295,50.1403049" id="Fill-140" fill="#081F2C"></path>
                <path d="M367.110266,55.9701862 C367.678022,56.6445114 367.944445,57.4088691 368.264152,58.2145683 C368.403794,58.5655114 368.5269,59.0285358 368.853038,59.2618854 C369.559518,59.7680886 371.060672,59.6679504 371.872802,59.7432837 C374.709746,60.0069504 377.601811,60.0914707 380.426811,59.6587634 C380.761217,59.6063976 380.618819,59.0983569 380.28625,59.1498041 C377.791981,59.5319829 375.237079,59.476861 372.727193,59.2876089 C372.164949,59.2444301 371.603624,59.1939016 371.043217,59.1323488 C370.071233,59.0276171 369.347298,59.0193488 368.773111,58.074926 C368.271502,57.2499341 368.130022,56.3670642 367.483258,55.5971943 C367.264607,55.3372024 366.893453,55.7120317 367.110266,55.9701862" id="Fill-142" fill="#081F2C"></path>
                <path d="M359.752588,60.6614317 C365.742507,61.1648789 370.9451,64.7845537 376.917563,65.5342122 C378.890929,65.7813423 380.990157,65.7298951 382.110051,63.8162447 C383.179417,61.9898707 382.244181,60.0780577 380.489466,59.1758951 C380.188133,59.020635 379.920791,59.4763098 380.223043,59.6315699 C381.442157,60.2590415 382.351669,61.414765 381.952035,62.8580415 C381.613035,64.0771553 380.559287,64.8984724 379.344767,65.0629195 C377.433872,65.3219927 375.41549,64.7909846 373.574417,64.3160171 C368.89732,63.1079276 364.631799,60.5438382 359.752588,60.1340984 C359.413588,60.1056187 359.416344,60.632952 359.752588,60.6614317" id="Fill-144" fill="#081F2C"></path>
                <path d="M340.036936,53.4679252 C345.944172,55.401787 350.681903,60.5207789 357.172513,60.6135675 C357.511513,60.618161 357.511513,60.0908276 357.172513,60.0862341 C350.76918,59.9943642 346.018586,54.8716976 340.177497,52.9589659 C339.854115,52.8533154 339.715391,53.3631935 340.036936,53.4679252" id="Fill-146" fill="#081F2C"></path>
                <path d="M346.676834,50.9558341 C347.563379,48.8198585 348.006192,46.6168179 348.024566,44.3072081 C348.027322,43.9682081 347.499989,43.9672894 347.497233,44.3072081 C347.478859,46.5690455 347.034208,48.7279886 346.167875,50.8152732 C346.038338,51.1276309 346.548216,51.2654358 346.676834,50.9558341" id="Fill-148" fill="#081F2C"></path>
                <path d="M318.046033,52.5932317 C323.989098,52.6511098 329.926651,52.9065081 335.85318,53.3612642 C336.191261,53.3869878 336.190342,52.8587358 335.85318,52.8339309 C329.926651,52.3791748 323.989098,52.1228577 318.046033,52.0658984 C317.706115,52.0622236 317.706115,52.5895569 318.046033,52.5932317" id="Fill-150" fill="#081F2C"></path>
                <path d="M320.944254,34.3896667 C325.570823,34.3180081 330.188205,33.9937073 334.806506,33.7309593 C339.350392,33.4718862 343.9494,33.5738618 348.467563,33.0208049 C352.86905,32.4806098 357.186937,31.4397236 361.562701,30.7415122 C363.589351,30.4190488 365.677554,30.284 367.595798,29.4985122 C369.729937,28.625748 371.587546,27.1227561 373.943091,26.866439 C374.277498,26.8296911 374.281172,26.301439 373.943091,26.338187 C372.050571,26.5448943 370.497969,27.4571626 368.839717,28.3216585 C366.762538,29.4029675 364.690872,29.7447236 362.407904,30.0818862 C357.741831,30.7699919 353.15201,31.9183659 348.467563,32.4934715 C343.9494,33.0474472 339.350392,32.9445528 334.806506,33.2027073 C330.188205,33.466374 325.570823,33.7906748 320.944254,33.8623333 C320.605254,33.8678455 320.604335,34.3951789 320.944254,34.3896667" id="Fill-152" fill="#081F2C"></path>
                <path d="M370.506054,17.9131642 C369.002143,18.3624081 367.742607,19.2507902 366.796346,20.5011398 C366.591476,20.7721561 367.049907,21.0349041 367.252021,20.7675626 C368.111005,19.6320504 369.285102,18.8291073 370.646615,18.4221236 C370.970915,18.3247415 370.832192,17.8157821 370.506054,17.9131642" id="Fill-154" fill="#081F2C"></path>
                <path d="M365.983849,17.6808252 L364.660922,18.5067358 C364.373369,18.6868008 364.637954,19.1433943 364.927345,18.9633293 C365.36832,18.6877195 365.809296,18.4121098 366.250272,18.1365 C366.537824,17.9573537 366.27232,17.4998415 365.983849,17.6808252" id="Fill-156" fill="#081F2C"></path>
                <path d="M357.007239,69.2580675 C358.252076,70.5626203 359.669629,71.6558724 361.247954,72.5295553 C361.544694,72.6940024 361.811117,72.2383276 361.514377,72.0738805 C359.973719,71.2222463 358.59567,70.157474 357.380231,68.8850756 C357.145044,68.6388642 356.772971,69.0118561 357.007239,69.2580675" id="Fill-158" fill="#081F2C"></path>
                <path d="M361.84566,70.6163642 C362.503449,71.0463154 363.231977,71.2870146 364.01379,71.353161 C364.35279,71.380722 364.350953,70.8533886 364.01379,70.8249089 C363.323847,70.7670309 362.689945,70.5391935 362.112083,70.1606894 C361.826367,69.9741935 361.561782,70.430787 361.84566,70.6163642" id="Fill-160" fill="#081F2C"></path>
                <path d="M433.861295,78.6469894 C431.385401,80.4384528 428.836011,82.117835 426.213124,83.6842171 C425.921897,83.8587699 426.186482,84.3153634 426.479547,84.1398919 C429.102433,82.5725911 431.651824,80.8941276 434.127718,79.1026642 C434.399653,78.9051439 434.136905,78.446713 433.861295,78.6469894" id="Fill-162" fill="#081F2C"></path>
                <path d="M432.107315,75.3032 C430.405884,77.2030699 428.313087,78.5967366 425.898746,79.4189724 C425.579038,79.5282976 425.715924,80.0372569 426.039307,79.9279317 C428.539087,79.0762976 430.718241,77.6449642 432.480307,75.6761919 C432.706307,75.4244683 432.334233,75.049639 432.107315,75.3032" id="Fill-164" fill="#081F2C"></path>
                <path d="M381.353227,57.049474 C380.72208,56.9833276 380.17178,56.6746447 379.760202,56.1969211 C379.536959,55.9406041 379.164885,56.3145146 379.386292,56.5708317 C379.895251,57.1578805 380.585194,57.4959618 381.353227,57.5768073 C381.690389,57.6117179 381.687633,57.0843846 381.353227,57.049474" id="Fill-166" fill="#081F2C"></path>
                <path d="M380.440407,58.2750187 C379.925017,57.8735472 379.409627,57.4702382 378.894237,57.067848 C378.629651,56.8611407 378.253903,57.2313764 378.521245,57.4408398 C379.036635,57.8432301 379.552025,58.2456203 380.067415,58.6480106 C380.332001,58.8556366 380.707749,58.4844821 380.440407,58.2750187" id="Fill-168" fill="#081F2C"></path>
                <path d="M385.583377,53.4374244 C385.031239,53.5467496 384.479101,53.6560748 383.926044,53.7663187 C383.593475,53.832465 383.734954,54.3405057 384.066605,54.275278 C384.618743,54.1650341 385.1718,54.0557089 385.723938,53.9463837 C386.056507,53.8793187 385.915946,53.371278 385.583377,53.4374244" id="Fill-170" fill="#081F2C"></path>
                <path d="M370.170085,59.9750715 C369.786988,60.3930797 369.468199,60.8579415 369.224744,61.3705756 C369.079589,61.6755837 369.535264,61.9438439 369.680419,61.6369984 C369.904581,61.1638683 370.189378,60.7329984 370.543077,60.3480634 C370.771833,60.0981772 370.39976,59.7242667 370.170085,59.9750715" id="Fill-172" fill="#081F2C"></path>
                <path d="M368.643942,59.7059846 C368.28565,60.0045618 368.030251,60.3757163 367.850186,60.8038301 C367.717893,61.1161878 368.22869,61.253074 368.358227,60.9443911 C368.503381,60.602635 368.733975,60.3160008 369.016934,60.0789764 C369.277845,59.8612447 368.903015,59.4900902 368.643942,59.7059846" id="Fill-174" fill="#081F2C"></path>
                <path d="M362.845572,51.0985081 C361.66045,52.1834919 360.645288,53.3906626 359.776198,54.7411504 C359.59154,55.0268659 360.048133,55.2914512 360.231873,55.0075732 C361.077076,53.6938333 362.066515,52.5261667 363.218564,51.4715 C363.469369,51.2418252 363.095459,50.869752 362.845572,51.0985081" id="Fill-176" fill="#081F2C"></path>
                <path d="M482.420059,45.0309593 C524.796897,43.7714228 567.150767,41.8706341 609.50188,39.9404472 C630.654011,38.9776504 651.805222,37.9165528 672.967458,37.167813 C694.073653,36.4218293 715.189954,35.9964715 736.303498,35.5169106 C760.013287,34.9776341 783.723076,34.3657805 807.409897,33.1677967 C807.747978,33.1494228 807.749815,32.6220894 807.409897,32.6395447 C765.208531,34.7746016 722.946531,35.0327561 680.717604,36.3804878 C638.380271,37.7309756 596.071417,40.1003008 553.75062,41.8853333 C529.979279,42.8894715 506.202425,43.7962276 482.420059,44.503626 C482.081059,44.5137317 482.080141,45.041065 482.420059,45.0309593" id="Fill-178" fill="#081F2C"></path>
                <path d="M470.903063,45.4023894 C473.554428,45.3215439 476.204876,45.2370236 478.855323,45.1497472 C479.194323,45.1387228 479.19616,44.6113894 478.855323,44.6214951 C476.204876,44.7096902 473.554428,44.7942106 470.903063,44.8750561 C470.564063,44.8851618 470.563144,45.4134138 470.903063,45.4023894" id="Fill-180" fill="#081F2C"></path>
                <path d="M316.402848,33.9159854 C275.67232,33.7653187 234.980376,31.776335 194.319669,29.5356276 C153.832596,27.3068634 113.351035,25.2195789 72.8391569,23.4749691 C61.5014902,22.9862211 50.1629049,22.5029854 38.8270756,21.966465 C27.5500431,21.4327008 16.2619862,20.7363268 5.12551463,18.8033837 C4.79294553,18.744587 4.65054715,19.2535463 4.98495366,19.3123431 C14.7700187,21.0100992 24.6772707,21.768026 34.5863602,22.284335 C44.6451976,22.8089122 54.7113846,23.2168146 64.7748154,23.6531967 C85.0385634,24.5323919 105.30323,25.3766764 125.562385,26.3532537 C166.247897,28.3119203 206.894824,31.0037089 247.59136,32.7244325 C270.51658,33.6945789 293.456498,34.3578797 316.402848,34.4433187 C316.742767,34.4451561 316.742767,33.9178228 316.402848,33.9159854" id="Fill-182" fill="#081F2C"></path>
                <path d="M318.046033,52.0656228 C308.724911,51.9443545 299.402871,52.0242813 290.08083,51.9608911 C280.000863,51.8919886 269.916302,51.5906553 259.842765,52.1271756 C249.767391,52.6646146 239.762757,53.6393545 229.664415,53.7927772 C219.507277,53.9471187 209.354733,54.2117041 199.202188,54.5112 C189.055155,54.8116146 178.918228,55.009135 168.766602,55.0357772 C158.646212,55.0633382 148.51296,55.0991675 138.414619,55.8414764 C117.973562,57.345387 97.5554724,58.597574 77.0574561,58.9742407 C54.106513,59.3950049 31.1427081,58.964135 8.22300081,57.702761 C7.88308211,57.684387 7.88491951,58.2117203 8.22300081,58.231013 C49.152887,60.4827447 90.2224154,60.0656553 131.095342,56.9466715 C141.218489,56.1749642 151.296619,55.668761 161.45192,55.595265 C171.599871,55.5217691 181.741391,55.5401431 191.886586,55.2525902 C202.047399,54.9641187 212.207293,54.6269561 222.370863,54.434948 C232.482066,54.2438585 242.513342,53.9259886 252.598822,53.1469317 C263.920871,52.2723301 275.211684,52.3320455 286.558537,52.4569886 C297.053757,52.5727447 307.550814,52.4569886 318.046033,52.5929561 C318.385952,52.5975496 318.385952,52.0702163 318.046033,52.0656228" id="Fill-184" fill="#081F2C"></path>
                <path d="M408.668359,39.8058577 C410.298131,40.0548252 411.730383,40.8871667 412.720741,42.2119309 C412.921936,42.4801911 413.379448,42.2174431 413.176415,41.9455081 C412.104293,40.5114187 410.583846,39.5688333 408.80892,39.2959797 C408.47635,39.2463699 408.333033,39.7534919 408.668359,39.8058577" id="Fill-186" fill="#081F2C"></path>
                <path d="M412.343615,42.7369675 C412.123127,43.0879106 411.902639,43.4397724 411.682151,43.7907154 C411.501167,44.079187 411.957761,44.3446911 412.137826,44.0571382 C412.358314,43.7061951 412.578802,43.3543333 412.799289,43.0033902 C412.980273,42.7149187 412.52368,42.4503333 412.343615,42.7369675" id="Fill-188" fill="#081F2C"></path>
                <path d="M406.463113,44.4900293 C406.979422,45.2598992 407.806251,45.715574 408.735975,45.7284358 C409.075893,45.7330293 409.075893,45.2047772 408.735975,45.2001837 C407.999178,45.1909967 407.330365,44.8372976 406.918788,44.2236065 C406.730454,43.9434033 406.272942,44.2070699 406.463113,44.4900293" id="Fill-190" fill="#081F2C"></path>
                <path d="M378.467041,35.8017992 C378.331993,34.5983033 377.622757,33.5574171 376.51848,33.0401894 C376.212554,32.8977911 375.944293,33.3525472 376.252058,33.4958642 C377.177188,33.9285715 377.824871,34.7783683 377.939708,35.8017992 C377.976456,36.135287 378.504708,36.1389618 378.467041,35.8017992" id="Fill-192" fill="#081F2C"></path>
                <path d="M375.178466,32.6312764 C373.730596,32.5651301 372.300181,32.6514878 370.869767,32.883 C370.53536,32.9372033 370.677759,33.4461626 371.010328,33.3919593 C372.393889,33.1687154 373.779287,33.0952195 375.178466,33.1586098 C375.518385,33.1751463 375.517466,32.647813 375.178466,32.6312764" id="Fill-194" fill="#081F2C"></path>
                <path d="M367.479032,33.004452 C366.752341,33.2469886 366.02565,33.4886065 365.298959,33.7311431 C364.979251,33.8377122 365.116137,34.3475902 365.43952,34.2401024 C366.166211,33.9975659 366.892902,33.7550293 367.619593,33.5134114 C367.940219,33.4059236 367.802414,32.8969642 367.479032,33.004452" id="Fill-196" fill="#081F2C"></path>
                <path d="M348.839452,51.3622667 C349.574411,50.6263886 350.199127,49.8023154 350.709005,48.8955593 C350.875289,48.5988195 350.419615,48.3333154 350.25333,48.6291366 C349.765501,49.498226 349.170184,50.2846325 348.46646,50.9892748 C348.225761,51.2290553 348.598753,51.6029659 348.839452,51.3622667" id="Fill-198" fill="#081F2C"></path>
                <path d="M351.927476,46.8890285 C351.967898,46.7273374 352.008321,46.5656463 352.048744,46.404874 C352.132346,46.075061 351.623386,45.9345 351.540703,46.2633943 C351.50028,46.4250854 351.459858,46.5867764 351.418516,46.7484675 C351.335833,47.0773618 351.844793,47.2179228 351.927476,46.8890285" id="Fill-200" fill="#081F2C"></path>
                <path d="M353.092019,51.4986935 C354.113612,50.5432463 354.936767,49.4251894 355.542189,48.1638154 C355.688263,47.8588073 355.233507,47.5914659 355.086515,47.8973927 C354.499466,49.1211 353.710303,50.1987341 352.719027,51.1257016 C352.470978,51.3581325 352.84397,51.7311244 353.092019,51.4986935" id="Fill-202" fill="#081F2C"></path>
                <path d="M356.057212,46.2860862 L356.662635,44.3485496 C356.764611,44.0233301 356.254733,43.8846065 356.153676,44.2079886 L355.548253,46.1464439 C355.447196,46.4707447 355.956155,46.610387 356.057212,46.2860862" id="Fill-204" fill="#081F2C"></path>
                <path d="M356.721983,50.6472431 C357.063739,50.3192675 357.294333,49.9012593 357.379772,49.4336415 C357.440406,49.1010724 356.932365,48.958674 356.870812,49.2921618 C356.800072,49.6780154 356.631032,50.0023163 356.348991,50.2751699 C356.103698,50.5103569 356.47669,50.8833488 356.721983,50.6472431" id="Fill-206" fill="#081F2C"></path>
                <path d="M376.439013,44.6254455 C375.941078,44.7972423 375.498265,45.063665 375.115167,45.4256325 C374.867119,45.6589821 375.241029,46.031974 375.487241,45.7986244 C375.804192,45.5000472 376.167997,45.2768033 376.579574,45.1344049 C376.898363,45.024161 376.761476,44.5142829 376.439013,44.6254455" id="Fill-208" fill="#081F2C"></path>
                <path d="M422.38564,43.0688935 C423.103144,43.4712837 423.85464,43.7965033 424.639209,44.044552 C424.96351,44.1465276 425.102233,43.6375683 424.778851,43.5355927 C424.036542,43.3013244 423.330981,42.9944789 422.652063,42.6132187 C422.355323,42.4460154 422.089819,42.9016902 422.38564,43.0688935" id="Fill-210" fill="#081F2C"></path>
                <path d="M470.293873,52.9780748 L472.456491,52.9780748 C472.79641,52.9780748 472.79641,52.4507415 472.456491,52.4507415 L470.293873,52.4507415 C469.954873,52.4507415 469.953954,52.9780748 470.293873,52.9780748" id="Fill-212" fill="#081F2C"></path>
                <path d="M483.268294,51.5372789 C483.608213,51.5372789 483.608213,51.0090268 483.268294,51.0090268 C482.928376,51.0090268 482.928376,51.5372789 483.268294,51.5372789" id="Fill-214" fill="#081F2C"></path>
                <path d="M294.851543,40.5675512 L289.806047,39.8463724 C289.473478,39.7986 289.330161,40.3075593 289.665486,40.3553317 C291.347624,40.5951122 293.029763,40.8358114 294.711901,41.0765106 C295.043551,41.1233642 295.186868,40.6153236 294.851543,40.5675512" id="Fill-216" fill="#081F2C"></path>
                <path d="M542.194671,57.8353293 C550.638435,57.7682642 559.082199,57.8831016 567.520451,58.1798415 C567.86037,58.1917846 567.86037,57.6635325 567.520451,57.6525081 C559.082199,57.3557683 550.638435,57.2409309 542.194671,57.3079959 C541.855671,57.310752 541.854752,57.8380854 542.194671,57.8353293" id="Fill-226" fill="#081F2C"></path>
                <path d="M458.245868,61.9425577 C459.616567,59.446452 460.422267,56.6921919 460.521486,53.8414683 C460.633567,50.632452 459.731405,47.5557285 458.783307,44.5240211 C458.683169,44.200639 458.173291,44.3393626 458.275267,44.6645821 C459.161811,47.5024439 460.029063,50.3862407 460.00334,53.3885496 C459.978535,56.3045008 459.190291,59.1267447 457.790193,61.676135 C457.626665,61.9737935 458.08234,62.2402163 458.245868,61.9425577" id="Fill-234" fill="#081F2C"></path>
                <path d="M451.957648,61.6366309 C453.07938,58.6701512 453.885079,55.5428992 453.839144,52.3513382 C453.794128,49.1505902 452.447315,46.3402894 451.828111,43.2552976 C451.761046,42.9227285 451.252087,43.0632894 451.319152,43.3958585 C451.930087,46.4385902 453.26312,49.191013 453.311811,52.3513382 C453.359583,55.4969642 452.553884,58.5727691 451.448689,61.4960699 C451.328339,61.8139398 451.838217,61.9517447 451.957648,61.6366309" id="Fill-236" fill="#081F2C"></path>
            </g>
        </g>
    </g>
</svg>