<svg version="1.1" xmlns="http://www.w3.org/2000/svg" xmlns:xlink="http://www.w3.org/1999/xlink" x="0px" y="0px" viewBox="0 0 48 48" xml:space="preserve" width="48" height="48"><g class="nc-icon-wrapper" fill="#444444"><circle data-color="color-2" fill="none" stroke="#444444" stroke-width="2" stroke-linecap="square" stroke-miterlimit="10" cx="24" cy="6" r="4" stroke-linejoin="miter"></circle> <circle data-color="color-2" fill="none" stroke="#444444" stroke-width="2" stroke-linecap="square" stroke-miterlimit="10" cx="42" cy="16" r="4" stroke-linejoin="miter"></circle> <circle data-color="color-2" fill="none" stroke="#444444" stroke-width="2" stroke-linecap="square" stroke-miterlimit="10" cx="6" cy="16" r="4" stroke-linejoin="miter"></circle> <path data-cap="butt" fill="none" stroke="#444444" stroke-width="2" stroke-miterlimit="10" d="M18.91,36.172l-6.486,2.789 C10.954,39.591,10,41.037,10,42.638V46h28v-3.362c0-1.6-0.954-3.046-2.424-3.677l-6.501-2.776" stroke-linejoin="miter" stroke-linecap="butt"></path> <path fill="none" stroke="#444444" stroke-width="2" stroke-linecap="square" stroke-miterlimit="10" d="M24,38L24,38 c-4.418,0-8-3.582-8-8v-2c0-4.418,3.582-8,8-8h0c4.418,0,8,3.582,8,8v2C32,34.418,28.418,38,24,38z" stroke-linejoin="miter"></path></g></svg>