<?xml version="1.0" encoding="UTF-8"?>
<svg width="129px" height="149px" viewBox="0 0 129 149" version="1.1" xmlns="http://www.w3.org/2000/svg" xmlns:xlink="http://www.w3.org/1999/xlink">
    <!-- Generator: Sketch 48.2 (47327) - http://www.bohemiancoding.com/sketch -->
    <title>ok-hand</title>
    <desc>Created with Sketch.</desc>
    <defs>
        <polygon id="path-1" points="182.463606 202.563846 0.0395732721 202.563846 0.0395732721 0.323094996 182.463606 0.323094996 182.463606 202.563846"></polygon>
        <polygon id="path-3" points="135.816543 108.562921 0.110103291 108.562921 0.110103291 0.398654216 135.816543 0.398654216 135.816543 108.562921"></polygon>
        <polygon id="path-5" points="130.930471 110.563544 0.0960935083 110.563544 0.0960935083 0.375294829 130.930471 0.375294829 130.930471 110.563544"></polygon>
    </defs>
    <g id="upload-contacts-0001-step-1-linkedin-drop-state" stroke="none" stroke-width="1" fill="none" fill-rule="evenodd" transform="translate(-550.000000, -367.000000)">
        <g id="ok-hand" transform="translate(485.000000, 354.000000)">
            <g transform="translate(0.000000, 13.000000)">
                <g id="Group-3" transform="translate(0.000000, 4.000000)">
                    <mask id="mask-2" fill="white">
                        <use xlink:href="#path-1"></use>
                    </mask>
                    <g id="Clip-2"></g>
                    <path d="M173.261234,41.2014615 C172.904357,40.6296154 172.550163,40.0583077 172.287201,39.4358462 C172.098835,38.9905385 171.966281,38.4483077 171.602964,38.1106923 C171.379715,37.9033846 171.343759,37.5259231 171.494559,37.2690769 C171.566471,37.1522308 171.633553,37.0326923 171.695806,36.9104615 C172.105811,36.1453077 173.237621,36.7839231 172.91992,37.5415385 C173.136193,37.8678462 173.28592,38.2356154 173.435111,38.6017692 C173.709879,39.2748462 174.072659,39.8849231 174.456369,40.4998462 C174.930773,41.2606923 173.732418,41.9569231 173.261234,41.2014615 M166.457498,46.2608462 C165.77809,46.7637692 165.038577,47.1213077 164.272231,47.418 C162.45833,47.5246154 160.698633,47.2063846 158.971671,46.4945385 C157.301594,45.8063846 155.735093,44.9981538 153.871284,45.1726154 C153.659304,45.1925385 153.456448,45.227 153.260568,45.2727692 C153.278278,45.1338462 153.298671,44.9938462 153.328723,44.8549231 C153.609395,43.5561538 154.494342,42.4824615 154.851756,41.2046923 C154.967137,40.7949231 155.010606,40.348 154.98914,39.9021538 C156.578181,39.0691538 158.086187,38.1042308 159.368797,36.8388462 C161.069462,36.8813846 163.047043,37.3762308 164.531436,37.0526154 C166.361973,39.018 168.495721,40.6764615 170.852718,41.9617692 C169.486389,43.5130769 168.076591,45.0633077 166.457498,46.2608462 M180.319345,32.7858462 C177.337143,32.6916154 175.385322,34.7156923 173.529026,36.7505385 C172.317254,34.7786923 171.084553,32.6167692 168.981395,31.6615385 C168.355653,31.3777692 167.715421,31.1160769 167.069287,30.8635385 C166.949612,30.7655385 166.812765,30.6750769 166.656597,30.5953846 C164.234128,29.3553077 161.555137,27.9843846 158.783304,27.9795385 C158.575081,27.9025385 158.350759,27.8443846 158.09531,27.8325385 C155.849938,27.7264615 154.133709,29.3951538 152.39816,30.6233846 C151.228248,31.4515385 150.058336,32.2791538 148.887888,33.1073077 C149.067668,30.842 149.010245,28.4856923 148.873935,26.3183846 C148.78163,24.8596923 148.335668,23.5986154 147.758762,22.3886923 C149.542072,19.9322308 150.705545,16.5210769 150.216113,13.5864615 C151.741829,9.08223077 154.633873,3.72346154 149.549586,0.711846154 C149.534559,0.702153846 149.519533,0.698384615 149.504506,0.690846154 C149.073571,0.211076923 148.202577,0.146461538 147.757688,0.824384615 C147.605814,1.05538462 147.45394,1.28638462 147.302067,1.51738462 C147.053594,1.89646154 147.086867,2.26476923 147.266647,2.55230769 C147.133556,3.06546154 146.999929,3.57915385 146.866838,4.09284615 C146.764873,4.20323077 146.681155,4.34161538 146.626416,4.51338462 C145.946471,6.73453846 145.185492,8.92338462 144.34777,11.0842308 C144.277468,10.8101538 144.19536,10.5376923 144.099835,10.2668462 C144.178187,10.0207692 144.155647,9.73430769 143.976404,9.43761538 C143.513806,8.67084615 143.000762,7.94930769 142.463568,7.24176923 C142.258028,6.95746154 142.044439,6.67476923 141.81153,6.39207692 C141.587207,6.11746154 141.321026,6.01569231 141.063967,6.03130769 C140.423199,5.72438462 139.478146,6.02807692 139.493172,6.95261538 C139.493709,6.95530769 139.493172,6.95907692 139.493172,6.95907692 C139.449703,7.16046154 139.4116,7.35915385 139.373498,7.55730769 C139.008571,8.62992308 138.867967,9.68153846 138.924316,10.8268462 C138.011462,11.095 137.206477,11.9554615 137.194134,12.9343846 C137.150128,16.3406923 135.155374,19.3991538 134.876313,22.8178462 C134.861823,22.9939231 134.877923,23.1565385 134.906902,23.3132308 C134.755028,24.1839231 134.701363,25.0750769 134.784008,25.9963846 C133.975803,25.319 133.001234,24.8489231 132.052961,24.409 C131.637589,24.2156923 131.190017,24.1338462 130.761228,24.1650769 C129.899357,24.0083846 128.888832,24.4450769 128.490096,25.2026923 C128.027498,26.0803846 128.172395,26.9763846 128.738031,27.6591538 C128.82658,27.8260769 128.926398,27.9903077 129.049829,28.1416154 C129.786122,29.0456923 130.385568,30.058 131.083222,30.9976154 C131.089662,31.0218462 131.090199,31.0439231 131.097175,31.0686923 C132.442037,35.8873846 133.59746,40.7922308 134.980961,45.6087692 C134.985791,47.2236154 134.935882,48.8422308 135.205284,50.449 C135.635146,53.0136923 136.788421,55.3759231 137.820413,57.7424615 C138.752586,59.8796154 139.734131,62.1077692 140.494037,64.3940769 C140.86755,70.2191538 140.199949,75.9596923 138.497674,81.522 C138.455814,81.648 138.412345,81.7734615 138.370486,81.8994615 C135.387747,86.7380769 131.618269,90.9590769 127.120548,94.5656923 C120.675835,99.7338462 114.567606,105.285923 108.386929,110.766923 C107.97424,111.132538 107.801973,111.551462 107.78963,111.963923 C107.652245,112.056538 107.514325,112.150231 107.376404,112.242846 C104.914759,113.905615 102.233084,115.437538 100.005958,117.420154 C98.9852367,118.328 98.1845446,119.389308 97.3629229,120.433923 C97.3468232,120.444692 97.3317968,120.450077 97.3156971,120.460846 C90.8296619,125.031308 84.7246531,130.102538 78.4897733,135.002 C76.3002132,136.416538 74.1766619,137.940385 72.1207293,139.580538 C71.863134,139.786231 71.6967704,140.012923 71.5948056,140.246615 C71.2132425,140.526615 70.8327528,140.807154 70.4506531,141.086077 C66.6919082,143.386923 63.6136443,147.079692 60.5337704,150.112846 C56.7159933,153.872385 52.9695915,157.702462 49.376137,161.680077 C44.0541106,166.427154 38.0312103,171.090769 34.0610226,177.018692 C34.0057469,177.060154 33.9493979,177.092462 33.8962689,177.142 L25.3483979,184.936769 C25.069873,184.999769 24.7924214,185.122 24.5305328,185.333077 C22.6039346,186.887077 20.6767997,188.44 18.7496648,189.994538 C15.7873188,192.094538 12.8383891,194.208538 10.2790724,196.824385 C10.2087704,196.896538 10.156178,196.970846 10.0992924,197.045154 C9.92541554,197.124846 9.75314868,197.225 9.58839501,197.369846 L1.24821026,204.725231 C0.772732258,205.144154 0.635348094,205.690692 0.717993255,206.217846 C0.0949346041,206.742846 -0.220619648,207.616769 0.305840762,208.531615 C1.64479971,210.857769 3.61540381,212.440846 5.70675572,214.056769 C8.59235982,216.285462 10.7835299,218.880846 12.7718437,221.940923 C13.6524977,223.297308 14.5637411,224.704308 15.1207909,226.233538 C15.8452777,228.222077 15.5216736,229.842846 15.2018261,231.858846 C14.9699903,233.317538 15.1041545,234.675538 15.757266,235.798769 C15.8892836,236.709308 16.6116238,237.519154 17.5126707,237.512154 C18.7598613,238.168 19.9045504,237.182077 20.0886238,236.037308 C23.9004977,233.134462 27.1150724,229.566077 30.8319581,226.532385 C35.3854918,222.815385 40.1794478,219.523769 44.5875475,215.603769 C46.6177205,213.798308 48.3699053,211.888385 50.0029522,209.72 C51.8045094,207.327615 53.9876296,205.420923 56.1390871,203.360769 C59.348832,200.288308 62.2999082,196.975692 65.0341751,193.481077 C66.701568,192.027231 68.2686062,190.462462 69.7191897,188.753385 C69.923656,188.512692 70.055137,188.259077 70.1318789,188.004923 C70.3696179,187.917692 70.604137,187.773923 70.8236296,187.554769 C72.1454155,186.231769 73.4661282,184.908769 74.7879141,183.585769 C75.9513862,182.557308 77.0413364,181.472308 78.0717176,180.297923 C78.2015886,180.150385 78.2944302,179.996923 78.3717088,179.841846 C80.4555475,177.832846 82.605395,175.893846 84.767049,173.961846 C85.2167674,173.560154 85.3949375,173.106769 85.3852777,172.672769 C86.1151311,171.983538 86.8406912,171.288923 87.5598114,170.586769 C87.6988056,170.451077 87.8018437,170.309462 87.8887821,170.166769 C88.1930666,169.883 88.4860812,169.587923 88.7823158,169.265923 C88.9078935,169.129154 89.0012718,168.987 89.0796238,168.843231 C90.9809991,167.192308 92.8818378,165.541923 94.7826765,163.891 C95.1100372,163.606154 95.2737176,163.261 95.32309,162.903462 C95.379439,162.857154 95.4373979,162.818923 95.492137,162.764 C101.820395,156.410154 108.872603,150.317462 114.452225,143.283 C118.041386,138.758846 122.308882,134.613231 125.802518,129.964692 L134.927832,119.310154 C137.23009,116.620538 139.708908,114.006308 141.209938,110.81 C142.384143,109.417538 143.561568,108.026692 144.72826,106.627231 C146.524987,104.472846 148.311518,102.310385 150.083023,100.135538 C150.908401,99.1216154 151.770272,98.1938462 152.437336,97.1686154 C152.764697,97.1104615 153.076495,96.9209231 153.301891,96.5563846 C154.441213,94.7175385 155.494134,92.8377692 156.474606,90.923 C156.657606,90.8147692 156.81431,90.6494615 156.915738,90.4087692 L158.316949,87.0896923 C158.846093,85.9099231 159.35055,84.7177692 159.827102,83.5105385 C159.961803,83.1702308 159.919407,82.8530769 159.773973,82.5849231 L161.168207,78.7424615 C162.019345,77.1459231 162.852773,75.5402308 163.541304,73.8661538 C164.47616,72.7278462 165.699201,72.0063077 166.814374,70.9180769 C168.202706,69.5622308 168.981932,67.8122308 169.728421,66.0487692 C170.975075,63.1006923 171.798307,60.0750769 172.293105,56.9568462 C173.444234,55.5283077 174.357624,53.8940769 175.325753,52.346 C176.864885,49.8852308 178.404017,47.4233846 179.943149,44.961 C180.164251,44.6077692 180.282316,44.2588462 180.332762,43.9217692 C180.719691,42.8852308 180.872102,41.7840769 180.926841,40.6393077 C181.016462,38.7606154 181.230589,37.6605385 182.172958,36.0273846 C183.008533,34.58 181.935219,32.8375385 180.319345,32.7858462" id="Fill-1" fill="#D6906D" mask="url(#mask-2)"></path>
                </g>
                <path d="M153.338247,49.6713757 C156.187123,48.9616229 158.211411,51.7679889 160.913718,52.1394694 C162.228501,52.320144 163.609511,52.2289624 164.75601,53.0135742 C166.23039,54.0227628 167.404575,55.5323243 168.546731,56.9073649 C168.775271,57.1825981 169.157437,56.7829752 168.930526,56.5094305 C167.795427,55.1433955 166.644585,53.727267 165.222318,52.6685476 C164.090476,51.8270881 162.842464,51.7820602 161.496196,51.6413479 C158.511607,51.3295294 156.311436,48.3520572 153.193849,49.1287891 C152.854025,49.2137793 152.998423,49.7558031 153.338247,49.6713757" id="Fill-4" fill="#1D1E1B"></path>
                <path d="M164.251952,52.9994978 C165.2247,52.935376 165.824884,52.3890049 166.708676,51.9882437 C167.659447,51.5574255 168.012127,51.9020801 168.845686,52.2661048 C169.197843,52.4210658 169.440637,52.4517909 169.810585,52.3769821 C170.142334,52.3108565 170.001576,51.6669669 169.671397,51.7330925 C168.792313,51.9094274 168.095849,50.7886319 167.177521,51.035768 C166.133086,51.3156329 165.37383,52.2580896 164.251952,52.3315625 C163.917063,52.3529364 163.91497,53.0208718 164.251952,52.9994978" id="Fill-6" fill="#1D1E1B"></path>
                <path d="M166.380329,50.9631492 C167.246078,50.4454325 168.039343,49.817633 168.726671,49.0475976 C169.466207,48.2203409 169.986771,47.1680137 170.885467,46.5173256 C171.154113,46.3222282 170.90118,45.8502886 170.629493,46.0470209 C169.850421,46.6110596 169.37142,47.4159727 168.775331,48.1756538 C168.029206,49.1266175 167.133551,49.8884784 166.124356,50.4928445 C165.83949,50.6634185 166.094957,51.1342681 166.380329,50.9631492" id="Fill-8" fill="#1D1E1B"></path>
                <path d="M173.510096,42.1832844 C174.107113,40.862886 175.790938,39.6046966 176.954258,38.8127938 C178.080717,38.0461109 180.58607,36.7705478 181.838188,37.978858 C182.034215,38.5224855 182.229684,39.066113 182.425712,39.6097405 C182.311223,39.8675433 182.197292,40.1259065 182.082803,40.3837092 C181.864437,40.8034793 181.589105,41.189623 181.374647,41.6116348 C181.109927,42.1311634 180.900496,42.6792745 180.746354,43.2413965 C180.259916,45.0118288 180.533573,46.8500744 180.248747,48.6479683 C180.193457,49.001046 180.731275,49.1529254 180.787682,48.7970455 C180.986502,47.5382956 180.907197,46.282348 181.008841,45.0174332 C181.142877,43.3456385 181.814173,42.1193942 182.564774,40.6667318 C183.224342,39.3911686 183.252266,38.0343416 181.814173,37.3270654 C180.396744,36.6304376 178.686112,37.1566914 177.392667,37.8785391 C175.855722,38.7365739 173.767556,40.2637749 173.027567,41.9002618 C172.880686,42.2264383 173.361539,42.5117027 173.510096,42.1832844" id="Fill-10" fill="#1D1E1B"></path>
                <path d="M163.505614,78.8603064 C164.286491,77.2538975 165.71323,76.24696 167.004405,75.0709268 C168.175995,74.0028966 168.989936,72.8143176 169.504092,71.3175481 C170.125707,69.5082243 170.728034,67.7414472 171.42129,65.957215 C172.14265,64.0993444 172.051171,62.2120184 171.878133,60.2614179 C171.847824,59.914499 171.296195,59.9112262 171.327056,60.2614179 C171.525994,62.5032994 171.489072,64.4637183 170.566569,66.5577774 C169.901969,68.0660018 169.509602,69.6211366 168.972853,71.1719076 C168.337461,73.0079595 167.186811,74.1965385 165.748499,75.4396644 C164.671694,76.3707816 163.658263,77.2915349 163.030035,78.5848441 C162.876835,78.8995803 163.351864,79.176679 163.505614,78.8603064" id="Fill-12" fill="#1D1E1B"></path>
                <path d="M171.487195,62.8671599 C173.912094,58.1434025 176.977125,53.7784984 179.954026,49.3861122 C180.14559,49.1038918 179.68858,48.8391119 179.498599,49.1192183 C176.521698,53.5116045 173.456139,57.8765086 171.031767,62.600266 C170.876616,62.902041 171.332043,63.1694634 171.487195,62.8671599" id="Fill-14" fill="#1D1E1B"></path>
                <path d="M161.993799,75.6684497 C161.093237,71.2214016 158.862501,67.8846595 155.574742,64.8888984 C151.549684,61.2201763 148.157269,56.448561 146.518361,51.1845353 C146.417368,50.8604975 145.911881,50.9986901 146.013397,51.3248457 C147.533521,56.2065916 150.571153,60.8241302 154.217881,64.3504238 C155.62393,65.7101118 157.115274,66.9511977 158.319861,68.5104972 C159.977607,70.6564534 160.951429,73.1550389 161.489359,75.8098192 C161.556862,76.142858 162.061302,76.0020181 161.993799,75.6684497" id="Fill-16" fill="#1D1E1B"></path>
                <path d="M154.957246,61.6100358 C152.958598,58.4522906 151.22528,55.1537407 150.234886,51.4944118 C149.300619,48.0428364 149.240919,44.2889293 147.476986,41.1285274 C147.312176,40.8331031 146.87081,41.0998351 147.036641,41.3968534 C148.905175,44.7448178 148.885275,48.8286862 149.979761,52.4651674 C150.998219,55.8487315 152.650408,58.9289013 154.516391,61.8783618 C154.696509,62.1626279 155.138385,61.8969587 154.957246,61.6100358" id="Fill-18" fill="#1D1E1B"></path>
                <path d="M154.68953,52.337674 C153.689878,52.5067356 152.39112,52.5655898 151.859158,51.3498464 C151.360815,50.2119982 151.470569,48.5796593 151.643111,47.3621849 C151.695021,46.9986735 151.218431,46.842883 151.167015,47.2087023 C150.960361,48.6604396 150.78337,50.8986307 151.684639,52.1149512 C152.448469,53.1460539 153.774418,53.0710436 154.821038,52.894481 C155.13448,52.8413968 155.001489,52.2851668 154.68953,52.337674" id="Fill-20" fill="#1D1E1B"></path>
                <path d="M153.478095,50.665236 C153.053718,47.958922 155.397914,45.9591142 154.940521,43.1924104 C154.885052,42.8557245 154.460676,42.9978808 154.516144,43.3340323 C154.962972,46.0376742 152.620537,48.0460328 153.053718,50.8073923 C153.106545,51.1446127 153.530921,51.001922 153.478095,50.665236" id="Fill-22" fill="#1D1E1B"></path>
                <path d="M153.934887,41.5926096 C152.926551,40.5110036 151.730639,39.6485403 150.370478,39.0249709 C150.089116,38.8961187 149.842256,39.3014859 150.125076,39.4308083 C151.449763,40.0383887 152.608742,40.8716957 153.591324,41.9250859 C153.801252,42.1503421 154.143844,41.8169253 153.934887,41.5926096" id="Fill-24" fill="#1D1E1B"></path>
                <path d="M155.426366,44.9690374 C157.406739,44.0009903 158.983641,42.4239372 159.967664,40.4310328 C160.128492,40.1049419 159.645447,39.8169138 159.483498,40.1441409 C158.538141,42.0597833 157.046417,43.5482124 155.143376,44.4787647 C154.818917,44.6372654 155.102468,45.1269699 155.426366,44.9690374" id="Fill-26" fill="#1D1E1B"></path>
                <path d="M158.993284,39.5966319 C158.798838,38.5520792 158.243793,37.6737786 157.43651,37.0590326 C157.119858,36.8180316 156.818858,37.3773602 157.1325,37.6157837 C157.813965,38.1332271 158.250415,38.8948935 158.412955,39.768039 C158.488205,40.1740033 159.068534,40.0025962 158.993284,39.5966319" id="Fill-28" fill="#1D1E1B"></path>
                <path d="M159.317949,40.3100946 C160.78536,40.0772868 162.042417,41.1600673 163.513883,40.9796039 C164.566161,40.8499893 165.403017,40.2323258 165.959569,39.367896 C166.134441,39.0962038 165.695992,38.8459479 165.521626,39.1161445 C164.592519,40.5593534 163.110915,40.6690273 161.584706,40.1635303 C160.760016,39.8903426 160.053935,39.691434 159.183119,39.8290249 C158.862265,39.8803722 158.998615,40.3609434 159.317949,40.3100946" id="Fill-30" fill="#1D1E1B"></path>
                <path d="M165.010784,40.3558593 C165.593205,42.6363081 167.163557,44.224406 168.990749,45.4240979 C170.930909,46.6979087 172.706946,47.6735202 174.868245,46.4129244 C175.169314,46.2365329 174.90075,45.7401087 174.599148,45.9165002 C172.546554,47.1144684 170.652221,45.9073071 168.888439,44.6783124 C167.327679,43.5912353 166.029088,42.1772306 165.524465,40.203025 C165.433345,39.8467947 164.919664,39.9984799 165.010784,40.3558593" id="Fill-32" fill="#1D1E1B"></path>
                <path d="M174.97911,45.6788938 C173.83024,42.84549 172.68137,40.0120862 171.53197,37.178146 C171.4042,36.8627274 170.890999,37.0011254 171.02089,37.3208354 C172.16976,40.1542392 173.31863,42.987643 174.46803,45.8221196 C174.5958,46.1370019 175.109001,45.9991403 174.97911,45.6788938" id="Fill-34" fill="#1D1E1B"></path>
                <path d="M154.463523,33.084629 C155.772931,32.0246761 156.954631,31.2805963 158.724532,31.6784007 C159.929018,31.9494436 161.122376,32.3915631 162.28341,32.8001886 C164.798364,33.6859733 167.235422,34.7531403 169.599882,35.9676805 C169.901401,36.122783 170.169536,35.6775719 169.867487,35.5224694 C167.041475,34.0714107 164.108421,32.8331672 161.076804,31.8479314 C159.867018,31.4547646 158.468585,30.849298 157.162886,31.0342874 C155.964759,31.2033027 154.988134,31.9922128 154.088876,32.7203185 C153.82657,32.9326183 154.203337,33.2953829 154.463523,33.084629" id="Fill-36" fill="#1D1E1B"></path>
                <path d="M149.377863,37.9639933 C151.034809,36.9925606 152.550567,35.8184172 153.923119,34.446828 C154.158097,34.2119993 153.801092,33.840275 153.566619,34.0745771 C152.224825,35.4151015 150.742852,36.5602863 149.123724,37.509605 C148.840339,37.6754593 149.094478,38.1303741 149.377863,37.9639933" id="Fill-38" fill="#1D1E1B"></path>
                <path d="M149.981931,42.6703461 C148.924934,39.5711143 149.027653,36.7281768 149.424314,33.4889477 C149.700371,31.2357627 149.211539,29.1798967 148.420052,27.1422193 C148.295322,26.8208869 147.899578,27.1008815 148.02385,27.4205604 C148.466826,28.560381 148.863028,29.7977588 149.017106,31.0505694 C149.200533,32.5469973 148.852481,33.9905129 148.694733,35.4632405 C148.425096,37.9787827 148.741966,40.4772386 149.539873,42.8169574 C149.650387,43.1410457 150.09428,42.9988437 149.981931,42.6703461" id="Fill-40" fill="#1D1E1B"></path>
                <path d="M148.491816,26.8053722 C148.840197,24.9538279 150.117759,23.5648997 150.645119,21.7856898 C151.185083,19.9654544 151.034841,18.0372572 150.684948,16.1943498 C150.620415,15.8542703 150.134397,15.9978594 150.19893,16.3373992 C150.614365,18.5268638 150.680915,20.7557345 149.70787,22.7940527 C149.090264,24.0874347 148.279057,25.2107769 148.005798,26.661783 C147.941769,27.0013228 148.427787,27.1465314 148.491816,26.8053722" id="Fill-42" fill="#1D1E1B"></path>
                <path d="M150.737006,16.7331368 C150.841872,15.2184186 151.82587,14.0589637 152.4306,12.7082985 C153.000375,11.4363343 153.093007,10.0396678 152.924638,8.67459248 C152.645576,6.40667204 150.753901,4.4180849 148.365275,4.0051815 C147.998824,3.94199897 147.841525,4.47627934 148.210305,4.54001611 C151.456506,5.10089966 152.724226,8.09652771 152.337385,10.9253317 C152.050167,13.0269823 150.30181,14.5949068 150.154414,16.7331368 C150.129945,17.0895084 150.712537,17.0884 150.737006,16.7331368" id="Fill-44" fill="#1D1E1B"></path>
                <path d="M144.569454,15.8078694 C145.708527,12.3181045 146.847024,8.8283395 147.985521,5.33857453 C148.096033,4.99962863 147.541174,4.8541299 147.430662,5.19197354 L144.014595,15.6612684 C143.903508,16.0007655 144.459518,16.1457131 144.569454,15.8078694" id="Fill-46" fill="#1D1E1B"></path>
                <path d="M145.919493,42.5269366 C144.017445,40.6037185 144.787682,37.8252471 144.260737,35.4435427 C143.875057,33.6994209 142.874422,32.2043806 141.49035,31.0680838 C141.215105,30.8426981 140.816533,31.2300971 141.09402,31.457687 C143.244405,33.2221983 143.839741,35.4060702 143.949615,38.0781861 C144.023051,39.8586782 144.203557,41.5824106 145.523163,42.9170908 C145.774863,43.171683 146.171193,42.7820798 145.919493,42.5269366" id="Fill-48" fill="#1D1E1B"></path>
                <path d="M143.337726,31.6761528 C142.802644,29.7898014 144.053052,27.7855531 143.998244,25.8423399 C143.951347,24.1677857 143.421915,22.57722 142.527475,21.1269831 C142.347231,20.8353707 141.859046,21.0982913 142.03929,21.3904254 C143.147311,23.1854849 143.646796,25.212165 143.346201,27.2711885 C143.11793,28.8356707 142.341015,30.2227859 142.793038,31.8149165 C142.884573,32.139394 143.429825,32.0016737 143.337726,31.6761528" id="Fill-50" fill="#1D1E1B"></path>
                <path d="M142.944496,22.6630597 C142.488849,20.8682485 144.471148,19.3521955 144.849549,17.6541075 C145.160099,16.261947 144.971159,14.7980592 144.454968,13.4857768 C143.596389,11.3035299 141.728915,8.67624807 139.189192,9.03271072 C138.857765,9.07889871 138.998687,9.60272491 139.327504,9.55653692 C142.378199,9.12834703 144.598499,13.8378923 144.472714,16.4619138 C144.394946,18.0795804 143.60474,19.1006068 142.855245,20.4248438 C142.409515,21.2111265 142.214834,21.9153576 142.441353,22.8076009 C142.52695,23.145045 143.030614,23.0015905 142.944496,22.6630597" id="Fill-52" fill="#1D1E1B"></path>
                <path d="M146.705589,27.0039559 C146.193878,27.1106901 145.681697,27.2174244 145.169986,27.323461 C144.872152,27.3855482 144.99879,28.0580436 145.294748,27.9959564 C145.806459,27.8899198 146.318171,27.7831855 146.830351,27.6771489 C147.127716,27.6150617 147.001078,26.9425663 146.705589,27.0039559" id="Fill-54" fill="#1D1E1B"></path>
                <path d="M144.277261,16.8336474 C145.425948,17.0328605 146.56997,17.0536119 147.72099,16.8934113 C148.091252,16.842778 148.094751,16.0118935 147.72099,16.0633569 C146.56997,16.2235574 145.425948,16.202806 144.277261,16.003593 C143.905833,15.9388487 143.909331,16.7697332 144.277261,16.8336474" id="Fill-56" fill="#1D1E1B"></path>
                <path d="M149.598849,17.0324631 C149.154471,17.2639075 148.687264,17.4100829 148.192449,17.4852891 C147.855316,17.5371919 147.998664,18.0477466 148.333142,17.9963734 C148.873085,17.9137525 149.382765,17.7416256 149.866431,17.4900557 C150.170116,17.3322286 149.902002,16.8751657 149.598849,17.0324631" id="Fill-58" fill="#1D1E1B"></path>
                <path d="M135.720131,29.6564081 C135.280547,27.8277771 135.854116,26.1071013 136.468736,24.3875272 C136.998974,22.9036923 137.442549,21.4363811 137.703107,19.8842479 C138.237906,16.6946087 138.575434,13.4664139 138.997344,10.2619033 C139.043526,9.91104848 138.472807,9.91435324 138.427195,10.2619033 C137.948841,13.8971337 137.687143,17.6458273 136.862708,21.224326 C136.205897,24.0774311 134.44984,26.8049554 135.170508,29.8029189 C135.25375,30.1482658 135.803373,30.001755 135.720131,29.6564081" id="Fill-60" fill="#1D1E1B"></path>
                <path d="M137.290874,14.9990073 C137.659283,14.9775593 138.039223,14.9867513 138.382747,14.8852563 C138.826415,14.7538874 138.999391,14.4808085 138.999998,14.1851326 C139.001212,13.9384807 138.394279,13.9380977 138.393065,14.1851326 C138.391851,14.6179224 137.814658,14.5857504 137.290874,14.6160074 C136.904865,14.6386044 136.901223,15.0219873 137.290874,14.9990073" id="Fill-62" fill="#1D1E1B"></path>
                <path d="M139.540949,11.1702901 C139.132962,12.3256058 138.957652,13.5174372 139.008593,14.7554204 C139.022361,15.0805114 139.481289,15.0825401 139.467521,14.7554204 C139.418416,13.5610532 139.590514,12.4179094 139.983356,11.3057025 C140.090745,11.0008979 139.647421,10.8690357 139.540949,11.1702901" id="Fill-64" fill="#1D1E1B"></path>
                <path d="M137.00332,35.3509143 C137.232682,36.9853799 138.250037,38.1554896 139.2169,39.3932131 C140.510349,41.0511479 140.912134,42.8012833 141.47023,44.8034338 C141.566379,45.1482083 142.084725,45.0018049 141.988039,44.6547953 C141.536836,43.0365346 141.252148,41.3478663 140.304085,39.948652 C139.262558,38.4119749 137.796148,37.1591641 137.521129,35.2022757 C137.471712,34.8480018 136.953903,34.9983168 137.00332,35.3509143" id="Fill-66" fill="#1D1E1B"></path>
                <path d="M141.012099,44.351746 C141.567053,46.2866351 142.811017,47.8945889 144.566617,48.9555654 C144.887413,49.1494523 145.181867,48.6576277 144.862241,48.4643094 C143.233672,47.4806602 142.090981,45.9949519 141.576419,44.2005028 C141.475731,43.8485497 140.910825,43.9986557 141.012099,44.351746" id="Fill-68" fill="#1D1E1B"></path>
                <path d="M128.329382,28.7046022 C129.95368,28.1560152 132.74819,28.8791526 133.975908,29.9809065 C135.330576,31.1966526 135.829692,33.2312079 136.45847,34.8270972 C136.578909,35.1319242 137.102982,35.0001209 136.982,34.6922405 C136.278354,32.9075517 135.707625,30.5854717 134.025277,29.3488611 C132.616358,28.3127544 129.908651,27.6318552 128.185072,28.2140291 C127.859019,28.32395 127.999531,28.8160498 128.329382,28.7046022" id="Fill-70" fill="#1D1E1B"></path>
                <path d="M128.004193,30.343451 C128.254208,31.863806 129.127595,33.0650944 129.873752,34.3845962 C130.773808,35.9788345 131.28995,37.723576 131.69442,39.4945871 C132.423354,42.6901785 132.840046,45.9618423 134.482925,48.8657314 C134.65738,49.173305 135.136854,48.8974738 134.962399,48.5893529 C133.270072,45.5973512 132.913384,42.1965283 132.129447,38.9155606 C131.782203,37.4630688 131.342176,36.0226172 130.664912,34.6839605 C129.906532,33.1860442 128.818132,31.892812 128.539781,30.1978734 C128.483111,29.8514426 127.947522,29.9981147 128.004193,30.343451" id="Fill-72" fill="#1D1E1B"></path>
                <path d="M134.755024,50.2592401 C134.870844,52.3148499 135.176524,54.342463 135.705381,56.3313113 C136.264384,58.4321467 137.15498,60.3789999 137.877928,62.4189962 C139.344979,66.5571359 141.012466,71.3456623 140.361443,75.7831523 C139.23339,83.4671921 135.977743,91.4242005 130.087328,96.5503036 C129.828188,96.775893 130.203677,97.1560032 130.46123,96.9314905 C136.331549,91.8220778 139.516329,84.0346653 140.792991,76.4163102 C141.523872,72.0531195 140.184804,67.8622166 138.875353,63.7359217 C138.185723,61.5629407 137.21051,59.5014084 136.539918,57.3225051 C135.833365,55.0246154 135.419798,52.6631945 135.283882,50.2592401 C135.264314,49.9146643 134.735457,49.9125107 134.755024,50.2592401" id="Fill-74" fill="#1D1E1B"></path>
                <path d="M156.476546,95.8677237 C157.77979,93.3544215 159.002321,90.8432462 159.818712,88.1114192 C160.623793,85.4189373 161.268475,82.6631842 162.949583,80.3806358 C163.149568,80.1084102 162.703329,79.8430965 162.505401,80.112132 C160.971325,82.1952963 160.277804,84.6729752 159.563204,87.1469322 C158.701572,90.1307806 157.452822,92.8610125 156.032877,95.5992198 C155.876591,95.9006885 156.319745,96.169724 156.476546,95.8677237" id="Fill-76" fill="#1D1E1B"></path>
                <path d="M166.993154,71.6671461 C166.665174,70.1247485 165.729281,68.8262798 164.390202,68.0380379 C164.09878,67.8654768 163.835561,68.3261722 164.12646,68.4976681 C165.355864,69.2214659 166.188871,70.3953072 166.489694,71.8088166 C166.560722,72.1438194 167.064182,72.0016163 166.993154,71.6671461" id="Fill-78" fill="#1D1E1B"></path>
                <path d="M167.959011,68.711304 C167.790492,68.5040773 167.621973,68.2968505 167.453454,68.0896238 C167.282549,67.8796341 166.869129,68.0769929 167.040989,68.2885615 L167.546546,68.9106364 C167.717451,69.1202314 168.130871,68.9228726 167.959011,68.711304" id="Fill-80" fill="#1D1E1B"></path>
                <path d="M168.985846,67.7626887 C168.846901,67.3906877 168.583964,67.1182308 168.225844,67.0083755 C167.999375,66.9389724 167.902734,67.3216812 168.128474,67.3910843 C168.354942,67.4600909 168.544578,67.6282448 168.63429,67.8681814 C168.72145,68.101376 169.074464,67.9994526 168.985846,67.7626887" id="Fill-82" fill="#1D1E1B"></path>
                <path d="M169.035889,54.365275 C169.908994,55.7998273 170.884536,57.2943354 172.593062,57.9772466 C172.903559,58.1015453 173.173717,57.6818546 172.861098,57.5565811 C171.231655,56.9048664 170.326174,55.4863998 169.494468,54.1196024 C169.327808,53.845658 168.869229,54.0913306 169.035889,54.365275" id="Fill-84" fill="#1D1E1B"></path>
                <path d="M171.021238,46.3559024 C171.82572,48.5266806 173.641779,49.9474345 175.743522,49.9999004 C176.085493,50.0088434 176.085493,49.4126396 175.743522,49.4036965 C173.902505,49.358385 172.244157,48.1147038 171.533133,46.1973122 C171.404097,45.8479367 170.890078,46.0011611 171.021238,46.3559024" id="Fill-86" fill="#1D1E1B"></path>
                <path d="M164.694407,37.1055369 L164.043233,38.4635822 C163.896756,38.7684868 164.157448,39.2020613 164.305408,38.8947174 C164.522343,38.4416291 164.739648,37.9891506 164.956953,37.5366721 C165.103059,37.2317674 164.842367,36.7975832 164.694407,37.1055369" id="Fill-88" fill="#1D1E1B"></path>
                <path d="M171.989958,40.0101196 C171.174639,40.1952454 170.84496,40.9102521 171.068127,41.5925569 C171.222822,42.0659024 171.604488,42.4311655 171.942409,42.8108395 C172.514908,43.453237 172.995477,44.1322162 173.415817,44.8599711 C173.599676,45.1781213 174.146181,44.8976613 173.962956,44.5800653 C173.613624,43.9736953 173.223716,43.3950388 172.764702,42.846867 C172.394448,42.4045606 170.726403,40.8697904 172.158602,40.5444347 C172.552947,40.4551974 172.385572,39.9203281 171.989958,40.0101196" id="Fill-90" fill="#1D1E1B"></path>
                <path d="M140.546057,31.0342949 C140.077242,31.234164 139.607801,31.4347988 139.138986,31.6350507 C138.811251,31.7748059 139.123379,32.1067723 139.45361,31.9658685 C139.92305,31.7652336 140.391866,31.5653646 140.861306,31.3647298 C141.188416,31.2249746 140.876913,30.8930082 140.546057,31.0342949" id="Fill-92" fill="#1D1E1B"></path>
                <path d="M139.760046,23.0069683 C139.221673,22.9723462 138.691759,23.0668358 138.174285,23.2882732 C137.868278,23.4188275 137.998642,24.1148767 138.307136,23.9836011 C138.784308,23.7794748 139.262972,23.6965259 139.760046,23.7282629 C140.080482,23.7484591 140.079487,23.0271646 139.760046,23.0069683" id="Fill-94" fill="#1D1E1B"></path>
                <path d="M136.555356,36.0754706 C135.912682,36.7249323 135.113493,37.2313151 134.178159,37.5502151 C133.862986,37.6574122 134.00074,38.0915827 134.320737,37.9825915 C135.343441,37.634089 136.228927,37.1057286 136.934314,36.3925766 C137.152469,36.1719031 136.775655,35.8530031 136.555356,36.0754706" id="Fill-96" fill="#1D1E1B"></path>
                <path d="M137.498269,37.0390136 C136.872723,37.3584398 136.367652,37.864142 136.041308,38.4922349 C135.842722,38.874874 136.413988,39.215147 136.613237,38.8318355 C136.891257,38.2965443 137.300345,37.8917136 137.831894,37.6200331 C138.21318,37.4256875 137.878231,36.8453404 137.498269,37.0390136" id="Fill-98" fill="#1D1E1B"></path>
                <path d="M140.5154,45.1023215 C139.963104,45.8343939 139.147955,46.3376937 138.181435,46.5592892 C137.863353,46.6319581 137.998359,47.0648318 138.317464,46.9917143 C139.414387,46.7400644 140.331813,46.1573671 140.956726,45.3288513 C141.139291,45.0875186 140.696431,44.8627831 140.5154,45.1023215" id="Fill-100" fill="#1D1E1B"></path>
                <path d="M141.428355,47.0480321 C140.987662,47.2639808 140.546969,47.4795665 140.106276,47.6955152 C139.788107,47.850853 140.255808,48.106725 140.572001,47.952113 C141.012694,47.7361643 141.453387,47.5205786 141.89408,47.30463 C142.21159,47.1492921 141.743889,46.8930572 141.428355,47.0480321" id="Fill-102" fill="#1D1E1B"></path>
                <path d="M144.620201,52.0536612 C143.499081,52.9320802 142.335714,53.7397578 141.127989,54.4789221 C140.833847,54.6593962 141.099472,55.1406607 141.394143,54.9601865 C142.602396,54.2210223 143.765763,53.4127876 144.886883,52.5343686 C145.156733,52.3227014 144.893748,51.8392088 144.620201,52.0536612" id="Fill-104" fill="#1D1E1B"></path>
                <path d="M142.775127,56.0017691 C142.140532,56.0705574 141.581484,56.2829413 141.081457,56.6453697 C140.843483,56.8173404 141.179668,57.1204389 141.41528,56.949328 C141.807181,56.6651463 142.277461,56.4858668 142.775127,56.431696 C143.073066,56.3994515 143.076843,55.9690947 142.775127,56.0017691" id="Fill-106" fill="#1D1E1B"></path>
                <path d="M165.994831,75.6453572 C165.537935,73.1565578 164.347474,70.9318506 162.510247,69.08773 C162.244427,68.8213758 161.818875,69.2217553 162.083489,69.4875439 C163.855015,71.2655001 164.973747,73.3985951 165.413765,75.7957823 C165.479467,76.1531831 166.060532,76.0021926 165.994831,75.6453572" id="Fill-108" fill="#1D1E1B"></path>
                <path d="M142.426018,78.1882049 C141.711811,80.379129 140.911016,82.5405186 140.020727,84.6766696 C139.885905,84.9994013 140.447857,85.138482 140.580935,84.8195092 C141.471224,82.6838953 142.2726,80.5225057 142.986226,78.3310446 C143.094316,77.999184 142.534108,77.8574184 142.426018,78.1882049" id="Fill-110" fill="#1D1E1B"></path>
                <path d="M138.533959,89.0677891 C137.979661,89.5388658 137.488266,90.0619445 137.050634,90.6319269 C136.846334,90.8975448 137.312998,91.1524565 137.51461,90.8893877 C137.92536,90.354583 138.394713,89.8692313 138.914064,89.4282342 C139.172127,89.2090102 138.790947,88.8495848 138.533959,89.0677891" id="Fill-112" fill="#1D1E1B"></path>
                <path d="M159.981243,79.6615908 C159.199561,77.5906814 158.033473,75.7262491 156.491757,74.0894996 C156.239582,73.8210794 155.827093,74.2167342 156.078097,74.4840383 C157.553113,76.0499159 158.668883,77.8289671 159.417215,79.8100311 C159.543595,80.1448588 160.109378,80.0003249 159.981243,79.6615908" id="Fill-114" fill="#1D1E1B"></path>
                <path d="M143.345331,61.1408416 C143.246427,61.2831775 143.147524,61.4249347 143.049321,61.5672706 C142.824157,61.8907086 143.430206,62.1829021 143.654669,61.8588855 C143.753573,61.7171283 143.852476,61.575371 143.950679,61.4330351 C144.175843,61.1090185 143.569794,60.8174036 143.345331,61.1408416" id="Fill-116" fill="#1D1E1B"></path>
                <path d="M154.114132,53.5188852 C155.963871,54.9096328 158.249588,55.7246932 160.413613,56.4406466 C162.471288,57.120315 164.596688,57.7284963 166.748014,57.9976558 C167.085581,58.0398981 167.082406,57.4977881 166.748014,57.4560874 C164.647482,57.1934267 162.563352,56.5814544 160.554354,55.9180331 C158.426837,55.2156189 156.199321,54.4184303 154.381328,53.0515116 C154.106725,52.8446325 153.842174,53.3141723 154.114132,53.5188852" id="Fill-118" fill="#1D1E1B"></path>
                <path d="M155.088182,57.489344 C157.814706,60.0661855 161.058208,62.2191006 164.659072,62.9933792 C165.001182,63.0669532 165.147722,62.5046377 164.803979,62.4304798 C161.296813,61.6760544 158.129578,59.5873706 155.473328,57.0765122 C155.211298,56.8289299 154.824518,57.24001 155.088182,57.489344" id="Fill-120" fill="#1D1E1B"></path>
                <g id="Group-124" transform="translate(18.000000, 98.000000)">
                    <mask id="mask-4" fill="white">
                        <use xlink:href="#path-3"></use>
                    </mask>
                    <g id="Clip-123"></g>
                    <path d="M135.301508,0.51505198 C120.331295,20.9142401 104.060212,40.3442995 86.5973818,58.6390322 C68.4346625,77.6670866 49.7537455,96.2186708 31.2926862,114.955879 C21.487785,124.906715 11.5533344,134.8187 0.227168379,143.042804 C-0.050744664,143.244616 0.21749249,143.712453 0.49863083,143.508483 C10.3890024,136.326354 19.2402909,127.864285 27.8469945,119.206339 C37.144449,109.853923 46.360196,100.418948 55.6119589,91.0212054 C73.9714213,72.371953 92.5604174,53.9487946 109.53139,33.9920817 C118.670267,23.24425 127.416734,12.1640223 135.765413,0.78755198 C135.970757,0.507497525 135.504702,0.237695545 135.301508,0.51505198" id="Fill-122" fill="#1D1E1B" mask="url(#mask-4)"></path>
                </g>
                <g id="Group-127" transform="translate(1.000000, 96.000000)">
                    <mask id="mask-6" fill="white">
                        <use xlink:href="#path-5"></use>
                    </mask>
                    <g id="Clip-126"></g>
                    <path d="M0.542221399,115.131463 C7.77201975,106.2714 17.006172,99.4562155 25.8085095,92.2719291 C34.9564066,84.8063709 42.9851432,76.3278029 51.0349045,67.7204534 C55.1595177,63.3095505 59.3294148,58.9320553 63.7661638,54.8309825 C68.3118099,50.6286087 73.1642008,46.7807883 78.1244107,43.0816864 C87.5785136,36.0304922 97.4213037,29.4604777 106.285637,21.6522204 C110.574135,17.8744485 114.526777,13.7270359 118.922016,10.0699631 C122.786785,6.85527379 127.121645,4.21228835 130.845172,0.828943689 C131.10232,0.595628155 130.720102,0.21521068 130.464032,0.447987379 C127.306555,3.31674466 123.674674,5.59763301 120.333905,8.23630777 C116.344604,11.3874146 112.760164,14.9620456 109.046341,18.421366 C100.22783,26.6364437 90.314958,33.4667155 80.6155671,40.575565 C75.8510486,44.0666767 71.1404395,47.6423854 66.671884,51.509065 C62.1019786,55.4635748 57.8361226,59.7483903 53.6770074,64.1280408 C45.5275136,72.7079097 37.692851,81.5782107 28.6328263,89.2334388 C18.8978551,97.4592932 8.27876872,104.801458 0.161081481,114.750507 C-0.0561736626,115.01723 0.322809877,115.400342 0.542221399,115.131463" id="Fill-125" fill="#1D1E1B" mask="url(#mask-6)"></path>
                </g>
                <path d="M121.553888,110.059609 C120.0644,111.237136 118.575421,112.415155 117.085934,113.593173 C116.832935,113.793436 117.194871,114.139479 117.445834,113.940198 C118.935322,112.762179 120.424809,111.584161 121.913788,110.406633 C122.167296,110.20637 121.80536,109.860818 121.553888,110.059609" id="Fill-133" fill="#1D1E1B"></path>
                <path d="M87.3900264,134.954535 C88.5514944,134.154535 89.7134882,133.355126 90.875482,132.555125 C91.1636144,132.357193 90.8996683,131.846115 90.6104844,132.045229 C89.4484906,132.845229 88.2864968,133.644638 87.124503,134.444638 C86.8363706,134.643161 87.1003167,135.15424 87.3900264,134.954535" id="Fill-135" fill="#1D1E1B"></path>
                <path d="M129.652898,3.03548793 C128.398022,3.83427488 127.479629,5.11073109 127.01373,6.67464373 C126.916668,7.00003588 127.362692,7.14002396 127.459292,6.81623473 C127.886828,5.38322697 128.738664,4.22752384 129.886309,3.49712801 C130.146529,3.33149326 129.913579,2.86931887 129.652898,3.03548793" id="Fill-137" fill="#1D1E1B"></path>
                <path d="M123.602487,0.166675308 C123.226649,1.31895688 123.029424,2.51100702 123.000117,3.7574243 C122.992197,4.08111022 123.388232,4.08060682 123.396153,3.7574243 C123.424667,2.55480278 123.622289,1.4105756 123.984265,0.300579589 C124.08169,0.00156025557 123.698724,-0.128820228 123.602487,0.166675308" id="Fill-139" fill="#1D1E1B"></path>
                <path d="M189,46.2775475 L189,49.7226677 C189,50.0918697 190,50.0930181 190,49.7226677 L190,46.2775475 C190,45.9077713 189,45.9071971 189,46.2775475" id="Fill-141" fill="#1D1E1B"></path>
                <path d="M193.343241,48.1813977 C193.230401,48.6827075 193.118237,49.1840174 193.005397,49.6853272 C192.93445,50.0011525 193.585137,50.1365061 193.656759,49.8186757 C193.769599,49.3173658 193.881763,48.8160559 193.994603,48.3147461 C194.06555,47.9994222 193.414863,47.8630659 193.343241,48.1813977" id="Fill-143" fill="#1D1E1B"></path>
                <path d="M176.56283,71.1551818 C176.049098,72.619064 175.535847,74.0817614 175.022115,75.5456435 C174.90053,75.8916197 175.314303,76.1943489 175.436849,75.8448182 C175.950581,74.380936 176.464313,72.9182386 176.978045,71.4543565 C177.099149,71.1083803 176.685376,70.8056511 176.56283,71.1551818" id="Fill-145" fill="#1D1E1B"></path>
                <path d="M177.493576,74.1135076 C176.864478,75.066894 176.06193,75.8994285 175.089194,76.6134265 C174.823852,76.8079006 175.209902,77.1343394 175.473612,76.9407913 C176.479516,76.2027156 177.312513,75.3326753 177.962816,74.3473396 C178.134636,74.0871147 177.664851,73.8532826 177.493576,74.1135076" id="Fill-147" fill="#1D1E1B"></path>
                <path d="M131.00654,66.3577569 C131.462133,68.7949695 131.604813,71.2396178 131.444913,73.7254488 C131.421297,74.0920888 131.913789,74.0909449 131.936913,73.7254488 C132.100258,71.1858515 131.945769,68.6920128 131.480829,66.2050379 C131.413425,65.8458336 130.939136,65.9979806 131.00654,66.3577569" id="Fill-149" fill="#1D1E1B"></path>
                <path d="M128.008612,70.2897973 C128.278502,71.0972806 128.278502,71.9024516 128.008612,72.7099349 C127.910687,73.0008324 128.678162,73.125701 128.776087,72.8334161 C129.074638,71.9417621 129.074638,71.0579702 128.776087,70.1663162 C128.678162,69.8749562 127.910687,69.9984373 128.008612,70.2897973" id="Fill-151" fill="#1D1E1B"></path>
                <path d="M72.5768504,134.042822 C70.5211378,135.271016 68.6824774,136.764659 67.0757201,138.517074 C66.831822,138.783637 67.2339397,139.178751 67.4795514,138.910519 C69.0543221,137.192607 70.8490009,135.727901 72.8647302,134.523081 C73.1777422,134.336097 72.8910049,133.854726 72.5768504,134.042822" id="Fill-153" fill="#1D1E1B"></path>
            </g>
        </g>
    </g>
</svg>