<svg viewBox="0 0 569 92" xmlns="http://www.w3.org/2000/svg">
  <g fill="none" fill-rule="evenodd">
    <path d="M1723.58 40.062c-.995-3.25-1.85-6.523-1.943-9.93-.128-4.741 1.178-9.101-1.406-13.517-3.228-5.516-9.422-5.832-15.087-6.002l-2.057-.061c-1.638-1.022-3.57-1.652-5.619-1.794-50.254-3.48-90.38-3.308-140.726-1.597-56.433 1.917-92.203.837-147 0-24.582-.376-62.62 3.66-87.18 5.187-24.994 1.553-50.042 1.865-75.075 2.24l-151.062 2.26-166.267 2.488c-.363-.05-.724-.1-1.085-.147a343.387 343.387 0 0 0-32.285-2.767c-43.823-1.677-87.439 4.239-130.883 9.132-9.159 1.032-18.325 2.017-27.5 2.884l-63.335.374c-38.618-2.417-77.23-4.688-115.644-.682l-91.212 3.039c-14.66.489-29.368.728-43.983 2.078-14.922 1.378-29.706 4.564-44.758 3.409-1.53-.117-2.816.166-3.858.725-11.268-.352-22.499.74-33.768 1-24.417.566-48.862-1.181-73.223 1.15l-58.245-3.64c-19.575-1.223-39.583-3.667-59.272-3.251-10.383-2.162-20.788-4.777-30.172-9.833-6.832-3.682-14.104-8.544-21.662-7.163a2.379 2.379 0 0 0-2.22.362c-.215.183-.452.328-.68.487-.823.333-1.648.744-2.477 1.254a2.75 2.75 0 0 0-.979 1.043c-1.337.24-2.632.62-3.89 1.255-1.75.883-2.112 2.18-3.4 3.274-2.544 2.158-5.378 1.873-6.664 4.45-2.823 2.769-5.159 7.247-8.367 10.125-7.515.523-15.036.643-22.43 2.175-5.225 1.083-10.353-1.202-15.596-.505-1.539.205-3.496.58-4.574 1.858-.226.267-.5.602-.658.954-.375-.04-.748-.08-1.114-.127-3.65-.48-3.614 4.736-.798 5.892.045.019.088.028.132.046.433.89 1.277 1.58 2.55 1.629 6.138.23 11.865 2.226 17.857 3.347 4.502.84 8.994.833 13.516.963-.033 1.372.751 2.752 2.07 3.073.412.233.908.377 1.508.362 1.864-.05 4.743 4.253 6.064 5.365 1.66 1.396 3.463 2.793 5.314 3.923 4.27 2.607 9.361 2.797 13.578 5.5 3.796 2.435 7.281 5.123 12.012 5.129 5.802.007 11.768-2.08 17.587-2.612 5.311-.487 10.343-1.23 15.431-2.877 5.887-1.906 11.383-1.225 17.455-1.128 6.564.104 13.116-.2 19.635-.842 5.43 1.15 10.88 2.209 16.461 2.597 13.12.91 26.292 1.094 39.42 1.959 12.954.853 25.866 2.09 38.794 3.252 5.726.515 11.431.862 17.121.853 19.084 2.712 38.246 5.423 57.524 4.194 18.541-1.182 36.851-3.694 55.353-4.7 24.48 1.082 49.043.426 73.535 1.544 34.13 1.559 67.613 8.597 101.585 11.708 2.2.202 3.887-.432 5.075-1.533 12.607.48 25.256.404 37.826.274 35.234-.363 70.468-.738 105.702-1.106l5.697-.061c23.003 2.21 46.156 2.718 69.284 3.287 16.547.406 33.1.898 49.603 2.216 16.405 1.31 32.736 3.42 49.153 4.605 18.93 1.366 37.833 1.224 56.55-2.212a6.997 6.997 0 0 0 2.178-.784c90.532 7.185 181.122 13.973 271.906 16.889 100.643 3.234 201.28.55 301.802-4.8a7410.943 7410.943 0 0 0 46.633-2.64c49.126-.448 98.25-1.121 147.371-2.01 2.527-.045 4.581-.82 6.164-2.044 2.142-.414 4.202-1.406 5.98-3.08 3.77-3.544 4.71-8.59 5.048-13.523 1.106-16.112-7.773-29.998-12.32-44.842" fill="#EFEBD3"/>
    <path d="M99.01 63.435a7.203 7.203 0 0 1-4.602-.467c-.582-.263-1.091.598-.505.863 1.723.78 3.524.979 5.373.568.628-.14.362-1.103-.266-.964M92.263 61.785c-1.809-1.184-3.79-1.678-5.809-2.378-2.555-.887-4.314-2.568-6.545-3.99-.545-.346-1.047.519-.505.864 1.826 1.163 3.32 2.689 5.334 3.55 2.341 1.004 4.856 1.4 7.02 2.817.54.354 1.042-.511.505-.863M78.384 55.675c-1.815-.297-3.37-1.16-5.018-1.918-.53-.244-1.162-.396-1.661-.68-.658-.374-1.017-1.072-1.625-1.503-.526-.373-1.026.494-.505.864.412.291.547.828.93 1.152.672.57 1.84.791 2.608 1.148 1.645.767 3.194 1.605 5.005 1.901.63.103.9-.86.266-.964" fill="#081F2C"/>
    <path d="M71.002 52.986c-3.253.078-6.507.087-9.761.001-3.063-.08-7.376.41-9.844-1.72-.486-.42-1.197.285-.707.706 2.146 1.851 4.925 1.802 7.623 1.914 4.228.178 8.46.201 12.69.1.641-.017.644-1.017 0-1" fill="#081F2C"/>
    <path d="M52.878 52.213c-2.696.044-5.336-.015-7.991-.55-2.161-.434-5.968-.828-6.939-3.11-.251-.59-1.112-.08-.863.506.937 2.202 3.55 2.604 5.639 3.126 3.388.847 6.67 1.085 10.154 1.028.643-.01.645-1.011 0-1" fill="#081F2C"/>
    <path d="M38.484 49.87c-3.208.163-6.395-.192-9.446-1.235-1.407-.482-2.954-1.04-4.181-1.899-2.16-1.509-1.953-3.4-1.35-5.608.17-.62-.795-.886-.965-.265-.93 3.406-.328 5.68 2.857 7.312 4.052 2.075 8.556 2.926 13.085 2.694.642-.033.645-1.033 0-1M86.432 42.632c5-.205 9.983-.05 14.96.464.64.066.635-.934 0-1-4.977-.514-9.96-.669-14.96-.464-.64.026-.645 1.026 0 1M86.3 44.649c1.205.207 2.451.343 3.675.342.643 0 .644-1 0-1a20.203 20.203 0 0 1-3.41-.306c-.629-.11-.9.855-.266.964M89.454 34.918c-3.424-.743-6.965-1.502-10.476-.928-3.772.616-6.92 3.157-10.787 3.355-.64.033-.644 1.033 0 1 3.16-.16 5.701-1.756 8.624-2.768 4.082-1.414 8.274-.584 12.373.305.627.137.895-.827.266-.964" fill="#081F2C"/>
    <path d="M93.254 23.396c-4.27-1.152-9.39-2.323-13.127.837-2.044 1.728-2.172 4.394-3.71 6.457-1.817 2.438-4.368 4.452-6.623 6.475-.48.431.23 1.136.707.708 3.036-2.724 6.676-5.413 8.168-9.323 2.475-6.487 8.663-5.716 14.32-4.19.621.168.887-.797.265-.964" fill="#081F2C"/>
    <path d="M99.653 18.142c-2.68-.424-6.229-1.696-8.899-.885-2.448.743-4.414 3.116-5.679 5.213-.333.552.531 1.055.864.504 1.664-2.756 3.948-5.066 7.438-4.82 2 .143 4.032.639 6.01.952.63.1.901-.863.266-.964" fill="#081F2C"/>
    <path d="M113.214 18.317c-3.893-1.357-7.176-4.274-11.386-4.692-3.586-.356-7.026.921-9.684 3.302-.48.43.23 1.135.708.707 3.016-2.7 7.155-3.779 11.07-2.567 3.185.987 5.875 3.116 9.026 4.214.61.212.871-.753.266-.964M66.061 37.346c-3.968.047-7.917.476-11.885.535-3.165.045-6.166.084-9.123 1.34-.59.252-.08 1.114.505.864 3.356-1.428 6.95-1.114 10.506-1.257 3.335-.132 6.658-.443 9.997-.483.643-.008.645-1.008 0-1" fill="#081F2C"/>
    <path d="M45.438 39.171c-4.718-1.189-9.604-1.71-14.467-1.423-2.613.155-7.133.102-8.378 2.995-.252.585.61 1.095.864.505 1.307-3.038 7.503-2.577 10.157-2.576 3.905.002 7.774.51 11.558 1.463.624.158.891-.807.266-.964" fill="#081F2C"/>
    <path d="M31.162 38.645c-.734 1.143-1.98 1.854-2.853 2.893-1.43 1.708-3.336 1.73-5.233.7-.566-.307-1.072.556-.505.863 1.655.898 3.597 1.278 5.287.231.826-.513 1.297-1.36 1.99-2.019.772-.73 1.591-1.25 2.178-2.163.348-.543-.517-1.045-.864-.505M51.033 38.411a13.103 13.103 0 0 0-1.545 6.688c.023.642 1.023.645 1 0a12.037 12.037 0 0 1 1.408-6.183c.302-.568-.562-1.074-.863-.505M52.544 38.894l-.614 3.385c-.115.63.849.899.964.266l.614-3.385c.115-.63-.849-.9-.964-.266M55.372 38.664c.053 2.497-1.173 4.756-2.39 6.86-.323.557.54 1.062.864.504 1.304-2.254 2.583-4.692 2.526-7.364-.014-.643-1.014-.645-1 0M48.863 38.31a9.094 9.094 0 0 0-2.538 5.856c-.03.644.97.642 1 0a8.03 8.03 0 0 1 2.245-5.149c.45-.46-.256-1.168-.707-.707M40.275 38.614c-1.258 1.659-2.316 3.594-2.712 5.655-.12.629.843.898.965.266.38-1.985 1.398-3.817 2.61-5.417.389-.513-.48-1.012-.863-.505M36.492 41.343l-.232 1.637c-.09.63.874.902.964.266l.232-1.637c.089-.63-.874-.902-.964-.266M75.97 36.413c-1.18 3.076 1.346 6.322 3.356 8.431.446.467 1.152-.24.708-.707-1.757-1.842-4.136-4.754-3.1-7.458.232-.6-.735-.862-.963-.266M83.263 39.473l-.35 1.637c-.135.627.83.896.964.265l.35-1.636c.135-.628-.829-.896-.964-.266M74.11 40.447c.327 1.747 1.11 3.31 2.285 4.64.427.483 1.132-.226.707-.707-1.066-1.208-1.732-2.619-2.028-4.2-.117-.632-1.082-.364-.964.267M73.91 44.532l.468 1.52c.188.614 1.154.352.964-.266l-.468-1.52c-.188-.612-1.154-.35-.964.267M60.065 53.599c-1.011 1.513-1.813 4.533-.32 6.053.745.758 2.194 1.042 3.17 1.339 1.54.47 3.113.762 4.711.943.638.073.633-.927 0-1-2.052-.233-4.082-.69-6.008-1.442-1.21-.474-1.602-1.072-1.632-2.398-.024-1.106.336-2.082.943-2.991.357-.536-.509-1.037-.864-.504" fill="#081F2C"/>
    <path d="M67.833 60.882c-.698-3.583-4.893-5.03-8.023-5.814-.624-.156-.89.808-.266.964 2.771.694 6.705 1.932 7.325 5.116.122.63 1.087.364.964-.266M73.89 59.863c1.097 1.336 1.908 2.968 1.986 4.716.045.99-.049 1.987.441 2.884.31.565 1.173.06.864-.505-.62-1.137-.206-2.768-.555-4.027-.39-1.41-1.106-2.65-2.029-3.775-.408-.498-1.112.213-.707.707" fill="#081F2C"/>
    <path d="M88.925 71.642c-3.73-2.208-7.547-3.296-11.578-4.747-2.265-.815-3.174-2.535-4.963-3.922-1.454-1.127-3.258-1.67-4.99-2.197-.618-.188-.882.777-.267.965 2.465.75 4.402 1.618 6.151 3.56.917 1.017 1.8 1.746 3.093 2.294 1.706.722 3.574 1.062 5.32 1.69 2.353.85 4.58 1.948 6.73 3.22.554.33 1.058-.535.504-.863M150.129 67.543c-8.532-1.579-17.042 1.26-25.097 3.78-5.21 1.63-10.621 1.741-16.005 2.334-5.505.606-13.238 4.355-17.898-.08-.466-.443-1.175.263-.708.708 3.606 3.431 8.464 2.334 12.837 1.34 6.19-1.41 12.596-1.138 18.794-2.464 9.301-1.99 18.007-6.469 27.811-4.654.629.117.899-.847.266-.964M150.076 30.86c-7.003-1.048-14.073-2.11-20.758-4.534-3.242-1.176-6.195-2.788-9.206-4.437-1.332-.73-3.52-2.51-5.111-2.54-.644-.011-.644.989 0 1 1 .019 2.35 1.205 3.224 1.665 1.182.62 2.339 1.282 3.506 1.928a51.595 51.595 0 0 0 8.153 3.642c6.438 2.226 13.214 3.235 19.926 4.24.629.095.9-.87.266-.964M91.33 36.808a81.104 81.104 0 0 1 6.078 1.997c.604.225.864-.741.266-.964-2-.746-4.025-1.411-6.077-1.997-.62-.177-.885.788-.266.964M81.794 26.998a5.958 5.958 0 0 0 1.247 1.738c.462.45 1.17-.258.707-.707a5.181 5.181 0 0 1-1.091-1.536c-.274-.582-1.136-.075-.863.505M80.157 29.102l.818 1.17c.367.523 1.234.023.864-.505l-.819-1.169c-.366-.524-1.234-.025-.863.504M95.074 27.218l5.846 1.988c.61.207.872-.76.265-.965l-5.845-1.988c-.611-.207-.873.759-.266.965M102.433 22.151l7.72 3.381c.584.256 1.094-.606.505-.863l-7.72-3.382c-.584-.255-1.093.606-.505.864M940.61 19.712c-10.741-4.099-22.967-2.87-34.229-2.685-13.02.216-26.035.651-39.044 1.233-26.028 1.163-52.025 2.913-78.019 4.667-51.554 3.48-102.989 6.15-154.673 6.262-26.075.056-52.152-.11-78.224.334-25.529.433-51.054 1.38-76.571 2.223-51.242 1.692-102.489 4.455-153.757 5.137-14.362.191-28.724.073-43.086.223-14.459.15-28.926.534-43.379-.058-14.385-.589-28.636-2.727-42.982-3.849-14.268-1.117-28.57-1.726-42.878-2.03-.643-.015-.643.985 0 1 12.772.271 25.539.785 38.283 1.688 12.812.907 25.532 2.718 38.332 3.668 25.142 1.866 50.564.607 75.755.523 51.166-.17 102.28-2.855 153.408-4.617 51.593-1.779 103.134-3.234 154.762-3.229 25.554.002 51.114 0 76.658-.788 26.049-.805 52.068-2.41 78.07-4.127 28.599-1.889 57.189-3.957 85.814-5.427 14.565-.747 29.139-1.34 43.719-1.677 7.228-.167 14.458-.298 21.687-.298 6.846 0 13.628.326 20.088 2.791.602.23.862-.736.266-.964" fill="#081F2C"/>
    <path d="M149.996 68.525l78.49 6.056c26.072 2.011 52.155 4.533 78.306 5.18 51.221 1.264 102.492-4.028 153.656-.67 25.093 1.647 50.076 4.602 75.142 6.584 12.777 1.011 25.603 1.897 38.426 1.85 12.78-.047 25.541-.872 38.32-1.03 12.368-.154 24.618 1.01 36.961 1.546 12.975.565 25.965.618 38.95.602 26.15-.033 52.278.138 78.413 1.093a1680.61 1680.61 0 0 1 86.291 5.38c14.586 1.285 29.18 2.997 43.838 3.072 14.635.076 29.445-3.3 44.013-1.05.63.097.901-.866.265-.965-12.167-1.879-24.266.396-36.444.886-13.077.526-26.145-.597-39.156-1.799-26.093-2.41-52.214-4.378-78.388-5.653a1680.777 1680.777 0 0 0-78.575-1.989c-25.475-.049-50.86.135-76.29-1.64-25.526-1.783-51.103 1.36-76.662.028-25.629-1.334-51.132-4.31-76.693-6.503-25.219-2.165-50.278-2.874-75.576-2.198-25.934.693-51.867 1.736-77.815 1.692-29.294-.049-58.379-2.438-87.564-4.69l-87.908-6.782c-.642-.049-.639.951 0 1M275.573 70.468l-7.53-.962c-.636-.08-.63.92 0 1l7.53.962c.637.08.63-.92 0-1M251.194 67.558c-5.538-.345-11.075-.69-16.613-1.037-.643-.04-.64.96 0 1l16.613 1.037c.643.04.641-.96 0-1M155.932 63.177a34.707 34.707 0 0 1-3.413-7.386c-.2-.609-1.165-.348-.964.266a35.84 35.84 0 0 0 3.514 7.624c.335.549 1.2.047.863-.504M149.846 59.703a8336.05 8336.05 0 0 1-1.09-4.058c-.168-.621-1.133-.358-.965.266l1.091 4.058c.166.62 1.131.358.964-.266M196.714 40.63l1.246.312c.624.156.891-.81.266-.965l-1.246-.311c-.625-.157-.891.808-.266.964M25.463 24.33l-3.502-6.368c-.311-.564-1.174-.06-.864.505l3.503 6.366c.31.565 1.174.06.863-.504M10.24 30.624l-8.73-1.87c-.627-.135-.895.83-.265.964l8.729 1.87c.627.135.896-.829.266-.964M8.727 47.46c-2.234.315-4.41.833-6.547 1.558-.606.205-.346 1.171.266.964a35.997 35.997 0 0 1 6.547-1.559c.634-.089.364-1.053-.266-.964M20.025 62.223l-4.359 4.058c-.473.44.235 1.145.707.707l4.359-4.058c.472-.44-.236-1.145-.707-.707M83.34 81.948l3.432 2.801c.495.404 1.206-.3.707-.707l-3.433-2.801c-.494-.403-1.206.3-.707.707M81.88 87.01l1.87.935c.573.288 1.08-.575.504-.863l-1.87-.935c-.573-.288-1.08.575-.505.862M107.552 6.025l3.741.624c.63.105.9-.859.266-.965l-3.74-.623c-.63-.105-.9.858-.267.964M111.503 1.27a7.345 7.345 0 0 1 2.284 2.35c.335.549 1.2.047.863-.503a8.474 8.474 0 0 0-2.642-2.71c-.542-.351-1.044.515-.505.864M264.808 33.165a41.47 41.47 0 0 0 7.17 0c.637-.055.642-1.056 0-1a41.47 41.47 0 0 1-7.17 0c-.64-.055-.637.945 0 1M585.41 37.418l-17.5.5c-.641.018-.644 1.02 0 1l17.5-.5c.643-.019.646-1.019 0-1M544.911 41.427l-6.5.5c-.637.05-.643 1.05 0 1l6.5-.5c.638-.049.643-1.049 0-1M530.91 50.918h-6.5c-.643 0-.644 1 0 1h6.5c.645 0 .646-1 0-1" fill="#081F2C"/>
  </g>
</svg>
