<?xml version="1.0" encoding="UTF-8"?>
<svg width="660px" height="79px" viewBox="0 0 660 79" version="1.1" xmlns="http://www.w3.org/2000/svg" xmlns:xlink="http://www.w3.org/1999/xlink">
    <!-- Generator: Sketch 48 (47235) - http://www.bohemiancoding.com/sketch -->
    <title>point-hand-1</title>
    <desc>Created with Sketch.</desc>
    <defs></defs>
    <g id="Page-1" stroke="none" stroke-width="1" fill="none" fill-rule="evenodd">
        <g id="point-hand-1" fill-rule="nonzero">
            <path d="M659.9965,5.347 C659.9965,5.347 603.9995,5.611 577.7855,9.251 C563.3665,9.204 548.9465,9.412 534.5335,9.903 C522.4655,10.313 510.4305,11.001 498.4125,11.85 C473.4985,12.056 448.6075,13.382 423.7285,14.733 C394.8735,16.301 365.9865,18.111 337.5175,23.28 C334.6905,23.584 331.8625,23.88 329.0365,24.201 C327.5755,24.366 326.1735,24.758 324.9005,25.347 C322.0985,25.572 319.2945,25.762 316.4845,25.898 C304.5185,26.474 292.5355,26.106 280.5635,25.945 C257.6565,25.637 234.7465,25.871 211.8445,26.395 C190.7715,26.876 169.7065,27.603 148.6425,28.377 C143.9405,27.845 139.2575,27.146 134.6095,26.127 C124.0955,23.825 113.6435,21.206 103.1685,18.734 C101.5455,18.351 98.6515,17.421 95.5835,16.774 C91.5935,14.668 88.1365,13.017 83.8975,13.826 C78.7565,14.808 74.1095,17.992 69.0715,19.467 C63.5565,21.082 57.9675,21.269 52.3455,22.168 C47.2615,22.537 42.3245,22.912 37.4025,23.463 C33.8895,23.857 27.2885,23.312 25.4115,26.933 C25.3415,27.069 25.2845,27.203 25.2375,27.339 C22.5595,28.212 23.8305,32.528 26.7755,32.073 C27.0525,32.645 27.5285,33.116 28.2295,33.316 C33.0085,34.683 37.9765,34.087 42.8775,33.875 C47.1365,33.692 51.3945,33.509 55.6525,33.325 C55.7875,33.388 55.9085,33.462 56.0665,33.505 C60.6835,34.776 65.1955,35.004 69.8165,34.24 C69.4685,34.853 69.2255,35.563 69.1435,36.384 C69.0875,36.946 68.9265,37.48 68.7255,38.004 C68.3165,38.728 67.9855,39.392 67.6245,39.808 C66.9435,40.591 66.5565,41.431 66.3985,42.269 C66.0485,42.924 65.6565,43.174 65.4765,43.883 C62.5535,44.401 60.1655,45.415 57.8395,46.375 C56.6665,46.86 57.1995,48.284 58.3905,47.793 C59.3335,47.403 62.8615,47.612 63.2295,47.627 C63.7775,47.65 64.5115,47.801 64.5545,47.85 C64.3785,48.339 66.9135,51.432 65.4765,55.461 C65.4185,55.474 61.8865,56.209 60.4605,56.164 C59.1725,56.123 59.9505,58.443 61.2365,58.484 C63.1625,58.544 65.0875,58.578 67.0135,58.62 C70.9705,59.035 75.3755,59.808 79.2715,59.009 C79.3635,59.77 79.7465,60.493 80.4505,60.792 C81.0645,61.052 81.6765,61.313 82.2895,61.572 C82.3495,61.6046667 83.0615,61.9066667 84.4255,62.478 C87.6285,63.889 91.5555,64.588 94.9285,64.938 C97.3445,65.545 99.6465,65.415 99.5285,62.61 C102.4025,62.744 105.2595,62.661 108.1015,62.185 C110.7585,62.277 113.4095,62.227 115.9915,61.878 C121.8725,61.084 126.5315,57.144 132.2745,55.77 C136.5815,54.739 140.9995,55.055 145.3415,54.673 C165.6015,55.11 185.1375,55.485 204.6285,56.779 C223.7205,58.047 242.6335,60.856 261.6815,62.552 C300.2695,65.988 338.9055,62.134 377.4355,59.818 C380.5775,59.629 383.7205,59.457 386.8635,59.296 C419.7415,57.118 456.1675,58.683 490.5035,59.2 C531.7085,59.82 572.1155,63.175 613.2145,60.335 C615.3695,60.434 617.5265,60.488 619.6765,60.513 C630.9895,60.647 653.6225,58.618 653.6225,60.614 C653.6225,62.61 659.9965,5.347 659.9965,5.347 Z" id="Fill-1" fill="#623F2B"></path>
            <path d="M100.6065,35.137 C96.8915,38.254 92.2595,39.574 87.8365,41.345 C85.5475,42.262 83.5075,43.32 80.9655,43.258 C78.5235,43.198 76.0895,42.706 73.6455,42.588 C69.3515,42.381 64.9395,42.711 60.9225,44.35 C58.3085,45.417 55.3215,47.581 55.8155,50.761 C55.9135,51.395 56.8775,51.126 56.7795,50.495 C55.9235,44.979 66.2445,43.714 69.7715,43.564 C73.8195,43.392 77.8205,44.414 81.8315,44.268 C85.3185,44.142 88.6985,42.083 91.9135,40.866 C95.2865,39.589 98.5245,38.184 101.3135,35.844 C101.8075,35.43 101.0965,34.726 100.6065,35.137" id="Fill-119" fill="#081F2C"></path>
            <path d="M93.8853,39.7556 C94.3803,39.0226 94.4153,38.2456 94.3593,37.3796 C94.2713,36.0416 94.3573,34.8976 95.0193,33.6956 C95.3303,33.1316 94.4673,32.6276 94.1563,33.1916 C93.6883,34.0396 93.3863,34.9246 93.3143,35.8966 C93.2313,37.0086 93.6903,38.2606 93.0213,39.2516 C92.6603,39.7856 93.5263,40.2866 93.8853,39.7556" id="Fill-121" fill="#081F2C"></path>
            <path d="M91.6886,40.2962 C91.4766,38.7972 90.4276,37.5842 90.2276,36.0902 C90.1426,35.4622 89.1416,35.4532 89.2276,36.0902 C89.4406,37.6862 90.4996,38.9782 90.7246,40.5622 C90.8136,41.1962 91.7776,40.9262 91.6886,40.2962" id="Fill-123" fill="#081F2C"></path>
            <path d="M87.9605,41.6174 C86.4725,39.2144 84.5305,36.7754 84.2255,33.8974 C83.9765,31.5384 84.3725,29.1954 83.9685,26.8394 C83.8605,26.2064 82.8965,26.4744 83.0045,27.1054 C83.4745,29.8464 82.7585,32.6754 83.4415,35.3814 C84.0605,37.8314 85.7875,40.0074 87.0975,42.1214 C87.4355,42.6684 88.3005,42.1664 87.9605,41.6174" id="Fill-125" fill="#081F2C"></path>
            <path d="M86.7081,39.7244 C84.5431,38.1734 82.0191,37.9774 79.5181,37.2744 C76.2031,36.3424 73.2361,34.5394 70.3141,32.7684 C69.7621,32.4334 69.2591,33.2984 69.8091,33.6314 C72.2971,35.1404 74.8051,36.6504 77.5391,37.6754 C80.4011,38.7474 83.6641,38.7684 86.2031,40.5884 C86.7271,40.9634 87.2271,40.0964 86.7081,39.7244" id="Fill-127" fill="#081F2C"></path>
            <path d="M85.4474,42.5003 C83.8824,42.1073 82.3714,41.2753 81.2104,40.1523 C80.7474,39.7053 80.0394,40.4113 80.5034,40.8593 C81.7854,42.0993 83.4504,43.0303 85.1814,43.4643 C85.8054,43.6213 86.0724,42.6563 85.4474,42.5003" id="Fill-129" fill="#081F2C"></path>
            <path d="M69.3414,33.4714 C68.9164,34.9614 67.6784,36.1114 67.1034,37.5734 C66.3614,39.4614 65.4854,41.2344 64.3944,42.9444 C64.0474,43.4884 64.9124,43.9904 65.2574,43.4494 C66.2804,41.8454 67.1514,40.1734 67.8504,38.4034 C68.5034,36.7554 69.8244,35.4214 70.3054,33.7374 C70.4834,33.1174 69.5184,32.8524 69.3414,33.4714" id="Fill-131" fill="#081F2C"></path>
            <path d="M70.0865,32.6526 C67.5225,33.0936 64.9265,33.5496 62.3155,33.3956 C60.0645,33.2616 57.9635,32.3906 55.7195,32.2666 C53.6735,32.1526 51.6575,32.6016 49.6175,32.6566 C47.8885,32.7036 46.1855,32.4046 44.4595,32.3796 C41.2645,32.3326 38.0705,32.6486 34.8785,32.7356 C33.4285,32.7756 31.9555,32.8186 30.5105,32.6616 C27.8135,32.3706 22.2945,29.0936 26.2975,26.0986 C26.8075,25.7176 26.3095,24.8496 25.7935,25.2356 C23.1925,27.1816 23.9285,30.7516 26.4755,32.4086 C29.7995,34.5716 34.7565,33.7666 38.4735,33.5836 C43.1745,33.3516 47.8825,33.8706 52.5495,33.4096 C55.7025,33.0986 58.3185,33.9836 61.3895,34.3196 C64.3935,34.6476 67.3995,34.1256 70.3525,33.6166 C70.9845,33.5076 70.7165,32.5436 70.0865,32.6526" id="Fill-133" fill="#081F2C"></path>
            <path d="M57.5802,32.5364 C56.1342,31.8714 56.0652,29.8774 55.7492,28.5164 C55.6042,27.8904 54.6402,28.1554 54.7852,28.7834 C55.1672,30.4314 55.3272,32.5964 57.0762,33.3994 C57.6562,33.6664 58.1652,32.8054 57.5802,32.5364" id="Fill-135" fill="#081F2C"></path>
            <path d="M45.6339,32.6502 C44.4989,32.0942 43.5719,31.2842 43.5359,29.9392 C43.5189,29.2972 42.5189,29.2942 42.5359,29.9392 C42.5819,31.6362 43.6639,32.7962 45.1289,33.5132 C45.7049,33.7962 46.2119,32.9332 45.6339,32.6502" id="Fill-137" fill="#081F2C"></path>
            <path d="M61.4537,19.6428 C58.6217,20.0488 55.8507,19.2238 53.0457,20.0048 C51.6137,20.4038 50.2467,20.9958 48.7927,21.3238 C46.7407,21.7868 44.7047,21.7558 42.6197,21.8118 C37.8487,21.9418 32.7767,22.1458 28.2057,23.6328 C27.5967,23.8308 27.8577,24.7968 28.4717,24.5978 C33.5967,22.9298 39.2667,22.8958 44.6087,22.7888 C47.5617,22.7288 50.1087,21.9588 52.9077,21.0978 C55.8457,20.1948 58.7447,21.0338 61.7197,20.6068 C62.3537,20.5158 62.0837,19.5518 61.4537,19.6428" id="Fill-139" fill="#081F2C"></path>
            <path d="M94.0108,14.5813 C91.5278,14.2913 89.5088,12.6003 86.9538,12.4253 C84.3968,12.2503 81.8768,12.9653 79.5368,13.9333 C77.0878,14.9463 74.7578,16.2363 72.2548,17.1193 C69.4488,18.1073 66.5108,18.6223 63.5908,19.1353 C62.9578,19.2463 63.2258,20.2103 63.8558,20.0993 C69.0328,19.1903 73.5428,17.7113 78.3108,15.5553 C81.0158,14.3323 83.9228,13.1863 86.9538,13.4253 C89.4918,13.6253 91.5078,15.2893 94.0108,15.5813 C94.6488,15.6563 94.6438,14.6553 94.0108,14.5813" id="Fill-141" fill="#081F2C"></path>
            <path d="M140.3863,26.7629 C132.8683,25.6769 125.6883,24.0789 118.4143,21.8979 C114.9033,20.8449 111.3803,19.8869 107.7553,19.3219 C103.8773,18.7169 100.6173,17.8689 97.0903,16.0539 C96.5183,15.7599 96.0113,16.6219 96.5853,16.9169 C103.0703,20.2539 110.3303,20.5449 117.2653,22.5979 C124.8503,24.8439 132.2823,26.5949 140.1203,27.7269 C140.7503,27.8189 141.0213,26.8549 140.3863,26.7629" id="Fill-143" fill="#081F2C"></path>
            <path d="M131.9835,53.3211 C124.4295,57.2761 115.3165,61.1971 106.6675,61.2031 C102.1195,61.2061 97.5615,60.4031 93.1405,59.3941 C89.2435,58.5051 85.3935,56.8741 81.3395,57.4751 C80.7055,57.5701 80.9745,58.5331 81.6055,58.4401 C86.4515,57.7211 91.7465,60.2331 96.5105,61.1061 C100.7365,61.8811 105.0975,62.4721 109.3985,62.0891 C117.3115,61.3821 125.5045,57.8411 132.4885,54.1851 C133.0585,53.8861 132.5535,53.0231 131.9835,53.3211" id="Fill-145" fill="#081F2C"></path>
            <path d="M79.88,57.5837 C75.447,58.2527 71.017,57.7967 66.582,57.4027 C64.435,57.2117 61.716,57.3157 59.768,56.2447 C57.745,55.1317 56.911,52.8147 56.797,50.6277 C56.764,49.9877 55.764,49.9837 55.797,50.6277 C56.016,54.8237 58.363,57.4137 62.477,58.0107 C68.194,58.8417 74.414,59.4137 80.146,58.5477 C80.78,58.4527 80.51,57.4887 79.88,57.5837" id="Fill-147" fill="#081F2C"></path>
            <path d="M74.1939,46.8704 C74.4419,48.7994 74.6159,50.7334 74.7159,52.6754 C74.7499,53.3154 75.7499,53.3194 75.7159,52.6754 C75.6159,50.7334 75.4419,48.7994 75.1939,46.8704 C75.1129,46.2414 74.1119,46.2334 74.1939,46.8704" id="Fill-149" fill="#081F2C"></path>
            <path d="M72.6768,45.0667 C72.0208,48.4127 72.0508,51.7757 72.1458,55.1707 C72.1638,55.8137 73.1638,55.8157 73.1458,55.1707 C73.0528,51.8687 73.0028,48.5897 73.6408,45.3327 C73.7638,44.7037 72.8008,44.4347 72.6768,45.0667" id="Fill-151" fill="#081F2C"></path>
            <path d="M77.2935,45.3606 C77.7915,46.6536 78.0105,47.9736 77.9495,49.3596 C77.9215,50.0026 78.9215,50.0016 78.9495,49.3596 C79.0145,47.8916 78.7855,46.4666 78.2575,45.0946 C78.0285,44.5006 77.0615,44.7586 77.2935,45.3606" id="Fill-153" fill="#081F2C"></path>
            <path d="M99.2647,61.4163 C98.9277,64.9213 95.4287,64.2303 93.0597,63.5173 C91.5897,63.0743 90.0867,62.8563 88.5927,62.5213 C85.2097,61.7623 82.2547,60.0353 79.3177,58.2623 C78.7657,57.9283 78.2627,58.7933 78.8137,59.1253 C80.9567,60.4193 83.1157,61.7173 85.4597,62.6203 C87.9587,63.5833 90.6347,63.8303 93.1867,64.6053 C96.3257,65.5593 99.8767,65.4483 100.2647,61.4163 C100.3267,60.7763 99.3267,60.7803 99.2647,61.4163" id="Fill-155" fill="#081F2C"></path>
            <path d="M74.2022,26.5081 C73.4322,28.5361 72.8522,30.6091 72.4602,32.7421 C72.3442,33.3711 73.3072,33.6411 73.4242,33.0081 C73.8172,30.8741 74.3962,28.8021 75.1662,26.7741 C75.3952,26.1721 74.4292,25.9111 74.2022,26.5081" id="Fill-157" fill="#081F2C"></path>
            <path d="M70.8248,33.0081 C71.5968,31.1751 71.8988,29.2451 71.7298,27.2631 C71.6758,26.6271 70.6758,26.6211 70.7298,27.2631 C70.8918,29.1661 70.6018,30.9821 69.8608,32.7421 C69.6118,33.3341 70.5788,33.5931 70.8248,33.0081" id="Fill-159" fill="#081F2C"></path>
            <path d="M57.4659,21.7463 C56.9349,22.3243 56.3349,22.7853 55.6389,23.1493 C55.0689,23.4483 55.5739,24.3113 56.1439,24.0133 C56.9079,23.6133 57.5899,23.0883 58.1729,22.4533 C58.6079,21.9803 57.9029,21.2713 57.4659,21.7463" id="Fill-161" fill="#081F2C"></path>
            <path d="M54.3936,20.4045 C54.2926,20.9685 54.2486,21.5295 54.2836,22.1025 C54.3226,22.7415 55.3226,22.7465 55.2836,22.1025 C55.2546,21.6195 55.2726,21.1465 55.3576,20.6705 C55.4716,20.0405 54.5076,19.7705 54.3936,20.4045" id="Fill-163" fill="#081F2C"></path>
            <path d="M80.6456,14.364 C81.5666,14.868 82.7956,15.547 83.3686,16.456 C83.7106,16.999 84.5766,16.498 84.2316,15.951 C83.5626,14.888 82.2286,14.091 81.1506,13.5 C80.5856,13.191 80.0806,14.054 80.6456,14.364" id="Fill-165" fill="#081F2C"></path>
            <path d="M110.4249,54.7151 C109.3359,56.7341 107.5959,58.2381 105.4249,58.9871 C104.8209,59.1961 105.0799,60.1621 105.6909,59.9521 C108.1049,59.1181 110.0739,57.4711 111.2889,55.2201 C111.5939,54.6531 110.7309,54.1481 110.4249,54.7151" id="Fill-167" fill="#081F2C"></path>
            <path d="M96.1207,42.8787 C97.1127,42.5867 98.1057,42.2957 99.0987,42.0047 C99.7137,41.8237 99.4517,40.8577 98.8317,41.0407 C97.8397,41.3317 96.8477,41.6237 95.8547,41.9147 C95.2387,42.0957 95.5007,43.0607 96.1207,42.8787" id="Fill-169" fill="#081F2C"></path>
            <path d="M102.5982,42.0701 C102.7492,42.6031 102.8992,43.1361 103.0502,43.6691 C103.2252,44.2871 104.1902,44.0241 104.0152,43.4031 C103.8642,42.8701 103.7132,42.3371 103.5622,41.8041 C103.3882,41.1861 102.4232,41.4491 102.5982,42.0701" id="Fill-171" fill="#081F2C"></path>
            <path d="M70.2809,37.1145 C71.3159,37.2015 72.2809,37.5145 73.1779,38.0335 C73.7369,38.3565 74.2409,37.4915 73.6829,37.1705 C72.6299,36.5615 71.4919,36.2165 70.2809,36.1145 C69.6399,36.0605 69.6429,37.0615 70.2809,37.1145" id="Fill-173" fill="#081F2C"></path>
            <path d="M69.2784,39.3914 C70.0384,39.6444 70.7984,39.8974 71.5584,40.1514 C72.1704,40.3554 72.4324,39.3904 71.8234,39.1864 C71.0644,38.9334 70.3044,38.6804 69.5444,38.4274 C68.9324,38.2234 68.6704,39.1884 69.2784,39.3914" id="Fill-175" fill="#081F2C"></path>
            <path d="M216.8336,26.2493 C192.1406,27.5923 167.4006,27.8723 142.6826,27.0873 C142.0396,27.0673 142.0396,28.0673 142.6826,28.0873 C167.4006,28.8723 192.1406,28.5923 216.8336,27.2493 C217.4736,27.2143 217.4776,26.2143 216.8336,26.2493" id="Fill-177" fill="#081F2C"></path>
            <path d="M220.6051,56.3132 C205.4801,54.8782 190.4211,53.9842 175.2261,53.8782 C167.8721,53.8272 160.5221,53.7932 153.1691,53.6322 C149.5571,53.5532 145.9451,53.4702 142.3331,53.4242 C139.3241,53.3852 136.0611,52.9492 133.1831,54.0052 C132.5841,54.2262 132.8421,55.1922 133.4481,54.9702 C136.5801,53.8202 140.4771,54.3942 143.7661,54.4442 C147.3691,54.4992 150.9711,54.5852 154.5731,54.6632 C161.7801,54.8182 168.9871,54.8292 176.1951,54.8852 C191.0641,55.0022 205.8051,55.9092 220.6051,57.3132 C221.2451,57.3742 221.2411,56.3742 220.6051,56.3132" id="Fill-179" fill="#081F2C"></path>
            <path d="M652,5.05484554 L652,6.10517738 C647.54516,6.47893423 643.083516,6.75429165 638.61,6.8388 C632.864,6.9478 627.153,6.4268 621.413,6.4118 C615.835,6.3968 610.268,6.8278 604.722,7.3998 C593.088,8.6008 581.529,9.9518 569.837,10.4928 C546.528,11.5728 523.167,11.2798 499.843,11.9188 C452.948,13.2048 406.104,16.2268 359.43,20.9498 C347.407,22.1658 335.478,23.7298 323.508,25.3568 C312.618,26.8378 301.543,26.4438 290.583,26.1658 C267.572,25.5848 244.491,24.2168 221.565,26.9988 C220.926,27.0768 220.934,26.0758 221.565,25.9988 C227.283,25.3048 233.021,24.8388 238.775,24.5818 C262.042,23.5428 285.298,25.5828 308.567,25.3578 C319.825,25.2488 330.758,23.0338 341.911,21.8028 C353.818,20.4888 365.737,19.2848 377.666,18.1918 C424.584,13.8918 471.658,11.3188 518.765,10.4948 C542.269,10.0828 565.878,10.4978 589.295,8.1088 C600.43,6.9738 611.545,5.2488 622.768,5.4238 C632.619375,5.57653449 642.232431,5.71054913 652,5.05484596 Z" id="Combined-Shape" fill="#081F2C"></path>
            <path d="M652,59.4323745 C648.463818,59.4299263 644.926322,59.4132038 641.387,59.3799 C594.402,58.9359 547.454,60.2489 500.468,59.3929 C453.565,58.5379 406.538,56.8209 359.674,59.7339 C348.379,60.4359 337.128,61.6919 325.831,62.3189 C314.132,62.9669 302.407,63.0779 290.695,62.7879 C267.253,62.2089 243.887,60.0169 220.605,57.3129 C219.972,57.2399 219.967,56.2389 220.605,56.3129 C246.678,59.3409 272.866,61.7259 299.131,61.9259 C325.081,62.1229 350.794,58.8909 376.693,57.8789 C423.631,56.0449 470.635,58.0179 517.578,58.6719 C540.879,58.9969 564.147,58.7929 587.443,58.3329 C608.961098,57.9089787 630.480851,58.3242015 652,58.4681417 L652,59.4323745 Z" id="Combined-Shape" fill="#081F2C"></path>
            <path d="M58.8717,56.4485 C60.6987,56.5435 62.4647,56.2965 64.2487,55.9245 C65.2677,55.7125 66.2817,55.7145 66.5847,54.5905 C67.2227,52.2265 65.9157,49.2085 64.9857,47.0975 C64.7267,46.5105 63.8657,47.0185 64.1227,47.6025 C64.8837,49.3305 65.8817,51.6455 65.6797,53.5755 C65.5377,54.9305 64.4877,54.8755 63.3327,55.0935 C61.8427,55.3725 60.3877,55.5275 58.8717,55.4485 C58.2287,55.4155 58.2307,56.4155 58.8717,56.4485" id="Fill-185" fill="#081F2C"></path>
            <path d="M64.5543,46.8504 C62.8353,46.7484 61.0983,46.4854 59.3773,46.7014 C58.1763,46.8514 57.2783,47.3854 56.2713,48.0234 C55.7293,48.3674 56.2303,49.2334 56.7763,48.8874 C58.0183,48.0994 58.9923,47.6574 60.5183,47.6194 C61.8653,47.5864 63.2123,47.7704 64.5543,47.8504 C65.1973,47.8884 65.1953,46.8884 64.5543,46.8504" id="Fill-187" fill="#081F2C"></path>
            <path d="M108.5494,52.219 C108.1204,52.707 107.6124,53.063 106.9944,53.271 C106.3874,53.474 106.6474,54.441 107.2594,54.235 C108.0364,53.974 108.7144,53.543 109.2564,52.926 C109.6794,52.445 108.9754,51.735 108.5494,52.219" id="Fill-189" fill="#081F2C"></path>
            <path d="M130.6954,50.4353 C132.8924,49.6013 135.1504,49.0323 137.4854,48.7523 C138.1164,48.6763 138.1234,47.6753 137.4854,47.7523 C135.0564,48.0433 132.7174,48.6023 130.4294,49.4713 C129.8334,49.6973 130.0914,50.6643 130.6954,50.4353" id="Fill-191" fill="#081F2C"></path>
            <path d="M134.6593,46.7459 L137.0253,46.3519 C137.6583,46.2459 137.3893,45.2829 136.7593,45.3879 C135.9703,45.5189 135.1823,45.6499 134.3933,45.7819 C133.7603,45.8869 134.0293,46.8509 134.6593,46.7459" id="Fill-193" fill="#081F2C"></path>
            <path d="M324.7389,30.468 L288.6689,31.712 C288.0269,31.734 288.0239,32.734 288.6689,32.712 L324.7389,31.468 C325.3809,31.446 325.3839,30.446 324.7389,30.468" id="Fill-195" fill="#081F2C"></path>
            <path d="M271.5216,31.7688 L266.0026,31.7688 C265.3586,31.7688 265.3576,32.7688 266.0026,32.7688 L271.5216,32.7688 C272.1656,32.7688 272.1666,31.7688 271.5216,31.7688" id="Fill-197" fill="#081F2C"></path>
            <path d="M28.3658,28.6008 C28.3328,28.7518 28.2988,28.9018 28.2658,29.0528 C28.1258,29.6798 29.0898,29.9468 29.2298,29.3178 C29.2628,29.1678 29.2968,29.0178 29.3298,28.8668 C29.4698,28.2398 28.5058,27.9718 28.3658,28.6008" id="Fill-199" fill="#081F2C"></path>
            <path d="M103.9063,54.4744 C100.1273,54.1814 96.7853,54.9164 94.3093,51.3624 C93.9443,50.8384 93.0763,51.3374 93.4463,51.8674 C94.3853,53.2144 95.5343,54.3534 97.0973,54.9454 C99.2603,55.7644 101.6533,55.2994 103.9063,55.4744 C104.5483,55.5244 104.5453,54.5244 103.9063,54.4744" id="Fill-201" fill="#081F2C"></path>
            <path d="M93.5963,27.8611 C93.3153,28.2851 93.0333,28.7091 92.7513,29.1331 C92.3943,29.6711 93.2603,30.1731 93.6153,29.6381 C93.8963,29.2141 94.1783,28.7901 94.4603,28.3661 C94.8173,27.8281 93.9513,27.3271 93.5963,27.8611" id="Fill-203" fill="#081F2C"></path>
            <path d="M90.5435,27.343 C90.4385,27.52 90.3335,27.697 90.2285,27.874 C89.8985,28.429 90.7635,28.932 91.0915,28.379 C91.1965,28.202 91.3015,28.025 91.4065,27.848 C91.7365,27.293 90.8725,26.79 90.5435,27.343" id="Fill-205" fill="#081F2C"></path>
            <path d="M82.9264,38.0374 C82.0034,36.7474 81.3544,35.3514 80.9704,33.8124 C80.8154,33.1884 79.8504,33.4524 80.0064,34.0784 C80.4084,35.6914 81.0954,37.1894 82.0634,38.5424 C82.4344,39.0614 83.3014,38.5624 82.9264,38.0374" id="Fill-207" fill="#081F2C"></path>
            <path d="M158.2535,46.325 L156.1325,46.325 L156.1325,47.325 C157.8485,47.23 159.5445,47.321 161.2385,47.618 C161.8675,47.729 162.1375,46.766 161.5035,46.655 C159.7225,46.341 157.9405,46.225 156.1325,46.325 C155.4945,46.36 155.4835,47.325 156.1325,47.325 L158.2535,47.325 C158.8975,47.325 158.8985,46.325 158.2535,46.325" id="Fill-209" fill="#081F2C"></path>
            <path d="M25.6207,7.2322 C25.5687,4.9662 25.2707,2.7422 24.7247,0.5422 C24.5697,-0.0828 23.6047,0.1822 23.7607,0.8072 C24.2857,2.9202 24.5707,5.0552 24.6207,7.2322 C24.6357,7.8752 25.6357,7.8772 25.6207,7.2322" id="Fill-211" fill="#081F2C"></path>
            <path d="M9.4786,12.7371 C6.9666,10.9161 4.2256,9.5401 1.2716,8.5951 C0.6576,8.3981 0.3946,9.3631 1.0056,9.5591 C3.8856,10.4811 6.5276,11.8271 8.9746,13.6001 C9.4966,13.9791 9.9956,13.1121 9.4786,12.7371" id="Fill-213" fill="#081F2C"></path>
            <path d="M16.5841,36.9866 C11.0271,39.0226 5.5841,41.3266 0.2561,43.9016 C-0.3229,44.1816 0.1831,45.0436 0.7611,44.7646 C6.0111,42.2286 11.3751,39.9566 16.8501,37.9506 C17.4491,37.7316 17.1901,36.7646 16.5841,36.9866" id="Fill-215" fill="#081F2C"></path>
            <path d="M26.8863,48.7546 C26.1513,50.2866 25.2473,51.7126 24.1583,53.0176 C23.7493,53.5086 24.4523,54.2196 24.8653,53.7246 C26.0103,52.3536 26.9763,50.8706 27.7493,49.2596 C28.0263,48.6816 27.1643,48.1736 26.8863,48.7546" id="Fill-217" fill="#081F2C"></path>
            <path d="M92.0289,6.7835 C94.5489,7.1305 96.8869,7.9285 99.0859,9.2135 C99.6429,9.5385 100.1469,8.6745 99.5909,8.3495 C97.3259,7.0265 94.8949,6.1775 92.2949,5.8195 C91.6649,5.7325 91.3929,6.6965 92.0289,6.7835" id="Fill-219" fill="#081F2C"></path>
            <path d="M94.3448,3.0813 C95.2088,3.1013 95.9558,3.4783 96.5158,4.1313 C96.9348,4.6213 97.6388,3.9113 97.2228,3.4243 C96.4968,2.5763 95.4568,2.1063 94.3448,2.0813 C93.7008,2.0673 93.7008,3.0673 94.3448,3.0813" id="Fill-221" fill="#081F2C"></path>
            <path d="M337.378,76.2707 C333.903,76.7537 330.417,77.0547 326.912,77.1877 C326.27,77.2127 326.267,78.2127 326.912,78.1877 C330.507,78.0517 334.08,77.7297 337.644,77.2347 C338.279,77.1467 338.008,76.1837 337.378,76.2707" id="Fill-223" fill="#081F2C"></path>
            <path d="M329.0938,73.759 L323.4828,73.759 C322.8388,73.759 322.8378,74.759 323.4828,74.759 L329.0938,74.759 C329.7378,74.759 329.7388,73.759 329.0938,73.759" id="Fill-225" fill="#081F2C"></path>
            <path d="M603.4127,48.7273 C589.4857,50.5673 575.4577,51.3983 561.4107,51.2133 C560.7667,51.2053 560.7667,52.2043 561.4107,52.2133 C575.4577,52.3983 589.4857,51.5673 603.4127,49.7273 C604.0417,49.6443 604.0497,48.6433 603.4127,48.7273" id="Fill-227" fill="#081F2C"></path>
        </g>
    </g>
</svg>