<?xml version="1.0" encoding="UTF-8"?>
<svg width="169px" height="170px" viewBox="0 0 169 170" version="1.1" xmlns="http://www.w3.org/2000/svg" xmlns:xlink="http://www.w3.org/1999/xlink">
    <!-- Generator: Sketch 48.2 (47327) - http://www.bohemiancoding.com/sketch -->
    <title>3-fist-img</title>
    <desc>Created with Sketch.</desc>
    <defs>
        <polygon id="path-1" points="8.2489641 20 0.708784146 20 0.708784146 0.550426697 8.2489641 0.550426697 8.2489641 20"></polygon>
    </defs>
    <g id="welcome-0001-welcome-screen" stroke="none" stroke-width="1" fill="none" fill-rule="evenodd" transform="translate(-934.000000, -271.000000)">
        <g id="Group-3" transform="translate(838.000000, 238.000000)">
            <g id="3-fist-img" transform="translate(96.000000, 33.000000)">
                <path d="M102.717071,151.940786 C102.742786,151.3715 102.342071,150.805786 101.677786,150.805786 C101.474214,150.805786 101.272786,150.814357 101.069929,150.817929 C100.160643,150.637214 99.0349286,150.7265 97.9842143,150.880786 C97.8656429,150.840071 97.7349286,150.820786 97.5885,150.837214 C93.4770714,151.2865 89.3177857,151.828643 85.4835,153.468643 C82.7756429,154.6265 79.2956429,156.342929 77.8120714,159.082929 C77.2170714,159.264357 76.7320714,159.930071 77.1127857,160.647214 C77.7992143,161.755786 78.1585,162.962214 78.1913571,164.265786 C78.2642143,165.130786 79.3427857,165.755071 80.0199286,165.023643 C85.8720714,158.7065 94.1099286,156.013643 102.582071,156.052214 C103.2585,156.055071 103.8235,155.362929 103.614929,154.695786 C103.372786,153.923643 103.197071,152.7765 102.717071,151.940786 Z" id="Fill-3" fill="#335890"></path>
                <path d="M66.6422857,54.8777143 C66.5551429,50.7234286 64.9344286,49.2177143 61.6422857,46.8991429 C58.443,44.6448571 56.0958571,40.8741429 52.2515714,39.7605714 C47.8994286,38.5005714 43.7672857,37.757 39.8022857,35.3577143 C38.038,34.2898571 36.4244286,33.0091429 34.7258571,31.8434286 C33.4115714,30.9405714 31.9008571,30.3327143 30.523,29.557 C30.3637143,29.2805714 30.1565714,29.0334286 29.9115714,28.832 C29.3115714,28.0084286 28.2737143,27.5062857 27.2344286,27.8455714 C27.1908571,27.8505714 9.21751116,14.5969531 7.21679688,17.6269531 C6.36239203,18.9216426 7.18082058,22.2092491 7.21679688,25.8603516 C7.23803419,28.0156486 6.13134873,30.2174838 6.55712891,32.4272461 C7.69419997,38.3285465 10.4277567,43.3957875 8.79101563,45.2753906 C7.36315848,46.9161049 11.5487143,48.587 13.1058571,49.0462857 C13.483,49.9098571 14.413,50.5434286 15.4037143,50.6184286 C17.1172857,52.2877143 18.7944286,53.6884286 20.548,55.027 C23.5944286,58.0234286 25.9251429,61.5677143 28.2608571,65.2005714 C31.1365714,69.6748571 34.2637143,73.8455714 37.8615714,77.7705714 C39.1201429,79.1441429 40.3915714,81.0698571 42.188,81.7662857 C44.4651429,82.6484286 46.1215714,81.0055714 48.4251429,80.9827143 C50.178,80.9648571 51.3058571,81.2441429 53.0065714,80.6098571 C54.188,80.1684286 55.5272857,79.7591429 56.8122857,79.2555714 C56.8637143,79.447 56.9165714,79.6355714 56.9665714,79.8277143 C57.3915714,81.4534286 59.2344286,82.0512857 60.6394286,81.322 C62.8122857,80.1934286 63.0601429,78.3784286 64.4308571,76.5884286 C65.838,74.7498571 68.5658571,74.9805714 70.3551429,73.5855714 C73.8301429,70.8777143 74.0708571,65.6648571 72.3565714,61.9055714 C71.1594286,59.2812857 69.013,56.967 66.6422857,54.8777143 Z" id="Fill-5" fill="#EFEBD3"></path>
                <path d="M165.28418,27.1230469 C164.964519,26.4861818 162.169263,26.5687068 160.398437,25.2021484 C159.077926,24.1831008 159.038502,21.7051172 157.197266,21.0317383 C155.19661,20.3000564 147.148053,20.4530148 145.478516,21.0317383 C139.517391,23.0980844 132.676389,28.4434469 132.572714,29.3897857 C128.369143,32.4990714 123.337714,34.1619286 118.724857,36.5676429 C117.232714,37.3455 115.788429,38.2205 114.370571,39.1433571 C110.834857,40.0583571 107.458429,42.6312143 104.478429,44.3405 C101.917714,45.8097857 99.4941429,47.2740714 97.5277143,49.2112143 C97.0784286,49.3862143 96.6698571,49.6847857 96.372,50.1376429 C95.6441429,51.2405 95.0341429,52.3105 94.4562857,53.4983571 C94.387,53.6090714 94.3191429,53.6990714 94.2362857,53.7926429 C93.667,54.4269286 93.5055714,55.1412143 93.6041429,55.8062143 C92.4977143,56.4369286 92.172,57.9083571 92.6234286,59.0362143 C92.7134286,60.2062143 92.3627143,61.1305 92.9684286,62.3326429 C93.8112857,64.0076429 94.3955714,65.0426429 94.7477143,66.9440714 C94.9684286,68.1390714 95.3298571,69.1469286 95.8048571,70.0519286 C96.3262857,71.7483571 97.4055714,73.0912143 97.7598571,74.9740714 C98.0427143,76.4797857 98.3741429,77.7847857 99.2762857,79.0433571 C101.231286,81.7719286 103.493429,82.3412143 106.202714,81.5019286 C106.316286,81.7926429 106.430571,82.0840714 106.544143,82.3747857 C106.649143,82.6440714 106.799857,82.8776429 106.974857,83.0855 C108.282,85.3469286 109.809143,86.0876429 112.684143,84.7169286 C116.184143,83.0490714 120.137714,81.1947857 123.330571,79.0105 C126.582714,76.7862143 127.949857,73.9597857 128.359143,70.8533571 C131.624857,67.8212143 133.208429,62.2476429 135.110571,58.6062143 C135.387,58.0776429 135.693429,57.5719286 136.015571,57.0783571 C136.843429,56.2447857 137.669857,55.4112143 138.497,54.5783571 C138.912714,54.1597857 139.129857,53.6997857 139.199857,53.2405 C141.902,51.1676429 144.606286,49.0976429 147.329857,47.0519286 C147.659143,46.8047857 147.901286,46.5155 148.075571,46.2062143 C148.224143,46.1226429 148.371286,46.0269286 148.514143,45.9083571 C149.118429,45.4033571 149.723429,44.8990714 150.328429,44.3947857 C150.552714,44.2069286 150.712,43.9976429 150.836286,43.7797857 C151.033429,43.6733571 151.224143,43.5355 151.405571,43.3676429 C151.604143,43.1833571 155.045307,41.5038839 155.243164,41.3203125 C156.755307,39.9145982 169.807475,33.0350642 168.340332,32.387207 L165.28418,27.1230469 Z" id="Fill-7" fill="#D6906D"></path>
                <path d="M102.227857,155.9025 C95.4707143,156.118214 89.1514286,158.220357 83.6807143,162.208214 C83.4107143,162.405357 83.2271429,162.641786 83.1021429,162.894643 C81.75,163.483929 80.5121429,164.310357 79.4728571,165.618214 C78.0585714,167.400357 80.5692857,169.943214 81.9985714,168.143929 C84.5585714,164.919643 88.9107143,165.2875 92.45,163.876071 C95.9507143,162.480357 99.0721429,160.573214 102.702857,159.409643 C104.556429,158.816071 104.317143,155.835357 102.227857,155.9025" id="Fill-9" fill="#623F2B"></path>
                <path d="M99.4575714,150.532857 C99.4632857,150.530714 99.4682857,150.527143 99.4732857,150.524286 C99.5182857,150.577143 99.5618571,150.63 99.6061429,150.682143 C100.809,152.077143 102.821857,150.048571 101.626857,148.662143 C101.358286,148.35 101.095429,148.034286 100.829,147.721429 C100.824714,147.710714 100.824714,147.700714 100.820429,147.690714 C99.6225714,144.615 99.234,142.373571 99.8061429,139.107857 C100.182571,136.958571 100.404,134.797143 100.565429,132.621429 C100.752571,130.093571 100.839714,127.564286 100.852571,125.034286 C100.929,124.505714 100.996857,123.976429 101.051857,123.445714 C101.089,123.137143 101.116143,122.827857 101.134,122.517857 C101.151143,122.405 101.162571,122.319286 101.169714,122.247143 C101.696143,121.622143 101.826143,120.925 101.681857,120.282143 C101.765429,120.091429 101.843286,119.898571 101.934,119.708571 C102.406143,118.714286 102.154,117.640714 101.559714,116.879286 C101.697571,116.324286 101.831857,115.769286 101.981857,115.216429 C102.269714,114.159286 101.911143,113.321429 101.283286,112.785 C101.199,109.522143 99.5161429,106.716429 95.9397143,105.966429 C95.8675714,105.837143 95.7897143,105.708571 95.7011429,105.584286 C94.9825714,104.577143 94.0247143,103.747143 92.9232857,103.181429 C91.3582857,102.378571 89.1325714,101.662143 87.2461429,101.989286 C84.969,98.9392857 81.4661429,96.5764286 77.5082857,98.025 C77.3318571,98.09 77.0325714,98.25 76.7297143,98.4235714 C76.6897143,98.2042857 76.6297143,97.9828571 76.5247143,97.7564286 C76.279,97.2271429 75.9811429,96.8028571 75.6525714,96.455 C74.034,94.6542857 71.4718571,94.3771429 69.0318571,95.2385714 C68.0018571,95.6021429 67.2904286,96.1821429 66.7604286,96.8935714 C66.279,97.1728571 65.8761429,97.6264286 65.6647143,98.3035714 L65.0654286,100.22 C64.1061429,100.277857 63.1847143,100.901429 62.7611429,101.996429 C61.9718571,104.036429 61.8861429,106.291429 61.2947143,108.4 C60.6168571,110.815714 59.2461429,113.013571 58.6575714,115.436429 C58.384,116.563571 58.4775714,117.860714 58.9011429,118.969286 C58.9304286,119.107143 58.9675714,119.247857 59.029,119.392143 C60.0854286,121.898571 61.1547143,124.413571 61.8997143,127.034286 C62.5325714,129.260714 62.8675714,131.527857 64.1611429,133.496429 C65.0325714,134.823571 65.9461429,136.068571 66.8511429,137.304286 C66.8897143,137.589286 66.969,137.880714 67.1218571,138.177857 C70.1775714,144.129286 73.3547143,149.719286 74.8497143,156.293571 C74.9432857,156.705 75.1225714,157.036429 75.3547143,157.302143 C75.0382857,158.784286 77.1975714,159.912857 77.944,158.381429 C78.024,158.217857 78.0932857,158.050714 78.1697143,157.886429 C78.479,157.774286 78.7718571,157.61 79.0282857,157.397143 C84.4732857,152.867857 91.6275714,151.913571 98.4082857,150.983571 C98.844,150.924286 99.1868571,150.759286 99.4575714,150.532857" id="Fill-11" fill="#623F2B"></path>
                <path d="M105.617643,79.0170714 C106.226929,78.0713571 107.403357,77.9242143 108.2805,77.3277857 C109.1105,76.7635 109.686929,75.7956429 110.298357,75.0192143 C110.579786,74.6620714 110.077643,74.1527857 109.793357,74.5142143 C108.989786,75.5349286 108.316929,76.5813571 107.109071,77.1456429 C106.276929,77.5349286 105.514071,77.8599286 105.0005,78.6563571 C104.751214,79.0442143 105.369071,79.4027857 105.617643,79.0170714" id="Fill-13" fill="#081F2C"></path>
                <path d="M106.985143,74.2905 C108.316571,74.0076429 109.253714,75.0812143 110.518,75.1076429 C111.768,75.1319286 112.203,74.3297857 113.652286,74.6605 C114.315143,74.8112143 114.637286,75.2376429 115.410143,75.1097857 C116.375143,74.9512143 117.030857,74.1605 117.598714,73.4397857 C117.880143,73.0826429 117.378,72.5733571 117.093714,72.9347857 C116.245857,74.0112143 116.040857,74.3347857 114.013,74.0433571 C113.820857,74.0155 113.651571,73.8019286 113.456571,73.7855 C112.818714,73.7319286 112.609429,73.7397857 111.985143,73.9090714 C111.198,74.1233571 110.530857,74.3912143 109.729429,74.2019286 C109.335143,74.1090714 108.962286,73.8683571 108.575857,73.7355 C107.922286,73.5097857 107.469429,73.4590714 106.795143,73.6012143 C106.345857,73.6969286 106.535857,74.3855 106.985143,74.2905" id="Fill-15" fill="#081F2C"></path>
                <path d="M105.060286,82.2152857 C106.858857,80.9402857 108.686714,79.6981429 110.455286,78.3817143 C111.881714,77.3202857 112.700286,75.7795714 114.050286,74.7038571 C114.409571,74.4174286 113.901,73.9152857 113.545286,74.1988571 C113.036,74.6052857 112.693143,75.051 112.303143,75.5617143 C111.496,76.6188571 110.710286,77.3174286 109.633143,78.0995714 C108.002429,79.2838571 106.343857,80.4331429 104.699571,81.5988571 C104.328143,81.8624286 104.684571,82.4824286 105.060286,82.2152857" id="Fill-17" fill="#081F2C"></path>
                <path d="M111.005786,76.9460714 C110.695071,76.9925 110.422929,76.8103571 110.280786,76.5467857 C110.062214,76.1417857 109.445786,76.5025 109.664357,76.9067857 C109.9715,77.4760714 110.570786,77.7289286 111.195786,77.6346429 C111.648643,77.5667857 111.455786,76.8782143 111.005786,76.9460714" id="Fill-19" fill="#081F2C"></path>
                <path d="M104.254286,81.7702857 C99.4821429,82.0217143 98.1578571,76.7331429 97.855,72.9981429 C97.7221429,71.3688571 97.5542857,69.7181429 97.5214286,68.0838571 C97.4742857,65.7852857 98.7728571,64.2424286 100.39,62.7788571 C100.732143,62.4702857 100.225714,61.9652857 99.885,62.2738571 C98.3978571,63.6195714 97,65.1352857 96.8178571,67.2267143 C96.6114286,69.586 96.9957143,72.261 97.3,74.6031429 C97.7864286,78.351 99.8328571,82.7174286 104.254286,82.4845714 C104.711429,82.4602857 104.714286,81.746 104.254286,81.7702857" id="Fill-21" fill="#081F2C"></path>
                <path d="M98.9030714,70.4456429 C99.4916429,71.6385 100.428786,72.6035 101.598786,73.2320714 C102.003786,73.4499286 102.365214,72.8342143 101.9595,72.6156429 C100.886643,72.0392143 100.058786,71.1770714 99.5195,70.0856429 C99.3166429,69.6735 98.7002143,70.0349286 98.9030714,70.4456429" id="Fill-23" fill="#081F2C"></path>
                <path d="M98.978,72.7705714 C99.2301429,73.1391429 99.5287143,73.4391429 99.8937143,73.6955714 C100.270143,73.9605714 100.627286,73.3412857 100.253714,73.0791429 C99.9937143,72.8955714 99.7744286,72.672 99.5944286,72.4098571 C99.3365714,72.0334286 98.7172857,72.3905714 98.978,72.7705714" id="Fill-25" fill="#081F2C"></path>
                <path d="M105.632929,81.7730714 C106.412929,82.6409286 106.3465,83.8145 107.253643,84.6116429 C107.9115,85.1887857 109.159357,85.7895 110.0415,85.8673571 C110.952214,85.9487857 111.719357,85.3887857 112.5115,84.9973571 C114.207929,84.1595 115.903643,83.3209286 117.599357,82.4823571 C120.2015,81.1959286 123.052214,80.1473571 124.930786,77.8337857 C126.552929,75.8359286 127.447929,73.3609286 128.302214,70.9666429 C128.457214,70.5330714 127.767214,70.3459286 127.613643,70.7766429 C126.874357,72.8466429 126.112929,74.9573571 124.839357,76.7680714 C123.244357,79.0366429 120.918643,80.0466429 118.5115,81.2366429 C116.220786,82.3695 113.903643,83.7902143 111.515071,84.6952143 C109.795071,85.3466429 107.890786,84.8380714 107.010071,83.0280714 C106.689357,82.3709286 106.642214,81.8287857 106.138643,81.2680714 C105.830071,80.9252143 105.3265,81.4316429 105.632929,81.7730714" id="Fill-27" fill="#081F2C"></path>
                <path d="M97.6659286,73.1437143 C96.1973571,71.4222857 95.2866429,69.9465714 95.0709286,67.6494286 C94.9380714,66.2358571 94.7595,65.1244286 94.0159286,63.883 C92.8830714,61.9915714 92.4387857,60.3737143 93.0202143,58.168 C93.5752143,56.0651429 96.1666429,55.2815714 97.9366429,54.3651429 C98.3452143,54.1537143 97.9845,53.5372857 97.5766429,53.7487143 C95.9087857,54.6122857 93.4266429,55.3194286 92.5873571,57.163 C91.9445,58.5751429 91.7587857,60.713 92.2659286,62.1737143 C92.5595,63.0194286 93.1337857,63.7044286 93.5495,64.4865714 C94.2930714,65.8872857 94.2287857,67.313 94.4687857,68.8294286 C94.7723571,70.7487143 95.9330714,72.2087143 97.1609286,73.6487143 C97.4595,73.9987143 97.9630714,73.4915714 97.6659286,73.1437143" id="Fill-29" fill="#081F2C"></path>
                <path d="M94.2054286,56.1404286 C93.8668571,53.6504286 95.2854286,51.584 97.3725714,50.3854286 C97.7711429,50.1568571 97.4118571,49.5397143 97.0118571,49.769 C94.6147143,51.1454286 93.1347143,53.524 93.5168571,56.3304286 C93.5782857,56.7832857 94.2661429,56.5911429 94.2054286,56.1404286" id="Fill-31" fill="#081F2C"></path>
                <path d="M95.7762857,51.711 C95.6527143,49.2945714 98.742,48.0202857 100.529143,46.9838571 C102.281286,45.9674286 104.118429,45.1188571 105.908429,44.1738571 C107.726286,43.2138571 109.331286,42.061 110.993429,40.8617143 C112.757,39.5874286 114.652,39.151 116.684143,38.5017143 C118.217,38.011 119.712,37.3795714 121.002714,36.4017143 C122.599857,35.1924286 123.807,34.0731429 125.724143,33.3345714 C129.022,32.0674286 131.956286,30.3695714 134.549857,27.9517143 C134.886286,27.6381429 134.380571,27.1338571 134.044857,27.4467143 C132.492,28.8945714 130.792,30.1531429 128.919143,31.1581429 C127.127714,32.1181429 125.089143,32.5845714 123.345571,33.6195714 C121.749143,34.5667143 120.572,36.0252857 118.887714,36.8674286 C117.014143,37.8038571 114.956286,38.0881429 113.033429,38.8667143 C111.077,39.6581429 109.560571,41.1674286 107.793429,42.281 C105.967,43.4324286 103.992714,44.321 102.081286,45.3181429 C100.309857,46.2417143 98.4434286,47.2267143 96.8455714,48.4317143 C95.7377143,49.2674286 94.9891429,50.2852857 95.062,51.711 C95.0855714,52.1681429 95.7998571,52.171 95.7762857,51.711" id="Fill-33" fill="#081F2C"></path>
                <path d="M104.597786,66.8518571 C104.970643,67.6247143 105.089929,68.4447143 104.991357,69.2947143 C104.9385,69.7504286 105.6535,69.7468571 105.705643,69.2947143 C105.819214,68.3175714 105.640643,67.374 105.214929,66.4911429 C105.014929,66.0775714 104.3985,66.4397143 104.597786,66.8518571" id="Fill-35" fill="#081F2C"></path>
                <path d="M103.603429,68.9068571 C103.604143,69.0104286 103.578429,69.1061429 103.524857,69.1947143 C103.317,69.604 103.932714,69.9647143 104.142,69.5547143 C104.249857,69.3425714 104.303429,69.1454286 104.317714,68.9068571 C104.344857,68.4475714 103.630571,68.449 103.603429,68.9068571" id="Fill-37" fill="#081F2C"></path>
                <path d="M93.9895714,58.0962857 C94.2017143,58.8734286 94.4702857,59.6262857 94.7874286,60.3662857 C94.9674286,60.7877143 95.5831429,60.4241429 95.4038571,60.0055714 C95.1124286,59.3234286 94.8738571,58.622 94.6781429,57.9062857 C94.5574286,57.4634286 93.8681429,57.652 93.9895714,58.0962857" id="Fill-39" fill="#081F2C"></path>
                <path d="M93.2425,59.4453571 C93.3860714,60.0796429 93.6389286,60.6767857 93.9946429,61.2203571 C94.2453571,61.6039286 94.8639286,61.2460714 94.6117857,60.8596429 C94.2860714,60.3625 94.0625,59.8353571 93.9310714,59.2553571 C93.8296429,58.8067857 93.1410714,58.9967857 93.2425,59.4453571" id="Fill-41" fill="#081F2C"></path>
                <path d="M94.9123571,56.3503571 C94.9616429,56.6875 95.1073571,56.9639286 95.3237857,57.2239286 C95.6180714,57.5775 96.1209286,57.0696429 95.8287857,56.7189286 C95.6902143,56.5525 95.6316429,56.3696429 95.6009286,56.1603571 C95.5345,55.7075 94.8459286,55.9003571 94.9123571,56.3503571" id="Fill-43" fill="#081F2C"></path>
                <path d="M111.4355,76.9788571 C111.527643,78.4531429 111.346214,80.3574286 112.588357,81.4174286 C112.936214,81.7138571 113.444071,81.211 113.093357,80.9124286 C112.032643,80.0074286 112.229071,78.2474286 112.149786,76.9788571 C112.121214,76.5224286 111.406929,76.5188571 111.4355,76.9788571" id="Fill-45" fill="#081F2C"></path>
                <path d="M112.5505,75.7016429 C112.592643,76.6580714 112.9555,77.5245 113.611214,78.2216429 C113.926929,78.5580714 114.431214,78.0523571 114.116214,77.7166429 C113.591929,77.1587857 113.298357,76.4673571 113.264786,75.7016429 C113.244786,75.2437857 112.5305,75.2409286 112.5505,75.7016429" id="Fill-47" fill="#081F2C"></path>
                <path d="M109.234714,78.8663571 C108.734,79.5720714 108.577571,80.4213571 108.745429,81.2649286 C108.835429,81.7156429 109.524,81.5249286 109.434714,81.0756429 C109.301857,80.4113571 109.462571,79.7742143 109.851143,79.2270714 C110.118286,78.8513571 109.499,78.4942143 109.234714,78.8663571" id="Fill-49" fill="#081F2C"></path>
                <path d="M129.1315,70.3200714 C130.083643,68.2215 131.587214,66.5029286 132.7815,64.5507857 C134.0965,62.4000714 134.6715,59.9029286 136.038643,57.7793571 C138.8615,53.3943571 143.589357,50.7236429 147.592214,47.5636429 C147.952214,47.2786429 147.443643,46.7765 147.087214,47.0586429 C143.1665,50.1543571 138.652214,52.7665 135.742929,56.9422143 C134.282214,59.0379286 133.697929,61.4957857 132.455071,63.7000714 C131.237929,65.8593571 129.545786,67.6872143 128.515071,69.9600714 C128.3265,70.3750714 128.9415,70.7386429 129.1315,70.3200714" id="Fill-51" fill="#081F2C"></path>
                <path d="M132.619571,46.3133571 C133.282429,47.8297857 134.028857,49.3012143 134.862429,50.7319286 C135.093857,51.1283571 135.711714,50.7690714 135.478857,50.3712143 C134.646,48.9405 133.898857,47.4697857 133.236,45.9526429 C133.052429,45.5326429 132.437429,45.8955 132.619571,46.3133571" id="Fill-53" fill="#081F2C"></path>
                <path d="M134.429357,47.2452857 C134.760071,47.8467143 135.153643,48.4052857 135.600071,48.926 C135.900071,49.2752857 136.403643,48.7681429 136.105071,48.421 C135.697214,47.9452857 135.347929,47.4331429 135.0465,46.8845714 C134.824357,46.4824286 134.207214,46.8424286 134.429357,47.2452857" id="Fill-55" fill="#081F2C"></path>
                <path d="M106.007571,57.3938571 C109.248286,55.1974286 112.489,53.001 115.729,50.8038571 C116.107571,50.5474286 115.750429,49.9281429 115.368286,50.1867143 C112.128286,52.3831429 108.887571,54.5802857 105.646857,56.7767143 C105.268286,57.0331429 105.625429,57.6524286 106.007571,57.3938571" id="Fill-57" fill="#081F2C"></path>
                <path d="M101.006857,52.8800714 C101.421143,52.7693571 101.799,52.5886429 102.139,52.3272143 C102.498286,52.0500714 102.142571,51.4293571 101.779,51.7100714 C101.484714,51.9365 101.174714,52.0950714 100.816857,52.1907857 C100.373286,52.3100714 100.561857,52.9993571 101.006857,52.8800714" id="Fill-59" fill="#081F2C"></path>
                <path d="M105.1705,50.5077143 C106.8655,49.7255714 108.466214,48.7898571 109.979071,47.6955714 C110.348357,47.4284286 109.991929,46.8084286 109.619071,47.0784286 C108.106214,48.1727143 106.504786,49.1091429 104.809786,49.8905714 C104.393357,50.0827143 104.7555,50.6991429 105.1705,50.5077143" id="Fill-61" fill="#081F2C"></path>
                <path d="M100.907071,64.1677143 C100.526357,64.5784286 100.244929,65.0312857 100.0285,65.547 C99.8506429,65.9698571 100.541357,66.1548571 100.717071,65.7362857 C100.882786,65.3412857 101.121357,64.9862857 101.412786,64.6734286 C101.724929,64.3362857 101.220643,63.8298571 100.907071,64.1677143" id="Fill-63" fill="#081F2C"></path>
                <path d="M70.9883571,61.4703571 C71.7405,64.0153571 72.5747857,66.9617857 72.4469286,69.6346429 C72.3655,71.3439286 71.0062143,72.7217857 69.5412143,73.4289286 C68.6919286,73.8389286 67.8490714,73.6182143 67.0133571,74.0603571 C66.6062143,74.2746429 66.9669286,74.8917857 67.3733571,74.6767857 C68.4412143,74.1132143 69.5012143,74.5410714 70.5297857,73.7553571 C71.5412143,72.9825 72.6219286,72.0117857 73.0026429,70.7532143 C73.3726429,69.5296429 73.0769286,68.1010714 72.9055,66.8689286 C72.6412143,64.9739286 72.2190714,63.1146429 71.6769286,61.2803571 C71.5469286,60.8410714 70.8576429,61.0282143 70.9883571,61.4703571" id="Fill-65" fill="#081F2C"></path>
                <path d="M66.4247143,74.2632857 C63.6297143,74.5511429 63.9682857,77.899 62.4275714,79.5775714 C61.2597143,80.8504286 59.7054286,80.9061429 58.3354286,79.7447143 C57.9547143,79.4211429 57.6932857,78.9818571 57.2497143,78.7211429 C56.4854286,78.2711429 55.6982857,78.2968571 54.8961429,78.6375714 C54.3204286,78.8825714 53.8832857,79.2825714 53.394,79.6511429 C52.0761429,80.6432857 51.2975714,81.0332857 49.5297143,80.4725714 C48.4718571,80.1382857 47.7997143,79.8704286 46.6554286,80.219 C46.0518571,80.404 45.5232857,80.8232857 44.9254286,80.9975714 C42.9475714,81.574 42.1204286,80.7661429 40.8411429,79.6447143 C39.5647143,78.5268571 38.4825714,77.2375714 37.5447143,75.8261429 C37.2911429,75.4454286 36.6725714,75.8025714 36.9275714,76.1868571 C37.7932857,77.489 38.7668571,78.6968571 39.9111429,79.7654286 C40.7697143,80.5675714 42.0497143,81.8732857 43.2575714,82.0954286 C44.9047143,82.3982857 46.2525714,80.6632857 47.8682857,80.704 C49.3932857,80.7418571 50.2847143,82.0618571 51.874,81.5268571 C52.2854286,81.389 52.6582857,81.1297143 53.0082857,80.8825714 C53.4618571,80.5604286 53.849,80.1297143 54.3247143,79.8397143 C55.044,79.3997143 56.6182857,79.2868571 57.3425714,79.734 C58.3832857,80.3761429 58.674,81.2975714 60.0504286,81.359 C61.2682857,81.4132857 62.3432857,80.7925714 63.1018571,79.8725714 C64.2197143,78.5168571 64.404,75.1854286 66.4247143,74.9775714 C66.8775714,74.9311429 66.8825714,74.2161429 66.4247143,74.2632857" id="Fill-67" fill="#081F2C"></path>
                <path d="M35.7784286,74.4649286 C33.5884286,72.3449286 32.0291429,69.9285 30.5634286,67.2799286 C29.112,64.6585 27.4084286,62.2220714 25.6534286,59.7977857 C25.3862857,59.4292143 24.7662857,59.7849286 25.0362857,60.1585 C26.917,62.7563571 28.6905714,65.3713571 30.2412857,68.1792143 C31.6312857,70.6992143 33.1977143,72.9606429 35.2734286,74.9699286 C35.6034286,75.2899286 36.1091429,74.7849286 35.7784286,74.4649286" id="Fill-69" fill="#081F2C"></path>
                <path d="M71.4125,61.1703571 C70.4160714,59.5782143 69.4017857,58.0075 68.0117857,56.7267857 C66.6017857,55.4275 65.6832143,53.8289286 64.3782143,52.4546429 C64.0610714,52.1203571 63.5560714,52.6260714 63.8732143,52.9596429 C65.0717857,54.2210714 65.8289286,55.7303571 67.1375,56.9025 C68.6375,58.2475 69.7325,59.8332143 70.7953571,61.5310714 C71.0389286,61.9196429 71.6575,61.5617857 71.4125,61.1703571" id="Fill-71" fill="#081F2C"></path>
                <path d="M68.2940714,56.9314286 C66.4590714,54.3978571 67.4662143,51.0578571 64.9047857,48.85 C63.4112143,47.5614286 61.7326429,46.5092857 60.2547857,45.1914286 C58.9290714,44.01 57.7133571,42.6885714 56.2333571,41.6907143 C53.3197857,39.7257143 49.5890714,39.0214286 46.3655,37.6964286 C42.4269286,36.0771429 38.6762143,34.0407143 35.3719286,31.3378571 C35.0197857,31.0492857 34.5112143,31.5514286 34.8669286,31.8428571 C37.6005,34.08 40.6162143,35.8878571 43.8226429,37.3635714 C47.2369286,38.9364286 50.9469286,39.82 54.3255,41.4314286 C57.6840714,43.0335714 60.1826429,46.2528571 63.1847857,48.4335714 C64.9862143,49.7414286 65.9819286,51.0057143 66.3597857,53.2128571 C66.6105,54.6742857 66.7883571,56.065 67.6769286,57.2921429 C67.9440714,57.6607143 68.5640714,57.3042857 68.2940714,56.9314286" id="Fill-73" fill="#081F2C"></path>
                <path d="M60.6413571,79.6762143 C61.2092143,79.4262143 61.6627857,78.9705 61.9077857,78.4012143 C62.0877857,77.9833571 61.4727857,77.6190714 61.2913571,78.0405 C61.0863571,78.5169286 60.7563571,78.8505 60.2806429,79.0590714 C59.8606429,79.2440714 60.2242143,79.8590714 60.6413571,79.6762143" id="Fill-75" fill="#081F2C"></path>
                <path d="M60.6482857,78.2532857 C60.8975714,78.1018571 61.0397143,77.9118571 61.1468571,77.644 C61.3175714,77.2175714 60.6268571,77.0318571 60.4582857,77.4547143 C60.4261429,77.539 60.369,77.599 60.2875714,77.6361429 C59.8954286,77.8747143 60.254,78.4925714 60.6482857,78.2532857" id="Fill-77" fill="#081F2C"></path>
                <path d="M50.3672143,79.5109286 C50.4350714,79.3652143 50.5029286,79.2195 50.5707857,79.0745 C50.7643571,78.6602143 50.1486429,78.2973571 49.9543571,78.7137857 C49.8865,78.8595 49.8179286,79.0045 49.7507857,79.1502143 C49.5572143,79.5645 50.1729286,79.9273571 50.3672143,79.5109286" id="Fill-79" fill="#081F2C"></path>
                <path d="M49.06,78.7555 C48.7864286,77.6269286 48.5135714,76.4983571 48.24,75.3690714 C48.1321429,74.9226429 47.4428571,75.1112143 47.5514286,75.5583571 C47.825,76.6876429 48.0978571,77.8169286 48.3714286,78.9462143 C48.4792857,79.3926429 49.1678571,79.2033571 49.06,78.7555" id="Fill-81" fill="#081F2C"></path>
                <path d="M43.1814286,80.431 C43.6985714,80.5245714 44.1971429,80.3224286 44.4471429,79.8467143 C44.6614286,79.4395714 44.045,79.0781429 43.8307143,79.486 C43.7385714,79.6602857 43.5792857,79.7795714 43.3714286,79.7417143 C42.9221429,79.6602857 42.7292857,80.3488571 43.1814286,80.431" id="Fill-83" fill="#081F2C"></path>
                <path d="M71.552,70.9102143 C71.6155714,70.5495 71.6798571,70.1880714 71.7434286,69.8273571 C71.8227143,69.3780714 71.1348571,69.1852143 71.0548571,69.6380714 C70.9905714,69.9987857 70.927,70.3595 70.8634286,70.7202143 C70.7834286,71.1695 71.472,71.3630714 71.552,70.9102143" id="Fill-85" fill="#081F2C"></path>
                <path d="M64.6874286,50.8522857 C64.7345714,50.603 64.7324286,50.3837143 64.6388571,50.1458571 C64.4731429,49.7222857 63.7817143,49.9065714 63.9502857,50.3351429 C63.9945714,50.4494286 64.0224286,50.5387143 63.9988571,50.6615714 C63.9138571,51.1108571 64.6024286,51.3037143 64.6874286,50.8522857" id="Fill-87" fill="#081F2C"></path>
                <path d="M57.5425,46.6524286 C57.4660714,47.9352857 57.2896429,49.1988571 57.0139286,50.4545714 C56.9153571,50.9024286 57.6032143,51.0938571 57.7025,50.6445714 C57.9925,49.3267143 58.1767857,47.9988571 58.2567857,46.6524286 C58.2846429,46.1924286 57.5696429,46.1945714 57.5425,46.6524286" id="Fill-89" fill="#081F2C"></path>
                <path d="M53.2672143,42.3610714 C54.1586429,43.8346429 54.5222143,45.4889286 54.2850714,47.1996429 C54.2229286,47.6489286 54.9115,47.8439286 54.9743571,47.3896429 C55.2379286,45.4839286 54.8822143,43.6503571 53.8843571,42.0003571 C53.6465,41.6075 53.0286429,41.9660714 53.2672143,42.3610714" id="Fill-91" fill="#081F2C"></path>
                <path d="M51.2845,42.3317857 C51.4237857,42.7225 51.4995,43.1132143 51.5073571,43.5282143 C51.5166429,43.9867857 52.2309286,43.9882143 52.2216429,43.5282143 C52.2123571,43.0517857 52.1330714,42.5910714 51.9730714,42.1417857 C51.8202143,41.7125 51.1295,41.8975 51.2845,42.3317857" id="Fill-93" fill="#081F2C"></path>
                <path d="M54.1709286,75.2789286 C53.5687857,74.0217857 52.8323571,72.8546429 51.9716429,71.7596429 C51.6880714,71.3982143 51.1859286,71.9067857 51.4666429,72.2646429 C52.2887857,73.3103571 52.9802143,74.4403571 53.5537857,75.6396429 C53.7523571,76.0539286 54.3680714,75.6917857 54.1709286,75.2789286" id="Fill-95" fill="#081F2C"></path>
                <path d="M49.2287857,67.3073571 C47.7473571,65.5302143 46.4130714,63.6495 45.2609286,61.6416429 C44.3080714,59.9809286 43.5287857,58.2580714 42.2216429,56.8359286 C41.9095,56.4966429 41.4059286,57.0030714 41.7166429,57.3409286 C43.2445,59.0030714 44.0937857,61.1466429 45.2680714,63.0509286 C46.3002143,64.7252143 47.4652143,66.3023571 48.7237857,67.8123571 C49.0180714,68.1659286 49.5209286,67.6580714 49.2287857,67.3073571" id="Fill-97" fill="#081F2C"></path>
                <path d="M43.9372143,73.9201429 C43.3736429,73.1972857 42.8457857,72.4487143 42.3479286,71.6794286 C42.0986429,71.2951429 41.4807857,71.653 41.7315,72.0401429 C42.2622143,72.8615714 42.8315,73.6544286 43.4322143,74.4251429 C43.7143571,74.7872857 44.2165,74.2787143 43.9372143,73.9201429" id="Fill-99" fill="#081F2C"></path>
                <path d="M60.6835714,67.5522143 C58.8571429,65.8907857 57.9692857,63.5250714 55.9121429,62.0793571 C53.4392857,60.3407857 50.9607143,59.0122143 48.8021429,56.8229286 C48.4785714,56.4950714 47.9735714,57.0000714 48.2964286,57.3279286 C50.1764286,59.2336429 52.2428571,60.6750714 54.5235714,62.0529286 C57.0714286,63.5915 58.0614286,66.1315 60.1785714,68.0572143 C60.5178571,68.3657857 61.025,67.8622143 60.6835714,67.5522143" id="Fill-101" fill="#081F2C"></path>
                <path d="M69.1409286,98.9040714 C67.3637857,99.2712143 65.9473571,100.556214 65.3659286,102.267643 C65.2180714,102.704071 65.9073571,102.891214 66.0552143,102.457643 C66.5587857,100.973357 67.8030714,99.9083571 69.3309286,99.5926429 C69.7809286,99.4997857 69.5902143,98.8112143 69.1409286,98.9040714" id="Fill-103" fill="#081F2C"></path>
                <path d="M62.4165714,118.726857 C63.0972857,117.575429 63.1987143,116.375429 63.0001429,115.064714 C62.6387143,112.677571 62.083,110.823286 62.7437143,108.393286 C63.2722857,106.451857 63.8644286,104.525429 64.4258571,102.593286 C65.0551429,100.424714 65.5158571,96.4461429 68.3258571,96.1961429 C68.7801429,96.1554286 68.7844286,95.4404286 68.3258571,95.4818571 C64.483,95.824 63.9958571,101.511143 63.1665714,104.367571 C62.5872857,106.364 61.713,108.486857 61.588,110.581857 C61.4322857,113.205429 63.2644286,115.888286 61.7994286,118.366143 C61.5651429,118.763286 62.1822857,119.123286 62.4165714,118.726857" id="Fill-105" fill="#081F2C"></path>
                <path d="M69.0527143,95.7135 C69.9862857,95.4442143 70.9955714,95.0142143 71.9562857,94.8849286 C73.4677143,94.6799286 74.4927143,95.2320714 75.4891429,96.2913571 C77.0948571,97.9963571 76.1127143,99.7327857 76.6977143,101.692786 C76.8291429,102.132071 77.5191429,101.945643 77.3862857,101.502786 C76.9884286,100.169214 77.5955714,98.7963571 77.1591429,97.4835 C76.8505714,96.5570714 76.0527143,95.7613571 75.3262857,95.1463571 C73.2612857,93.3977857 71.2155714,94.3456429 68.8627143,95.0249286 C68.422,95.1520714 68.6091429,95.8420714 69.0527143,95.7135" id="Fill-107" fill="#081F2C"></path>
                <path d="M74.5992143,101.212214 C75.9092143,102.100071 77.4392143,102.3915 78.9885,102.092214 C79.4392143,102.005071 79.2485,101.3165 78.7985,101.403643 C77.4320714,101.667929 76.1070714,101.373643 74.9592143,100.595786 C74.5777857,100.3365 74.2206429,100.955786 74.5992143,101.212214" id="Fill-109" fill="#081F2C"></path>
                <path d="M76.9687857,98.5901429 C81.2630714,95.583 87.4916429,100.939429 87.3187857,105.513714 C87.3016429,105.973714 88.0159286,105.973 88.0330714,105.513714 C88.1516429,102.368714 86.4173571,100.440857 84.0102143,98.6708571 C81.6945,96.9672857 79.1402143,96.2001429 76.6080714,97.9737143 C76.2345,98.2351429 76.5909286,98.8544286 76.9687857,98.5901429" id="Fill-111" fill="#081F2C"></path>
                <path d="M83.6543571,99.0652143 C82.8965,99.0323571 82.2022143,99.2823571 81.6115,99.7495 C81.2507857,100.0345 81.7593571,100.537357 82.1165,100.2545 C82.5586429,99.9052143 83.0965,99.7559286 83.6543571,99.7795 C84.1143571,99.7995 84.1129286,99.0852143 83.6543571,99.0652143" id="Fill-113" fill="#081F2C"></path>
                <path d="M87.05,102.631071 C88.7357143,103.148214 90.6071429,102.881786 92.2178571,103.639643 C93.7971429,104.383929 94.8521429,105.819643 95.6214286,107.333214 C95.8292857,107.7425 96.4464286,107.381786 96.2378571,106.9725 C95.4914286,105.503214 94.4807143,104.124643 93.0378571,103.271071 C91.2378571,102.206786 89.1771429,102.536071 87.24,101.9425 C86.7992857,101.808214 86.6107143,102.4975 87.05,102.631071" id="Fill-115" fill="#081F2C"></path>
                <path d="M95.4833571,106.611214 C101.956929,105.524071 101.309786,114.126214 101.122643,118.163357 C100.902643,122.9255 100.404071,127.6955 99.8997857,132.434786 C99.4476429,136.677643 97.8533571,140.926214 99.5405,145.086929 C100.379071,147.1555 101.532643,149.0255 102.1055,151.204071 C102.684071,153.406214 102.969071,155.651214 103.7955,157.786214 C103.959786,158.209786 104.6505,158.0255 104.484786,157.596214 C103.583357,155.269786 103.332643,152.798357 102.631214,150.418357 C101.941929,148.079071 100.471214,146.0605 99.8076429,143.724071 C98.9419286,140.679071 99.8726429,137.631214 100.338357,134.6055 C100.704786,132.221929 100.869071,129.804786 101.0955,127.404071 C101.589071,122.193357 102.417643,116.684071 101.7705,111.454786 C101.341214,107.994786 98.9962143,105.3005 95.2933571,105.922643 C94.8412143,105.999071 95.0333571,106.686929 95.4833571,106.611214" id="Fill-117" fill="#081F2C"></path>
                <path d="M64.3526429,99.9127143 C63.0283571,100.219857 62.2105,100.664143 62.0105,102.064143 C61.6183571,104.798429 60.8683571,107.292 60.0326429,109.926286 C59.3033571,112.224143 58.0726429,114.779857 57.8990714,117.195571 C57.7662143,119.043429 58.9912143,120.704143 59.7026429,122.321286 C61.6090714,126.653429 61.7876429,131.620571 64.6312143,135.481286 C67.5190714,139.402 69.5962143,143.477714 71.4926429,147.957714 C71.6712143,148.379857 72.2862143,148.016286 72.1090714,147.597714 C70.5105,143.819857 68.8840714,140.021286 66.4405,136.698429 C65.2876429,135.129857 63.9869286,133.640571 63.3362143,131.772714 C62.6519286,129.808429 62.3869286,127.708429 61.7497857,125.722714 C61.1726429,123.923429 60.4569286,122.172 59.6247857,120.476286 C58.9147857,119.029143 58.4226429,118.052 58.7747857,116.339143 C58.9805,115.339857 59.3733571,114.362714 59.6819286,113.390571 C60.3719286,111.216286 61.0790714,109.047 61.7512143,106.867 C62.3105,105.054143 62.3562143,101.108429 64.5426429,100.602 C64.9905,100.497714 64.8005,99.8084286 64.3526429,99.9127143" id="Fill-119" fill="#081F2C"></path>
                <path d="M66.6213571,107.319214 C67.9170714,108.694214 69.4763571,109.712071 71.2492143,110.365643 C71.6806429,110.524214 71.8670714,109.834214 71.4385,109.676357 C69.7835,109.066357 68.3349286,108.096357 67.1263571,106.814214 C66.8106429,106.4785 66.3063571,106.984214 66.6213571,107.319214" id="Fill-121" fill="#081F2C"></path>
                <path d="M73.6404286,105.068929 C73.469,105.835357 73.2968571,106.601786 73.1254286,107.368929 C73.0254286,107.816786 73.714,108.0075 73.814,107.558214 C73.9854286,106.791786 74.1575714,106.025357 74.329,105.258929 C74.429,104.811071 73.7411429,104.619643 73.6404286,105.068929" id="Fill-123" fill="#081F2C"></path>
                <path d="M79.6285,105.200786 C79.4292143,106.3015 79.8606429,107.358643 80.7749286,108.002929 C81.1513571,108.268643 81.5085,107.649357 81.1356429,107.3865 C80.5013571,106.938643 80.1792143,106.155071 80.3170714,105.390786 C80.3985,104.9415 79.7099286,104.747929 79.6285,105.200786" id="Fill-125" fill="#081F2C"></path>
                <path d="M85.8327857,103.385786 C86.3599286,105.682214 85.1749286,107.767929 84.5599286,109.9165 C84.4335,110.359357 85.1220714,110.547929 85.2485,110.105786 C85.9092143,107.799357 87.0849286,105.6515 86.5213571,103.195786 C86.4185,102.747929 85.7299286,102.937214 85.8327857,103.385786" id="Fill-127" fill="#081F2C"></path>
                <path d="M94.0572143,106.618929 C94.4229286,108.178214 94.3136429,109.716786 93.7572143,111.216071 C93.5965,111.646786 94.2865,111.833214 94.4457857,111.405357 C95.0457857,109.788929 95.1386429,108.104643 94.7457857,106.428214 C94.6407857,105.981071 93.9522143,106.171071 94.0572143,106.618929" id="Fill-129" fill="#081F2C"></path>
                <path d="M89.4143571,106.471 C89.4950714,106.935286 89.6500714,107.371714 89.8693571,107.788857 C90.0836429,108.195286 90.7000714,107.834571 90.4857857,107.428143 C90.2950714,107.063857 90.1729286,106.686 90.1029286,106.281 C90.0243571,105.829571 89.3365,106.020286 89.4143571,106.471" id="Fill-131" fill="#081F2C"></path>
                <path d="M98.5902143,108.940357 C98.7737857,109.7125 98.7923571,110.486071 98.6387857,111.264643 C98.5502143,111.713929 99.2380714,111.906071 99.3273571,111.455357 C99.5066429,110.5475 99.4930714,109.649643 99.2787857,108.749643 C99.1723571,108.3025 98.4837857,108.4925 98.5902143,108.940357" id="Fill-133" fill="#081F2C"></path>
                <path d="M77.3409286,113.113071 C78.2045,118.703071 79.2945,124.250214 80.6109286,129.750929 C80.7180714,130.197357 81.4066429,130.008071 81.2995,129.560929 C79.9837857,124.060214 78.8930714,118.513071 78.0295,112.923071 C77.9595,112.470929 77.2709286,112.663071 77.3409286,113.113071" id="Fill-135" fill="#081F2C"></path>
                <path d="M87.7970714,114.879214 C87.2535,119.687071 86.9506429,124.512071 86.8892143,129.352071 C86.8835,129.811357 87.5977857,129.811357 87.6035,129.352071 C87.6649286,124.512071 87.9677857,119.687071 88.5113571,114.879214 C88.5627857,114.422786 87.8477857,114.426357 87.7970714,114.879214" id="Fill-137" fill="#081F2C"></path>
                <path d="M94.4157143,116.962071 C94.3521429,117.914214 94.2885714,118.865643 94.225,119.817071 C94.1942857,120.276357 94.9085714,120.274214 94.9392857,119.817071 C95.0028571,118.865643 95.0664286,117.914214 95.13,116.962071 C95.16,116.5035 94.4457143,116.504929 94.4157143,116.962071" id="Fill-139" fill="#081F2C"></path>
                <path d="M93.2815,123.263714 C93.0657857,124.213 92.9393571,125.172286 92.9015,126.145143 C92.8836429,126.605143 93.5979286,126.604429 93.6157857,126.145143 C93.6515,125.235143 93.7686429,124.342286 93.9700714,123.454429 C94.0715,123.006571 93.3836429,122.815143 93.2815,123.263714" id="Fill-141" fill="#081F2C"></path>
                <path d="M63.0715714,118.952214 C62.8158571,119.6515 62.5601429,120.3515 62.3044286,121.0515 C62.1458571,121.483643 62.8358571,121.670786 62.993,121.2415 C63.2487143,120.542214 63.5044286,119.8415 63.7601429,119.142214 C63.9187143,118.709357 63.2287143,118.522929 63.0715714,118.952214" id="Fill-143" fill="#081F2C"></path>
                <path d="M62.2907143,114.963643 C61.4492857,115.055786 60.7071429,115.369357 60.0592857,115.915786 C59.7071429,116.212214 60.215,116.715071 60.5642857,116.420786 C61.055,116.007214 61.6521429,115.747929 62.2907143,115.677929 C62.7421429,115.627929 62.7478571,114.913643 62.2907143,114.963643" id="Fill-145" fill="#081F2C"></path>
                <path d="M62.2847857,116.095714 C61.7947857,116.135714 61.3462143,116.260714 60.9097857,116.487143 C60.5012143,116.699286 60.8619286,117.315714 61.2705,117.103571 C61.5905,116.937857 61.9247857,116.839286 62.2847857,116.81 C62.7397857,116.773571 62.7440714,116.058571 62.2847857,116.095714" id="Fill-147" fill="#081F2C"></path>
                <path d="M31.7650714,29.2528571 C24.0507857,25.2128571 16.4257857,21.0064286 8.89292857,16.6364286 C8.49507143,16.4057143 8.13507143,17.0228571 8.53292857,17.2535714 C16.0650714,21.6235714 23.6900714,25.8292857 31.4043571,29.8692857 C31.8115,30.0828571 32.1729286,29.4664286 31.7650714,29.2528571" id="Fill-149" fill="#081F2C"></path>
                <path d="M22.772,56.8442143 C18.3412857,52.8192143 13.7062857,49.0356429 8.93128571,45.4285 C8.56414286,45.1506429 8.20771429,45.7706429 8.57057143,46.0449286 C13.297,49.6163571 17.8812857,53.3656429 22.267,57.3492143 C22.607,57.6577857 23.1134286,57.1542143 22.772,56.8442143" id="Fill-151" fill="#081F2C"></path>
                <g id="Group-155" transform="translate(72.142857, 149.906429)">
                    <mask id="mask-2" fill="white">
                        <use xlink:href="#path-1"></use>
                    </mask>
                    <g id="Clip-154"></g>
                    <path d="M0.736928571,0.978 C3.26835714,7.13871429 5.53621429,13.4001429 7.54192857,19.7515714 C7.67978571,20.1887143 8.36978571,20.0015714 8.2305,19.5615714 C6.2255,13.2094286 3.95692857,6.94871429 1.4255,0.787285714 C1.25335714,0.368 0.561928571,0.551571429 0.736928571,0.978" id="Fill-153" fill="#081F2C" mask="url(#mask-2)"></path>
                </g>
                <path d="M147.186643,46.3824286 C154.002357,41.9295714 160.818071,37.476 167.633786,33.0231429 C168.017357,32.7724286 167.660214,32.1538571 167.273786,32.4067143 C160.458071,36.8595714 153.641643,41.3124286 146.825929,45.766 C146.442357,46.016 146.800214,46.6352857 147.186643,46.3824286" id="Fill-156" fill="#081F2C"></path>
                <path d="M133.454857,28.632 L139.334143,24.5034286 C139.707714,24.2412857 139.351286,23.6212857 138.974143,23.8862857 C137.013429,25.2627143 135.054143,26.6391429 133.094143,28.0155714 C132.720571,28.2777143 133.077714,28.897 133.454857,28.632" id="Fill-158" fill="#081F2C"></path>
                <path d="M94.8405714,32.638 C97.082,28.4865714 99.3241429,24.3351429 101.566286,20.1837143 C101.784143,19.7794286 101.167714,19.418 100.949143,19.8237143 C98.7077143,23.9744286 96.4655714,28.1265714 94.2241429,32.2772857 C94.0055714,32.6822857 94.622,33.043 94.8405714,32.638" id="Fill-160" fill="#081F2C"></path>
                <path d="M84.9117143,27.4706429 C85.3367143,19.3227857 85.0867143,11.1685 84.1631429,3.06135714 C84.1117143,2.60992857 83.3967143,2.60421429 83.4488571,3.06135714 C84.3724286,11.1685 84.6224286,19.3227857 84.1974286,27.4706429 C84.1731429,27.9306429 84.8874286,27.9292143 84.9117143,27.4706429" id="Fill-162" fill="#081F2C"></path>
                <path d="M71.2067143,32.9993571 C69.9024286,30.5115 68.3695714,28.1772143 66.6152857,25.9843571 C66.3281429,25.6250714 65.826,26.1336429 66.1102857,26.4893571 C67.826,28.6350714 69.3152857,30.9272143 70.5902857,33.3600714 C70.8038571,33.7672143 71.4202857,33.4065 71.2067143,32.9993571" id="Fill-164" fill="#081F2C"></path>
                <path d="M33.2194286,100.068929 C21.9151429,103.661786 11.1844286,108.829643 1.33157143,115.434643 C0.951571429,115.688929 1.30871429,116.3075 1.69157143,116.051071 C11.4951429,109.479643 22.1615714,104.333214 33.4094286,100.7575 C33.8458571,100.618929 33.6594286,99.9289286 33.2194286,100.068929" id="Fill-166" fill="#081F2C"></path>
                <path d="M28.3397857,110.366143 C25.5212143,111.642571 23.1955,113.640429 21.4833571,116.214714 C21.2283571,116.598286 21.8469286,116.956857 22.1005,116.574714 C23.7455,114.100429 25.9955,112.208286 28.7005,110.983286 C29.1183571,110.794 28.7555,110.177571 28.3397857,110.366143" id="Fill-168" fill="#081F2C"></path>
                <path d="M38.6442857,119.1845 C37.165,121.323071 36.4142857,123.757357 36.4171429,126.355929 C36.4171429,126.815929 37.1314286,126.816643 37.1314286,126.355929 C37.1285714,123.871643 37.8485714,121.587357 39.2614286,119.545214 C39.5228571,119.166643 38.9042857,118.808786 38.6442857,119.1845" id="Fill-170" fill="#081F2C"></path>
                <path d="M119.234,100.541857 C125.254714,103.901143 131.159714,107.457571 136.945429,111.206857 C137.332571,111.457571 137.691143,110.839 137.306143,110.589714 C131.520429,106.839714 125.615429,103.284714 119.594714,99.9247143 C119.192571,99.7004286 118.832571,100.317571 119.234,100.541857" id="Fill-172" fill="#081F2C"></path>
                <path d="M121.471071,110.868357 C123.623929,113.1155 125.776071,115.364071 127.928929,117.611214 C128.2475,117.944071 128.751786,117.438357 128.433929,117.106214 C126.281071,114.859071 124.128929,112.6105 121.976071,110.363357 C121.6575,110.0305 121.153214,110.536214 121.471071,110.868357" id="Fill-174" fill="#081F2C"></path>
                <path d="M122.599357,94.1942143 C127.019357,95.1027857 131.302214,96.4699286 135.425786,98.3035 C135.842214,98.4892143 136.205786,97.8735 135.7865,97.6870714 C131.605786,95.8270714 127.272214,94.4270714 122.789357,93.5056429 C122.340786,93.4135 122.148643,94.1013571 122.599357,94.1942143" id="Fill-176" fill="#081F2C"></path>
                <path d="M38.6697143,53.8607857 C37.4225714,52.5200714 36.0647143,51.3050714 34.6018571,50.2043571 C34.2347143,49.9279286 33.8782857,50.5479286 34.2411429,50.8215 C35.6547143,51.8843571 36.9604286,53.0707857 38.1647143,54.3657857 C38.4782857,54.7036429 38.9825714,54.1979286 38.6697143,53.8607857" id="Fill-178" fill="#081F2C"></path>
                <path d="M81.3852857,133.428357 C81.351,134.0705 81.4231429,134.7055 81.5952857,135.324786 C81.7181429,135.767643 82.4074286,135.579786 82.2838571,135.1355 C82.1274286,134.573357 82.0688571,134.0105 82.0995714,133.428357 C82.1245714,132.968357 81.4102857,132.969786 81.3852857,133.428357" id="Fill-180" fill="#081F2C"></path>
                <path d="M96.7455714,150.449143 C95.4291429,150.524143 94.1327143,150.715571 92.8512857,151.027 C92.4048571,151.135571 92.5941429,151.824143 93.0412857,151.714857 C94.2605714,151.419143 95.492,151.234857 96.7455714,151.163429 C97.2027143,151.137714 97.2055714,150.423429 96.7455714,150.449143" id="Fill-182" fill="#081F2C"></path>
                <path d="M96.5554286,147.706357 C96.024,147.844929 95.489,147.937786 94.9411429,147.9785 C94.4854286,148.012786 94.4818571,148.727786 94.9411429,148.692786 C95.5518571,148.647071 96.1532857,148.550643 96.7454286,148.395643 C97.1897143,148.279214 97.0011429,147.589929 96.5554286,147.706357" id="Fill-184" fill="#081F2C"></path>
                <path d="M115.398214,76.5965714 C115.718214,76.8201429 116.0625,76.9858571 116.433214,77.1072857 C116.871071,77.2501429 117.058929,76.5608571 116.623214,76.418 C116.308929,76.3151429 116.028929,76.1687143 115.758929,75.9794286 C115.381786,75.7158571 115.023929,76.3344286 115.398214,76.5965714" id="Fill-186" fill="#081F2C"></path>
                <path d="M122.097786,77.6798571 C122.287786,77.4898571 122.477786,77.3005714 122.667786,77.1098571 C122.992786,76.7848571 122.487786,76.2791429 122.162786,76.6048571 C121.972786,76.7948571 121.782786,76.9848571 121.592786,77.1748571 C121.267071,77.5005714 121.772071,78.0055714 122.097786,77.6798571" id="Fill-188" fill="#081F2C"></path>
                <path d="M123.510643,76.9488571 C123.602786,76.5867143 123.472786,76.2788571 123.165643,76.0738571 C122.781357,75.8181429 122.424214,76.4367143 122.804929,76.691 C122.810643,76.7138571 122.816357,76.736 122.822071,76.7588571 C122.7085,77.2045714 123.397071,77.3952857 123.510643,76.9488571" id="Fill-190" fill="#081F2C"></path>
                <path d="M121.665,77.7837857 C121.443571,77.9423571 121.222143,78.0995 121.000714,78.2580714 C120.629286,78.5230714 120.985714,79.1430714 121.360714,78.8752143 C121.582857,78.7173571 121.804286,78.5587857 122.025714,78.4002143 C122.396429,78.1352143 122.04,77.5159286 121.665,77.7837857" id="Fill-192" fill="#081F2C"></path>
                <path d="M140.437286,48.8405714 C140.206571,48.207 139.856571,47.6477143 139.374429,47.1748571 C139.045857,46.8527143 138.540143,47.3577143 138.869429,47.6798571 C139.261571,48.0648571 139.560143,48.5127143 139.748714,49.0312857 C139.903714,49.4591429 140.594429,49.2741429 140.437286,48.8405714" id="Fill-194" fill="#081F2C"></path>
                <path d="M151.088071,38.9096429 C151.657357,38.4975 152.226643,38.0853571 152.795929,37.6732143 C153.1645,37.4067857 152.808786,36.7860714 152.435214,37.0560714 C151.865929,37.4682143 151.296643,37.8810714 150.727357,38.2925 C150.358786,38.5596429 150.715214,39.1796429 151.088071,38.9096429" id="Fill-196" fill="#081F2C"></path>
                <path d="M163.298643,30.0055 C163.859357,29.3997857 164.470786,28.8505 165.139357,28.3669286 C165.508643,28.1005 165.152214,27.4805 164.778643,27.7505 C164.060071,28.2690714 163.395786,28.8497857 162.793643,29.5005 C162.4815,29.8376429 162.985786,30.3440714 163.298643,30.0055" id="Fill-198" fill="#081F2C"></path>
                <path d="M101.386643,104.868071 C102.691643,105.495929 103.698071,106.508071 104.320929,107.815214 C104.518786,108.2295 105.135214,107.867357 104.938071,107.4545 C104.268786,106.0495 103.148786,104.925929 101.747357,104.250929 C101.3345,104.052357 100.972357,104.668786 101.386643,104.868071" id="Fill-200" fill="#081F2C"></path>
                <path d="M104.260571,105.038286 C104.729143,105.410429 105.109857,105.844714 105.408429,106.363286 C105.637714,106.761857 106.254857,106.402571 106.024857,106.004 C105.699143,105.436857 105.277714,104.939714 104.765571,104.533286 C104.409143,104.249714 103.900571,104.752571 104.260571,105.038286" id="Fill-202" fill="#081F2C"></path>
                <path d="M35.6332857,85.7497857 C37.0882857,87.0455 38.8925714,87.6662143 40.7225714,88.2376429 C41.1625714,88.3755 41.3504286,87.6862143 40.9125714,87.5490714 C39.2054286,87.0147857 37.4975714,86.4555 36.139,85.2447857 C35.7961429,84.9397857 35.2897143,85.4433571 35.6332857,85.7497857" id="Fill-204" fill="#081F2C"></path>
                <path d="M35.1917857,87.6526429 C35.5817857,87.8819286 35.9832143,88.0855 36.3982143,88.2662143 C36.8153571,88.4476429 37.1796429,87.8326429 36.7589286,87.6490714 C36.3439286,87.4690714 35.9425,87.2647857 35.5525,87.0362143 C35.1546429,86.8033571 34.7953571,87.4205 35.1917857,87.6526429" id="Fill-206" fill="#081F2C"></path>
                <path d="M33.616,88.6250714 C33.7974286,88.7050714 33.9788571,88.7865 34.161,88.8672143 C34.5774286,89.0522143 34.941,88.4365 34.521,88.2507857 C34.3395714,88.1693571 34.1581429,88.0886429 33.9767143,88.0086429 C33.5602857,87.8229286 33.1967143,88.4379286 33.616,88.6250714" id="Fill-208" fill="#081F2C"></path>
                <path d="M99.6574286,42.1692857 C96.5102857,43.385 93.7488571,45.2364286 91.4452857,47.7028571 C91.1317143,48.0385714 91.636,48.545 91.9502857,48.2078571 C94.166,45.8357143 96.8195714,44.0285714 99.8474286,42.8585714 C100.271714,42.6942857 100.087429,42.0035714 99.6574286,42.1692857" id="Fill-210" fill="#081F2C"></path>
                <path d="M95.8983571,39.7271429 C95.1705,40.01 94.4847857,40.3664286 93.8447857,40.8135714 C93.4705,41.0742857 93.8269286,41.6935714 94.2047857,41.43 C94.7933571,41.0192857 95.4190714,40.6757143 96.0883571,40.4157143 C96.5119286,40.2507143 96.3283571,39.5607143 95.8983571,39.7271429" id="Fill-212" fill="#081F2C"></path>
                <path d="M149.027929,54.4488571 C147.362214,55.5238571 146.0515,56.9981429 145.2015,58.791 C145.005071,59.2038571 145.620786,59.5667143 145.817929,59.1517143 C146.617214,57.4681429 147.8215,56.0767143 149.388643,55.0652857 C149.772929,54.8174286 149.415786,54.1981429 149.027929,54.4488571" id="Fill-214" fill="#081F2C"></path>
                <path d="M148.915929,57.6247857 C148.391643,58.0376429 148.028071,58.5947857 147.835214,59.2326429 C147.702357,59.6740714 148.391643,59.8626429 148.5245,59.4233571 C148.683786,58.8940714 148.988786,58.4712143 149.421643,58.1297857 C149.781643,57.8455 149.273071,57.3426429 148.915929,57.6247857" id="Fill-216" fill="#081F2C"></path>
                <path d="M91.8449286,109.916214 C91.7599286,109.921929 91.6913571,109.8905 91.6385,109.819786 C91.3213571,109.486214 90.8170714,109.991929 91.1335,110.3255 C91.2792143,110.479071 91.4435,110.574786 91.6549286,110.604786 C92.1042143,110.668357 92.2985,109.9805 91.8449286,109.916214" id="Fill-218" fill="#081F2C"></path>
                <path d="M97.5208571,112.532 C97.8344286,112.453429 98.1315714,112.342714 98.4258571,112.209143 C98.8437143,112.018429 98.4808571,111.402714 98.0651429,111.592714 C97.828,111.700571 97.5837143,111.779857 97.3308571,111.843429 C96.8851429,111.954857 97.0744286,112.644143 97.5208571,112.532" id="Fill-220" fill="#081F2C"></path>
                <path d="M62.689,71.6893571 C63.9325714,72.8586429 65.5611429,73.3336429 67.239,73.0443571 C67.6911429,72.9672143 67.4997143,72.2786429 67.049,72.3565 C65.6318571,72.5993571 64.2397143,72.1672143 63.194,71.1843571 C62.8597143,70.8700714 62.3532857,71.3743571 62.689,71.6893571" id="Fill-222" fill="#081F2C"></path>
                <path d="M68.7052857,66.508 C68.761,67.353 68.0167143,67.8351429 67.3867143,68.2372857 C67.0002857,68.4837143 67.3581429,69.1015714 67.7474286,68.8537143 C68.5902857,68.3165714 69.4931429,67.6215714 69.4195714,66.508 C69.3895714,66.0515714 68.6752857,66.048 68.7052857,66.508" id="Fill-224" fill="#081F2C"></path>
                <path d="M69.715,63.8573571 L68.9114286,63.0495 C68.5864286,62.7230714 68.0814286,63.2280714 68.4064286,63.5545 L69.21,64.3623571 C69.535,64.6887857 70.04,64.1837857 69.715,63.8573571" id="Fill-226" fill="#081F2C"></path>
                <path d="M23.0775,29.1015 C21.9860714,28.2329286 20.8303571,27.4679286 19.5960714,26.8157857 C19.1903571,26.6015 18.8289286,27.2172143 19.2360714,27.4329286 C20.4139286,28.0557857 21.5296429,28.7765 22.5725,29.6065 C22.9289286,29.8900714 23.4375,29.3872143 23.0775,29.1015" id="Fill-228" fill="#081F2C"></path>
                <g id="Group-232" transform="translate(0.000000, 0.620714)" fill="#081F2C">
                    <path d="M0.165928571,1.19907143 L3.3895,3.25835714 C3.77807143,3.50621429 4.13664286,2.88835714 3.75021429,2.64192857 C2.67592857,1.9555 1.60092857,1.26907143 0.526642857,0.582642857 C0.138071429,0.334071429 -0.2205,0.951928571 0.165928571,1.19907143" id="Fill-230"></path>
                </g>
                <path d="M2.51178571,1.31614286 C3.00321429,1.76257143 3.56178571,2.09185714 4.19035714,2.30614286 C4.62607143,2.45471429 4.81321429,1.76542857 4.38035714,1.61757143 C3.87035714,1.44328571 3.41535714,1.17328571 3.0175,0.811142857 C2.6775,0.501857143 2.17107143,1.00542857 2.51178571,1.31614286" id="Fill-233" fill="#081F2C"></path>
                <path d="M46.7120714,8.2435 C46.5327857,8.06492857 46.3542143,7.88564286 46.1749286,7.70635714 C45.8492143,7.38135714 45.3442143,7.88564286 45.6699286,8.21135714 C45.8492143,8.39064286 46.0277857,8.56992857 46.2070714,8.7485 C46.5327857,9.07421429 47.0377857,8.56921429 46.7120714,8.2435" id="Fill-235" fill="#081F2C"></path>
                <path d="M17.0897857,80.9380714 C15.9740714,80.8830714 14.8733571,80.9495 13.7712143,81.1216429 C13.3176429,81.1923571 13.5105,81.8809286 13.9605,81.8109286 C14.9990714,81.6473571 16.0405,81.6009286 17.0897857,81.6523571 C17.5497857,81.6752143 17.5483571,80.9609286 17.0897857,80.9380714" id="Fill-237" fill="#081F2C"></path>
                <path d="M78.4897857,78.5182857 C78.4305,78.6375714 78.3705,78.7568571 78.3105,78.8761429 C78.1055,79.2861429 78.7212143,79.6482857 78.9276429,79.2368571 C78.9869286,79.1175714 79.0469286,78.9982857 79.1062143,78.8782857 C79.3112143,78.469 78.6955,78.1061429 78.4897857,78.5182857" id="Fill-239" fill="#081F2C"></path>
                <path d="M100.930786,90.1638571 C101.617214,90.701 102.303643,91.2381429 102.990071,91.776 C103.347929,92.0552857 103.857214,91.5538571 103.495071,91.271 C102.808643,90.7331429 102.122214,90.196 101.435786,89.6588571 C101.077929,89.3781429 100.568643,89.881 100.930786,90.1638571" id="Fill-241" fill="#081F2C"></path>
                <path d="M48.3143571,103.520429 C48.1950714,103.789 48.0757857,104.057571 47.9565,104.326143 C47.7715,104.742571 48.3865,105.106857 48.5729286,104.686857 C48.6922143,104.418286 48.8115,104.149714 48.9315,103.881143 C49.1165,103.464714 48.5007857,103.100429 48.3143571,103.520429" id="Fill-243" fill="#081F2C"></path>
                <path d="M45.9294286,102.346429 C45.8701429,102.555 45.8101429,102.764286 45.7508571,102.972857 C45.6251429,103.416429 46.3144286,103.605714 46.4401429,103.163571 C46.4994286,102.954286 46.5587143,102.745 46.618,102.536429 C46.7437143,102.093571 46.0551429,101.904286 45.9294286,102.346429" id="Fill-245" fill="#081F2C"></path>
                <path d="M136.100643,94.4390714 C136.937071,94.7676429 137.712071,95.2133571 138.429214,95.7533571 C138.795643,96.0305 139.152071,95.4097857 138.789214,95.1369286 C138.020643,94.5569286 137.187071,94.1019286 136.290643,93.7497857 C135.862786,93.5819286 135.677071,94.2726429 136.100643,94.4390714" id="Fill-247" fill="#081F2C"></path>
                <path d="M139.863571,94.9447857 C140.254286,95.2197857 140.669286,95.4333571 141.113571,95.6076429 C141.541429,95.7762143 141.726429,95.0855 141.302857,94.9190714 C140.918571,94.7676429 140.562143,94.5662143 140.224286,94.3283571 C139.847857,94.0633571 139.490714,94.6819286 139.863571,94.9447857" id="Fill-249" fill="#081F2C"></path>
                <path d="M77.3133571,159.536714 C81.1905,156.223143 85.3455,152.816 90.6797857,152.617429 C91.1376429,152.601 91.1397857,151.886 90.6797857,151.903143 C85.1419286,152.109571 80.8397857,155.586714 76.8083571,159.031 C76.4583571,159.330286 76.9655,159.833857 77.3133571,159.536714" id="Fill-251" fill="#081F2C"></path>
                <path d="M98.8625714,151.213643 C99.8147143,151.145786 100.766143,151.079357 101.718286,151.0115 C102.174,150.979357 102.177571,150.264357 101.718286,150.297214 C100.766143,150.365071 99.8147143,150.4315 98.8625714,150.499357 C98.4061429,150.5315 98.4025714,151.245786 98.8625714,151.213643" id="Fill-253" fill="#081F2C"></path>
                <path d="M79.1315,166.491929 C85.0136429,159.966929 93.4715,156.268357 102.2565,156.389786 C102.7165,156.396214 102.7165,155.681929 102.2565,155.6755 C93.2957857,155.551929 84.6279286,159.3305 78.6265,165.986929 C78.3193571,166.327643 78.8229286,166.834071 79.1315,166.491929" id="Fill-255" fill="#081F2C"></path>
            </g>
        </g>
    </g>
</svg>