<?xml version="1.0" encoding="UTF-8"?>
<svg width="689px" height="150px" viewBox="0 0 689 150" version="1.1" xmlns="http://www.w3.org/2000/svg" xmlns:xlink="http://www.w3.org/1999/xlink">
    <!-- Generator: Sketch 48 (47235) - http://www.bohemiancoding.com/sketch -->
    <title>thumbs-up</title>
    <desc>Created with Sketch.</desc>
    <defs>
        <polygon id="path-1" points="1.855 0.529624927 1.855 5.49562507 0.834488032 5.49562507 0.834488032 0.529624927"></polygon>
    </defs>
    <g id="Page-1" stroke="none" stroke-width="1" fill="none" fill-rule="evenodd">
        <g id="thumbs-up">
            <path d="M655.7798,107.0641 C655.7798,121.7471 651.7848,133.6501 646.8558,133.6501 C641.9268,133.6501 637.9318,121.7471 637.9318,107.0641 C637.9318,92.3811 641.9268,80.4791 646.8558,80.4791 C651.7848,80.4791 655.7798,92.3811 655.7798,107.0641" id="Fill-1" fill="#FFFFFF" fill-rule="nonzero"></path>
            <path d="M657.6636,108.9797 C657.6636,123.2377 652.1206,134.7957 645.2836,134.7957 C638.4466,134.7957 632.9036,123.2377 632.9036,108.9797 C632.9036,94.7217 638.4466,83.1637 645.2836,83.1637 C652.1206,83.1637 657.6636,94.7217 657.6636,108.9797" id="Fill-3" fill="#EFEBD3" fill-rule="nonzero"></path>
            <path d="M648.4639,95.6545 C647.6739,95.6535 646.9009,95.6175 646.1209,95.4835 C645.5509,95.3855 645.1969,94.7905 645.1859,94.2365 C643.9679,93.4395 643.0849,92.3315 643.2989,90.6145 C643.3829,89.9385 643.8299,89.3045 644.5889,89.3255 C646.5119,89.3775 649.5649,90.3735 649.7539,92.6145 C649.7899,93.0495 649.6369,93.3655 649.3919,93.5715 C649.9969,94.3455 649.6959,95.6555 648.4639,95.6545 M646.5419,126.7785 C645.7139,127.2335 644.6649,127.1705 643.8759,126.6655 C642.9949,126.1025 642.5109,125.0595 642.7389,124.0265 C642.9869,122.9005 643.9529,122.1175 644.9379,121.6265 C645.5629,121.3145 646.3309,121.4545 646.7019,122.0895 C646.7889,122.2365 646.8389,122.4035 646.8579,122.5775 C647.4969,122.5895 648.2019,123.1785 648.1289,123.8645 C648.0049,125.0185 647.6219,126.1845 646.5419,126.7785 M644.2459,111.1215 C645.4649,110.7905 646.1469,112.1415 645.7079,113.0035 C645.7049,113.0305 645.7109,113.0565 645.7069,113.0825 C645.4589,114.8375 644.6469,119.1545 641.9009,117.6245 C638.8149,115.9065 641.8679,111.7675 644.2459,111.1215 M646.6289,101.4895 C646.4789,102.9025 646.5609,104.5185 645.3759,105.5275 C644.8239,105.9955 644.0969,106.0255 643.5519,105.5275 C641.3439,103.5085 641.8359,100.3885 644.1879,98.7515 C644.5279,98.5145 645.1509,98.4995 645.4899,98.7515 C645.8299,99.0055 646.0939,99.2605 646.3759,99.5775 C646.7779,100.0315 646.7869,100.5635 646.5849,100.9955 C646.6289,101.1395 646.6479,101.3025 646.6289,101.4895 M680.2949,89.9515 C680.9079,88.9535 681.0929,87.6665 680.5519,86.1655 C677.9599,78.9725 669.2569,75.4465 662.4849,73.2115 C658.5599,71.9155 654.4539,71.1655 650.3339,70.8475 C647.0839,70.5975 643.2999,71.3095 640.1609,70.2285 C641.2289,68.4285 642.3149,66.6415 643.4259,64.8715 C649.4499,60.7095 653.6399,54.7605 655.0599,47.4985 C655.8649,47.0065 656.5319,46.2895 656.8609,45.3855 C657.2809,44.2335 657.5609,43.1875 657.7719,41.9795 C657.9249,41.1005 657.8179,40.3145 657.5449,39.6335 C657.3309,36.6465 656.4889,33.6715 652.7419,33.5735 C648.7549,33.4705 647.4319,37.7455 645.1869,40.1545 C640.7319,44.9365 635.3199,48.3955 632.4279,53.7335 C632.3349,53.8515 632.2409,53.9695 632.1539,54.0995 C631.0069,55.8035 629.7329,57.1895 628.3559,58.4195 C626.5599,59.6075 624.8389,60.8975 623.1759,62.2805 C622.5449,62.6985 621.9049,63.1195 621.2469,63.5515 C617.4009,66.0785 614.8879,69.3555 613.0969,73.5715 C610.7829,79.0185 609.2119,84.5985 606.2539,89.3185 C605.9769,89.6635 605.7159,90.0245 605.4229,90.3545 C595.9039,92.4295 586.3729,94.4495 576.8199,96.3665 C572.4269,97.0435 568.0169,97.5885 563.5859,97.9685 C539.9859,98.1765 516.2989,97.5295 492.8009,98.5135 C474.4779,97.0315 456.0699,97.7605 437.9269,100.5875 C419.7969,100.3125 401.6549,100.4855 383.5219,100.5915 C367.1099,100.6885 350.6929,100.7095 334.2869,100.2335 C318.8429,99.7845 303.4209,98.0735 287.9849,97.7555 C286.7749,97.0375 285.3119,96.5895 283.5909,96.5315 C216.6499,94.3085 149.8279,88.7335 83.4599,79.7045 C73.0039,78.2815 62.5199,76.8415 52.0079,76.1445 C52.0079,76.1445 31.5069,144.1075 33.3399,143.2155 C117.5349,148.0215 201.9239,149.2775 286.2239,146.8765 C290.7969,146.7455 295.3689,146.5925 299.9419,146.4415 C314.7639,146.5325 329.5869,146.5935 344.4089,146.6075 C379.5719,146.6405 414.7359,146.4555 449.8969,146.0515 C469.7989,145.8235 489.7009,145.5235 509.6009,145.1575 C511.8219,145.1165 513.3899,144.0835 514.3339,142.6505 C532.1599,140.8305 549.9699,138.7915 567.8149,137.2185 C568.4249,137.3125 569.0749,137.3215 569.7619,137.2245 C578.2019,136.0295 586.7919,136.1945 595.2859,136.5585 C596.8199,136.6245 598.3699,136.6655 599.9209,136.7235 C604.4909,137.2305 609.0559,138.2205 613.6119,139.3525 C614.6899,139.7805 615.7679,140.2245 616.8659,140.6485 C620.3609,141.9955 623.9569,142.6575 627.5969,142.9085 C639.7909,145.7665 651.8829,147.0925 663.7909,140.2685 C664.8199,140.1365 665.7099,139.8005 666.4519,139.3125 C667.5949,139.0815 668.6999,138.5805 669.4809,137.7035 C670.3339,136.7445 671.0569,135.6695 671.3679,134.4035 C671.6619,133.2075 671.7279,131.6425 671.2699,130.4815 C671.0959,129.8625 670.8269,129.2995 670.4839,128.7805 C672.5689,127.7245 674.5489,126.4215 676.4799,124.8905 C679.2329,122.7065 678.2729,118.7135 676.4799,116.4045 C675.7459,115.4605 674.8619,114.7395 673.8979,114.1785 C675.5429,113.4145 677.0089,112.3565 677.9319,110.7865 C678.5579,109.7225 679.0649,107.8605 679.0499,106.6285 C679.5439,104.5655 679.4149,102.6775 678.1099,100.7315 C677.6959,100.1125 677.2089,99.5875 676.6719,99.1595 C676.9009,98.8255 677.0969,98.4675 677.2549,98.0885 C679.2389,97.2275 680.7419,95.4235 680.5929,92.8075 C680.5369,91.8305 680.4299,90.8865 680.2949,89.9515 Z" id="Fill-5" fill="#EFEBD3" fill-rule="nonzero"></path>
            <path d="M489.2695,98.5558 C520.5255,97.7428 551.9055,100.1998 583.0375,96.2028 C590.3075,95.2698 597.6895,94.0398 604.5565,91.3878 C605.1505,91.1578 604.8925,90.1908 604.2905,90.4228 C590.7105,95.6688 575.2085,96.3468 560.8305,97.0348 C544.0595,97.8368 527.2605,97.6978 510.4765,97.5478 C503.4095,97.4858 496.3355,97.3718 489.2695,97.5558 C488.6265,97.5728 488.6245,98.5728 489.2695,98.5558" id="Fill-7" fill="#1D1E1B" fill-rule="nonzero"></path>
            <path d="M604.7769,91.2585 C607.8599,88.4005 609.4509,84.5655 611.3779,80.8985 C613.9009,76.0985 616.4229,71.2995 618.9439,66.4995 C619.2439,65.9305 618.3809,65.4245 618.0809,65.9945 C615.7119,70.5035 613.3419,75.0125 610.9729,79.5205 C608.9609,83.3505 607.2919,87.5645 604.0699,90.5515 C603.5969,90.9895 604.3049,91.6955 604.7769,91.2585" id="Fill-9" fill="#1D1E1B" fill-rule="nonzero"></path>
            <path d="M620.5615,64.652 C622.2105,62.815 624.0265,61.273 626.0825,59.902 C627.3545,59.052 628.5725,58.239 629.5695,57.057 C631.7245,54.502 632.7465,51.021 635.8835,49.418 C636.4565,49.125 635.9515,48.261 635.3785,48.554 C632.5115,50.02 631.3205,52.903 629.5575,55.42 C628.1445,57.436 626.1925,58.533 624.2435,59.944 C622.6275,61.112 621.1855,62.463 619.8545,63.945 C619.4255,64.423 620.1305,65.132 620.5615,64.652" id="Fill-11" fill="#1D1E1B" fill-rule="nonzero"></path>
            <path d="M637.0278,47.9943 C638.5538,46.0293 640.7268,44.9973 642.6678,43.5203 C644.2948,42.2813 645.4058,40.7233 646.4738,39.0013 C647.8748,36.7433 649.6718,33.6183 652.6828,33.4703 C657.4048,33.2393 657.3368,38.7413 656.9738,42.0283 C656.9028,42.6673 657.9038,42.6623 657.9738,42.0283 C658.2878,39.1823 658.5348,35.6853 656.1448,33.5793 C654.3838,32.0283 652.0478,32.1753 650.1058,33.3093 C647.4378,34.8673 646.2908,37.7033 644.5698,40.1153 C642.3718,43.1943 638.6138,44.3353 636.3198,47.2873 C635.9298,47.7893 636.6328,48.5023 637.0278,47.9943" id="Fill-13" fill="#1D1E1B" fill-rule="nonzero"></path>
            <path d="M643.0269,71.0358 C641.5509,72.0188 639.5939,70.7358 640.3849,68.7608 C640.7429,67.8658 641.8069,66.9908 642.4409,66.2888 C643.8709,64.7038 645.3019,63.1198 646.7329,61.5358 C647.1629,61.0588 646.4579,60.3498 646.0259,60.8288 C644.3269,62.7098 642.6199,64.5848 640.9289,66.4728 C640.0619,67.4398 638.9539,68.5898 639.1229,70.0088 C639.3659,72.0518 641.9289,72.9668 643.5309,71.8988 C644.0649,71.5438 643.5649,70.6778 643.0269,71.0358" id="Fill-15" fill="#1D1E1B" fill-rule="nonzero"></path>
            <path d="M649.0137,59.2272 C653.1217,55.2182 655.8837,50.2212 657.0787,44.6052 C657.2127,43.9782 656.2487,43.7092 656.1147,44.3402 C654.9527,49.7972 652.3007,54.6232 648.3067,58.5202 C647.8457,58.9702 648.5527,59.6772 649.0137,59.2272" id="Fill-17" fill="#1D1E1B" fill-rule="nonzero"></path>
            <path d="M646.1499,72.3625 L658.9309,74.5205 C663.2109,75.2425 667.1999,75.8305 670.8269,78.4015 C671.3529,78.7745 671.8529,77.9075 671.3309,77.5385 C667.9089,75.1125 664.2449,74.4085 660.1799,73.7215 C655.5919,72.9475 651.0039,72.1725 646.4159,71.3985 C645.7859,71.2915 645.5159,72.2555 646.1499,72.3625" id="Fill-19" fill="#1D1E1B" fill-rule="nonzero"></path>
            <path d="M672.5107,79.8356 C674.2187,80.6926 676.1077,81.4176 677.7147,82.4466 C679.8387,83.8066 679.6917,85.8736 679.9867,88.1566 C680.1637,89.5296 680.9057,91.7496 680.6027,93.1006 C680.1647,95.0576 677.7617,96.0926 676.2347,97.1056 C675.6997,97.4596 676.2007,98.3256 676.7397,97.9686 C678.0377,97.1086 680.4327,96.1106 681.2517,94.7086 C682.2507,92.9956 681.2207,89.9736 680.9867,88.1566 C680.7647,86.4456 680.8947,84.0126 679.7267,82.6306 C678.2737,80.9096 674.9837,79.9596 673.0157,78.9726 C672.4417,78.6846 671.9347,79.5466 672.5107,79.8356" id="Fill-21" fill="#1D1E1B" fill-rule="nonzero"></path>
            <path d="M676.4551,99.6501 C679.4131,102.3311 680.1931,106.5931 677.8711,109.9801 C677.2461,110.8921 676.3991,111.6361 675.4621,112.2121 C674.9571,112.5221 674.2871,112.6891 673.8861,113.1441 C673.4661,113.6221 673.3881,113.8681 673.4501,114.5181 C673.5111,115.1521 674.5121,115.1591 674.4501,114.5181 C674.3631,113.6101 677.5801,111.9271 678.2261,111.1551 C679.1941,109.9971 679.8701,108.5831 680.1381,107.0961 C680.6951,104.0101 679.4411,101.0081 677.1621,98.9431 C676.6861,98.5121 675.9771,99.2171 676.4551,99.6501" id="Fill-23" fill="#1D1E1B" fill-rule="nonzero"></path>
            <path d="M674.4541,114.7233 C677.8931,117.2533 678.4351,121.9103 675.6661,125.1873 C673.1671,128.1443 669.1351,128.6793 665.5671,127.7423 C664.9451,127.5773 664.6791,128.5423 665.3021,128.7053 C669.7461,129.8743 674.8061,128.8033 677.2951,124.6213 C679.5321,120.8643 678.4091,116.3973 674.9591,113.8603 C674.4401,113.4783 673.9401,114.3453 674.4541,114.7233" id="Fill-25" fill="#1D1E1B" fill-rule="nonzero"></path>
            <path d="M670.8623,128.8419 C670.7373,130.1309 670.9563,131.3049 671.1073,132.5799 C671.4273,135.3009 670.2513,136.6699 668.0493,138.0969 C665.2583,139.9049 662.1233,141.0199 658.8633,141.6049 C658.2313,141.7179 658.4983,142.6819 659.1293,142.5689 C663.0163,141.8719 666.9023,140.3979 670.0303,137.9329 C673.3743,135.2989 671.5133,132.4659 671.8623,128.8419 C671.9243,128.2019 670.9233,128.2059 670.8623,128.8419" id="Fill-27" fill="#1D1E1B" fill-rule="nonzero"></path>
            <path d="M519.7373,141.3629 C546.2123,139.4319 572.8983,136.7669 599.4663,138.0749 C600.1093,138.1069 600.1083,137.1069 599.4663,137.0749 C572.8983,135.7669 546.2123,138.4319 519.7373,140.3629 C519.0993,140.4099 519.0943,141.4099 519.7373,141.3629" id="Fill-29" fill="#1D1E1B" fill-rule="nonzero"></path>
            <path d="M602.2295,138.4162 C607.4555,138.6982 612.6145,139.1062 617.5275,141.0442 C621.7745,142.7202 625.5565,143.9352 630.1585,144.1222 C639.9405,144.5182 649.9305,144.6642 659.5475,142.5952 C660.1765,142.4602 659.9105,141.4962 659.2815,141.6312 C649.5165,143.7322 639.1615,143.6312 629.2255,143.0782 C624.2405,142.8002 620.3755,140.8362 615.7465,139.3332 C611.3875,137.9172 606.7715,137.6612 602.2295,137.4162 C601.5865,137.3812 601.5885,138.3812 602.2295,138.4162" id="Fill-31" fill="#1D1E1B" fill-rule="nonzero"></path>
            <path d="M603.9917,90.6525 C600.3187,96.6625 606.1387,104.3655 610.8907,107.7745 C611.4137,108.1505 611.9137,107.2835 611.3947,106.9115 C607.0637,103.8035 601.5057,96.6365 604.8547,91.1575 C605.1917,90.6075 604.3267,90.1035 603.9917,90.6525" id="Fill-33" fill="#1D1E1B" fill-rule="nonzero"></path>
            <path d="M600.4546,95.4098 C600.3726,97.9758 601.1076,100.4048 602.6176,102.4848 C602.9916,102.9998 603.8596,102.5018 603.4806,101.9798 C602.0656,100.0288 601.3776,97.8228 601.4546,95.4098 C601.4756,94.7658 600.4756,94.7668 600.4546,95.4098" id="Fill-35" fill="#1D1E1B" fill-rule="nonzero"></path>
            <path d="M616.7349,120.1628 C622.3569,121.2748 627.9329,120.6278 633.1559,118.2708 C633.7419,118.0068 633.2339,117.1448 632.6519,117.4078 C627.6929,119.6448 622.3359,120.2538 617.0009,119.1988 C616.3719,119.0738 616.1029,120.0378 616.7349,120.1628" id="Fill-37" fill="#1D1E1B" fill-rule="nonzero"></path>
            <path d="M651.1538,77.0866 C650.5008,79.2606 650.2118,81.4696 650.2858,83.7376 C650.3068,84.3796 651.3078,84.3826 651.2858,83.7376 C651.2148,81.5586 651.4898,79.4406 652.1178,77.3526 C652.3038,76.7346 651.3388,76.4706 651.1538,77.0866" id="Fill-39" fill="#1D1E1B" fill-rule="nonzero"></path>
            <path d="M644.7544,87.5212 C649.6994,84.5182 655.5644,83.3902 660.8794,86.1452 C661.4494,86.4402 661.9554,85.5782 661.3834,85.2812 C655.7464,82.3592 649.5164,83.4592 644.2494,86.6582 C643.7004,86.9912 644.2024,87.8562 644.7544,87.5212" id="Fill-41" fill="#1D1E1B" fill-rule="nonzero"></path>
            <path d="M659.5347,85.0246 C663.7157,82.2526 668.6767,82.0096 673.5367,82.3986 C674.1787,82.4496 674.1757,81.4496 673.5367,81.3986 C668.4987,80.9946 663.3557,81.2936 659.0297,84.1606 C658.4957,84.5146 658.9957,85.3816 659.5347,85.0246" id="Fill-43" fill="#1D1E1B" fill-rule="nonzero"></path>
            <path d="M659.4048,84.4718 C659.8348,82.1448 660.6568,79.9888 661.8938,77.9708 C662.2308,77.4198 661.3658,76.9168 661.0298,77.4658 C659.7538,79.5498 658.8848,81.8028 658.4408,84.2058 C658.3238,84.8348 659.2878,85.1048 659.4048,84.4718" id="Fill-45" fill="#1D1E1B" fill-rule="nonzero"></path>
            <path d="M661.8081,82.9196 C662.1501,81.8516 662.7661,80.9446 663.6121,80.2106 C664.0991,79.7886 663.3891,79.0836 662.9051,79.5036 C661.9301,80.3486 661.2361,81.4276 660.8441,82.6536 C660.6471,83.2686 661.6121,83.5316 661.8081,82.9196" id="Fill-47" fill="#1D1E1B" fill-rule="nonzero"></path>
            <path d="M639.2061,73.4557 C639.0671,75.0667 639.7531,76.3627 640.3121,77.8347 C641.0161,79.6897 641.4791,81.5977 641.7761,83.5567 C641.8721,84.1907 642.8351,83.9207 642.7401,83.2907 C642.4811,81.5787 642.1051,79.8987 641.5311,78.2637 C640.9751,76.6817 640.0571,75.1847 640.2061,73.4557 C640.2611,72.8147 639.2611,72.8187 639.2061,73.4557" id="Fill-49" fill="#1D1E1B" fill-rule="nonzero"></path>
            <path d="M641.5547,74.2189 C643.6317,76.1499 645.5247,78.2499 647.2177,80.5259 C647.5967,81.0359 648.4657,80.5379 648.0807,80.0209 C646.3367,77.6759 644.4027,75.5029 642.2627,73.5119 C641.7907,73.0739 641.0827,73.7799 641.5547,74.2189" id="Fill-51" fill="#1D1E1B" fill-rule="nonzero"></path>
            <path d="M622.1553,76.6613 C625.1893,75.9013 628.3483,76.1383 631.3923,75.4253 C633.9283,74.8303 636.2593,73.7423 638.4173,72.2963 C638.9493,71.9393 638.4493,71.0733 637.9123,71.4323 C635.6103,72.9743 633.0803,74.1223 630.3433,74.6273 C627.5353,75.1453 624.6713,74.9993 621.8893,75.6973 C621.2653,75.8533 621.5303,76.8183 622.1553,76.6613" id="Fill-53" fill="#1D1E1B" fill-rule="nonzero"></path>
            <path d="M636.9438,69.5402 C635.1838,69.7272 633.4218,69.8312 631.6518,69.8522 C631.0088,69.8592 631.0068,70.8592 631.6518,70.8522 C633.4218,70.8312 635.1838,70.7272 636.9438,70.5402 C637.5768,70.4732 637.5848,69.4722 636.9438,69.5402" id="Fill-55" fill="#1D1E1B" fill-rule="nonzero"></path>
            <path d="M644.0718,60.4391 C641.8138,60.0591 639.8508,59.0161 638.2858,57.3421 C637.8448,56.8711 637.1388,57.5791 637.5788,58.0491 C639.2488,59.8351 641.3918,60.9971 643.8058,61.4031 C644.4358,61.5091 644.7058,60.5451 644.0718,60.4391" id="Fill-57" fill="#1D1E1B" fill-rule="nonzero"></path>
            <path d="M647.3687,57.8131 C644.5947,57.9461 642.0307,56.7001 640.4687,54.3911 C640.1097,53.8611 639.2437,54.3611 639.6047,54.8961 C641.3577,57.4861 644.2347,58.9631 647.3687,58.8131 C648.0097,58.7821 648.0137,57.7821 647.3687,57.8131" id="Fill-59" fill="#1D1E1B" fill-rule="nonzero"></path>
            <path d="M643.5347,88.2936 C642.7487,89.7606 641.9417,91.4296 642.5557,93.1106 C643.0687,94.5126 644.3987,95.4036 645.5957,96.1776 C646.1377,96.5276 646.6387,95.6626 646.0997,95.3146 C645.1917,94.7266 644.1437,94.0776 643.6337,93.0796 C642.8967,91.6356 643.7087,90.0856 644.3987,88.7986 C644.7017,88.2316 643.8397,87.7256 643.5347,88.2936" id="Fill-61" fill="#1D1E1B" fill-rule="nonzero"></path>
            <path d="M655.0181,90.9298 C654.3071,93.6658 654.3321,96.4158 655.0981,99.1378 C655.2721,99.7558 656.2371,99.4928 656.0621,98.8708 C655.3421,96.3118 655.3131,93.7688 655.9821,91.1958 C656.1441,90.5728 655.1801,90.3058 655.0181,90.9298" id="Fill-63" fill="#1D1E1B" fill-rule="nonzero"></path>
            <path d="M656.8989,91.5231 C656.6399,93.8491 656.4879,96.2081 657.6929,98.3081 C658.0129,98.8661 658.8769,98.3631 658.5559,97.8031 C657.4459,95.8671 657.6619,93.6531 657.8989,91.5231 C657.9699,90.8841 656.9699,90.8891 656.8989,91.5231" id="Fill-65" fill="#1D1E1B" fill-rule="nonzero"></path>
            <path d="M651.6636,101.1007 C650.6366,103.2347 650.1546,105.4977 650.2596,107.8657 C650.2886,108.5067 651.2886,108.5107 651.2596,107.8657 C651.1626,105.6747 651.5746,103.5827 652.5266,101.6047 C652.8046,101.0277 651.9426,100.5197 651.6636,101.1007" id="Fill-67" fill="#1D1E1B" fill-rule="nonzero"></path>
            <path d="M652.3384,103.6838 C652.2344,104.3588 652.1304,105.0328 652.0264,105.7068 C651.9304,106.3368 652.8934,106.6078 652.9914,105.9738 C653.0954,105.2988 653.1984,104.6238 653.3024,103.9498 C653.3994,103.3198 652.4364,103.0488 652.3384,103.6838" id="Fill-69" fill="#1D1E1B" fill-rule="nonzero"></path>
            <path d="M650.0293,116.6144 C649.4043,118.1004 649.0663,119.6384 648.9843,121.2474 C648.9513,121.8904 649.9513,121.8884 649.9843,121.2474 C650.0613,119.7274 650.4043,118.2814 650.9933,116.8804 C651.2423,116.2874 650.2753,116.0294 650.0293,116.6144" id="Fill-71" fill="#1D1E1B" fill-rule="nonzero"></path>
            <path d="M651.2695,112.8722 C658.8235,113.1432 666.3855,113.5342 673.8175,114.9992 C674.4455,115.1232 674.7145,114.1602 674.0825,114.0352 C666.5645,112.5532 658.9135,112.1462 651.2695,111.8722 C650.6255,111.8492 650.6265,112.8492 651.2695,112.8722" id="Fill-73" fill="#1D1E1B" fill-rule="nonzero"></path>
            <path d="M658.1147,100.2858 C661.3727,99.9008 664.6377,99.6818 667.9187,99.6288 C668.5617,99.6188 668.5637,98.6188 667.9187,98.6288 C664.6377,98.6818 661.3727,98.9008 658.1147,99.2858 C657.4837,99.3598 657.4757,100.3608 658.1147,100.2858" id="Fill-75" fill="#1D1E1B" fill-rule="nonzero"></path>
            <path d="M670.1006,99.3654 C671.1896,99.2604 672.2796,99.1554 673.3696,99.0504 C674.0036,98.9894 674.0106,97.9884 673.3696,98.0504 C672.2796,98.1554 671.1896,98.2604 670.1006,98.3654 C669.4656,98.4264 669.4596,99.4274 670.1006,99.3654" id="Fill-77" fill="#1D1E1B" fill-rule="nonzero"></path>
            <path d="M649.7075,124.7169 C651.2895,124.7049 652.7945,124.9939 654.2635,125.5769 C654.8615,125.8149 655.1215,124.8479 654.5295,124.6129 C652.9795,123.9969 651.3735,123.7039 649.7075,123.7169 C649.0645,123.7219 649.0625,124.7219 649.7075,124.7169" id="Fill-79" fill="#1D1E1B" fill-rule="nonzero"></path>
            <path d="M655.647,126.3874 C658.091,126.7374 660.473,127.3044 662.812,128.0924 C663.423,128.2994 663.686,127.3334 663.078,127.1284 C660.739,126.3394 658.357,125.7724 655.913,125.4234 C655.283,125.3334 655.011,126.2964 655.647,126.3874" id="Fill-81" fill="#1D1E1B" fill-rule="nonzero"></path>
            <path d="M640.105,116.5153 C640.93,118.0533 642.007,119.4113 643.383,120.4933 C644.861,121.6553 646.951,122.2363 647.999,123.8623 C648.346,124.4013 649.212,123.9003 648.862,123.3573 C648.001,122.0213 646.702,121.4113 645.369,120.6323 C643.464,119.5193 642.009,117.9493 640.969,116.0103 C640.665,115.4433 639.801,115.9483 640.105,116.5153" id="Fill-83" fill="#1D1E1B" fill-rule="nonzero"></path>
            <path d="M640.7754,114.9845 C641.3944,112.4585 643.4054,110.5825 645.9574,110.1095 C646.5894,109.9925 646.3214,109.0285 645.6914,109.1455 C642.8144,109.6785 640.5064,111.8815 639.8114,114.7185 C639.6574,115.3435 640.6214,115.6095 640.7754,114.9845" id="Fill-85" fill="#1D1E1B" fill-rule="nonzero"></path>
            <path d="M642.0205,104.6545 C643.1625,105.9665 644.3695,107.2175 645.6635,108.3815 C646.9205,109.5105 648.4965,110.4545 649.5315,111.8005 C649.9185,112.3035 650.7875,111.8065 650.3955,111.2965 C649.3925,109.9925 647.9895,109.0955 646.7605,108.0205 C645.3195,106.7585 643.9835,105.3915 642.7275,103.9465 C642.3045,103.4605 641.5995,104.1705 642.0205,104.6545" id="Fill-87" fill="#1D1E1B" fill-rule="nonzero"></path>
            <path d="M642.4712,102.7062 C641.0932,98.9132 646.7402,97.4712 649.1532,98.0712 C650.9222,98.5122 652.6232,99.6062 654.2442,100.4312 C654.8162,100.7222 655.3232,99.8592 654.7482,99.5672 C651.6682,97.9992 648.7122,96.0692 645.1832,97.3402 C642.7562,98.2152 640.5022,100.2062 641.5072,102.9722 C641.7242,103.5722 642.6912,103.3132 642.4712,102.7062" id="Fill-89" fill="#1D1E1B" fill-rule="nonzero"></path>
            <path d="M647.5488,96.2526 C648.4788,96.1566 649.2898,97.1326 650.0338,96.0856 C650.6778,95.1816 650.3798,93.5866 650.3798,92.5676 C650.3798,91.5996 650.4738,90.4996 649.5438,89.9106 C648.4518,89.2186 646.7588,89.1446 645.5078,88.9886 C644.8708,88.9096 644.8768,89.9106 645.5078,89.9886 C646.3088,90.0886 647.2928,90.1666 648.0548,90.4556 C649.3748,90.9566 649.3798,91.6406 649.3798,92.8016 C649.3798,93.4116 649.5788,94.3506 649.3598,94.9126 C649.0368,95.7366 648.1958,95.1866 647.5488,95.2526 C646.9148,95.3176 646.9078,96.3186 647.5488,96.2526" id="Fill-91" fill="#1D1E1B" fill-rule="nonzero"></path>
            <path d="M646.1694,106.4953 C646.6084,104.9623 646.9544,103.4133 647.1744,101.8323 C647.2774,101.0943 647.7024,99.7323 647.3564,99.0723 C646.9674,98.3283 645.2124,97.5523 644.4194,97.6683 C643.7844,97.7613 644.0544,98.7243 644.6854,98.6323 C644.9154,98.5993 645.5454,99.0193 645.7684,99.1413 C646.5334,99.5583 646.3984,99.9233 646.2994,100.8113 C646.0944,102.6513 645.7144,104.4513 645.2054,106.2293 C645.0274,106.8493 645.9924,107.1143 646.1694,106.4953" id="Fill-93" fill="#1D1E1B" fill-rule="nonzero"></path>
            <path d="M640.7573,117.589 C641.1683,118.612 643.2323,119.203 644.1663,118.684 C645.0393,118.2 645.4253,116.965 645.7423,116.088 C646.2623,114.651 646.4833,113.147 646.4963,111.623 C646.4983,111.404 646.3403,111.198 646.1293,111.141 C645.1463,110.871 643.4813,110.323 642.4753,110.637 C641.8623,110.827 642.1243,111.793 642.7403,111.601 C643.5253,111.357 645.0763,111.889 645.8633,112.105 C645.7413,111.944 645.6193,111.784 645.4963,111.623 C645.4813,113.34 645.1743,115.041 644.4593,116.611 C644.1613,117.264 643.8303,117.856 643.0583,117.815 C642.8463,117.804 641.8133,117.551 641.7213,117.323 C641.4853,116.733 640.5173,116.991 640.7573,117.589" id="Fill-95" fill="#1D1E1B" fill-rule="nonzero"></path>
            <path d="M648.2803,114.5773 C648.0663,115.6133 647.8523,116.6503 647.6383,117.6863 C647.5093,118.3143 648.4733,118.5833 648.6033,117.9523 C648.8173,116.9153 649.0303,115.8793 649.2443,114.8433 C649.3743,114.2153 648.4103,113.9463 648.2803,114.5773" id="Fill-97" fill="#1D1E1B" fill-rule="nonzero"></path>
            <path d="M670.8506,118.4489 C670.6056,120.5309 670.1336,122.5569 669.4566,124.5399 C669.2486,125.1509 670.2146,125.4129 670.4216,124.8059 C671.1286,122.7329 671.5946,120.6229 671.8506,118.4489 C671.9256,117.8109 670.9256,117.8169 670.8506,118.4489" id="Fill-99" fill="#1D1E1B" fill-rule="nonzero"></path>
            <path d="M672.5884,122.528 C673.2324,122.528 673.2334,121.528 672.5884,121.528 C671.9444,121.528 671.9434,122.528 672.5884,122.528" id="Fill-101" fill="#1D1E1B" fill-rule="nonzero"></path>
            <path d="M674.1846,122.0612 C673.9586,123.1632 673.5196,124.1842 672.8296,125.0762 C672.4406,125.5792 673.1426,126.2922 673.5366,125.7832 C674.3336,124.7522 674.8876,123.6072 675.1486,122.3272 C675.2766,121.6992 674.3136,121.4302 674.1846,122.0612" id="Fill-103" fill="#1D1E1B" fill-rule="nonzero"></path>
            <path d="M671.8237,110.9528 C673.1567,109.0108 673.8327,106.7948 673.8287,104.4398 C673.8277,103.7968 672.8277,103.7958 672.8287,104.4398 C672.8327,106.6328 672.2007,108.6418 670.9607,110.4478 C670.5947,110.9798 671.4617,111.4808 671.8237,110.9528" id="Fill-105" fill="#1D1E1B" fill-rule="nonzero"></path>
            <path d="M675.0464,109.5187 C675.6964,108.4307 676.0704,107.2547 676.1974,105.9957 C676.2624,105.3557 675.2624,105.3607 675.1974,105.9957 C675.0884,107.0767 674.7394,108.0827 674.1834,109.0137 C673.8524,109.5677 674.7164,110.0707 675.0464,109.5187" id="Fill-107" fill="#1D1E1B" fill-rule="nonzero"></path>
            <path d="M675.2837,95.4142 C675.7197,92.0612 675.0617,88.8122 673.3917,85.8772 C673.0737,85.3172 672.2097,85.8212 672.5287,86.3812 C674.1197,89.1802 674.6987,92.2262 674.2837,95.4142 C674.2007,96.0502 675.2017,96.0442 675.2837,95.4142" id="Fill-109" fill="#1D1E1B" fill-rule="nonzero"></path>
            <path d="M677.8818,92.4289 C678.1018,91.1209 678.0238,89.8399 677.6028,88.5789 C677.3998,87.9719 676.4338,88.2319 676.6378,88.8449 C676.9998,89.9279 677.1078,91.0339 676.9178,92.1629 C676.8118,92.7929 677.7758,93.0629 677.8818,92.4289" id="Fill-111" fill="#1D1E1B" fill-rule="nonzero"></path>
            <path d="M652.2334,127.5348 C651.1044,129.2308 650.3174,131.0868 649.8834,133.0768 C649.7464,133.7048 650.7104,133.9728 650.8474,133.3428 C651.2654,131.4278 652.0104,129.6718 653.0964,128.0398 C653.4544,127.5018 652.5884,127.0008 652.2334,127.5348" id="Fill-113" fill="#1D1E1B" fill-rule="nonzero"></path>
            <path d="M653.4785,129.5582 C653.0435,130.4422 652.7105,131.3622 652.4945,132.3242 C652.3535,132.9502 653.3165,133.2182 653.4585,132.5892 C653.6555,131.7112 653.9445,130.8702 654.3415,130.0632 C654.6245,129.4872 653.7625,128.9802 653.4785,129.5582" id="Fill-115" fill="#1D1E1B" fill-rule="nonzero"></path>
            <path d="M643.2983,129.8874 C647.2653,134.7344 652.6553,137.8184 658.2303,140.4894 C658.8073,140.7654 659.3153,139.9044 658.7343,139.6254 C653.2373,136.9914 647.9203,133.9624 644.0063,129.1804 C643.5973,128.6814 642.8943,129.3934 643.2983,129.8874" id="Fill-117" fill="#1D1E1B" fill-rule="nonzero"></path>
            <path d="M653.3398,138.3048 C653.7048,139.1348 654.0688,139.9638 654.4338,140.7938 C654.6928,141.3818 655.5538,140.8728 655.2978,140.2888 C654.9328,139.4588 654.5678,138.6298 654.2038,137.7998 C653.9448,137.2128 653.0828,137.7208 653.3398,138.3048" id="Fill-119" fill="#1D1E1B" fill-rule="nonzero"></path>
            <path d="M650.0254,136.3205 C650.3404,137.7715 650.5814,139.2325 650.7414,140.7085 C650.8104,141.3415 651.8114,141.3485 651.7414,140.7085 C651.5714,139.1435 651.3234,137.5925 650.9894,136.0545 C650.8534,135.4255 649.8894,135.6925 650.0254,136.3205" id="Fill-121" fill="#1D1E1B" fill-rule="nonzero"></path>
            <path d="M647.9644,124.3068 C647.5834,125.1888 646.6374,127.1298 645.5544,127.1058 C644.4454,127.0818 643.2454,125.5998 642.5814,124.7958 C642.1724,124.2998 641.4674,125.0108 641.8744,125.5038 C642.6544,126.4488 644.3174,128.3578 645.7274,128.2188 C647.1734,128.0768 648.3324,125.9568 648.8274,124.8108 C649.0804,124.2268 648.2194,123.7168 647.9644,124.3068" id="Fill-123" fill="#1D1E1B" fill-rule="nonzero"></path>
            <path d="M642.6704,124.6442 C642.9054,123.3112 643.9784,122.2302 645.3524,122.1072 C645.9874,122.0502 645.9934,121.0492 645.3524,121.1072 C643.5594,121.2682 642.0244,122.5812 641.7064,124.3782 C641.5944,125.0082 642.5584,125.2782 642.6704,124.6442" id="Fill-125" fill="#1D1E1B" fill-rule="nonzero"></path>
            <path d="M641.3867,127.2282 C642.2197,128.4532 643.1477,129.6042 644.1717,130.6752 C644.6177,131.1412 645.3247,130.4332 644.8787,129.9682 C643.9127,128.9582 643.0357,127.8792 642.2507,126.7232 C641.8907,126.1942 641.0237,126.6942 641.3867,127.2282" id="Fill-127" fill="#1D1E1B" fill-rule="nonzero"></path>
            <path d="M634.7925,93.2677 C635.0255,93.3647 634.0435,97.4527 633.9175,97.8997 C633.4725,99.4657 632.8545,100.9787 632.1545,102.4457 C630.9385,104.9927 629.4375,107.3947 627.9415,109.7837 C627.5985,110.3307 628.4635,110.8327 628.8045,110.2887 C630.9855,106.8057 633.1745,103.2647 634.5055,99.3527 C634.9105,98.1607 636.8305,93.0397 635.0585,92.3037 C634.4645,92.0567 634.2065,93.0237 634.7925,93.2677" id="Fill-129" fill="#1D1E1B" fill-rule="nonzero"></path>
            <path d="M636.2017,103.7326 C635.1637,105.4966 634.1267,107.2606 633.0887,109.0246 C632.7617,109.5806 633.6257,110.0846 633.9517,109.5296 C634.9897,107.7656 636.0277,106.0016 637.0657,104.2376 C637.3917,103.6816 636.5287,103.1776 636.2017,103.7326" id="Fill-131" fill="#1D1E1B" fill-rule="nonzero"></path>
            <path d="M615.0254,115.799 C624.5464,117.379 634.6224,116.306 641.9894,109.541 C642.4644,109.105 641.7554,108.399 641.2824,108.834 C634.1954,115.342 624.4394,116.353 615.2914,114.835 C614.6614,114.73 614.3914,115.694 615.0254,115.799" id="Fill-133" fill="#1D1E1B" fill-rule="nonzero"></path>
            <path d="M605.0576,128.2248 C605.7186,131.5248 607.5246,134.3268 610.2046,136.3488 C610.7186,136.7368 611.2176,135.8688 610.7096,135.4848 C608.2406,133.6218 606.6276,130.9838 606.0216,127.9588 C605.8956,127.3288 604.9316,127.5958 605.0576,128.2248" id="Fill-135" fill="#1D1E1B" fill-rule="nonzero"></path>
            <path d="M611.2617,133.4235 C611.9047,133.4235 611.9067,132.4235 611.2617,132.4235 C610.6177,132.4235 610.6167,133.4235 611.2617,133.4235" id="Fill-137" fill="#1D1E1B" fill-rule="nonzero"></path>
            <path d="M640.1226,120.6769 C636.4996,122.3119 633.3666,124.6849 630.8076,127.7259 C630.3956,128.2149 631.1006,128.9259 631.5156,128.4329 C634.0226,125.4529 637.0786,123.1429 640.6266,121.5409 C641.2126,121.2759 640.7056,120.4139 640.1226,120.6769" id="Fill-139" fill="#1D1E1B" fill-rule="nonzero"></path>
            <path d="M595.8496,129.421 C584.4116,129.344 572.9846,129.824 561.5936,130.86 C560.9576,130.918 560.9516,131.919 561.5936,131.86 C572.9846,130.824 584.4116,130.344 595.8496,130.421 C596.4936,130.425 596.4946,129.425 595.8496,129.421" id="Fill-141" fill="#1D1E1B" fill-rule="nonzero"></path>
            <path d="M543.3975,101.7326 L541.3745,101.7326 C540.7305,101.7326 540.7295,102.7326 541.3745,102.7326 L543.3975,102.7326 C544.0405,102.7326 544.0425,101.7326 543.3975,101.7326" id="Fill-143" fill="#1D1E1B" fill-rule="nonzero"></path>
            <path d="M614.6226,82.2995 C612.7546,84.7375 610.8866,87.1765 609.0186,89.6145 C608.6276,90.1255 609.4966,90.6245 609.8826,90.1195 C611.7506,87.6815 613.6186,85.2425 615.4856,82.8035 C615.8766,82.2935 615.0086,81.7945 614.6226,82.2995" id="Fill-145" fill="#1D1E1B" fill-rule="nonzero"></path>
            <path d="M612.2617,90.6857 C612.9047,90.6857 612.9067,89.6857 612.2617,89.6857 C611.6177,89.6857 611.6167,90.6857 612.2617,90.6857" id="Fill-147" fill="#1D1E1B" fill-rule="nonzero"></path>
            <path d="M489.2695,97.5558 C428.0745,99.9638 366.8075,100.2908 305.6065,97.8728 C246.3505,95.5318 187.2315,90.6468 128.2745,84.3208 C110.5465,82.4178 92.8325,80.3908 75.1285,78.2778 C57.0335,76.1168 38.7635,73.0898 20.4875,74.3088 C19.8495,74.3518 19.8445,75.3518 20.4875,75.3088 C36.8255,74.2198 53.0935,76.6248 69.2745,78.5748 C85.2055,80.4948 101.1445,82.3468 117.0945,84.1038 C147.2555,87.4278 177.4545,90.4138 207.6985,92.8808 C266.2255,97.6528 324.9055,100.3378 383.6285,100.5448 C418.8525,100.6688 454.0745,99.9408 489.2695,98.5558 C489.9105,98.5308 489.9145,97.5308 489.2695,97.5558" id="Fill-149" fill="#1D1E1B" fill-rule="nonzero"></path>
            <path d="M0.6426,144.424 C67.8106,147.216 135.0266,148.859 202.2526,149.225 C268.6106,149.588 334.9746,148.712 401.3006,146.628 C439.2956,145.435 477.2766,143.844 515.2396,141.892 C515.8796,141.859 515.8836,140.859 515.2396,140.892 C448.1016,144.345 380.9056,146.649 313.6866,147.677 C247.3356,148.692 180.9656,148.469 114.6216,147.039 C76.6186,146.219 38.6226,145.003 0.6426,143.424 C-0.0014,143.397 0.0006,144.397 0.6426,144.424" id="Fill-151" fill="#1D1E1B" fill-rule="nonzero"></path>
            <path d="M20.5708,127.4791 C55.0138,128.6281 89.4568,129.7781 123.9008,130.9271 C124.5438,130.9491 124.5438,129.9491 123.9008,129.9271 C89.4568,128.7781 55.0138,127.6281 20.5708,126.4791 C19.9268,126.4581 19.9278,127.4581 20.5708,127.4791" id="Fill-153" fill="#1D1E1B" fill-rule="nonzero"></path>
            <path d="M83.9043,113.4831 C89.2553,113.2931 94.5873,113.5151 99.9043,114.1501 C100.5423,114.2261 100.5363,113.2251 99.9043,113.1501 C94.5873,112.5151 89.2553,112.2931 83.9043,112.4831 C83.2623,112.5061 83.2593,113.5061 83.9043,113.4831" id="Fill-155" fill="#1D1E1B" fill-rule="nonzero"></path>
            <path d="M153.9043,100.1501 C159.0333,99.9591 164.0823,100.3921 169.1043,101.4651 C169.7323,101.6001 170.0003,100.6361 169.3703,100.5011 C164.2703,99.4111 159.1163,98.9561 153.9043,99.1501 C153.2623,99.1731 153.2593,100.1741 153.9043,100.1501" id="Fill-157" fill="#1D1E1B" fill-rule="nonzero"></path>
            <path d="M376.5708,134.15 L387.9038,134.15 C388.5478,134.15 388.5488,133.15 387.9038,133.15 L376.5708,133.15 C375.9268,133.15 375.9258,134.15 376.5708,134.15" id="Fill-159" fill="#1D1E1B" fill-rule="nonzero"></path>
            <path d="M672.4897,28.9147 C673.8227,28.0817 675.1567,27.2477 676.4897,26.4147 C677.0337,26.0747 676.5327,25.2087 675.9847,25.5517 C674.6517,26.3847 673.3187,27.2177 671.9847,28.0517 C671.4407,28.3917 671.9417,29.2577 672.4897,28.9147" id="Fill-161" fill="#1D1E1B" fill-rule="nonzero"></path>
            <path d="M662.7197,9.1164 C663.3787,6.2704 663.7187,3.4054 663.7377,0.4834 C663.7417,-0.1606 662.7417,-0.1606 662.7377,0.4834 C662.7197,3.3134 662.3947,6.0924 661.7557,8.8504 C661.6107,9.4764 662.5737,9.7434 662.7197,9.1164" id="Fill-163" fill="#1D1E1B" fill-rule="nonzero"></path>
            <path d="M641.2197,18.8503 C640.7197,17.5173 640.2197,16.1833 639.7197,14.8503 C639.4957,14.2533 638.5287,14.5123 638.7557,15.1163 C639.2557,16.4493 639.7557,17.7833 640.2557,19.1163 C640.4787,19.7133 641.4467,19.4543 641.2197,18.8503" id="Fill-165" fill="#1D1E1B" fill-rule="nonzero"></path>
            <path d="M615.7476,39.9826 C615.6416,38.5926 614.7126,37.4146 613.3626,37.0306 C612.7426,36.8546 612.4776,37.8196 613.0976,37.9956 C613.9976,38.2516 614.6756,39.0406 614.7476,39.9826 C614.7966,40.6206 615.7966,40.6256 615.7476,39.9826" id="Fill-167" fill="#1D1E1B" fill-rule="nonzero"></path>
            <path d="M565.8682,86.4499 C568.8682,85.9839 571.5292,84.5609 573.5972,82.3429 C574.0352,81.8719 573.3302,81.1629 572.8902,81.6359 C570.9262,83.7419 568.4462,85.0439 565.6022,85.4859 C564.9682,85.5839 565.2382,86.5479 565.8682,86.4499" id="Fill-169" fill="#1D1E1B" fill-rule="nonzero"></path>
            <path d="M682.3721,138.4762 C682.4451,140.6302 682.0561,142.7012 681.1711,144.6672 C680.9091,145.2492 681.7701,145.7582 682.0341,145.1722 C682.9941,143.0422 683.4521,140.8122 683.3721,138.4762 C683.3501,137.8342 682.3501,137.8312 682.3721,138.4762" id="Fill-171" fill="#1D1E1B" fill-rule="nonzero"></path>
            <g id="Fill-173-Clipped" transform="translate(687.000000, 138.971000)">
                <mask id="mask-2" fill="white">
                    <use xlink:href="#path-1"></use>
                </mask>
                <g id="path-1"></g>
                <path d="M0.8555,1.013 C0.8485,2.346 0.8405,3.68 0.8345,5.013 C0.8305,5.656 1.8305,5.657 1.8345,5.013 C1.8405,3.68 1.8485,2.346 1.8555,1.013 C1.8585,0.369 0.8585,0.368 0.8555,1.013" id="Fill-173" fill="#1D1E1B" fill-rule="nonzero" mask="url(#mask-2)"></path>
            </g>
        </g>
    </g>
</svg>