<svg viewBox="0 0 504 92" xmlns="http://www.w3.org/2000/svg">
  <title>
    Page 1
  </title>
  <g fill="none" fill-rule="evenodd">
    <path d="M403.267 89.945c.769-.256 1.538-.534 2.307-.825a17.048 17.048 0 0 0 3.954-.32c1.204-.244 2.86-1.049 3.97-1.553 3.248.258 6.955-1.622 6.56-5.408l.088-.195c.196-.432.346-.878.458-1.326.65.046 1.345.022 2.056-.056.31.053.625.088.95.088l.257.001c.215.019.424.025.614.002.799.03 1.544-.136 2.236-.499a4.35 4.35 0 0 0 1.867-1.196c.303-.28.554-.59.762-.925 1.85-1.37 3.054-3.22 2.79-5.402a3.4 3.4 0 0 0 .115-.982c-.05-1.097-.41-2.236-1.246-3.001-.706-.646-1.55-1.087-2.492-1.206-1.586-.964-3.477-1.545-5.169-2.135a6.31 6.31 0 0 0 .472-.97c3.574-.05 7.15-.168 10.683.42 2.764.46 5.38.665 8.028.618 8.393.825 16.81 1.31 25.242 1.461.876.11 1.753.194 2.634.255.404.12.852.186 1.347.182 2.532-.023 5.794.409 8.147-.902.138-.016.277-.02.416-.047l.4-.08c1.447-.287 2.57-1.618 2.972-2.965l.117-.39c.74-2.473-.697-4.278-2.585-4.946a4.789 4.789 0 0 0-2.12-.884 5.443 5.443 0 0 0-1.34-.046c-.05-.008-.1-.01-.152-.018-5.636-1.167-11.297-2.202-16.965-3.212-5.365-.958-10.764-2.143-16.221-2.393-3.836-.458-7.85-.04-11.66-.194-2.324-.094-4.738-.2-7.012-.75.004-.102.011-.2.01-.305-.025-1.279-.24-2.554.587-3.547 1.008-1.21 3.361-2.163 4.719-2.896 3.386-1.827 6.932-3.131 10.642-4.14 1.274-.345 2.225-.981 2.89-1.78a5.41 5.41 0 0 0 .697-.136c1.414-.4 2.95-.778 4.492-1.202.147-.028.295-.063.447-.107 6.126-1.803 12.392-1.878 18.612-3.21.667-.143 1.215-.395 1.655-.725l.527-.091a4.123 4.123 0 0 0 1.598-.62c3.991-1.369 3.523-8.289-1.434-8.254-6.321.045-13.612-.803-19.72 1.29a63.792 63.792 0 0 0-8.916.347 6.107 6.107 0 0 0-2.2.665c-3.928.373-7.76 1.295-11.434 2.834l-.136.062a229.156 229.156 0 0 1-17.082 3.671c-5.656-.322-11.426-.066-16.918.989-2.423.466-4.833.907-7.244 1.316a4.593 4.593 0 0 0-1.465-.348c-4.76-.352-9.146 1.444-13.825 1.89-4.592.44-8.787-.27-13.241 1.31-4.423 1.568-8.72 2.82-13.43 3.206-4.526.369-9.2-.4-13.673.076a6.64 6.64 0 0 0-1.997.535c-5.693.245-11.367.327-17.06-.24-6.784-.677-13.419-1.104-20.247-.929-14.418.37-28.831 1.236-43.209 2.366a5.089 5.089 0 0 0-.914.167c-10.264-.017-20.528.04-30.791.184-4.795.067-9.599.093-14.39.289-2.264.092-5.256-.038-7.894.464a4.666 4.666 0 0 0-1.614-.052c-4.952.69-9.995.817-14.98.448-5.055-.373-9.947-1.712-14.984-2.181a89.452 89.452 0 0 0-5.918-.34c-8.012-1.092-16.038-2.195-24.133-2.408l-.275-.008c-1.903-.235-3.74-.358-5.169-.559-2.213-.31-4.429-.576-6.647-.8-2.132-.418-4.268-.813-6.412-1.126-5.381-.785-10.852-.699-16.277-.827-11.723-.278-23.258-.265-34.7-3.14-1.405-.354-2.595-.038-3.49.637-2.631-.044-5.164.29-7.902.494a33.27 33.27 0 0 1-1.94.08c-.73-.05-1.45-.098-2.142-.13-1.84-.085-3.676-.209-5.511-.353-.865-.103-1.727-.212-2.59-.324a4.378 4.378 0 0 0-1.118-.005 207.763 207.763 0 0 1-4.42-.48 4.467 4.467 0 0 0-1.059-.004c-2.426-.426-4.85-.914-7.322-1.4-4.985-.979-11.359.463-15.918-1.792-1.243-.615-2.447-.599-3.473-.197-2.223.414-4.222 2.371-3.519 5.2.484 1.946 1.112 4.002.765 6.02-.332 1.934-1.57 3.44-2.482 5.13C.255 48.71-.383 52.382.218 56.374c.583 3.875 2.227 7.43 3.49 11.112 1.49 4.342 2.606 8.778 3.45 13.288.461 2.462 2.44 3.312 4.35 2.996 5.114 2.38 10.293 3.308 15.986 3.524 5.77.219 11.533.355 17.279-.19 4.522.2 9.088-.317 13.589-.613l9.99-.657c5.652.305 11.253.394 16.95-.243.181-.02.35-.065.52-.105 7.996.08 15.994.199 23.99.21 3.761.004 7.305-.932 11.03-1.187 4.277-.294 8.56.23 12.8.737 1.306.156 2.291-.22 2.965-.885 3.358.162 6.717.248 10.08.242 3.936.373 7.985.352 11.918.404 1.484.645 3.386.79 5.742.866 10.956.349 21.911-.034 32.823-1.05 1.51.264 3.167.181 4.81.495.922.176 1.749.075 2.465-.21 5.446.298 10.857-.449 16.31-.75 6.146-.342 12.303-.333 18.456-.381 6.138-.049 12.287-.137 18.404-.694 6.207-.565 12.392-2.324 18.608-2.46.442-.01.845-.078 1.215-.185.254.066.518.12.802.144 11.411.979 23.577 1.769 35.06.298 4.501.067 9.085-.246 13.624-.663.933.007 1.848-.017 2.688-.03a3.952 3.952 0 0 0 1.639-.39l.624-.063 12.679 1.082a67.247 67.247 0 0 0 6.585 1.967c.355.087.695.128 1.021.135 1.72.616 3.448 1.206 5.19 1.763.514.427 1.11.778 1.81 1.003 4.364 1.405 8.794 3.23 13.313 4.06 5.016.922 10.288.666 15.368.793 5.074.126 10.526.836 15.426-.793" fill="#7F5C4F"/>
    <path d="M398.997 68.418c.063-1.24-.964-1.728-1.82-1.481-.59-.278-1.193-.52-1.822-.677-.78-.194-1.753-.468-2.495-.01-.772.476-.862 1.343-.855 2.224.006.907-.094 1.904.369 2.704.484.837 1.43 1.016 2.238 1.244.783.22 1.678.586 2.492.578 2.112-.019 1.813-3 1.893-4.582M417.187 74.842c.138-.036.272-.082.4-.154.642-.36.874-.883.85-1.428 1.304-2.554.26-5.436-2.272-7.167-1.527-1.043-2.805-1.588-4.477-.49-1.275.836-2.32 2.308-2.474 3.843-.39.642-.26 1.521.503 2.002.681.895 1.9 1.39 2.987 1.89.795.367 1.97 1.133 3.09 1.44.426.25.944.313 1.393.064" fill="#FFF"/>
    <path d="M409.487 31.987c1.305-.313 2.807-.107 4.155-.235 1.394-.13 2.773-.382 4.15-.644 2.921-.556 5.876-1.087 8.697-2.034 2.41-.81 4.8-1.613 7.237-2.36 1.282-.393 2.76-.784 4.113-.83 1.928-.064 2.918 1.77 3.389 3.333.14.464.895.266.755-.2-.519-1.72-1.21-4.048-3.42-4.017-3.269.047-6.259 1.645-9.358 2.333-3.063.679-5.926 2.06-9.063 2.586-2.162.362-4.312.885-6.5 1.08-1.435.13-2.97-.072-4.363.263-.489.117-.281.843.208.725" fill="#1D1E1B"/>
    <path d="M438.461 25.233l-.086.005.105.658c2.69-.935 5.736-.78 8.592-.775 1.623.003 3.274.1 4.89-.052.457-.044.895-.13 1.347-.192 1.48-.205 2.022-.21 2.943.97.28.357.963.023.681-.337-.584-.748-.931-1.42-2.048-1.502-.772-.057-1.6.216-2.347.32-1.228.173-2.47.148-3.71.135-3.468-.037-7.275-.352-10.558.787-.371.13-.38.69.105.657l.086-.005c.503-.034.507-.703 0-.669" fill="#1D1E1B"/>
    <path d="M456.7 24.683c2.874-.458 5.748-.927 8.673-.843 2.296.066 5.084.317 7.275.989.965.297 1.708.612 2.125 1.61.372.887.574 2.303.278 3.236-.583 1.836-3.127 2.754-4.692 3.434-2.722 1.184-5.753 1.676-8.694 1.858-2.667.165-5.307.78-7.936 1.238-2.497.435-5.058 1-7.466 1.811-2.157.725-4.38 1.196-6.45 2.225-2.355 1.171-4.959 1.434-7.36 2.441-2.004.84-5.593 2.026-6.17 4.462-.255 1.076-.284 2.206-.283 3.31.002 1.466.67 2.733.768 4.17.034.5.802.503.768 0-.086-1.259-.703-2.423-.784-3.696-.087-1.38.072-3.602.937-4.736.958-1.256 3.107-1.893 4.482-2.516 1.325-.6 2.864-1.02 4.28-1.38 2.902-.738 5.461-2.356 8.36-3.086 2.704-.68 5.39-1.547 8.143-2.056 2.721-.503 5.466-1.066 8.21-1.36 2.914-.311 5.922-.5 8.679-1.619 1.992-.807 5.037-1.793 5.857-4.043.687-1.883.217-4.678-1.636-5.583-2.568-1.253-5.86-1.278-8.654-1.5-2.967-.234-5.987.415-8.915.881-.487.078-.28.83.205.753" fill="#1D1E1B"/>
    <path d="M425.182 49.784c1.4.93 2.673 1.16 4.315 1.167 1.608.008 3.174.3 4.787.278 1.748-.024 3.49.3 5.234.325 2.06.03 6.265-1.01 6.732 2.145.078.528.822.304.744-.222-.195-1.32-1.11-2.655-2.386-2.944-.984-.224-2.204.148-3.217.15a40.693 40.693 0 0 1-3.449-.121c-1.926-.158-3.884-.021-5.8-.25-2.276-.272-4.547.098-6.57-1.248-.424-.282-.812.438-.39.72" fill="#1D1E1B"/>
    <path d="M444.484 51.814c1.361-.314 3.53.464 4.89.778 1.695.391 3.38.729 5.093 1.017 1.619.272 3.217.64 4.836.927 1.665.295 4.222.39 4.922 2.212.17.444.922.252.75-.197-.413-1.075-1.53-1.913-2.657-2.226-2.035-.564-4.296-.839-6.373-1.234-2.21-.42-4.415-.749-6.612-1.271-1.538-.365-3.488-1.082-5.056-.721-.486.112-.28.827.207.715" fill="#1D1E1B"/>
    <path d="M462.817 54.792c5.189.068 10.715.797 15.786 1.956 3.122.714 5.41 3.599 4.351 7.004-1.021 3.284-5.456 3.329-8.23 3.456-5.076.23-10.114-.582-15.127-1.16-3.13-.36-6.327-.222-9.454-.154-2.912.064-5.862-.382-8.774-.536-.492-.026-.492.766 0 .792 2.562.136 5.14.242 7.694.433 2.986.224 6.055.045 9.068.198 4.615.236 9.171 1.219 13.807 1.219 2.432 0 4.744-.124 7.148-.508 1.985-.317 3.48-.91 4.364-2.876.844-1.875.716-4.04-.382-5.746-1.228-1.911-2.742-2.56-4.846-3.005-4.98-1.051-10.314-1.798-15.405-1.865-.493-.006-.493.786 0 .792M439.245 65.345c-.067.306-14.436-1.384-15.872-1.344-.496.013-.499.734 0 .72 2.842-.08 5.98.332 8.782.73 2.402.34 5.017.738 7.441.45.162-.02.336-.098.373-.265l.022-.1c.1-.452-.645-.645-.746-.19M391.041 42.598c1.844 3.907 6.013 6.395 9.562 8.558 1.06.646 2.166 1.197 3.283 1.734 1.798.865 2.712 1.92 3.854 3.549.71 1.012 1.363 2.075 2.095 3.062.396.533 1.354 1.403 1.382 2.12.02.504.802.507.783 0-.032-.866-.455-1.277-.992-1.991-.774-1.027-1.498-2.076-2.259-3.124-.677-.934-1.228-2.026-2.076-2.823-.747-.705-1.67-1.111-2.579-1.55-2.345-1.13-4.624-2.44-6.666-4.05-2.21-1.743-4.471-3.255-5.71-5.88-.215-.457-.89-.06-.677.395M413.06 61.659a61.905 61.905 0 0 1 5.758 5.874c.759.887 1.518 1.823 2.057 2.881.8 1.571.211 3.395-.62 4.86-1.605 2.824-5.59 3.401-8.41 2.763-2.296-.52-4.173-2.167-6.377-2.832-.47-.142-.67.619-.202.76 1.46.441 2.923 1.561 4.333 2.167 1.526.655 3.025.917 4.66.86 2.493-.084 5.323-.889 6.65-3.32 1.403-2.57 1.497-4.215.025-6.626-1.83-2.996-4.756-5.639-7.338-7.945-.368-.33-.907.226-.536.558M375.106 48.646c.84.88 1.233 2.107 1.97 3.068.746.972 1.702 2.085 2.65 2.847 1.697 1.362 3.964 1.972 5.612 3.345.37.31.91-.219.536-.53-1.604-1.336-3.742-1.98-5.433-3.243-1.033-.773-2.052-1.946-2.823-2.983-.727-.977-1.13-2.15-1.976-3.034-.336-.352-.87.18-.536.53M374.09 53.658c1.213 1.482 3.08 2.757 4.704 3.798.851.545 1.81.864 2.75 1.237 1.19.47 2.804.64 3.878 1.252.43.246.821-.4.392-.645-.678-.386-1.56-.433-2.302-.661-1.278-.394-2.693-.912-3.857-1.54-1.73-.935-3.79-2.472-5.016-3.97-.31-.377-.855.155-.549.529M387.368 60.839c2.706-.339 4.566 1.401 6.493 3.104 1.184 1.046 2.537 2.249 3.558 3.455 2.264 2.677 4.185 5.436 7.022 7.528.404.3.791-.389.39-.684-1.925-1.42-3.555-3.16-5.048-5.066-.919-1.175-1.766-2.525-2.903-3.5-2.768-2.379-5.494-6.134-9.512-5.63-.488.061-.494.855 0 .793" fill="#1D1E1B"/>
    <path d="M412.304 64.187c-.135.248-.797.306-1.066.481-.516.339-.79.91-1.144 1.39-.4.544-1.034.849-1.322 1.477-.289.63-.55 1.336-.754 2.002-.141.464.582.662.723.2.187-.613.54-1.746.934-2.227.36-.439.816-.705 1.146-1.192.45-.662.698-.932 1.414-1.254.296-.133.555-.2.716-.499.23-.425-.417-.804-.647-.378M414.283 65.768c.946.26 1.95 1.524 2.545 2.193.8.9 2.235 2.408 2.368 3.666.052.494.854.5.801 0-.15-1.43-1.396-2.82-2.31-3.885-.782-.91-1.951-2.385-3.191-2.726-.497-.136-.71.615-.213.752M408.619 71.001l-.227.018c-.36.028-.512.422-.284.7 2.211 2.696 6.57 4.703 9.914 5.272.182.032.354-.02.454-.188.72-1.204 1.361-2.482 1.52-3.889.06-.523-.744-.518-.802 0 .001-.02-.82 2.993-1.215 3.216-.345.195-2.51-.747-2.876-.887-2.176-.832-4.905-2.248-6.427-4.104l-.284.7.227-.018c.512-.04.516-.86 0-.82M405.717 55.082c-1.208-.404-2.89.782-3.782 1.39-1.023.696-2.547 1.843-2.917 3.046-.148.483.648.69.796.208.287-.936 1.647-1.944 2.424-2.495.72-.512 2.282-1.722 3.26-1.396.502.168.718-.586.22-.753M404.46 57.103c-.424.472-.936.828-1.365 1.295-.291.318.155.817.446.5.429-.467.94-.823 1.365-1.295.29-.32-.157-.82-.445-.5M407.283 58.158c-1.445 1.946-3.714 3.238-6.033 4.125-.442.17-.25.862.2.69 2.52-.965 4.914-2.343 6.482-4.455.28-.376-.372-.733-.649-.36" fill="#1D1E1B"/>
    <path d="M416.28 63.77c1.435.249 2.882.682 4.305 1.029 1.406.342 2.92.513 4.293.981 1.281.437 2.411 1.291 3.668 1.809 1.415.583 2.488.852 3.245 2.388 1.415 2.873-.813 6.716-2.75 8.796.444-.477-1.424 1.343-1.595 1.466-1.148.82-2.38.877-3.727.95-1.243.069-2.466-.208-3.708-.086-.162.016-.336.112-.373.292l-.021.11c-.1.497.644.71.745.21-.068.339 4.527.16 4.981.116 1.468-.139 2.397-.716 3.5-1.722 2.11-1.922 4.263-5.35 4.153-8.35-.051-1.403-.565-2.536-1.533-3.54-1.025-1.064-2.512-1.285-3.807-1.922-3.454-1.697-7.377-2.632-11.171-3.29-.486-.085-.696.678-.206.763" fill="#1D1E1B"/>
    <path d="M417.605 78.656c.732.583 1.194 1.704 1.436 2.601.398 1.478-.297 2.593-.973 3.82-.434.79-.684 1.568-1.4 2.135-.828.654-1.795.64-2.79.852-1.12.24-2.296.33-3.385.689-2.535.837-4.396 1.615-7.119 1.31-.5-.056-.497.741 0 .797 1.376.154 2.577.256 3.913-.113 1.343-.37 2.633-1.047 3.984-1.36 1.743-.406 4.307-.227 5.81-1.28.79-.555 1.08-1.547 1.52-2.376.47-.88 1.12-1.73 1.33-2.73.326-1.555-.545-3.93-1.772-4.909-.392-.313-.95.247-.554.564M397.736 67.32c-1.253-.212-2.538-.697-3.774-1.034-.612-.167-1.789-.578-2.29.055-.153.192-.248.824-.322 1.044-.18.543-.218 1.021-.265 1.59-.087 1.066-.194 1.835.172 2.808.183.488.811.067.628-.417-.356-.949-.27-4.038.602-4.486.613-.315 2.244.517 2.923.673.704.162 1.433.446 2.133.563.458.077.656-.72.193-.797" fill="#1D1E1B"/>
    <path d="M392.36 72.446c.528.018 1.116.387 1.61.564.705.254 1.42.509 2.145.696.533.137 1.468.52 1.96.11.467-.391.586-1.468.733-2.046.218-.858.347-1.83-.158-2.594-.276-.417-.923-.017-.645.404.498.753.152 1.691-.065 2.487-.063.227-.134.927-.301 1.055-.18.136-.606-.03-.794-.07-.911-.187-1.798-.497-2.677-.813-.588-.212-1.181-.573-1.808-.593-.48-.016-.48.784 0 .8" fill="#1D1E1B"/>
    <path d="M389.734 66.285c-.424 1.85-1.089 3.823-.504 5.746.566 1.86 2.57 3.57 4.003 4.704 1.7 1.344 3.959 2.255 5.933 3.123.793.35 1.842 1.042 2.744 1.131.973.098.981-.515 1.809-.671.492-.093.283-.86-.207-.768-.706.133-.65.39-1.58.325-.871-.062-1.491-.347-2.284-.68-1.995-.837-4.418-1.857-6.096-3.242-1.029-.848-2.478-2.111-3.157-3.281-1.12-1.93-.363-4.198.09-6.175.115-.499-.637-.712-.751-.212" fill="#1D1E1B"/>
    <path d="M402.125 80.658c1.263 1.146 2.415 2.369 3.71 3.48.674.578 1.36 1.092 1.99 1.72.054.054 1.46 1.169 1.395.862.103.49.874.283.77-.207l-.022-.109a.388.388 0 0 0-.279-.272c-.952-.231-1.44-1.058-2.14-1.654-.556-.473-1.129-.92-1.683-1.394-1.102-.945-2.096-1.998-3.176-2.976-.376-.342-.943.208-.565.55" fill="#1D1E1B"/>
    <path d="M401.859 80.668c.842.805-.262 2.337-.559 3.182-.357 1.015-.319 1.754-.267 2.774.024.5.868.502.843 0-.038-.755-.115-1.43.11-2.182.235-.78.672-1.495.903-2.273.213-.72.146-1.497-.434-2.051-.378-.361-.973.19-.596.55M392.457 75.787c-.227-.054-1.545 4.499-1.626 4.748-.564 1.722-.82 3.237-.831 5.076-.003.518.692.52.695 0 .014-2.245.545-4.026 1.208-6.097.41-1.283 1.178-2.696 1.09-4.093-.01-.169-.1-.352-.255-.389l-.096-.022c-.437-.105-.624.672-.185.777M389.257 72.175c-.773 1.104-2.067 1.711-3.165 2.371-1.046.63-2.11.851-2.978 1.758-.353.37.195.948.548.576.535-.558 1.112-.778 1.795-1.085.654-.294 1.235-.707 1.86-1.06.97-.546 1.945-1.2 2.61-2.148.295-.423-.377-.83-.67-.412M381.414 78.06c-3.562 2.17-6.624 5.77-11.035 6.161-.503.045-.508.822 0 .777 4.625-.412 7.699-3.992 11.434-6.266.433-.264.035-.936-.4-.671M386.415 62.046c-1.189.606-2.675.824-3.924 1.359-1.517.65-2.995 1.394-4.508 2.054-2.809 1.227-5.576 1.725-8.577 2.217-3.397.556-6.656.745-10.017-.266-3.26-.98-6.057-2.456-8.83-4.45-.406-.29-.791.39-.389.678 5.491 3.947 12.05 6.364 18.816 4.96 2.848-.592 5.701-.886 8.433-1.976 1.574-.627 3.086-1.477 4.642-2.16 1.523-.669 3.29-.998 4.743-1.739.444-.226.054-.903-.389-.677M425.952 48.716c.252-1.896-.538-3.683-1.232-5.44-.818-2.073-1.701-4.456-3.109-6.15-.312-.377-.825.178-.515.552 1.189 1.43 1.872 3.385 2.622 5.098.718 1.639 1.776 3.89 1.532 5.732-.065.493.637.706.702.208M443 33.677c-.01-.9.013-2.608-1.583-2.676-.557-.024-.555.645 0 .669.828.035.714 1.573.72 2.007.004.43.868.431.863 0M439.906 32.367c-.738-.852-1.126-1.94-1.923-2.75-.723-.732-1.61-1.21-2.551-1.59-.43-.173-.617.53-.191.702 1.023.413 1.975.988 2.65 1.889.546.73.906 1.572 1.507 2.264.305.353.812-.164.508-.515M457.933 31.714c.158-.869.007-1.726-.147-2.59-.128-.722-.317-1.456-.957-2.003-.434-.37-1.124.19-.692.558.52.443.614 1.12.712 1.698.118.702.27 1.42.14 2.127-.09.497.852.711.944.21M459.007 30.443c.29 1.41 3.384 1.26 4.49 1.541.504.128.72-.553.217-.681-.747-.19-1.508-.2-2.27-.323-.406-.066-1.557-.266-1.652-.725-.092-.446-.877-.257-.785.188M463.827 59.193c-.247.4-.279.792-.323 1.253-.07.732-.374 1.371-.48 2.09-.162 1.11.506 1.715 1.27 2.362.396.337.97-.242.57-.58-.443-.377-1.028-.71-1.066-1.399-.02-.364.17-.755.274-1.09.217-.688.088-1.63.452-2.222.278-.449-.42-.862-.697-.414M446.816 61.726c.57-1.76-.317-3.738-.835-5.451-.146-.482-1.112-.277-.966.204.463 1.534 1.344 3.47.835 5.043-.155.48.81.684.966.204M444.897 61.623c.011-1.843.595-5.1-1.143-6.518-.414-.337-1.031.213-.616.553 1.45 1.18.898 4.427.888 5.965-.003.503.867.503.87 0M428.214 52.17c-1.124 1.476-1.948 2.659-2.544 4.399-.572 1.67-.717 3.3-.658 5.053.017.503.837.505.821 0-.056-1.661.088-3.268.629-4.845.577-1.684 1.378-2.791 2.461-4.213.31-.407-.401-.798-.709-.394M409.295 56.726c3.116.446 6.3 1.137 9.219 2.244.484.184.694-.54.216-.72-2.918-1.109-6.103-1.8-9.219-2.245-.513-.073-.733.647-.216.721M381.202 36.696c1.336.658 2.946.923 4.366 1.404a12.924 12.924 0 0 1 4.738 2.791c.372.34.946-.191.573-.53-1.037-.945-2.104-1.867-3.454-2.38-1.862-.708-4.048-1.064-5.814-1.934-.46-.226-.87.422-.409.649" fill="#1D1E1B"/>
    <path d="M407.409 31.041c-1.352.651-3.711.308-5.174.353-2.484.078-4.771.097-7.241.542-2.163.388-4.26.96-6.445 1.23-2.367.292-4.717.305-7.062.731-5.053.92-10.056 1.98-15.213 1.894-2.369-.04-4.786-.003-7.016.935-2.592 1.09-5.223 2.172-7.965 2.874-2.693.69-5.467.778-8.206 1.085-2.9.324-5.722.71-8.607-.076-.482-.13-.688.641-.205.772 2.058.562 4.482.781 6.596.491 2.214-.303 4.452-.475 6.654-.815a44.882 44.882 0 0 0 8.717-2.236c2.352-.859 4.518-1.91 7.046-2.108 5.204-.405 10.358-.264 15.517-1.352 1.302-.275 2.57-.616 3.888-.834 1.342-.222 2.664-.158 4.01-.313 2.329-.269 4.525-.678 6.81-1.18 1.455-.318 3.05-.725 4.531-.85 1.274-.106 2.542.163 3.804.09 1.787-.102 4.313.249 5.952-.54.451-.219.06-.909-.391-.693M347.12 50.702c1.717 1.731 2.026 4.666 2.021 6.904-.002.525.857.526.859 0 .005-2.478-.39-5.581-2.273-7.48-.38-.383-.985.194-.608.576M347.368 67.737l.118.028-.28-.461c-.514 1.264-1.421 2.33-1.982 3.586-.683 1.526-.932 3.017-1.218 4.639-.083.472.691.676.776.2.313-1.78.588-3.376 1.396-5.035.54-1.11 1.337-2.045 1.803-3.191.076-.187-.086-.415-.28-.461l-.119-.029c-.502-.12-.715.604-.214.724M346.279 82.73c1.925.34 3.818 1.409 5.726 1.925 2.712.734 5.266 1.51 7.897 2.5 2.472.927 5.005 1.577 7.588 2.106 2.51.515 4.83 1.708 7.361 2.162 2.587.465 5.188-.091 7.798.104 1.948.146 3.93.233 5.886.336 2.552.136 5.172.122 7.727.137 2.247.012 4.365-.404 6.475-1.14.464-.162.264-.887-.206-.724-4.521 1.578-9.609 1.193-14.33.896-2.009-.126-4.043-.185-6.048-.286-2.778-.14-5.528.438-8.251-.306-2.305-.63-4.492-1.574-6.849-2.02-2.745-.52-5.371-1.43-7.971-2.425-2.257-.863-4.544-1.43-6.872-2.063-1.903-.518-3.795-1.585-5.726-1.925-.486-.086-.694.637-.205.723M398.33 42.134c-.51.609-1.172 1.049-1.748 1.591-.252.237-.521.47-.735.74-.147.187-.335.678-.565.749-.495.151-.284.919.213.766.62-.189.882-.943 1.316-1.367.675-.66 1.484-1.194 2.09-1.916.329-.392-.239-.958-.57-.563M407.373 38.114c-1.834 1.933-3.587 3.714-5.81 5.2-.77.515-1.529.96-2.226 1.58-.526.468-.833.96-1.268 1.568-.28.39.362.76.638.376 1.149-1.602 2.76-2.501 4.351-3.667 1.84-1.347 3.267-2.876 4.838-4.531.328-.347-.194-.874-.523-.526M400.528 48.309l-.062-.015.166.588c.95-1.071 2.654-1.652 3.953-2.278 1.682-.81 3.484-1.264 5.219-1.964.441-.178.06-.785-.379-.608-1.94.784-3.855 1.31-5.743 2.217-1.22.586-2.685 1.125-3.581 2.135-.173.196-.127.517.166.588l.061.015c.467.114.667-.564.2-.678M406.387 52.7c1.29-.063 2.473-.29 3.773-.091 1.18.18 2.242.396 3.44.39 2.094-.008 4.121-.623 6.119-1.211.494-.145.283-.916-.213-.77-2.147.632-4.351 1.297-6.61 1.2-1.076-.047-2.106-.374-3.171-.483-1.139-.117-2.207.112-3.338.167-.514.025-.517.824 0 .799M429.245 71.272c-.18.982-.286 1.89-.703 2.808-.335.738-.825 1.708-1.427 2.28-.355.34.193.87.549.531.58-.552 1.077-1.436 1.444-2.133.565-1.07.67-2.119.885-3.287.087-.473-.66-.675-.748-.2M415.4 85c.795.002 1.41-.553 1.928-1.074.303-.305.586-.628.838-.974.285-.392.425-.883.736-1.252.33-.396-.252-.963-.586-.564-.478.572-.707 1.27-1.21 1.84-.41.465-1.021 1.23-1.706 1.228-.533-.002-.534.794 0 .796M412.898 85.646c.003-.398.025-.793.096-1.186.084-.461-.782-.66-.866-.195-.082.46-.125.917-.128 1.38-.003.473.896.473.898 0M414.704 82.875c.36-.373.662-.788 1.044-1.141.375-.346.77-.667 1.13-1.028.377-.377-.208-.962-.585-.584-.362.36-.756.682-1.13 1.028-.383.353-.684.768-1.045 1.14-.37.383.215.968.586.585" fill="#1D1E1B"/>
    <path d="M428.571 72.65c.076-.784.462-1.497.427-2.296-.021-.47-.59-.473-.569 0 .019.422-.12.791-.226 1.18a6.691 6.691 0 0 0-.2 1.117c-.046.468.523.463.568 0M460.34 25.105c-.996.934-1.367 2.083-1.339 3.496.01.53.767.533.757 0-.024-1.21.264-2.112 1.118-2.911.37-.347-.168-.93-.535-.585M442.21 36.59l.075.066-.123-.24c.013.126-.217.43-.28.546-.116.211-.312.382-.47.576-.17.207-.306.345-.579.469-.265.12-.507.22-.717.404-.368.321.224.805.592.483.283-.246.711-.318 1.008-.552.277-.22.492-.525.713-.781.202-.237.339-.532.485-.795.138-.25.116-.456-.11-.658-.366-.325-.957.159-.593.482M391.41 64.037c-1.902.848-3.483 2.353-5.272 3.435a42.332 42.332 0 0 1-7.94 3.753c-2.789.98-5.339 2.492-8.159 3.385-2.731.863-5.147 2.53-7.782 3.609-.454.185-.256.939.204.751 2.723-1.114 5.242-2.792 8.07-3.696 2.826-.903 5.412-2.399 8.201-3.411 2.42-.878 4.732-1.856 6.913-3.226 2.005-1.26 4.015-2.972 6.154-3.928.452-.201.061-.872-.388-.672M380.417 67.034c-.496.201-1.017.363-1.483.617-.504.275-.95.633-1.568.678-.486.035-.49.705 0 .67.616-.045 1.095-.263 1.603-.564.582-.344 1.199-.565 1.834-.823.445-.18.058-.757-.386-.578M369.633 71.001c-2.888.225-5.862 1.131-8.73 1.645-3.47.62-7.025 1.3-10.536 1.512-.488.029-.491.87 0 .841 3.119-.19 6.253-.754 9.337-1.29 1.618-.281 3.239-.55 4.856-.838 1.686-.3 3.369-.895 5.073-1.028.487-.038.491-.88 0-.842M343.823 81.315c-.67-.416-1.57-.452-2.353-.525a51.46 51.46 0 0 0-4.768-.245c-3.136-.002-6.207-.474-9.328-.545-.499-.011-.499.712 0 .723 2.69.062 5.36.487 8.061.537 1.332.024 2.629.097 3.959.162 1.173.059 3.007-.124 4.039.517.416.258.804-.368.39-.624M332.625 41c-1.366-.008-2.7.11-4.063.112-.63 0-1.494.024-1.56.61-.042.371.733.37.775 0 0 .008 4.79-.144 4.848-.144.5.003.5-.575 0-.578M325.626 80c-4.927-.016-9.817.408-14.715.876-5.042.482-10.13.307-15.198.302-2.445-.003-4.89.004-7.335.002-2.688-.004-5.352-.36-8.037-.392-5.024-.059-9.855.596-14.8 1.384-2.484.397-5.05.94-7.563 1.033-2.349.088-4.62-.091-6.96.213-2.573.336-5.243.127-7.833.127-2.686 0-5.368-.016-8.054-.068-2.594-.05-5.104.45-7.695.392-2.328-.052-4.59.432-6.92.464-.88.012-1.566.164-2.43.316-1.38.243-2.68-.045-4.056.057-1.114.084-2.196.36-3.313.413-1.426.068-2.877.002-4.305.002h-39.565c-2.597 0-5.146-.293-7.734-.382-4.998-.172-9.949-.406-14.973-.406-5.457 0-10.915.003-16.372.005-2.32 0-4.597-.01-6.902.298-2.75.369-5.626.83-8.397.882-10.65.196-21.33-.35-31.975-.002-2.706.088-5.347.396-8.068.392-2.913-.004-5.827.033-8.74-.02-5.763-.103-11.526 1.02-17.296 1.19-5.677.169-11.409.125-17.089.076-5.75-.05-11.461-.6-16.837-2.807-.462-.19-.663.572-.206.76 9.169 3.765 19.324 2.78 28.99 2.767 5.375-.007 10.782-.187 16.127-.805 5-.58 10.02-.383 15.05-.373 2.087.004 4.113.03 6.187-.23 2.984-.376 6.094-.147 9.1-.149 5.393-.003 10.787-.015 16.18-.015 5.132 0 10.129.008 15.223-.638 5.425-.688 10.825-.543 16.287-.543 5.208 0 10.416.02 15.623.008 2.473-.006 4.901.37 7.386.385 2.573.015 5.12.394 7.7.394 10.75.002 21.502 0 32.253 0 4.742 0 9.751.46 14.448-.238 1.41-.21 2.68-.061 4.08-.09 1.031-.024 1.992-.39 3.017-.463 1.106-.08 2.22.067 3.326-.063 1.291-.152 2.52-.434 3.834-.408 2.499.048 4.892-.406 7.375-.394 2.658.014 5.316.08 7.976.08 5.1 0 10.133-.252 15.218-.335 5.593-.091 11.117-1.868 16.7-2.252 5.788-.398 11.55.218 17.34.218 2.935 0 5.868.007 8.802.007 2.919 0 5.937.204 8.844-.081 5.426-.533 10.842-1.12 16.302-1.1.498 0 .5-.787 0-.789M326.627 40.796c-1.225-.06-2.403-.385-3.633-.428-1.165-.04-2.352.049-3.517.077-2.62.063-5.176-.475-7.804-.4-2.679.078-5.16.088-7.823-.294-2.403-.344-4.956-.12-7.383-.116-2.832.003-5.664.019-8.496.015-1.542-.001-3.094-.07-4.635-.026-1.259.037-2.481.318-3.735.387-1.114.062-2.231-.038-3.346-.04-1.32-.001-2.47.373-3.765.458-2.207.147-4.424.163-6.631.473-2.251.317-4.514.394-6.763.78-3.013.517-6.164.277-9.22.277h-17.233c-2.565 0-5.133.033-7.698-.005-2.698-.041-5.406-.321-8.102-.073-2.618.242-5.26.283-7.871.55-2.718.278-5.42.287-8.14.57-2.632.276-5.324.109-7.967.11-3.059.003-6.116.011-9.174.01-5.172-.001-10.086-1.286-15.23-1.641-4.934-.341-9.856-.831-14.772-1.372-5.16-.57-10.268-1.973-15.448-1.996-2.306-.01-4.761-.362-7.05-.646-2.213-.275-4.381-.398-6.59-.64-5.205-.57-10.308-1.622-15.538-1.947-5.372-.335-10.726-.29-16.118-.29-2.458 0-4.849-.468-7.303-.504-2.794-.042-5.495.154-8.282-.153-2.591-.285-5.195-.517-7.79-.79-2.543-.266-4.895-.683-7.485-.594-5.861.2-11.877.42-17.723-.112-3.006-.274-6.06-.43-9.053-.776-2.898-.334-5.679-1.287-8.566-1.613-3.29-.373-6.59.15-9.868-.404-2.852-.48-5.623-1.322-8.506-1.64-.494-.055-.49.72 0 .775 2.813.31 5.518 1.14 8.3 1.614 2.652.45 5.259.22 7.93.292 2.893.078 5.594.94 8.427 1.422 2.419.412 4.832.383 7.26.616 2.478.24 4.918.642 7.414.7 2.94.07 5.887.008 8.828.008 2.526 0 5.059-.185 7.582-.142 2.267.038 4.586.568 6.847.825 2.314.264 4.642.38 6.951.676 2.575.33 5.146.033 7.734.07 2.454.037 4.843.505 7.303.505 2.847 0 5.696.017 8.544.005 2.558-.011 5.027.132 7.574.285 2.82.169 5.822.44 8.615.883 4.676.742 9.32 1.189 13.997 1.776 2.138.269 4.407.566 6.566.574 2.63.01 5.35.386 7.952.884 5.103.977 10.257 1.407 15.413 1.823 5.055.408 10.076 1.01 15.066 1.848 5.301.89 10.837.45 16.193.445 5.383-.004 10.767-.096 16.107-.681 5.307-.58 10.646-.562 15.973-.477 5.488.087 10.984.005 16.472.005h8.46c2.705 0 5.585.293 8.265-.07 2.53-.345 5.062-.617 7.589-.962 2.669-.363 5.439-.248 8.067-.725 1.522-.276 2.961-.201 4.497-.185 1.399.016 2.708-.234 4.094-.346 3.112-.25 6.32-.017 9.444-.024 3.327-.008 6.655-.024 9.981-.007 2.611.013 5.13.578 7.77.489 1.57-.053 3.14-.17 4.71-.06 1.278.088 2.528.372 3.81.406 1.385.037 2.778-.096 4.164-.1 1.48-.004 2.89.35 4.36.421.497.025.496-.75 0-.775M223.628 50.085c-3.343-.078-6.628-.943-9.973-1.063-3.16-.113-6.304.204-9.38 1.08-.481.137-.278 1.019.205.881 3.235-.92 6.548-1.198 9.867-1.015 3.11.172 6.167.959 9.281 1.032.496.012.496-.903 0-.915M194.626 51h-4.252c-.498 0-.499 1 0 1h4.252c.498 0 .499-1 0-1M57.624 40.167c-6.9-.133-13.584-2.243-20.455-2.754-6.929-.514-13.867-.864-20.795-1.412-.5-.039-.497.794 0 .833 6.928.548 13.866.899 20.795 1.413 6.87.51 13.552 2.62 20.455 2.753.501.01.501-.823 0-.833M37.595 42h-4.19c-.54 0-.54 1 0 1h4.19c.54 0 .54-1 0-1M337.618 75.128c-4.705 0-9.707-.437-14.334.302-.497.08-.287.642.21.562 4.54-.724 9.503-.28 14.124-.28.509 0 .51-.584 0-.584M298.1 75.545l.253.257.169-.518c-.726.189-1.497.062-2.243.045-.968-.022-1.94-.003-2.907-.003-.496 0-.496.62 0 .62 1.052 0 2.111-.03 3.162.012.738.028 1.476.11 2.193-.076.297-.077.349-.335.17-.518a376.53 376.53 0 0 1-.253-.257c-.306-.313-.848.128-.544.438M342 48.636c-.018-.76-.732-1.322-1.342-1.729-.645-.43-1.462-.866-2.271-.906-.517-.026-.515.727 0 .753.562.028 1.15.365 1.61.642.416.25 1.187.71 1.2 1.24.011.484.814.486.803 0M127.641 73.122c-2.998 0-6.485-.421-9.383.302-.454.113-.26.675.198.56 2.814-.702 6.26-.28 9.185-.28.478 0 .479-.582 0-.582M112.636 76h-5.272c-.485 0-.486 1 0 1h5.272c.485 0 .486-1 0-1M503.02 73.666l.268.23.495-.625c-.937-.447-1.849-.852-2.751-1.365-.788-.447-1.614-.773-2.52-.901-.513-.073-.735.696-.216.768.957.136 1.777.503 2.6.986.804.472 1.635.8 2.475 1.2.392.187.865-.308.495-.626l-.269-.232c-.393-.338-.973.225-.578.565M500.956 79.439c.09.12.179.242.268.363l.465-.59c-1.056-.297-1.739-1.41-2.6-2.03-.767-.551-1.768-.56-2.5-1.103-.422-.313-.832.384-.415.693.415.307.819.396 1.312.536.68.194 1.19.538 1.705 1.003.713.643 1.313 1.403 2.28 1.676.32.09.68-.298.463-.59l-.27-.364c-.306-.414-1.019-.013-.708.406M453 8.44v.226c0 .445 1 .446 1 0V5.334c0-.445-1-.446-1 0v3.332c0 .445 1 .446 1 0V8.44c0-.444-1-.445-1 0M458.833 7.724c.339-1.913 2.243-5.897.319-7.612-.39-.347-.998.192-.606.54.746.665.46 2.196.357 3.05-.16 1.302-.669 2.53-.897 3.82-.085.48.741.686.827.202M488.539 21.995c.846-.133 1.714-.41 2.335-1.135.39-.458-.216-1.17-.607-.712-.512.597-1.266.768-1.957.877-.544.086-.312 1.055.229.97M483.657 10.758c.07-.458.269-.88.339-1.338.064-.42-.589-.603-.653-.178-.07.458-.269.881-.339 1.338-.064.421.589.603.653.178" fill="#1D1E1B"/>
  </g>
</svg>
