<?xml version="1.0" encoding="UTF-8"?>
<svg width="189px" height="170px" viewBox="0 0 189 170" version="1.1" xmlns="http://www.w3.org/2000/svg" xmlns:xlink="http://www.w3.org/1999/xlink">
    <!-- Generator: Sketch 48.2 (47327) - http://www.bohemiancoding.com/sketch -->
    <title>post-jobs-img</title>
    <desc>Created with Sketch.</desc>
    <defs>
        <polygon id="path-1" points="0.63659839 0.116079295 9.08239424 0.116079295 9.08239424 16.3836609 0.63659839 16.3836609 0.63659839 0.116079295"></polygon>
        <polygon id="path-3" points="4.62919191e-17 1.19022467 4.62919191e-17 0.441325991 0.873367559 0.441325991 0.873367559 1.19022467 0 1.19022467"></polygon>
    </defs>
    <g id="welcome-0001-welcome-screen" stroke="none" stroke-width="1" fill="none" fill-rule="evenodd" transform="translate(-167.000000, -270.000000)">
        <g id="Group" transform="translate(79.000000, 238.000000)">
            <g id="post-jobs-img" transform="translate(88.000000, 32.000000)">
                <g id="Group-425">
                    <path d="M142.952685,79.5188855 C142.763047,82.1475198 143.251759,84.7589295 143.314722,87.3665947 C142.99541,87.4811762 142.682844,87.7073436 142.500701,87.9911762 C142.203876,87.889326 141.912297,87.8346564 141.61922,87.7972115 C141.413091,87.6624097 141.164987,87.5710441 140.864414,87.5553172 C135.253214,87.268489 129.672747,87.4250088 124.110269,87.9934229 C120.756742,87.8421454 117.403964,87.6556696 114.053435,87.5006476 C108.900966,87.261 103.803214,87.0857577 98.6522443,87.4909119 C92.8821384,87.9439956 87.1899868,88.6419692 81.401142,88.0271233 C81.015119,87.9866828 80.7115476,88.0795463 80.4836817,88.2495463 C78.9073589,88.2165947 77.3310362,88.1843921 75.7547134,88.1521894 C69.7642372,87.7994581 63.7797575,87.3710881 57.7997751,86.8558458 C57.1723942,86.8019251 56.7548898,87.0865066 56.5382672,87.497652 L47.0421032,87.4175198 C48.1776852,79.7210881 47.9198369,72.2942599 47.2444841,64.5259339 C46.5758774,56.8369912 46.9401631,48.9630705 47.0136199,41.2179604 C47.11556,41.0561982 47.1777734,40.8539956 47.1740256,40.6046123 L47.1605335,39.7838194 C47.159784,39.7478722 47.1522884,39.7164185 47.1492901,39.6827181 C52.3279938,38.5249207 58.1505688,38.648489 63.608858,38.5601189 C64.445366,38.6110441 65.2623854,38.6499868 66.0486728,38.663467 C72.7437346,38.7810441 79.4387963,38.7772996 86.133858,38.6761982 C86.3519797,38.6732026 86.533373,38.6147885 86.6855335,38.5256696 C100.289281,37.6831586 113.903523,37.894348 127.47504,39.1712203 C127.816089,39.2034229 128.073188,39.099326 128.252332,38.9233348 C130.991221,38.8169912 133.728611,38.781793 136.471248,38.8649207 C138.242456,38.9180925 141.19272,38.6072996 143.015648,39.5074758 C143.55683,49.0364626 143.840163,58.5729383 143.858153,68.1169031 C143.858153,68.3707797 143.931609,68.5782247 144.046292,68.7429824 C144.109255,72.3871233 143.213532,75.8972115 142.952685,79.5188855 M146.606036,40.4136432 C145.520675,37.4195463 145.318294,37.1881366 142.066706,36.9267709 C137.172086,36.534348 132.270719,36.490163 127.366354,36.7095903 C127.153479,36.719326 126.976583,36.7807357 126.826671,36.8706035 C113.207932,35.6229383 99.5472178,35.4364626 85.8984965,36.3224097 C85.734343,36.3328943 85.5911772,36.3748326 85.4637522,36.4354934 C79.5984524,36.5171233 73.732403,36.5223656 67.8671032,36.4399868 C67.6902072,36.2879604 67.4518474,36.194348 67.1437787,36.209326 C65.7653395,36.275978 64.356918,36.3066828 62.9320062,36.327652 C57.5022002,36.0550529 51.2883554,35.1421454 46.2970414,37.221837 C46.0354453,37.3304273 45.8510538,37.5049207 45.7303748,37.7086211 C45.6936464,37.7183568 45.6561684,37.7250969 45.6201896,37.7348326 C45.345851,37.8052291 45.1509656,37.9467709 45.0205423,38.123511 C44.8743783,38.2987533 44.7806834,38.5331586 44.7806834,38.8372115 C44.781433,45.8671233 44.4943519,52.9794141 44.7432055,60.0220573 C44.6660009,60.1606035 44.6142813,60.3223656 44.6015388,60.5103392 C44.2012743,66.1195903 44.9066093,71.70937 44.6660009,77.3178722 C44.5033466,81.1110441 43.8984524,84.7963744 44.3549339,88.5139075 C44.3047134,88.7438194 44.29347,88.9894581 44.3346958,89.2373436 C44.2552425,88.7572996 44.210269,89.4994581 44.1855335,89.6447445 C44.1180732,90.0416608 44.103082,90.4303392 44.2087698,90.823511 C44.3721737,91.4331145 44.7679409,91.925141 45.2626499,92.2995903 C46.2573148,93.0522335 47.6057716,93.3465507 48.7698369,93.7487093 C49.3260097,93.9411762 49.9369004,93.6910441 50.3094312,93.2559339 C55.8156922,93.2933789 61.3167063,93.1990176 66.8154718,92.9556256 C66.8889286,92.9698546 66.9571384,92.9915727 67.0373413,92.996815 C72.9378704,93.3592819 78.8413977,93.5517489 84.7464242,93.595185 C85.0957187,93.8505595 85.4345194,94.1246564 85.7620767,94.4227181 C85.6166623,96.8858458 85.5199691,99.3504714 85.5087257,101.818841 C85.5019797,103.085229 85.3820503,104.279722 85.7335935,105.373863 C85.1706746,105.731088 84.5815212,106.028401 83.969881,106.281529 C83.5096517,106.403599 83.0659127,106.557872 82.638664,106.744348 C82.3103571,106.837211 81.9760538,106.91959 81.6335053,106.985493 C80.4911772,107.206419 79.4275529,107.386903 78.6217769,108.201705 C78.5633113,108.212189 78.5033466,108.220427 78.444881,108.231661 C77.4974383,108.404656 77.8984524,109.848533 78.8428968,109.675537 C84.3394136,108.66752 90.1927205,108.636066 95.9635758,108.937872 C96.1134877,108.964084 96.2671473,108.976815 96.4238051,108.963335 C99.562209,109.137828 102.672879,109.403687 105.683858,109.663555 C106.35996,109.721969 106.634299,108.821044 106.213796,108.385185 C104.757403,106.873907 102.758329,106.46426 100.688047,106.394612 C100.837959,102.66285 101.497571,98.4705154 100.59735,94.851837 C100.574114,94.7574758 100.540384,94.6758458 100.508902,94.5919692 C100.544131,94.563511 100.583108,94.5462863 100.616089,94.5088414 C100.944396,94.1239075 101.273452,93.7389736 101.601759,93.3555374 C104.056565,93.2641718 106.647791,93.8400749 109.026142,93.8857577 C112.836151,93.9591498 116.653655,93.6992819 120.460666,93.5899427 C128.25683,93.366022 136.054493,93.3263304 143.852906,93.4371674 C145.039458,93.4536432 145.481698,92.3347885 145.206609,91.4600749 C145.356521,90.7418811 145.435225,90.0311762 145.474951,89.3227181 C145.537914,89.1092819 145.560401,88.8733789 145.519175,88.6150088 C145.513929,88.5858018 145.510181,88.5565947 145.504934,88.5273877 C145.537914,85.9736432 145.095675,83.4513524 145.138399,80.8369471 C145.20511,76.6318811 146.447879,72.5870793 146.29422,68.3595463 C146.285225,68.1198987 146.212518,67.925185 146.103832,67.7656696 C146.081345,59.0911762 145.833241,50.4234229 145.379008,41.7624097 C146.118073,41.8552731 146.927597,41.3025859 146.606036,40.4136432" id="Fill-11" fill="#EFEBD3"></path>
                    <path d="M94.1029453,80.0885727 C90.6055026,76.3560617 86.9986243,72.7516123 82.7703616,69.8316564 C82.3730952,68.7315242 82.0740212,67.351304 82.3641005,66.3110837 C82.5942152,65.4880441 83.2748148,64.9915242 83.1668783,64.2209075 C83.9164374,63.9468106 84.6697443,63.6817004 85.4282981,63.4323172 C85.5632187,63.3873833 85.6741534,63.3222291 85.7723457,63.248837 C86.4334568,63.8644317 87.0863228,64.4890132 87.7189506,65.133815 C88.1566931,65.5809075 88.5884392,66.0347401 89.0126896,66.4953128 C89.1910847,66.6877797 90.407619,67.7444758 90.3933774,67.9946079 C90.3843827,68.1383965 90.4046208,68.2642115 90.438351,68.3795419 C90.0230952,69.5433304 91.789806,70.4876916 92.474903,69.3051806 C96.7211552,61.9757093 101.922346,55.3719207 108.01851,49.5439912 C108.090467,49.560467 108.165423,49.5739471 108.246376,49.5776916 L108.361808,49.5836828 C108.523713,49.6301145 108.702857,49.6473392 108.898492,49.6143877 C108.909735,49.612141 108.920979,49.612141 108.931473,49.6098943 C109.770229,49.6495859 110.608986,49.6892775 111.447743,49.7289692 C111.394524,49.8585286 111.365291,49.9978238 111.372787,50.143859 C111.414762,50.9758855 111.455988,51.8079119 111.497963,52.6399383 C111.512954,52.9417445 111.635882,53.2218326 111.833016,53.4262819 C104.069083,60.9991454 96.3201411,69.1846079 94.1029453,80.0885727 M143.778474,41.8348282 C143.800961,41.5442555 143.704268,41.3091013 143.544612,41.1301145 C143.666041,40.9720969 143.753739,40.7901145 143.795714,40.6013921 C144.171243,39.9183965 143.864674,38.8699383 142.86776,38.9216123 C141.969788,38.9680441 141.073316,39.0002467 140.176093,39.0249604 C135.81216,38.5306872 131.523933,38.5299383 127.170494,38.813022 C116.70515,38.2902907 106.251049,37.1894097 95.7572222,37.4522731 C87.8478748,37.6514802 79.9550176,38.2723172 72.0599118,38.6857093 C69.6223457,38.6325374 67.1870282,38.6347841 64.7532099,38.6894537 C59.2289594,38.4176035 53.6949647,38.3913921 48.1527249,38.6295419 C47.8326631,38.643022 47.5875573,38.7680881 47.4091623,38.9470749 C47.1693034,39.1260617 46.9901587,39.3956652 46.9586772,39.7678678 C46.9024603,40.424652 46.8567372,41.0844317 46.8087654,41.7442115 C46.7990212,41.7981322 46.7862787,41.8505551 46.7832804,41.910467 C46.7780335,42.0175595 46.7765344,42.1261498 46.7712875,42.2339912 C46.4744621,46.5379119 46.352284,50.9017445 46.4212434,55.2416123 C46.3537831,55.4423172 46.3020635,55.6512599 46.2870723,55.8766784 C46.0577072,59.472141 46.377769,63.197163 46.9152028,66.9139471 C47.0726102,73.4278678 46.6873369,79.9283084 46.9751675,86.4631982 C47.0029012,87.0765463 47.4271517,87.4285286 47.9001235,87.5198943 C48.0770194,87.7827577 48.3693474,87.9699824 48.7853527,87.9684846 C67.7207143,87.9160617 86.6568254,87.9437709 105.592187,88.0328899 C105.602681,88.0336388 105.611675,88.0358855 105.622919,88.0358855 C105.682884,88.0358855 105.743598,88.0343877 105.804312,88.0343877 C117.863219,88.0928018 129.922125,88.1699383 141.980282,88.2845198 C142.83328,88.2927577 143.179577,87.5176476 143.027416,86.8758414 C143.083633,86.7507753 143.12261,86.6107313 143.131605,86.450467 C143.53037,79.140467 144.21172,71.7802907 143.85418,64.4583084 C143.483898,56.8742115 143.203563,49.4219207 143.778474,41.8348282" id="Fill-13" fill="#FFFFFF"></path>
                    <path d="M130.554603,160.603269 C129.82978,159.320405 128.975282,158.114678 128.018845,156.994326 C128.172504,156.489568 128.099048,155.907674 127.675547,155.31904 C124.055176,150.287938 120.255661,145.392388 116.287496,140.630141 C116.300238,139.878247 115.909718,139.13459 114.97127,138.873974 C111.652972,137.954326 108.291199,138.442608 104.90619,138.675515 C100.562496,138.973577 96.2158025,139.224458 91.8653616,139.381727 C83.4095855,139.688026 74.95306,139.610141 66.5160229,138.936132 C65.8856437,138.885956 65.426164,139.109877 65.1270899,139.464855 C64.6960935,139.562211 64.2920811,139.828819 64.0035009,140.326837 C61.3845414,144.856925 58.9222399,149.47089 56.666067,154.192696 C55.467522,156.703753 53.0142152,160.102256 55.4457848,162.542167 C55.9727249,163.07089 56.5903616,163.180978 57.1412875,163.033445 C69.1822046,164.239172 81.1976367,162.775824 93.253545,162.811022 C99.0836155,162.828996 104.791508,163.675251 110.596843,163.984546 C113.16858,164.120846 115.636129,163.98904 118.186129,163.653533 C120.192698,163.389172 122.041111,163.1323 124.052178,163.347982 C125.47784,163.500758 126.709365,163.788335 128.14627,163.722432 C128.550282,163.704458 128.881587,163.576396 129.149929,163.387674 C130.316243,163.201947 131.282425,161.891374 130.554603,160.603269" id="Fill-15" fill="#E35205"></path>
                    <path d="M169.028796,162.370894 C168.967332,162.218119 168.891627,162.078075 168.826415,161.928295 C168.830913,161.926797 168.83541,161.9253 168.839907,161.923053 C168.812923,161.874374 168.78444,161.824947 168.756706,161.77552 C168.006398,160.094991 167.019228,158.623405 165.791451,157.396709 C162.860675,153.856665 158.824299,151.084242 154.437879,153.564595 C153.85772,153.892612 153.584881,154.442304 153.551151,155.009969 C153.529414,155.056401 153.50093,155.09759 153.481442,155.147018 C152.803091,156.83204 153.87571,158.893009 154.396653,160.475432 C155.448285,163.671731 157.421874,165.103626 160.818126,165.156797 C161.852518,165.172524 164.538188,165.18226 166.33713,164.511247 C167.647359,165.139573 169.68466,164.010233 169.028796,162.370894" id="Fill-17" fill="#EFEBD3"></path>
                    <path d="M13.0930732,133.857176 C13.2677205,133.347925 14.2204101,132.893344 14.6094312,133.112771 C14.8612831,133.613784 15.3335053,133.959775 15.9398986,133.791273 C15.9638845,133.784533 15.9871208,133.777793 16.0111067,133.771053 C16.1692637,133.726868 16.2974383,133.654225 16.408373,133.565855 C16.4241138,134.198674 16.4383554,134.829247 16.4436023,135.456824 C16.445851,135.73167 16.4998192,135.971317 16.5860185,136.183256 C16.5380467,136.479819 16.4953219,136.775634 16.4510979,137.072947 C15.4451896,136.885722 14.5007451,136.361493 13.7946605,135.617837 C13.3651631,135.164004 12.8644577,134.522947 13.0930732,133.857176 M30.0735847,126.502242 C30.1567857,125.727132 29.4349603,124.862903 28.6981437,124.696648 C25.5087698,123.975458 20.5571825,123.395062 17.6369004,125.306251 C16.5103131,126.043167 16.4421032,126.828762 16.382888,128.105634 C16.3281702,129.27841 16.3371649,130.463167 16.3619004,131.648674 C15.5321384,130.762727 13.8119004,130.690833 12.8074912,131.126692 C11.4170591,131.729555 10.6082848,133.237837 10.8331526,134.73189 C11.2176764,137.27515 13.7257011,138.839599 16.2029938,139.241009 C16.1377822,140.534357 16.4211155,141.632242 17.5057275,142.468013 C20.5017152,144.776119 25.8040961,142.495722 28.8008333,141.453256 C29.5039198,141.207617 30.2789638,140.48493 30.1762743,139.646912 C29.6350926,135.258366 29.6013624,130.899775 30.0735847,126.502242" id="Fill-19" fill="#335890"></path>
                    <path d="M112.206896,52.7158018 L111.761658,50.7649207 C111.677707,50.3972115 111.341155,50.067696 110.97612,49.9800749 C106.423298,48.8844361 102.78119,55.2463304 100.403589,58.220207 C97.4952998,61.8591057 94.1155379,65.9016608 92.1187125,70.2512643 C90.545388,69.0477841 89.0912434,67.4825859 87.6828219,66.0244802 C87.8822046,65.6522775 87.8619665,65.1954493 87.4249735,64.8382247 C86.2706526,63.8923656 85.0953439,63.6317489 83.7251499,64.6232907 C82.5903175,65.4455815 82.793448,67.090163 83.0880247,68.3438194 C83.573739,70.4025419 85.3419489,71.3633789 86.7998413,72.7301189 C89.0470194,74.8352731 90.8729453,77.3328502 92.682381,79.810207 C93.0414198,80.3014846 93.7917284,80.4707357 94.2879365,80.1824097 C94.65597,80.113511 94.9835273,79.8648767 95.0989594,79.4020573 C96.2832628,74.6285771 98.2538536,69.5405595 100.968007,65.4133789 C103.707646,61.2472555 107.615097,57.7236872 111.034586,54.1132467 C111.697196,54.1102511 112.400282,53.5613084 112.206896,52.7158018" id="Fill-21" fill="#E35205"></path>
                    <path d="M49.5927028,36.5457313 C65.5763007,36.2604009 81.5621473,36.3749824 97.5472443,36.547978 C105.47608,36.6326035 113.405666,36.7239692 121.335251,36.8130881 C125.287676,36.858022 129.240101,36.902207 133.192526,36.9463921 C135.169114,36.9681101 137.145701,36.991326 139.121539,37.0130441 C140.44526,37.028022 147.082606,36.5517225 145.380357,39.6364361 C145.147994,40.058815 145.794863,40.4370088 146.027976,40.01463 C148.645437,35.2696079 137.921495,36.2499163 136.157033,36.2304449 C129.240101,36.1533084 122.32317,36.0754229 115.406989,35.9982863 C101.461442,35.8417665 87.5151455,35.6507974 73.5688492,35.6245859 C65.5763007,35.608859 57.5837522,35.6545419 49.5927028,35.7968326 C49.1107363,35.8058194 49.1092372,36.5547181 49.5927028,36.5457313" id="Fill-23" fill="#081F2C"></path>
                    <path d="M47.4509127,36.4462775 C45.7599074,36.3998458 44.7547487,37.6924449 44.4721649,39.2598899 C43.9819533,41.9843833 44.3919621,45.0675991 44.4054541,47.8287885 C44.4346869,54.0521366 44.3687257,60.2837225 44.5958422,66.503326 C44.7052778,69.4914317 45.0260891,72.4840308 44.9368915,75.4758811 C44.8446958,78.5321366 44.2570414,81.5412115 43.9459744,84.5772467 C43.6551455,87.4268062 43.0000309,94.4874229 47.8429321,93.7460132 C48.3181526,93.67337 48.1165212,92.9514317 47.6435494,93.0240749 C42.4843342,93.8134141 45.005851,82.1957489 45.3191667,79.6831938 C45.9008245,75.0205507 45.4705776,70.4567621 45.3214153,65.7843833 C45.1730026,61.1704185 45.1954894,56.5512115 45.1737522,51.9357489 C45.1632584,49.5707269 45.152015,47.2072026 45.1407716,44.8429295 C45.1310273,42.8546035 44.2540432,37.1068062 47.4509127,37.1951762 C47.9336287,37.2086564 47.9328792,36.4597577 47.4509127,36.4462775" id="Fill-25" fill="#081F2C"></path>
                    <path d="M48.0851896,93.7596432 C78.6364683,93.886207 109.187747,94.0127709 139.738276,94.1393348 C140.220992,94.1415815 140.221742,93.3926828 139.738276,93.3904361 C109.187747,93.2638722 78.6364683,93.1373084 48.0851896,93.0107445 C47.6024735,93.0084978 47.6024735,93.7573965 48.0851896,93.7596432" id="Fill-27" fill="#081F2C"></path>
                    <path d="M44.0094621,87.8598943 C70.1578307,88.098793 96.3076984,88.1654449 122.456817,88.0561057 C129.927672,88.024652 137.399277,87.9774714 144.870132,87.9183084 C145.352099,87.9145639 145.353598,87.1656652 144.870132,87.1694097 C118.721764,87.3776035 92.5718959,87.4150485 66.4227778,87.2742555 C58.9519224,87.2345639 51.4803175,87.1791454 44.0094621,87.1109956 C43.526746,87.1065022 43.526746,87.8554009 44.0094621,87.8598943" id="Fill-29" fill="#081F2C"></path>
                    <path d="M141.834268,90.1716696 C141.33806,90.1387181 140.851596,90.1948855 140.375626,90.3356784 C139.913898,90.471978 140.111032,91.1946652 140.575009,91.0583656 C140.991764,90.9347974 141.401023,90.8921101 141.834268,90.9205683 C142.316235,90.9527709 142.313986,90.2031233 141.834268,90.1716696" id="Fill-31" fill="#081F2C"></path>
                    <path d="M138.210525,90.1716696 C137.308805,90.1746652 136.421327,90.2810088 135.543593,90.4869559 C135.074369,90.5962952 135.273752,91.3189824 135.742976,91.2088943 C136.556997,91.0179251 137.374766,90.9235639 138.210525,90.9205683 C138.692491,90.9183216 138.69399,90.1694229 138.210525,90.1716696" id="Fill-33" fill="#081F2C"></path>
                    <path d="M133.07672,90.1716696 L131.566358,90.1716696 C131.084392,90.1716696 131.083642,90.9205683 131.566358,90.9205683 L133.07672,90.9205683 C133.559436,90.9205683 133.560185,90.1716696 133.07672,90.1716696" id="Fill-35" fill="#081F2C"></path>
                    <path d="M128.546759,90.0209912 L127.33922,90.0209912 C126.856504,90.0209912 126.855754,90.7698899 127.33922,90.7698899 L128.546759,90.7698899 C129.029475,90.7698899 129.030225,90.0209912 128.546759,90.0209912" id="Fill-37" fill="#081F2C"></path>
                    <path d="M47.0376808,89.2611586 C46.9035097,89.7644185 46.4522751,90.6563568 46.761843,91.1715991 C47.0639153,91.6733612 47.8936772,91.5168414 48.3793915,91.5310705 C48.8583598,91.5452996 49.3380776,91.5587797 49.8170459,91.5730088 C50.085388,91.5812467 50.4099471,91.6441542 50.6655467,91.5288238 C51.2067284,91.2854317 51.2936772,90.3717753 51.4510847,89.8827445 C51.5155467,89.6820396 51.3746296,89.4858282 51.1894885,89.4221718 C50.4721605,89.176533 49.7473369,89.058207 48.9902822,89.0567093 C48.5075661,89.0552115 48.5068166,89.8041101 48.9902822,89.8056079 C49.6896208,89.8071057 50.3304938,89.9186916 50.9901058,90.144859 C50.9024074,89.9913348 50.8154586,89.8378106 50.7277601,89.6835374 C50.6475573,89.9329207 50.5508642,90.6578546 50.3342416,90.8143744 C50.122866,90.9678987 49.1177072,90.8038899 48.8583598,90.7964009 C48.6619753,90.7904097 47.4709259,90.8563128 47.4199559,90.7537137 C47.3172663,90.5462687 47.6965432,89.7000132 47.7602557,89.4603656 C47.8846825,88.9938018 47.1621076,88.7953436 47.0376808,89.2611586" id="Fill-39" fill="#081F2C"></path>
                    <path d="M100.424052,94.0163656 C100.35959,97.9390969 100.37683,101.862577 100.475772,105.785308 C100.487765,106.266101 101.237324,106.267599 101.225331,105.785308 C101.126389,101.862577 101.109149,97.9390969 101.173611,94.0163656 C101.181107,93.533326 100.431548,93.533326 100.424052,94.0163656" id="Fill-41" fill="#081F2C"></path>
                    <path d="M85.102015,93.7011542 C85.6117152,97.6403612 85.5989727,101.579568 85.0375529,105.512035 C84.9700926,105.983841 85.6926675,106.187542 85.7601279,105.711242 C86.3312919,101.708379 86.370269,97.7115066 85.8515741,93.7011542 C85.7901102,93.229348 85.0398016,93.2233568 85.102015,93.7011542" id="Fill-43" fill="#081F2C"></path>
                    <path d="M134.873713,41.0785903 C136.640423,42.4303524 138.407134,43.7806167 140.173845,45.13163 C140.556869,45.4251982 140.930899,44.7751542 140.552372,44.4853304 L135.25224,40.4322907 C134.869215,40.1394714 134.495935,40.7895154 134.873713,41.0785903" id="Fill-45" fill="#081F2C"></path>
                    <path d="M129.736609,41.2343612 C133.452923,44.0105286 137.169987,46.786696 140.886301,49.5636123 C141.273073,49.8526872 141.647103,49.2026432 141.264078,48.9173128 C137.547765,46.1403965 133.831451,43.3642291 130.115137,40.5880617 C129.728364,40.2989868 129.354334,40.9482819 129.736609,41.2343612" id="Fill-47" fill="#081F2C"></path>
                    <path d="M80.404828,106.761573 C88.2549603,106.446286 96.1095899,106.474744 103.956724,106.846947 C104.43869,106.870163 104.437941,106.121264 103.956724,106.098048 C96.1095899,105.725846 88.2549603,105.697388 80.404828,106.012674 C79.9243607,106.032145 79.9213624,106.781044 80.404828,106.761573" id="Fill-49" fill="#081F2C"></path>
                    <path d="M79.9941446,106.286921 C79.0834303,107.03507 78.172716,107.78322 77.2612522,108.532119 C76.8887213,108.838419 77.4216578,109.364894 77.79194,109.06159 C78.7026543,108.313441 79.6133686,107.564542 80.5248325,106.816392 C80.8973633,106.510093 80.3644268,105.982868 79.9941446,106.286921" id="Fill-51" fill="#081F2C"></path>
                    <path d="M103.661997,106.626247 C105.008205,107.430564 106.164775,108.457304 107.133205,109.689991 C107.43078,110.068934 107.95772,109.535718 107.663144,109.16052 C106.657235,107.879903 105.438452,106.814969 104.040525,105.979947 C103.625269,105.732062 103.248241,106.37911 103.661997,106.626247" id="Fill-53" fill="#081F2C"></path>
                    <path d="M73.3037302,109.97285 C86.990679,109.353511 100.696367,109.395449 114.378818,110.097916 C114.860785,110.12263 114.859286,109.373731 114.378818,109.349018 C100.696367,108.646551 86.990679,108.604612 73.3037302,109.223952 C72.8232628,109.24567 72.8202646,109.994568 73.3037302,109.97285" id="Fill-55" fill="#081F2C"></path>
                    <path d="M73.0292416,109.742489 C72.557769,111.923282 72.3411464,114.113811 72.3838713,116.345529 C72.3936155,116.82707 73.1431746,116.828568 73.1334303,116.345529 C73.091455,114.183458 73.2945855,112.057335 73.7518166,109.941696 C73.8537566,109.472137 73.1311817,109.270683 73.0292416,109.742489" id="Fill-57" fill="#081F2C"></path>
                    <path d="M72.9988845,117.122511 C86.9909039,116.842423 100.987421,117.103789 114.959202,117.90511 C115.441918,117.932819 115.439669,117.183921 114.959202,117.156211 C100.987421,116.35489 86.9909039,116.093524 72.9988845,116.373612 C72.516918,116.383348 72.5154189,117.132247 72.9988845,117.122511" id="Fill-59" fill="#081F2C"></path>
                    <path d="M74.2879012,115.694211 C74.7451323,114.027163 75.0007319,112.338396 75.0606966,110.611436 C75.0771869,110.129145 74.3276279,110.129145 74.3111376,110.611436 C74.2534215,112.271744 74.0045679,113.893859 73.5653263,115.495004 C73.4379012,115.96007 74.1604762,116.159278 74.2879012,115.694211" id="Fill-61" fill="#081F2C"></path>
                    <path d="M74.6612566,111.598634 C87.8902249,110.964317 101.134934,110.776344 114.376645,111.035463 C114.859361,111.045198 114.859361,110.2963 114.376645,110.286564 C101.134934,110.027445 87.8902249,110.215419 74.6612566,110.849736 C74.1807892,110.872952 74.177791,111.62185 74.6612566,111.598634" id="Fill-63" fill="#081F2C"></path>
                    <path d="M74.2070238,115.468194 C87.8632407,115.223304 101.520207,115.677137 115.130701,116.827445 C115.611168,116.868634 115.60817,116.118987 115.130701,116.078546 C101.520207,114.928238 87.8632407,114.474405 74.2070238,114.719295 C73.7250573,114.727533 73.7235582,115.476432 74.2070238,115.468194" id="Fill-65" fill="#081F2C"></path>
                    <path d="M88.5262257,95.068793 C88.2219048,95.2672511 87.9175838,95.4649604 87.6140123,95.6626696 C87.2114991,95.925533 87.5862787,96.5740793 87.9925397,96.3097181 C88.2961111,96.1120088 88.6004321,95.9135507 88.9040035,95.7158414 C89.3072663,95.4537269 88.9317372,94.8044317 88.5262257,95.068793" id="Fill-67" fill="#081F2C"></path>
                    <path d="M93.430216,94.9985463 C91.1702954,95.8388106 89.0220591,96.9 86.9885053,98.1948458 C86.5829938,98.452467 86.9585229,99.1017621 87.3670326,98.8411454 C89.3473677,97.58 91.4273942,96.5397797 93.6295988,95.7204846 C94.0770855,95.5534802 93.8836993,94.8292952 93.430216,94.9985463" id="Fill-69" fill="#081F2C"></path>
                    <path d="M95.7022795,95.4724493 C93.2512213,96.2273392 91.0302778,97.4143436 89.0327028,99.0192335 C88.6564242,99.3217885 89.1901102,99.8490132 89.5626411,99.5487048 C91.4590256,98.024696 93.5757804,96.9103348 95.9016623,96.1951366 C96.361142,96.0528458 96.1655071,95.3309075 95.7022795,95.4724493" id="Fill-71" fill="#081F2C"></path>
                    <path d="M94.8641975,97.3279207 C94.4549383,97.5683172 94.045679,97.8087137 93.6364198,98.0491101 C93.221164,98.2932511 93.5981922,98.9402996 94.0149471,98.6954097 C94.4242063,98.4550132 94.8334656,98.2153656 95.2427249,97.9742203 C95.6579806,97.7300793 95.2817019,97.0830308 94.8641975,97.3279207" id="Fill-73" fill="#081F2C"></path>
                    <path d="M86.825851,62.7074581 C85.424925,63.0804097 84.1634171,63.7259604 83.0270855,64.623141 C82.6493078,64.9219515 83.1829938,65.4484273 83.5570238,65.1533612 C84.5899162,64.3370617 85.7539815,63.7678987 87.0252337,63.4293965 C87.4907099,63.3058282 87.2935758,62.5823921 86.825851,62.7074581" id="Fill-75" fill="#081F2C"></path>
                    <path d="M86.0901587,64.2425507 C88.1746825,66.3851498 90.2584568,68.5277489 92.342231,70.670348 C92.6795326,71.0163392 93.2094709,70.4868678 92.8721693,70.1408767 C90.7883951,67.9982775 88.7046208,65.8556784 86.620097,63.7130793 C86.283545,63.3670881 85.7536067,63.8965595 86.0901587,64.2425507" id="Fill-77" fill="#081F2C"></path>
                    <path d="M82.9162257,66.9587313 C86.6055556,70.3662203 90.1232363,73.9444581 93.4662698,77.6919471 C93.7878307,78.0521674 94.3162698,77.5211982 93.9962081,77.1624758 C90.6531746,73.4149868 87.1354938,69.8367489 83.4469136,66.4292599 C83.0923721,66.1019912 82.5609347,66.6307137 82.9162257,66.9587313" id="Fill-79" fill="#081F2C"></path>
                    <path d="M92.7831217,70.1941982 C96.9229365,62.6408062 102.138369,55.7704097 108.303492,49.7507621 C108.649039,49.4137577 108.118351,48.8842863 107.773554,49.2212907 C101.564206,55.2836256 96.3052998,62.2086916 92.1355026,69.8160044 C91.9038889,70.2398811 92.5507584,70.617326 92.7831217,70.1941982" id="Fill-81" fill="#081F2C"></path>
                    <path d="M94.344828,77.2224626 C95.0951367,72.0393348 98.5431085,67.1332996 101.513611,62.9409648 C104.665507,58.4932555 108.309114,54.4282335 112.334996,50.7548855 C112.692535,50.4298634 112.161098,49.901141 111.805057,50.2254141 C107.731953,53.9414493 104.055366,58.0633877 100.866742,62.5635198 C97.8572619,66.8097753 94.3838051,71.7622423 93.6222531,77.0232555 C93.5540432,77.4943128 94.2758686,77.6987621 94.344828,77.2224626" id="Fill-83" fill="#081F2C"></path>
                    <path d="M111.501261,49.410837 C109.248836,49.0925551 107.010653,49.0274009 104.743986,49.2363436 C104.268016,49.2797797 104.262769,50.0286784 104.743986,49.9852423 C106.938695,49.7830396 109.118413,49.824978 111.301878,50.1335242 C111.774101,50.2001762 111.977981,49.4782379 111.501261,49.410837" id="Fill-85" fill="#081F2C"></path>
                    <path d="M49.9371252,75.2697841 C52.1011023,77.532207 54.2650794,79.7961278 56.429806,82.0585507 C56.7633598,82.4075374 57.2932981,81.8773172 56.9597443,81.5290793 C54.7957672,79.2666564 52.6310406,77.0027357 50.4670635,74.7403128 C50.1335097,74.391326 49.6035714,74.9215463 49.9371252,75.2697841" id="Fill-87" fill="#081F2C"></path>
                    <path d="M50.7060979,79.6322687 C51.2135494,80.1812115 51.7210009,80.7309031 52.2284524,81.2805947 C52.5560097,81.6355727 53.0851984,81.1046035 52.7583907,80.7503744 C52.2509392,80.2014317 51.7434877,79.6517401 51.2360362,79.1027974 C50.9084788,78.7478194 50.3792901,79.2780396 50.7060979,79.6322687" id="Fill-89" fill="#081F2C"></path>
                    <path d="M48.1228924,81.6083128 C48.3245238,81.8599427 48.5254056,82.1115727 48.727037,82.3624537 C49.0283598,82.7391498 49.5552998,82.2059339 49.2569753,81.8329824 C49.0553439,81.5813524 48.8544621,81.3304714 48.6528307,81.0788414 C48.3515079,80.7021454 47.8245679,81.2353612 48.1228924,81.6083128" id="Fill-91" fill="#081F2C"></path>
                    <path d="M3.99807319,116.176128 C13.8105511,116.422515 23.6260273,116.473441 33.440754,116.328903 C33.9219709,116.322163 33.92347,115.573264 33.440754,115.580004 C23.6260273,115.724542 13.8105511,115.673617 3.99807319,115.427229 C3.51535714,115.415247 3.51535714,116.164145 3.99807319,116.176128" id="Fill-93" fill="#081F2C"></path>
                    <path d="M46.2738801,115.917233 C54.6284656,115.901507 62.9838007,115.88578 71.3383862,115.870802 C71.8211023,115.870053 71.8218519,115.121154 71.3383862,115.121903 C62.9838007,115.136881 54.6284656,115.152608 46.2738801,115.168335 C45.791164,115.169084 45.7904145,115.917982 46.2738801,115.917233" id="Fill-95" fill="#081F2C"></path>
                    <path d="M116.635816,116.672048 C138.560419,114.887423 160.429555,119.380066 182.357906,117.761696 C182.835375,117.726498 182.839872,116.977599 182.357906,117.012797 C160.429555,118.631167 138.560419,114.138524 116.635816,115.92315 C116.158347,115.962093 116.153849,116.71174 116.635816,116.672048" id="Fill-97" fill="#081F2C"></path>
                    <path d="M115.86317,140.489048 C121.173047,147.041912 126.111142,153.878608 130.666962,160.975172 C130.927059,161.380326 131.576177,161.005128 131.314581,160.597727 C126.724281,153.446493 121.743461,146.561119 116.393108,139.959577 C116.089537,139.585128 115.561847,140.117595 115.86317,140.489048" id="Fill-99" fill="#081F2C"></path>
                    <path d="M53.867888,160.067881 C57.1846869,153.339026 60.7945635,146.763696 64.6922707,140.353872 C64.943373,139.94048 64.295754,139.563784 64.0454012,139.975678 C60.147694,146.385502 56.5378175,152.960833 53.220269,159.689687 C53.0081437,160.120304 53.6542637,160.500744 53.867888,160.067881" id="Fill-101" fill="#081F2C"></path>
                    <path d="M53.9755247,160.5477 C67.2262302,160.649551 80.4761861,160.750652 93.7268915,160.851753 C100.218823,160.90193 106.71675,160.877965 113.207183,161.021004 C116.25414,161.088405 119.271116,161.310828 122.297835,161.658317 C125.26384,162.000564 128.18862,162.222987 131.087165,161.364 C131.548893,161.226952 131.352509,160.503515 130.888532,160.641313 C127.821336,161.551225 124.742897,161.189507 121.620983,160.830035 C118.586768,160.479551 115.552553,160.313295 112.499599,160.257877 C105.995675,160.142546 99.4880026,160.147789 92.9840785,160.096863 L53.9755247,159.798802 C53.4928086,159.795057 53.4928086,160.543956 53.9755247,160.5477" id="Fill-103" fill="#081F2C"></path>
                    <path d="M53.3445459,159.933379 C53.2838316,161.2447 54.0004101,162.476639 55.17347,163.069018 C55.6029674,163.286947 55.9829938,162.639899 55.5512478,162.422718 C54.6000573,161.942674 54.044634,160.997564 54.0941049,159.933379 C54.1158422,159.451837 53.3662831,159.452586 53.3445459,159.933379" id="Fill-105" fill="#081F2C"></path>
                    <path d="M130.459484,161.105705 C131.472138,163.870639 126.728179,163.257291 125.483161,163.215352 C123.873858,163.160683 122.264555,163.10152 120.655251,163.040859 C117.683999,162.928524 114.712747,162.807952 111.741495,162.701608 C105.429458,162.474692 99.1136728,162.303194 92.7971384,162.369097 C80.3244753,162.497907 67.8563095,163.809978 55.3873942,162.844648 C54.9061772,162.807203 54.9091755,163.556101 55.3873942,163.593546 C69.5727998,164.692181 83.7986817,162.998921 97.9983289,163.113502 C105.059175,163.16967 112.114775,163.46174 119.169625,163.732841 C120.902606,163.799493 122.635586,163.865396 124.369317,163.926057 C125.860939,163.97848 127.476989,164.215881 128.961865,163.966498 C130.472227,163.71337 131.771213,162.513634 131.182059,160.906498 C131.017906,160.457907 130.293082,160.651872 130.459484,161.105705" id="Fill-107" fill="#081F2C"></path>
                    <path d="M113.52522,143.778661 C116.970194,148.475004 120.415917,153.172097 123.860891,157.869189 C124.143474,158.254123 124.794092,157.880423 124.50851,157.491744 C121.062787,152.794652 117.617813,148.097559 114.17209,143.400467 C113.890256,143.015533 113.239638,143.388485 113.52522,143.778661" id="Fill-109" fill="#081F2C"></path>
                    <path d="M157.268289,164.357273 C155.799903,161.695687 154.350256,158.706833 153.81657,155.686524 C153.260397,152.540401 157.394965,152.703661 159.332575,153.176216 C160.875168,153.552163 162.288086,154.282339 163.538351,155.250665 C165.407002,156.696789 169.140556,160.468242 168.414233,162.98604 C168.421728,163.828551 167.975741,164.251678 167.077019,164.256921 C166.644524,164.393969 166.206032,164.512295 165.763042,164.612648 C164.910794,164.805115 164.042804,164.927934 163.170317,164.981106 C161.377372,165.090445 159.615908,164.874762 157.876931,164.435159 C157.408457,164.316084 157.209074,165.038022 157.677549,165.156348 C159.958457,165.734498 162.285088,165.920974 164.623713,165.580225 C165.963924,165.385511 168.777019,165.10093 169.396905,163.579916 C169.969568,162.174233 168.744039,160.421811 168.055944,159.310445 C166.960838,157.540048 165.620626,155.896216 163.964101,154.622339 C162.319568,153.358198 160.36097,152.475247 158.290688,152.232604 C156.880767,152.066348 154.549638,152.026656 153.508501,153.233132 C152.449374,154.461326 153.180194,156.359784 153.588704,157.689079 C154.34351,160.143969 155.38015,162.488022 156.62067,164.735467 C156.853783,165.157097 157.501402,164.779652 157.268289,164.357273" id="Fill-111" fill="#081F2C"></path>
                    <path d="M161.266437,162.756352 C162.526446,162.782564 163.857663,163.306044 165.08769,162.828247 C165.918951,162.504722 166.505106,161.856176 166.523095,160.947013 C166.53209,160.464722 165.782531,160.464722 165.773536,160.947013 C165.73231,163.043181 162.443995,162.032167 161.266437,162.007454 C160.783721,161.996969 160.783721,162.745868 161.266437,162.756352" id="Fill-113" fill="#081F2C"></path>
                    <path d="M156.745996,153.886546 C157.194982,154.54333 157.643219,155.200115 158.091455,155.856899 C158.362046,156.252317 159.011914,155.878617 158.739074,155.478705 C158.290838,154.821921 157.841852,154.165137 157.393616,153.508352 C157.123025,153.112934 156.473157,153.487383 156.745996,153.886546" id="Fill-115" fill="#081F2C"></path>
                    <path d="M27.128642,123.657101 C24.852231,123.570978 22.5908113,123.668335 20.335388,123.995604 C18.7800529,124.221771 17.1355203,124.343841 16.1723369,125.703093 C16.0569048,125.866352 16.1423545,126.123225 16.3065079,126.215339 C18.3640476,127.36415 21.6636067,127.042872 23.9332716,126.900581 C25.904612,126.776264 28.3684127,126.753048 29.9634744,125.448467 C30.1186332,125.321903 30.0976455,125.048555 29.9634744,124.918996 C29.5467196,124.516837 29.2019224,124.321374 28.6435009,124.176837 C28.1765256,124.057013 27.9771429,124.778952 28.4441182,124.899524 C28.5617989,125.423004 28.3721605,125.67089 27.8767019,125.644678 C27.4824339,125.727057 27.0859171,125.797454 26.6879012,125.857366 C25.5388272,126.036352 24.3777601,126.141947 23.2159436,126.18763 C21.3382981,126.261022 18.375291,126.512652 16.6850353,125.56904 C16.7300088,125.739789 16.7749824,125.910537 16.8199559,126.081286 C17.8371076,124.644899 21.0564638,124.614194 22.5405908,124.489877 C24.0696914,124.361066 25.5957937,124.347586 27.128642,124.406 C27.611358,124.423974 27.6106085,123.675075 27.128642,123.657101" id="Fill-117" fill="#081F2C"></path>
                    <path d="M29.4896781,127.505467 C29.6223501,131.880533 29.6515829,136.255599 29.576627,140.631414 C29.5683818,141.113705 30.3179409,141.113705 30.3261861,140.631414 C30.401142,136.255599 30.3719092,131.880533 30.2392372,127.505467 C30.224246,127.023925 29.4746869,127.021678 29.4896781,127.505467" id="Fill-119" fill="#081F2C"></path>
                    <path d="M15.7860891,127.20411 C15.8378086,131.738692 16.0281966,136.267282 16.3565035,140.789881 C16.3917328,141.267678 17.1412919,141.271423 17.1060626,140.789881 C16.7777557,136.267282 16.5873677,131.738692 16.5356481,127.20411 C16.5304012,126.722568 15.7808422,126.72107 15.7860891,127.20411" id="Fill-121" fill="#081F2C"></path>
                    <path d="M29.7027028,141.860282 C29.7611684,141.82059 29.8188845,141.781648 29.8766005,141.741207 C30.2731173,141.470855 29.9298192,140.86874 29.4988228,141.094907 C27.2478968,142.275921 24.7848457,143.33037 22.1958686,143.340855 C19.5626675,143.351339 17.4474118,142.069225 15.3426499,140.642573 C14.9423854,140.371471 14.5668563,141.020018 14.9641226,141.288872 C17.1910626,142.798652 19.4254982,144.106978 22.1958686,144.089753 C24.9212654,144.072529 27.5049956,142.985877 29.8766005,141.741207 C29.7506746,141.526273 29.6247487,141.31059 29.4988228,141.094907 C29.4403571,141.13385 29.3826411,141.174291 29.324925,141.213982 C28.9284083,141.484335 29.3031878,142.132881 29.7027028,141.860282" id="Fill-123" fill="#081F2C"></path>
                    <path d="M45.7669533,110.30933 C45.6282848,117.803559 45.7414683,125.297789 46.1065035,132.784529 C46.1297399,133.263824 46.8792989,133.266819 46.8560626,132.784529 C46.4910273,125.297789 46.3778439,117.803559 46.5165123,110.30933 C46.5255071,109.82704 45.775948,109.826291 45.7669533,110.30933" id="Fill-125" fill="#081F2C"></path>
                    <path d="M34.1213536,109.546502 C34.4953836,117.039982 34.373955,124.537207 33.758567,132.01496 C33.7188404,132.495004 34.4683995,132.492758 34.5081261,132.01496 C35.1235141,124.537207 35.2449427,117.039982 34.8709127,109.546502 C34.8469268,109.066458 34.0973677,109.063463 34.1213536,109.546502" id="Fill-127" fill="#081F2C"></path>
                    <path d="M45.1466182,132.480775 C43.3469268,133.219938 41.478276,133.326282 39.5571561,133.133066 C37.6705159,132.942846 35.3461332,132.798308 33.9601984,131.352934 C33.6258951,131.004696 33.0967063,131.534167 33.4302601,131.882405 C34.785463,133.295577 36.7223236,133.526987 38.5827293,133.768881 C40.8988668,134.069938 43.1557892,134.102141 45.3460009,133.203463 C45.7859921,133.022978 45.5933554,132.298044 45.1466182,132.480775" id="Fill-129" fill="#081F2C"></path>
                    <path d="M44.8146384,115.373907 C42.3943122,115.776815 39.968739,115.970031 37.5161817,115.966286 C37.0342152,115.965537 37.0334656,116.714436 37.5161817,116.715185 C40.0361993,116.719678 42.5292328,116.509987 45.0140212,116.095846 C45.4884921,116.016463 45.2868607,115.295273 44.8146384,115.373907" id="Fill-131" fill="#081F2C"></path>
                    <path d="M16.309806,133.305013 C15.1727249,132.417568 13.4817196,132.971004 13.202134,134.428361 C12.9038095,135.980079 14.2844974,137.177568 15.7716226,137.054749 C16.2490917,137.015806 16.2528395,136.266159 15.7716226,136.30585 C14.8751499,136.379242 13.9307055,135.872238 13.9104674,134.876952 C13.8909788,133.923604 14.958351,133.193427 15.7798677,133.834485 C16.1553968,134.128802 16.6898325,133.601577 16.309806,133.305013" id="Fill-133" fill="#081F2C"></path>
                    <path d="M15.6792019,130.963282 C13.5212213,129.715617 10.9082584,131.305529 10.7111243,133.722225 C10.4450309,136.970947 13.4927381,138.864912 16.2788492,139.446057 C16.7495723,139.544163 16.9504541,138.822225 16.4774824,138.72337 C14.5166358,138.314471 12.3736464,137.386586 11.6743078,135.33011 C10.9172531,133.105881 12.8098898,130.169449 15.3014242,131.61033 C15.7196781,131.852225 16.0974559,131.205176 15.6792019,130.963282" id="Fill-135" fill="#081F2C"></path>
                    <path d="M28.4601587,155.831211 C22.1241358,155.939802 15.7873633,155.991476 9.45059083,155.986233 C9.04058201,155.986233 8.92514991,156.640771 9.35089947,156.721652 C9.54578483,156.758348 9.74067019,156.795793 9.93555556,156.833238 C10.4070282,156.922357 10.6086596,156.200419 10.1341887,156.110551 C9.94005291,156.073855 9.74516755,156.03641 9.55028219,155.999714 C9.51730159,156.245352 9.48432099,156.490242 9.45059083,156.735132 C15.7873633,156.740374 22.1241358,156.6887 28.4601587,156.58011 C28.9421252,156.571872 28.9436243,155.822974 28.4601587,155.831211" id="Fill-137" fill="#081F2C"></path>
                    <path d="M27.9557804,156.788529 C28.0659656,156.983991 24.0588228,157.030423 23.7649956,157.02593 C22.1474471,157.001965 20.5306481,156.977251 18.9130996,156.953286 C15.803179,156.906106 12.6925088,156.858925 9.58183862,156.811744 C9.09987213,156.804256 9.09912257,157.553154 9.58183862,157.560643 C14.0612037,157.628793 18.5398192,157.696194 23.0184347,157.764344 C23.8939198,157.777075 29.8873942,158.675004 28.6026499,156.410335 C28.3650397,155.9917 27.7174206,156.368396 27.9557804,156.788529" id="Fill-139" fill="#081F2C"></path>
                    <path d="M37.2722002,154.532322 C38.1289462,154.698577 38.8830026,155.078269 39.5126323,155.684128 C39.8604277,156.018137 40.3911155,155.489414 40.0425705,155.154656 C39.3259921,154.464921 38.4497575,153.999855 37.4715829,153.810383 C37.0001102,153.719018 36.7984788,154.440956 37.2722002,154.532322" id="Fill-141" fill="#081F2C"></path>
                    <path d="M38.4737434,155.453093 C33.1353836,159.002123 28.0136464,162.850714 23.1175265,166.98763 C22.7487434,167.299921 23.2809303,167.827145 23.6474647,167.51785 C28.4948633,163.421374 33.5671296,159.613974 38.8522707,156.099392 C39.2517857,155.833533 38.8770062,155.184987 38.4737434,155.453093" id="Fill-143" fill="#081F2C"></path>
                    <path d="M35.9868563,155.271035 C30.9355776,159.248436 25.8842989,163.225088 20.8330203,167.202489 C20.5519356,167.423414 20.8127822,167.818084 21.0976146,167.8413 C21.425172,167.92967 21.7519797,168.01804 22.0787875,168.107159 C22.5120326,168.313855 22.8928086,167.668304 22.4573148,167.46011 C21.7729674,167.132841 21.8546693,167.154559 21.0976146,167.092401 C21.1860626,167.305088 21.2745106,167.518524 21.3629586,167.73196 C26.4142372,163.754559 31.4655159,159.777907 36.5167945,155.800507 C36.8953219,155.502445 36.3616358,154.97522 35.9868563,155.271035" id="Fill-145" fill="#081F2C"></path>
                    <path d="M12.5645591,77.5969119 C14.0696737,77.1827709 14.8417196,75.9463392 15.5538007,74.6417577 C15.9975397,73.8284537 16.3715697,72.5470881 17.1945855,72.1224626 C18.4396032,71.4814053 19.8780071,72.2168238 20.6927778,73.1529471 C21.9797707,74.6312731 23.1543298,74.1549736 25.0821958,74.5706123 C26.2380159,74.8192467 27.3526102,75.223652 28.4402205,75.681978 C29.2699824,76.0317137 30.7593563,77.1318458 31.6498325,77.1962511 C32.735194,77.2748855 33.7418519,76.1462952 34.4636772,75.4580573 C35.8406173,74.144489 34.8189683,72.1733877 34.8407055,70.4351938 C34.9014198,65.3988502 41.0185714,65.8129912 44.3968342,64.3204361 C44.837575,64.1264714 44.4560494,63.4801718 44.0183069,63.6741366 C41.2059612,64.9158106 37.2183069,64.6027709 35.1637654,67.2209207 C33.9644709,68.748674 34.0401764,70.4426828 34.2395591,72.2827269 C34.3737302,73.523652 34.5753616,74.3654141 33.5836949,75.2581013 C33.2344004,75.5733877 32.6714815,76.2114493 32.2000088,76.3335198 C31.6018607,76.4885419 30.8950265,75.9875286 30.3920723,75.7463833 C28.5683951,74.8731674 26.6810053,74.0860749 24.6811817,73.7266035 C23.5913228,73.531141 22.3118254,73.6629471 21.4618254,72.9185419 C20.9401323,72.4632115 20.6403086,71.8116696 19.9889418,71.4844009 C19.2019048,71.0889824 17.1518607,70.8747974 16.4795062,71.4229912 C15.7509347,72.0168678 15.3521693,73.4427709 14.9069312,74.2635639 C14.3057848,75.3696872 13.6641623,76.5177489 12.3651764,76.8742247 C11.9011993,77.0022863 12.0975838,77.7249736 12.5645591,77.5969119" id="Fill-147" fill="#081F2C"></path>
                    <path d="M30.0690123,60.3079119 C27.279903,59.2002907 24.4203351,58.3952247 21.4618254,57.8867225 C20.9903527,57.8050925 20.7879718,58.5262819 21.2624427,58.6079119 C24.2209524,59.1179119 27.0805203,59.9222291 29.8696296,61.0298502 C30.317866,61.2080881 30.5127513,60.4839031 30.0690123,60.3079119" id="Fill-149" fill="#081F2C"></path>
                    <path d="M38.7852601,27.5779692 C34.7001631,25.1200837 30.3744577,23.1632115 25.8328792,21.7125947 C25.3719004,21.5658106 25.1747663,22.2892467 25.6334965,22.4352819 C30.1151102,23.8664273 34.3771032,25.8000837 38.4074824,28.2250176 C38.821239,28.473652 39.1982672,27.8266035 38.7852601,27.5779692" id="Fill-151" fill="#081F2C"></path>
                    <path d="M33.4823545,33.9450308 C32.7088095,33.4447665 31.8663051,33.0822996 30.9713316,32.8628722 C30.5028571,32.7475419 30.3027249,33.4694802 30.7719489,33.5855595 C31.6099559,33.7907577 32.3790035,34.1225198 33.1038272,34.5913304 C33.5100882,34.8541938 33.8863668,34.2063965 33.4823545,33.9450308" id="Fill-153" fill="#081F2C"></path>
                    <path d="M29.0607055,38.5774185 L28.7586332,38.5774185 C28.2766667,38.5774185 28.2759171,39.3263172 28.7586332,39.3263172 L29.0607055,39.3263172 C29.5434215,39.3263172 29.5441711,38.5774185 29.0607055,38.5774185" id="Fill-155" fill="#081F2C"></path>
                    <path d="M72.0410979,17.7208899 C70.6649074,13.004326 68.6673325,8.54313656 66.060366,4.37626432 C65.8055159,3.96886344 65.1571473,4.34406167 65.4134965,4.75445815 C67.9852337,8.86591189 69.9595723,13.2641938 71.3185229,17.9200969 C71.452694,18.3821674 72.1767681,18.185207 72.0410979,17.7208899" id="Fill-157" fill="#081F2C"></path>
                    <path d="M81.5360626,15.1157709 C81.4873413,13.6007489 81.2782143,12.1126872 80.906433,10.6425991 C80.7880026,10.1752863 80.0654277,10.3737445 80.1831085,10.8418062 C80.539149,12.247489 80.7400309,13.666652 80.7865035,15.1157709 C80.8022443,15.5965639 81.5518034,15.5988106 81.5360626,15.1157709" id="Fill-159" fill="#081F2C"></path>
                    <g id="Group-163" transform="translate(108.686067, 0.000000)">
                        <mask id="mask-2" fill="white">
                            <use xlink:href="#path-1"></use>
                        </mask>
                        <g id="Clip-162"></g>
                        <path d="M1.38046296,16.1250617 C3.22512787,10.6371322 5.78412257,5.46673568 9.01772046,0.663299559 C9.28831129,0.262638767 8.63919312,-0.112559471 8.37085097,0.285854626 C5.10052469,5.14171366 2.52279101,10.3787621 0.657888007,15.9258546 C0.504228395,16.3841806 1.22755291,16.5803921 1.38046296,16.1250617" id="Fill-161" fill="#081F2C" mask="url(#mask-2)"></path>
                    </g>
                    <path d="M118.174436,15.9114758 C119.029683,14.3005947 120.168263,12.9106388 121.575935,11.7513436 C121.948466,11.4450441 121.415529,10.9178194 121.045996,11.2218722 C119.591852,12.4193612 118.409797,13.8707269 117.527566,15.5332819 C117.301199,15.9586564 117.948069,16.3375991 118.174436,15.9114758" id="Fill-164" fill="#081F2C"></path>
                    <path d="M134.574339,17.1598899 C134.132099,17.3740749 133.598413,17.4212555 132.890079,17.2160573 C130.349824,16.4806388 128.694797,12.9615639 125.64709,14.1118722 C122.82425,15.1775551 122.526675,18.5094053 121.653439,20.943326 C121.255423,22.0494493 120.661023,23.2094934 119.634877,23.8655286 C118.640212,24.5005947 117.716005,24.2549559 116.633642,24.210022 C115.528792,24.1650881 114.598589,24.4451762 113.702116,25.0937225 C111.146869,26.9442511 110.246649,29.7728414 106.724471,29.8971586 C105.425485,29.9428414 104.54925,30.0469383 103.720988,31.1335903 C103.24127,31.764163 102.987919,32.5347797 102.572663,33.2035463 C101.807363,34.4347357 100.696517,35.2427974 99.3315697,35.7063656 C98.8773369,35.8606388 99.0722222,36.5840749 99.5309524,36.428304 C100.671032,36.0418722 101.689683,35.4659692 102.500705,34.5598018 C103.779453,33.1331498 103.90463,30.9590969 106.155556,30.6348238 C107.25366,30.4768062 108.143386,30.7509031 109.196517,30.2573789 C110.161949,29.8042952 110.929497,29.0172026 111.640829,28.2450881 C112.435362,27.3816079 113.161684,26.4117841 114.123369,25.7235463 C115.610494,24.6601101 116.834524,25.2682159 118.469312,25.0682599 C121.390344,24.7080396 122.26433,21.5319604 122.947928,19.169185 C123.557319,17.062533 124.929012,13.9104185 127.73761,14.7978634 C129.365653,15.3116079 130.418783,16.8775551 131.929894,17.6227093 C133.013007,18.1559251 133.996429,18.2607709 134.829938,17.9320044 C134.733245,17.6811233 134.648545,17.4242511 134.574339,17.1598899" id="Fill-166" fill="#081F2C"></path>
                    <path d="M30.445291,119.334084 C21.2646914,119.865053 12.0713492,120.082233 2.87575838,119.986374 C2.39379189,119.981132 2.39304233,120.730031 2.87575838,120.735273 C12.0713492,120.831132 21.2646914,120.613952 30.445291,120.082982 C30.9250088,120.055273 30.9280071,119.305626 30.445291,119.334084" id="Fill-168" fill="#081F2C"></path>
                    <path d="M6.96152998,123.039859 C5.40619489,122.714088 3.84936067,122.61074 2.26404321,122.742546 C1.78657407,122.781489 1.78282628,123.530388 2.26404321,123.491445 C3.78115079,123.36563 5.27127425,123.450256 6.76214727,123.762546 C7.23287037,123.860652 7.4337522,123.138714 6.96152998,123.039859" id="Fill-170" fill="#081F2C"></path>
                    <path d="M145.024616,121.89015 C159.413902,122.739401 173.838417,122.673498 188.218708,121.695436 C188.697676,121.662485 188.701424,120.913586 188.218708,120.946537 C173.838417,121.924599 159.413902,121.990502 145.024616,121.141251 C144.54265,121.112793 144.544149,121.861692 145.024616,121.89015" id="Fill-172" fill="#081F2C"></path>
                    <path d="M156.662196,125.320181 L167.078069,125.320181 C167.560035,125.320181 167.561534,124.571282 167.078069,124.571282 L156.662196,124.571282 C156.17948,124.571282 156.17873,125.320181 156.662196,125.320181" id="Fill-174" fill="#081F2C"></path>
                    <path d="M164.818373,128.775824 C168.823267,129.358467 172.838655,129.523974 176.87728,129.253621 C177.356248,129.222167 177.359996,128.47252 176.87728,128.504722 C172.907615,128.770581 168.95519,128.626793 165.017756,128.053885 C164.545534,127.984987 164.341653,128.706176 164.818373,128.775824" id="Fill-176" fill="#081F2C"></path>
                    <path d="M173.237795,163.49207 C172.761076,164.168326 172.182416,164.771189 171.521305,165.269956 C171.141279,165.556784 171.514559,166.206828 171.899832,165.916256 C172.670379,165.335859 173.329242,164.659604 173.884665,163.870264 C174.162751,163.475595 173.513633,163.101145 173.237795,163.49207" id="Fill-178" fill="#081F2C"></path>
                    <path d="M175.726182,164.356524 C175.878342,164.566965 174.840952,165.357053 174.688792,165.464894 C174.299021,165.742736 174.673051,166.392031 175.067319,166.111943 C175.597257,165.735247 176.933721,164.754189 176.373051,163.97833 C176.093466,163.59115 175.443598,163.96485 175.726182,164.356524" id="Fill-180" fill="#081F2C"></path>
                    <path d="M176.831856,165.692709 C176.787632,165.802797 176.743408,165.912885 176.699934,166.022225 C176.520789,166.470066 177.245613,166.66478 177.422509,166.222181 C177.466733,166.112093 177.510207,166.002004 177.554431,165.892665 C177.733576,165.444824 177.008752,165.25011 176.831856,165.692709" id="Fill-182" fill="#081F2C"></path>
                    <path d="M119.236186,166.188555 C103.870225,166.235736 88.5035141,166.198291 73.1375529,166.074722 C72.6548369,166.070978 72.6548369,166.819877 73.1375529,166.823621 C88.5035141,166.947189 103.870225,166.984634 119.236186,166.937454 C119.718902,166.935956 119.719652,166.187057 119.236186,166.188555" id="Fill-184" fill="#081F2C"></path>
                    <path d="M89.38597,168.175608 C87.0016226,168.359837 84.6307672,168.326137 82.2531658,168.074507 C81.7741975,168.02433 81.7779453,168.773229 82.2531658,168.823405 C84.6307672,169.075035 87.0023721,169.108736 89.38597,168.924507 C89.8634392,168.887811 89.8679365,168.138163 89.38597,168.175608" id="Fill-186" fill="#081F2C"></path>
                    <path d="M49.0792549,164.384308 C52.0032848,167.655498 56.2810185,168.501753 60.4320767,169.181753 C60.9035494,169.259639 61.1059303,168.5377 60.6307099,168.459066 C56.6160714,167.801533 52.4477734,167.030167 49.6091931,163.854837 C49.2868827,163.494617 48.7584436,164.025586 49.0792549,164.384308" id="Fill-188" fill="#081F2C"></path>
                    <path d="M46.9173016,167.018634 C47.6338801,167.547357 48.4186684,167.947269 49.2619224,168.231101 C49.719903,168.385374 49.917037,167.661938 49.4613051,167.509163 C48.6772663,167.245551 47.9606878,166.862863 47.2958289,166.372335 C46.9075573,166.085507 46.5327778,166.734802 46.9173016,167.018634" id="Fill-190" fill="#081F2C"></path>
                    <path d="M136.28101,161.763163 C135.559184,165.269507 130.836962,167.290035 127.892694,168.593119 C127.451953,168.788581 127.832729,169.433383 128.270472,169.239419 C131.408876,167.85096 136.227041,165.733824 137.003585,161.96237 C137.101027,161.492062 136.378452,161.290608 136.28101,161.763163" id="Fill-192" fill="#081F2C"></path>
                    <path d="M136.151411,166.291678 C135.053307,167.092251 133.877249,167.744542 132.608995,168.23507 C132.163757,168.406568 132.357143,169.131502 132.808377,168.957009 C134.136596,168.444013 135.378616,167.777493 136.529189,166.938727 C136.915212,166.657141 136.541931,166.007097 136.151411,166.291678" id="Fill-194" fill="#081F2C"></path>
                    <path d="M65.6668474,139.90326 C82.166142,140.33163 98.6744312,140.214053 115.16623,139.550529 C115.646698,139.531057 115.648946,138.782159 115.16623,138.80163 C98.6744312,139.465154 82.166142,139.582731 65.6668474,139.154361 C65.1841314,139.14163 65.1841314,139.890529 65.6668474,139.90326" id="Fill-196" fill="#081F2C"></path>
                    <path d="M66.8819577,142.087048 C64.101843,146.797621 61.4738889,151.593568 58.9995944,156.472643 C58.7822222,156.901013 59.4290917,157.280705 59.6472134,156.850088 C62.1215079,151.971762 64.7487125,147.175815 67.5295767,142.464493 C67.7746825,142.048106 67.1270635,141.67141 66.8819577,142.087048" id="Fill-198" fill="#081F2C"></path>
                    <path d="M67.9199471,142.407352 C83.1277513,142.858938 98.3445503,142.825987 113.550106,142.309996 C114.031323,142.29352 114.033571,141.544621 113.550106,141.561097 C98.3445503,142.077088 83.1277513,142.11004 67.9199471,141.658454 C67.437231,141.644225 67.437231,142.393123 67.9199471,142.407352" id="Fill-200" fill="#081F2C"></path>
                    <path d="M43.1617857,122.37289 C42.2570679,122.268044 34.9556129,121.498176 35.6504541,123.564388 C35.9742637,124.526722 37.932112,124.55593 38.6576852,124.661524 C40.900366,124.987295 43.1430467,124.987295 45.391724,124.729674 C45.6795547,124.697471 45.8504541,124.439101 45.714784,124.167251 C45.4486905,123.63104 45.4636817,123.677471 44.9877116,123.316502 C44.6039374,123.024432 44.2299074,123.674476 44.6099339,123.962802 C44.7620944,124.156767 44.9150044,124.35148 45.0679145,124.544696 C45.175851,124.356722 45.2837875,124.168749 45.391724,123.980775 C42.9968827,124.255621 39.7925176,124.555181 37.4868739,123.701436 C37.2680026,123.654256 37.049881,123.606326 36.8317593,123.559145 C36.4577293,123.176458 36.5919004,123.037163 37.2365212,123.139013 C37.7627116,122.908352 38.591724,122.981744 39.1741314,122.955533 C40.5098457,122.895621 41.8343166,122.968264 43.1617857,123.121789 C43.6400044,123.176458 43.6362566,122.427559 43.1617857,122.37289" id="Fill-202" fill="#081F2C"></path>
                    <path d="M35.8525353,124.966925 C35.7251102,126.908819 35.7236111,128.84622 35.8480379,130.788115 C35.8787698,131.266661 36.6283289,131.270405 36.597597,130.788115 C36.4731702,128.84622 36.4746693,126.908819 36.6020944,124.966925 C36.6335758,124.485383 35.8840168,124.486881 35.8525353,124.966925" id="Fill-204" fill="#081F2C"></path>
                    <path d="M37.9910273,131.296767 C40.1572531,131.871172 42.3557099,131.779806 44.4604718,131.008441 C44.9094577,130.844432 44.7153219,130.120996 44.2610891,130.286502 C42.2695106,131.01593 40.2404541,131.118529 38.1904101,130.574828 C37.7234347,130.450511 37.524052,131.173198 37.9910273,131.296767" id="Fill-206" fill="#081F2C"></path>
                    <path d="M44.2872487,125.168828 C43.8637478,126.665877 43.662866,128.184643 43.6853527,129.740106 C43.6920988,130.221648 44.4416578,130.222396 44.4349118,129.740106 C44.4131746,128.250546 44.6043122,126.801427 45.0098236,125.368784 C45.141746,124.903718 44.4184215,124.70526 44.2872487,125.168828" id="Fill-208" fill="#081F2C"></path>
                    <path d="M6.22958554,159.295617 C8.77508818,159.81011 11.3348325,160.069229 13.9328042,160.066982 C14.4147707,160.066233 14.4155203,159.317335 13.9328042,159.318084 C11.4022928,159.32033 8.91075838,159.075441 6.42896825,158.573678 C5.95749559,158.477819 5.75661376,159.199758 6.22958554,159.295617" id="Fill-210" fill="#081F2C"></path>
                    <path d="M5.87969136,160.658837 C6.36240741,160.658837 6.36315697,159.909938 5.87969136,159.909938 C5.39772487,159.909938 5.39622575,160.658837 5.87969136,160.658837" id="Fill-212" fill="#081F2C"></path>
                    <path d="M2.89719577,161.105705 C3.84164021,161.205308 4.78608466,161.304912 5.7305291,161.403767 C6.20949735,161.454692 6.20649912,160.705044 5.7305291,160.654868 C4.78608466,160.556013 3.84164021,160.45641 2.89719577,160.356806 C2.41822751,160.30663 2.42197531,161.056278 2.89719577,161.105705" id="Fill-214" fill="#081F2C"></path>
                    <g id="Group-218" transform="translate(0.000000, 150.528634)">
                        <mask id="mask-4" fill="white">
                            <use xlink:href="#path-3"></use>
                        </mask>
                        <g id="Clip-217"></g>
                        <path d="M0.361887125,1.19022467 L0.511049383,1.19022467 C0.993765432,1.19022467 0.994514991,0.441325991 0.511049383,0.441325991 L0.361887125,0.441325991 C-0.120079365,0.441325991 -0.121578483,1.19022467 0.361887125,1.19022467" id="Fill-216" fill="#081F2C" mask="url(#mask-4)"></path>
                    </g>
                    <path d="M43.0128483,152.165727 C43.4955644,152.165727 43.4963139,151.416828 43.0128483,151.416828 C42.5308818,151.416828 42.5293827,152.165727 43.0128483,152.165727" id="Fill-219" fill="#081F2C"></path>
                    <path d="M38.2933245,135.895454 C38.8397531,135.996555 39.3861817,136.097656 39.9333598,136.198758 C40.4040829,136.28563 40.6064638,135.564441 40.1319929,135.47607 L38.4927072,135.173515 C38.0212346,135.086643 37.8188536,135.807833 38.2933245,135.895454" id="Fill-221" fill="#081F2C"></path>
                    <path d="M37.1967945,138.45811 L38.2409303,138.45811 C38.7228968,138.45811 38.7243959,137.709211 38.2409303,137.709211 L37.1967945,137.709211 C36.714828,137.709211 36.7133289,138.45811 37.1967945,138.45811" id="Fill-223" fill="#081F2C"></path>
                    <path d="M161.769317,133.37893 L162.66429,133.676991 C163.12302,133.829767 163.319405,133.107079 162.862923,132.955053 C162.565348,132.855449 162.267024,132.755846 161.968699,132.656991 C161.509969,132.504216 161.313585,133.226903 161.769317,133.37893" id="Fill-225" fill="#081F2C"></path>
                    <path d="M46.0641534,108.861934 C45.8250441,107.007661 42.4662698,107.186648 41.1268078,107.140216 C39.7258818,107.091537 35.4848765,106.755282 34.9579365,108.555634 C34.8994709,108.754093 35.0283951,108.956295 35.2195326,109.016207 C35.5988095,109.134533 35.9780864,109.252859 36.3573633,109.371934 C36.8190917,109.515722 37.0162257,108.793035 36.556746,108.649247 C36.1774691,108.530921 35.7981922,108.411846 35.4189153,108.29352 C35.5058642,108.447044 35.5928131,108.600568 35.6805115,108.754093 C36.0867725,107.367881 45.1354497,107.473476 45.3145944,108.861934 C45.3753086,109.33374 46.1256173,109.339731 46.0641534,108.861934" id="Fill-227" fill="#081F2C"></path>
                    <path d="M37.6481041,109.822996 C40.0736772,110.143524 42.5044974,110.303789 44.9518078,110.303789 C45.4337743,110.303789 45.4345238,109.55489 44.9518078,109.55489 C42.5044974,109.55489 40.0736772,109.394626 37.6481041,109.074097 C37.1713845,109.010441 37.1766314,109.760088 37.6481041,109.822996" id="Fill-229" fill="#081F2C"></path>
                    <path d="M36.437716,111.742722 C36.9234303,112.394264 37.4728571,112.978405 38.1084832,113.486907 C38.4810141,113.786467 39.0147002,113.259242 38.6384215,112.957436 C38.0567637,112.491621 37.5305732,111.96215 37.0845855,111.364529 C36.7997531,110.98259 36.1491358,111.355542 36.437716,111.742722" id="Fill-231" fill="#081F2C"></path>
                    <path d="M126.253034,124.005938 C128.791041,124.78704 131.255591,125.749374 133.67067,126.854 C134.751534,127.347524 140.224065,129.236247 139.84179,130.783471 C139.602681,131.753295 137.732531,132.514176 137.05343,133.223383 C136.432046,133.87193 136.191437,134.563912 136.536984,135.447612 C137.128386,136.958141 139.077989,138.154132 140.303519,139.12096 C141.794392,140.29748 143.340732,141.401357 144.881076,142.511225 C148.538924,145.148846 152.168289,147.85911 154.846464,151.539198 C155.126799,151.924881 155.778166,151.551181 155.493333,151.161004 C153.031781,147.77748 149.810176,145.178053 146.452901,142.728405 C144.573757,141.357921 142.660882,140.030872 140.833457,138.591489 C139.94448,137.89052 138.894347,137.172326 138.150035,136.317084 C137.08791,135.096379 136.944744,134.264352 138.068333,133.321489 C139.182178,132.388361 141.867848,130.894308 140.092892,129.29541 C138.469347,127.832811 135.707222,126.954352 133.730635,126.060916 C131.35903,124.99074 128.939453,124.050123 126.452416,123.283251 C125.989938,123.141709 125.792804,123.864396 126.253034,124.005938" id="Fill-233" fill="#081F2C"></path>
                    <path d="M69.1208157,144.890251 C77.9513713,145.588225 86.8074118,145.72752 95.6552072,145.309634 C96.1356746,145.286419 96.1386728,144.53752 95.6552072,144.560736 C86.8074118,144.978621 77.9513713,144.839326 69.1208157,144.141352 C68.6395988,144.103907 68.6418474,144.852806 69.1208157,144.890251" id="Fill-235" fill="#081F2C"></path>
                    <path d="M99.5335758,145.207709 C103.0625,145.164273 106.592174,145.122335 110.121847,145.078899 C110.603814,145.072907 110.605313,144.324009 110.121847,144.33 C106.592174,144.373436 103.0625,144.415374 99.5335758,144.458811 C99.0516093,144.464802 99.0501102,145.2137 99.5335758,145.207709" id="Fill-237" fill="#081F2C"></path>
                    <path d="M66.1294753,147.583066 C71.3561508,147.372626 76.5753307,147.53289 81.7795194,148.062361 C82.2592372,148.11104 82.2554894,147.362141 81.7795194,147.313463 C76.5753307,146.783991 71.3561508,146.623727 66.1294753,146.834167 C65.6490079,146.85289 65.6460097,147.601789 66.1294753,147.583066" id="Fill-239" fill="#081F2C"></path>
                    <path d="M84.3245723,148.268383 C92.6664153,148.126093 101.228629,147.422128 109.545736,148.16878 C110.026953,148.212216 110.023955,147.463317 109.545736,147.419881 C101.228629,146.673229 92.6664153,147.377194 84.3245723,147.519485 C83.8426058,147.527722 83.8411067,148.276621 84.3245723,148.268383" id="Fill-241" fill="#081F2C"></path>
                    <path d="M111.858126,147.971445 C112.320604,147.831401 112.772588,147.795454 113.251556,147.851621 C113.730525,147.907789 113.726027,147.158141 113.251556,147.102722 C112.711874,147.039066 112.178937,147.091489 111.658743,147.249507 C111.198514,147.389551 111.394899,148.112238 111.858126,147.971445" id="Fill-243" fill="#081F2C"></path>
                    <path d="M65.6815388,150.203537 C67.4707363,150.252216 69.2606834,150.302392 71.049881,150.35107 C71.532597,150.364551 71.532597,149.615652 71.049881,149.602172 C69.2606834,149.553493 67.4707363,149.503317 65.6815388,149.454639 C65.1988228,149.441159 65.1988228,150.190057 65.6815388,150.203537" id="Fill-245" fill="#081F2C"></path>
                    <path d="M74.1813889,150.693542 C77.4142372,150.619401 80.6455864,150.644863 83.8769356,150.766934 C84.3589021,150.784907 84.3581526,150.036009 83.8769356,150.018035 C80.6455864,149.895965 77.4142372,149.870502 74.1813889,149.944643 C73.6994224,149.955877 73.6979233,150.704775 74.1813889,150.693542" id="Fill-247" fill="#081F2C"></path>
                    <path d="M85.3658598,150.894621 C91.033276,150.914841 96.6999427,150.935062 102.366609,150.955282 C102.848576,150.95678 102.849325,150.207881 102.366609,150.206383 C96.6999427,150.186163 91.033276,150.165943 85.3658598,150.145722 C84.8831437,150.144225 84.8831437,150.893123 85.3658598,150.894621" id="Fill-249" fill="#081F2C"></path>
                    <path d="M105.793893,150.784233 C109.227623,150.587273 112.648611,150.644189 116.074096,150.952736 C116.553814,150.996172 116.551565,150.246524 116.074096,150.203837 C112.648611,149.895291 109.228373,149.838374 105.793893,150.035335 C105.314175,150.063044 105.311177,150.811943 105.793893,150.784233" id="Fill-251" fill="#081F2C"></path>
                    <path d="M63.4460538,153.776159 C68.2612213,154.149859 73.0823854,154.268934 77.9102954,154.134881 C78.3915123,154.121401 78.393761,153.372502 77.9102954,153.385982 C73.0823854,153.520035 68.2612213,153.40096 63.4460538,153.02726 C62.9648369,152.989815 62.9670855,153.738714 63.4460538,153.776159" id="Fill-253" fill="#081F2C"></path>
                    <path d="M80.4472531,154.60841 C84.2737522,154.437661 88.0995018,154.418938 91.9275,154.551493 C92.4094665,154.567969 92.4087169,153.81907 91.9275,153.802595 C88.0995018,153.67004 84.2737522,153.688762 80.4472531,153.859511 C79.9667857,153.88048 79.9637875,154.629379 80.4472531,154.60841" id="Fill-255" fill="#081F2C"></path>
                    <path d="M93.3343474,153.535537 C93.4287919,153.885273 93.5224868,154.23426 93.6169312,154.582498 C93.7428571,155.048313 94.4661817,154.850604 94.3402557,154.38404 C94.2458113,154.035053 94.1513668,153.685317 94.0569224,153.33633 C93.931746,152.872013 93.2084215,153.068974 93.3343474,153.535537" id="Fill-257" fill="#081F2C"></path>
                    <path d="M96.252381,154.688841 C103.162566,154.804921 110.072751,154.921 116.982937,155.037079 C117.465653,155.045317 117.465653,154.296419 116.982937,154.288181 C110.072751,154.172101 103.162566,154.056022 96.252381,153.939943 C95.7696649,153.931705 95.7696649,154.680604 96.252381,154.688841" id="Fill-259" fill="#081F2C"></path>
                    <path d="M61.8173369,156.778344 C67.2696296,157.262132 72.7331658,157.524996 78.2071958,157.566185 C78.6899118,157.56993 78.6899118,156.821031 78.2071958,156.817286 C72.7331658,156.776097 67.2696296,156.513233 61.8173369,156.029445 C61.3368695,155.986009 61.3398677,156.735656 61.8173369,156.778344" id="Fill-261" fill="#081F2C"></path>
                    <path d="M79.3240388,156.410485 L79.3240388,157.602731 C79.3240388,158.084273 80.0735979,158.085022 80.0735979,157.602731 L80.0735979,156.410485 C80.0735979,155.928194 79.3240388,155.927445 79.3240388,156.410485" id="Fill-263" fill="#081F2C"></path>
                    <path d="M81.4881658,157.589401 C93.7164727,157.565436 105.945529,157.541471 118.173836,157.516758 C118.655802,157.51526 118.656552,156.766361 118.173836,156.767859 C105.945529,156.792573 93.7164727,156.816537 81.4881658,156.840502 C81.0054497,156.841251 81.0047002,157.59015 81.4881658,157.589401" id="Fill-265" fill="#081F2C"></path>
                    <path d="M119.183117,156.725696 C119.334528,156.821555 119.485939,156.917414 119.63735,157.013273 C120.04586,157.271643 120.422888,156.623846 120.015877,156.366974 L119.560895,156.079396 C119.152385,155.821026 118.776107,156.468075 119.183117,156.725696" id="Fill-267" fill="#081F2C"></path>
                    <path d="M55.3710538,160.61937 C56.0246693,161.761441 56.8356922,162.792674 57.7943783,163.694348 C58.1459215,164.024612 58.6773589,163.496639 58.3250661,163.164877 C57.4098545,162.304392 56.6415564,161.331573 56.0186728,160.241176 C55.7788139,159.823291 55.1311949,160.199238 55.3710538,160.61937" id="Fill-269" fill="#081F2C"></path>
                    <path d="M58.1200617,161.440687 C58.682231,162.216546 59.3470899,162.879322 60.1258818,163.438749 C60.5179012,163.720335 60.8926808,163.071789 60.5036596,162.792449 C59.836552,162.312405 59.2496473,161.728264 58.7669312,161.062493 C58.4865961,160.676062 57.8367284,161.049762 58.1200617,161.440687" id="Fill-271" fill="#081F2C"></path>
                    <path d="M61.0794709,161.66296 C61.3732981,162.307762 61.842522,162.829744 62.4361728,163.21393 C62.8424339,163.477542 63.2187125,162.829744 62.8147002,162.56763 C62.3222399,162.249348 61.968448,161.816485 61.7263404,161.284767 C61.5269577,160.846661 60.8808377,161.227101 61.0794709,161.66296" id="Fill-273" fill="#081F2C"></path>
                    <path d="M63.6245988,161.663709 C64.1605335,162.351947 64.7984083,162.935339 65.5209832,163.423621 C65.9212478,163.693974 66.2967769,163.045427 65.8995106,162.775824 C65.2301543,162.324238 64.6507451,161.770802 64.154537,161.134238 C63.8584612,160.753797 63.3315212,161.287762 63.6245988,161.663709" id="Fill-275" fill="#081F2C"></path>
                    <path d="M66.310269,161.956229 C66.969881,162.71037 67.7344312,163.352176 68.5874295,163.878652 C68.9981878,164.133278 69.375216,163.48548 68.9652072,163.232352 C68.1646781,162.738079 67.459343,162.134467 66.8402072,161.426758 C66.5223942,161.063542 65.993955,161.59526 66.310269,161.956229" id="Fill-277" fill="#081F2C"></path>
                    <path d="M68.9963139,161.552573 C69.6401852,162.51341 70.5059259,163.274291 71.5575573,163.763322 C71.991552,163.965524 72.372328,163.319225 71.9353351,163.116273 C71.0006349,162.681912 70.2180952,162.032617 69.6431834,161.174379 C69.3763404,160.775965 68.7272222,161.150414 68.9963139,161.552573" id="Fill-279" fill="#081F2C"></path>
                    <path d="M71.7720811,162.125181 C72.4766667,162.64941 73.2404674,163.057559 74.060485,163.371348 C74.51097,163.544344 74.7066049,162.820159 74.2591182,162.648661 C73.5013139,162.358837 72.8012257,161.96267 72.1506085,161.478881 C71.7630864,161.190555 71.3890564,161.83985 71.7720811,162.125181" id="Fill-281" fill="#081F2C"></path>
                    <path d="M75.5407143,162.176405 C75.8967549,162.611515 76.3307496,162.960502 76.8307055,163.218123 C77.2587037,163.4383 77.6379806,162.792 77.2092328,162.571075 C76.7602469,162.340414 76.3899647,162.037859 76.0706526,161.646934 C75.765582,161.273982 75.2378924,161.806449 75.5407143,162.176405" id="Fill-283" fill="#081F2C"></path>
                    <path d="M78.917403,162.561789 C79.1737522,162.74452 79.4301014,162.927251 79.6864506,163.110731 C80.0799691,163.390819 80.4547487,162.742273 80.064978,162.463683 C79.8086287,162.280952 79.5522795,162.09822 79.2959303,161.915489 C78.9024118,161.634652 78.5276323,162.283947 78.917403,162.561789" id="Fill-285" fill="#081F2C"></path>
                    <path d="M82.540022,162.460163 C82.7603924,162.569502 82.9800132,162.678093 83.2003836,162.787432 C83.6313801,163.000868 84.0114065,162.354568 83.5789109,162.140383 C83.3585406,162.031793 83.1389198,161.922454 82.9185494,161.813115 C82.4875529,161.600427 82.1075265,162.245978 82.540022,162.460163" id="Fill-287" fill="#081F2C"></path>
                    <path d="M64.8855071,118.164678 C68.0508951,118.677674 70.974925,117.342388 74.0998369,117.118467 C74.5788051,117.084018 74.5825529,116.335119 74.0998369,116.369568 C71.0746164,116.586749 68.1408422,117.937762 65.0848898,117.441991 C64.6126675,117.366352 64.409537,118.086793 64.8855071,118.164678" id="Fill-289" fill="#081F2C"></path>
                    <path d="M114.510066,118.088665 C115.48974,118.22122 116.468664,118.353026 117.448338,118.484084 C117.961036,118.552982 119.567341,118.550736 119.845428,118.883247 C120.049308,119.12589 119.62056,121.123203 119.604819,121.515626 C119.560595,122.574568 119.587579,123.629767 119.656539,124.687211 C119.68802,125.165758 120.437579,125.168753 120.406098,124.687211 C120.325146,123.453775 120.304907,122.221837 120.381362,120.986903 C120.42034,120.357828 120.898558,118.952894 120.509537,118.403952 C120.140004,117.881969 119.29825,117.983819 118.715842,117.905934 C117.380128,117.726198 116.045163,117.546463 114.709449,117.366727 C114.237976,117.30307 114.033347,118.025009 114.510066,118.088665" id="Fill-291" fill="#081F2C"></path>
                    <path d="M118.805789,124.830176 C100.873338,126.655242 82.8644312,125.292247 64.9544665,123.891057 C64.4739991,123.853612 64.4762478,124.602511 64.9544665,124.639956 C82.8644312,126.041145 100.873338,127.404141 118.805789,125.579075 C119.28101,125.531145 119.286257,124.781498 118.805789,124.830176" id="Fill-293" fill="#081F2C"></path>
                    <path d="M64.096746,118.336551 C64.1312257,120.018577 64.2376631,121.695361 64.4153086,123.36915 C64.4662787,123.843952 65.2165873,123.848445 65.1648677,123.36915 C64.9872222,121.695361 64.8807848,120.018577 64.8463051,118.336551 C64.8365608,117.85426 64.0870018,117.852762 64.096746,118.336551" id="Fill-295" fill="#081F2C"></path>
                    <path d="M65.3155291,119.946233 C82.9788889,120.671167 100.660238,120.844163 118.334841,120.46522 C118.816058,120.455485 118.817557,119.706586 118.334841,119.716322 C100.660238,120.095264 82.9788889,119.922269 65.3155291,119.197335 C64.8328131,119.177863 64.8335626,119.926762 65.3155291,119.946233" id="Fill-297" fill="#081F2C"></path>
                    <path d="M65.9878836,122.272687 C83.5365608,123.810925 101.181182,123.378062 118.777081,123.380308 C119.259797,123.380308 119.260547,122.63141 118.777081,122.63141 C101.181182,122.629163 83.5365608,123.062026 65.9878836,121.523789 C65.5074162,121.48185 65.5104145,122.230749 65.9878836,122.272687" id="Fill-299" fill="#081F2C"></path>
                    <path d="M70.3567637,119.02696 C85.622284,118.90489 100.888554,118.996256 116.151825,119.302555 C116.634541,119.312291 116.634541,118.563392 116.151825,118.553656 C100.888554,118.247357 85.622284,118.155991 70.3567637,118.278062 C69.8747972,118.281806 69.8732981,119.030705 70.3567637,119.02696" id="Fill-301" fill="#081F2C"></path>
                    <path d="M66.1719753,124.471079 C64.8729894,124.981828 63.573254,125.492577 62.2735185,126.003326 C61.8777513,126.159097 61.9407143,126.698304 62.3732099,126.738744 C72.003545,127.650154 81.6406261,128.478436 91.2852028,129.222841 C91.5100705,129.240066 91.7349383,128.966718 91.6464903,128.748789 C91.3391711,127.987159 91.0318519,127.225529 90.7245326,126.463899 C90.5461376,126.022048 89.8205644,126.215264 90.0019577,126.663106 C90.3092769,127.423987 90.6165961,128.186366 90.9239153,128.947996 L91.2852028,128.473943 C81.6406261,127.729537 72.003545,126.901256 62.3732099,125.989846 C62.40694,126.234736 62.4399206,126.480374 62.4729012,126.726013 C63.7726367,126.214515 65.0716226,125.703767 66.371358,125.193018 C66.815097,125.017775 66.6217108,124.294339 66.1719753,124.471079" id="Fill-303" fill="#081F2C"></path>
                    <path d="M91.1712698,128.249947 C102.414656,127.86726 113.665538,127.926423 124.903677,128.427436 C125.385644,128.449903 125.384894,127.701004 124.903677,127.678537 C113.665538,127.177524 102.414656,127.118361 91.1712698,127.501048 C90.6900529,127.517524 90.6878042,128.266423 91.1712698,128.249947" id="Fill-305" fill="#081F2C"></path>
                    <path d="M119.694392,126.063987 C121.233986,126.672841 122.753342,127.328128 124.253959,128.029097 C124.688704,128.232797 125.06948,127.586498 124.632487,127.382797 C123.073404,126.654868 121.493333,125.974868 119.893774,125.3413 C119.444788,125.164559 119.250653,125.887996 119.694392,126.063987" id="Fill-307" fill="#081F2C"></path>
                    <path d="M126.147646,131.028361 C126.29381,131.101753 126.439974,131.174396 126.585388,131.24704 C127.015635,131.461974 127.396411,130.816423 126.963915,130.60074 C126.817751,130.527348 126.671587,130.454705 126.525423,130.382062 C126.095926,130.167128 125.71515,130.812678 126.147646,131.028361" id="Fill-309" fill="#081F2C"></path>
                    <path d="M123.113955,131.84526 C123.442262,132.209974 123.771318,132.575436 124.099625,132.94015 C124.423435,133.298872 124.951874,132.767903 124.629563,132.410678 L123.643893,131.315789 C123.320084,130.956317 122.791645,131.487286 123.113955,131.84526" id="Fill-311" fill="#081F2C"></path>
                    <path d="M127.979868,128.998846 C128.547284,128.972634 129.089215,129.040784 129.632646,129.206291 C130.095123,129.347833 130.293007,128.625145 129.832028,128.484352 C129.229383,128.300123 128.609497,128.221489 127.979868,128.249947 C127.4994,128.271665 127.496402,129.020564 127.979868,128.998846" id="Fill-313" fill="#081F2C"></path>
                    <path d="M60.9345811,121.902581 L58.0862566,121.902581 C57.6042901,121.902581 57.6035406,122.65148 58.0862566,122.65148 L60.9345811,122.65148 C61.4172972,122.65148 61.4180467,121.902581 60.9345811,121.902581" id="Fill-315" fill="#081F2C"></path>
                    <path d="M60.1677822,123.544467 L59.6198545,123.544467 C59.137888,123.544467 59.1371384,124.293366 59.6198545,124.293366 L60.1677822,124.293366 C60.6504982,124.293366 60.6512478,123.544467 60.1677822,123.544467" id="Fill-317" fill="#081F2C"></path>
                    <path d="M76.5318563,112.621855 C78.349537,112.731194 80.1672178,112.765643 81.9878968,112.728947 C82.4691138,112.719211 82.4713624,111.970313 81.9878968,111.980048 C80.1672178,112.016744 78.349537,111.982295 76.5318563,111.872956 C76.0498898,111.844498 76.0513889,112.593396 76.5318563,112.621855" id="Fill-319" fill="#081F2C"></path>
                    <path d="M77.5800397,114.268833 C80.1517769,114.211916 82.715269,114.059141 85.2750132,113.809009 C85.7502337,113.761828 85.7554806,113.01293 85.2750132,113.06011 C82.715269,113.310242 80.1517769,113.463018 77.5800397,113.519934 C77.0980732,113.530419 77.0965741,114.279317 77.5800397,114.268833" id="Fill-321" fill="#081F2C"></path>
                    <path d="M86.9945767,112.831696 C92.6717372,112.565837 98.3488977,112.299229 104.026058,112.03337 C104.506526,112.010154 104.508774,111.261256 104.026058,111.284471 C98.3488977,111.55033 92.6717372,111.816938 86.9945767,112.082797 C86.5141093,112.105264 86.5111111,112.854163 86.9945767,112.831696" id="Fill-323" fill="#081F2C"></path>
                    <path d="M90.0568254,114.224947 C91.573933,114.112612 93.0925397,114.060189 94.6141446,114.068427 C95.0961111,114.071423 95.0968607,113.322524 94.6141446,113.319529 C93.0925397,113.311291 91.573933,113.363714 90.0568254,113.476048 C89.5786067,113.511247 89.5748589,114.260894 90.0568254,114.224947" id="Fill-325" fill="#081F2C"></path>
                    <path d="M97.0038139,114.148859 C100.266645,114.199035 103.529475,114.250709 106.792306,114.300885 C107.275022,114.308374 107.275022,113.559476 106.792306,113.551987 C103.529475,113.501811 100.266645,113.450137 97.0038139,113.39996 C96.5210979,113.392471 96.5210979,114.14137 97.0038139,114.148859" id="Fill-327" fill="#081F2C"></path>
                    <path d="M112.214541,112.225463 C110.82261,112.082423 109.427681,111.987313 108.029753,111.940132 C107.547037,111.923656 107.547037,112.672555 108.029753,112.689031 C109.427681,112.736211 110.82261,112.831322 112.214541,112.974361 C112.69351,113.023789 112.690511,112.274141 112.214541,112.225463" id="Fill-329" fill="#081F2C"></path>
                    <path d="M113.216702,114.078687 C112.14858,114.036749 111.087205,113.942388 110.029577,113.788863 C109.557354,113.719965 109.354224,114.441154 109.830194,114.510802 C110.953783,114.674811 112.08112,114.782652 113.216702,114.827586 C113.699418,114.845559 113.698668,114.096661 113.216702,114.078687" id="Fill-331" fill="#081F2C"></path>
                    <path d="M68.2185714,126.856022 C67.6421605,127.274656 67.0657496,127.691793 66.4893386,128.110427 C66.2607231,128.275934 66.2277425,128.736507 66.5785362,128.794921 C78.0100617,130.680648 89.608739,131.144216 101.152698,130.154921 C101.397804,130.133952 101.576199,129.932498 101.514735,129.680868 C101.38881,129.168621 101.262884,128.656374 101.136958,128.144877 C101.021526,127.676815 100.298951,127.874524 100.414383,128.343335 C100.540309,128.855581 100.666235,129.367828 100.79216,129.880075 L101.152698,129.406022 C89.6776984,130.389326 78.1419841,129.948225 66.7786684,128.072233 C66.8079012,128.300648 66.8378836,128.528313 66.867866,128.756727 C67.4442769,128.338841 68.0206878,127.920956 68.5963492,127.50307 C68.9838713,127.222233 68.6098413,126.572189 68.2185714,126.856022" id="Fill-333" fill="#081F2C"></path>
                    <path d="M97.0773457,130.847727 C98.1732011,131.461075 99.2720547,131.402661 100.499832,131.382441 C102.319012,131.350987 104.137443,131.309048 105.956623,131.273101 C109.715661,131.198211 113.4747,131.123322 117.234489,131.048432 C117.520071,131.042441 117.698466,130.735392 117.557549,130.48526 C117.026111,129.537903 116.39873,128.959753 115.39582,128.53363 C114.957328,128.347154 114.575053,128.991956 115.018042,129.17993 C115.884533,129.549137 116.438457,130.021692 116.910679,130.862705 C117.018616,130.67548 117.126552,130.487507 117.234489,130.299533 C113.959665,130.363938 110.685591,130.429841 107.411517,130.494996 L102.682549,130.589357 C101.061252,130.621559 98.9092681,131.01548 97.455873,130.201427 C97.0338713,129.964775 96.6560935,130.611824 97.0773457,130.847727" id="Fill-335" fill="#081F2C"></path>
                    <path d="M55.1719709,135.213132 C54.7192372,135.347185 54.3279674,135.568859 53.9741755,135.88115 C53.6121384,136.200181 54.1435758,136.728154 54.5041138,136.410621 C54.7597134,136.184454 55.0445459,136.031678 55.3713536,135.93507 C55.833082,135.798771 55.6366975,135.075335 55.1719709,135.213132" id="Fill-337" fill="#081F2C"></path>
                    <path d="M68.7847884,144.637947 C68.6701058,144.942749 68.5546737,145.247551 68.4392416,145.55385 C68.2690917,146.004687 68.9931658,146.20015 69.1618166,145.752308 C69.2772487,145.447507 69.3926808,145.141956 69.5073633,144.837154 C69.6782628,144.385568 68.9541887,144.190106 68.7847884,144.637947" id="Fill-339" fill="#081F2C"></path>
                    <path d="M88.481552,148.171101 L88.481552,148.744009 C88.481552,149.225551 89.2311111,149.2263 89.2311111,148.744009 L89.2311111,148.171101 C89.2311111,147.688811 88.481552,147.688062 88.481552,148.171101" id="Fill-341" fill="#081F2C"></path>
                    <path d="M102.507601,145.27496 C102.736966,145.580511 102.965582,145.886062 103.194947,146.191612 C103.480529,146.572053 104.131896,146.199101 103.841817,145.813419 C103.613201,145.508617 103.383836,145.202317 103.154471,144.896767 C102.868889,144.515577 102.217522,144.888529 102.507601,145.27496" id="Fill-343" fill="#081F2C"></path>
                    <path d="M107.692302,150.98389 C107.904427,151.338119 108.117302,151.69085 108.330176,152.045079 C108.577531,152.457722 109.225899,152.081775 108.977046,151.666885 C108.764171,151.312656 108.552046,150.959925 108.339171,150.605696 C108.091817,150.193053 107.442698,150.569 107.692302,150.98389" id="Fill-345" fill="#081F2C"></path>
                    <path d="M113.917914,111.559916 C113.998117,112.392692 113.842959,113.193264 113.868444,114.020048 C113.89168,114.774938 114.050586,115.53507 114.156274,116.281722 C114.223735,116.755775 114.94631,116.554322 114.879599,116.081767 C114.767914,115.296921 114.591019,114.486612 114.620251,113.69278 C114.646486,112.965599 114.737932,112.292339 114.667474,111.559916 C114.62175,111.084366 113.871442,111.079872 113.917914,111.559916" id="Fill-347" fill="#081F2C"></path>
                    <path d="M114.005763,109.782031 C114.019255,110.039652 114.031997,110.296524 114.04474,110.554145 C114.067976,111.034189 114.818285,111.037185 114.794299,110.554145 C114.781556,110.296524 114.768814,110.039652 114.755322,109.782031 C114.731336,109.302736 113.981777,109.29974 114.005763,109.782031" id="Fill-349" fill="#081F2C"></path>
                    <path d="M145.127831,41.1692819 C145.381182,50.2654053 145.665265,59.3757577 145.67351,68.4763744 C145.676508,72.9465507 145.256005,77.3650529 144.917954,81.8172555 C144.753051,83.9830705 144.629374,86.1548767 144.667601,88.3274317 C144.683342,89.2238634 145.099347,90.8107797 144.847496,91.658533 C144.432989,93.0582247 142.870908,93.1975198 141.694101,93.5412643 C141.232372,93.6760661 141.428757,94.3987533 141.893483,94.2632026 C142.996085,93.9411762 144.862487,93.8250969 145.442646,92.6530705 C145.755212,92.0232467 145.55358,91.1462863 145.510106,90.4947445 C145.429153,89.2920132 145.40067,88.0870352 145.414912,86.8813084 C145.474877,81.806022 146.237178,76.7689295 146.384092,71.6973877 C146.67642,61.5445683 146.159974,51.3191057 145.87739,41.1692819 C145.863898,40.6877401 145.114339,40.6862423 145.127831,41.1692819" id="Fill-351" fill="#081F2C"></path>
                    <path d="M81.5364374,52.8993568 C79.8229453,52.343674 78.0832187,51.9662291 76.2955203,51.7460529 C75.8180511,51.6876388 75.8225485,52.4372863 76.2955203,52.4949515 C78.0135097,52.706141 79.6917725,53.0873304 81.3370547,53.6220441 C81.797284,53.7710749 81.9936684,53.0476388 81.5364374,52.8993568" id="Fill-353" fill="#081F2C"></path>
                    <path d="M76.0132363,60.9924053 C74.9541093,60.7969427 73.909224,60.8186608 72.8613404,61.0672952 C72.3921164,61.1781322 72.5907496,61.9008194 73.0607231,61.7884846 C73.9736861,61.5720529 74.8903968,61.5443436 75.8138536,61.7150925 C76.2853263,61.8019648 76.4877072,61.0800264 76.0132363,60.9924053" id="Fill-355" fill="#081F2C"></path>
                    <path d="M80.7583201,75.7019736 C79.7636552,76.0075242 78.8806746,76.534 78.1431085,77.2679207 C77.80056,77.6086696 78.3304982,78.138141 78.6730467,77.7973921 C79.3206658,77.1533392 80.0844665,76.6927665 80.9577028,76.4239119 C81.4171825,76.28237 81.2207981,75.5596828 80.7583201,75.7019736" id="Fill-357" fill="#081F2C"></path>
                    <path d="M115.898325,59.3425066 C116.548942,59.3357665 117.175573,59.4263833 117.797707,59.6143568 C118.260185,59.7544009 118.458818,59.0317137 117.99709,58.8924185 C117.314242,58.6857225 116.611905,58.5868678 115.898325,58.5936079 C115.416358,58.5988502 115.414859,59.3477489 115.898325,59.3425066" id="Fill-359" fill="#081F2C"></path>
                    <path d="M97.8089903,46.3179604 C97.7872531,45.1706476 97.9708951,44.0712643 98.3584171,42.9921013 C98.521821,42.5375198 97.7977469,42.3413084 97.6358422,42.7928943 C97.2265829,43.9327181 97.0361949,45.1069912 97.0594312,46.3179604 C97.0684259,46.7995022 97.817985,46.801 97.8089903,46.3179604" id="Fill-361" fill="#081F2C"></path>
                    <path d="M102.319537,74.5333172 C103.121565,75.4155198 103.756442,76.4167974 104.199431,77.5229207 C104.376327,77.9655198 105.1019,77.772304 104.922006,77.3244626 C104.428796,76.0925242 103.74295,74.985652 102.849475,74.0038458 C102.524167,73.6458722 101.995728,74.1768414 102.319537,74.5333172" id="Fill-363" fill="#081F2C"></path>
                    <path d="M110.466944,67.0355683 C112.309361,67.6399295 113.888682,68.7071101 115.153188,70.1742026 C115.468752,70.5404141 115.997191,70.008696 115.683126,69.6447313 C114.335419,68.0810308 112.627923,66.9569339 110.666327,66.31363 C110.206847,66.1631013 110.009713,66.8857885 110.466944,67.0355683" id="Fill-365" fill="#081F2C"></path>
                    <path d="M93.2875,78.1746872 C93.3519621,78.9505463 93.4164242,79.7264053 93.4816358,80.5022643 C93.5213624,80.9793128 94.2709215,80.9838062 94.2311949,80.5022643 C94.1659832,79.7264053 94.1015212,78.9505463 94.0370591,78.1746872 C93.9973325,77.6976388 93.2470238,77.6931454 93.2875,78.1746872" id="Fill-367" fill="#081F2C"></path>
                    <path d="M111.621265,50.6138678 C111.559052,51.270652 111.532817,51.928185 111.543311,52.5879648 C111.550807,53.0687577 112.300366,53.0702555 112.29287,52.5879648 C112.282377,51.928185 112.308611,51.270652 112.370825,50.6138678 C112.416548,50.1345727 111.666239,50.1375683 111.621265,50.6138678" id="Fill-369" fill="#081F2C"></path>
                    <path d="M82.0451631,66.5469868 C82.113373,67.336326 82.2063183,68.1219207 82.3210009,68.9052687 C82.3907099,69.3800705 83.1132848,69.1786167 83.0443254,68.7068106 C82.9386376,67.9893656 82.8569356,67.2689251 82.7947222,66.5469868 C82.7534965,66.0699383 82.0039374,66.0654449 82.0451631,66.5469868" id="Fill-371" fill="#081F2C"></path>
                    <path d="M82.5487919,70.0098943 C86.3130776,73.0833744 89.7805379,76.4683965 92.9421781,80.1574714 C93.2562434,80.5244317 93.7846825,79.9927137 93.4721164,79.628 C90.3104762,75.9389251 86.8430159,72.5531542 83.0787302,69.4804229 C82.708448,69.1786167 82.1747619,69.7050925 82.5487919,70.0098943" id="Fill-373" fill="#081F2C"></path>
                    <path d="M95.0731746,80.7307533 C96.3384303,75.5453789 98.4049647,70.6018987 101.295265,66.1077577 C104.438915,61.2211938 108.754877,57.3081982 112.817487,53.2027357 C113.157037,52.8597401 112.627848,52.3302687 112.287549,52.6732643 C108.176217,56.8266564 103.828774,60.7853348 100.648395,65.7303128 C97.7243651,70.2753789 95.630097,75.2862599 94.3505996,80.5315463 C94.2359171,80.9996079 94.9592416,81.1995639 95.0731746,80.7307533" id="Fill-375" fill="#081F2C"></path>
                    <path d="M110.78131,51.4037313 C110.183161,52.544304 109.735675,53.7402952 109.448593,54.9954493 C109.341407,55.4650088 110.063232,55.6649648 110.171168,55.1946564 C110.444757,54.0009119 110.859264,52.8678282 111.428179,51.7819251 C111.652297,51.3558018 111.005428,50.976859 110.78131,51.4037313" id="Fill-377" fill="#081F2C"></path>
                    <path d="M108.982443,52.4188634 C108.361808,53.7294361 107.938307,55.0924317 107.726931,56.5280705 C107.657222,56.9991278 108.379797,57.2035771 108.450256,56.7272775 C108.651138,55.3582907 109.036411,54.0499648 109.629312,52.7970573 C109.834691,52.3641938 109.188571,51.9830044 108.982443,52.4188634" id="Fill-379" fill="#081F2C"></path>
                    <path d="M107.119189,54.2004185 C106.364383,55.8015639 105.925141,57.4798458 105.803713,59.2442511 C105.770732,59.725793 106.520291,59.7235463 106.553272,59.2442511 C106.665705,57.6131498 107.068968,56.0576872 107.766058,54.5786123 C107.970688,54.145 107.324568,53.7645595 107.119189,54.2004185" id="Fill-381" fill="#081F2C"></path>
                    <path d="M104.844877,57.5017137 C104.351667,58.6550176 104.078078,59.8412731 104.035353,61.0956784 C104.018862,61.5772203 104.768422,61.5764714 104.784912,61.0956784 C104.82239,59.9813172 105.052504,58.9058987 105.491746,57.8799075 C105.679885,57.4418018 105.033765,57.0591145 104.844877,57.5017137" id="Fill-383" fill="#081F2C"></path>
                    <path d="M103.072394,59.4654009 C102.728347,60.5820088 102.510974,61.7180881 102.406786,62.8811278 C102.364061,63.3604229 103.11362,63.3574273 103.156345,62.8811278 C103.255287,61.7847401 103.47116,60.7160617 103.794969,59.6646079 C103.937385,59.2017885 103.214061,59.0055771 103.072394,59.4654009" id="Fill-385" fill="#081F2C"></path>
                    <path d="M101.247518,62.2590925 C100.827015,63.4311189 100.610392,64.6368458 100.587906,65.8807665 C100.578161,66.3623084 101.32772,66.3630573 101.337465,65.8807665 C101.359202,64.7012511 101.572077,63.5681674 101.970093,62.4582996 C102.133496,62.0037181 101.409422,61.8075066 101.247518,62.2590925" id="Fill-387" fill="#081F2C"></path>
                    <path d="M99.6188007,63.9938414 C99.3032363,65.2220352 99.1698148,66.4644581 99.2252822,67.7308458 C99.2455203,68.2116388 99.9950794,68.2138855 99.9748413,67.7308458 C99.9223721,66.5303612 100.042302,65.3575859 100.341376,64.1937974 C100.461305,63.7264846 99.7387302,63.5272775 99.6188007,63.9938414" id="Fill-389" fill="#081F2C"></path>
                    <path d="M97.8708289,67.2439868 C97.6699471,68.2707269 97.5874956,69.3012115 97.6339683,70.3474229 C97.6549559,70.8267181 98.404515,70.8297137 98.3835273,70.3474229 C98.3393034,69.3686123 98.4052646,68.4047797 98.5934039,67.4431938 C98.6855996,66.9721366 97.9637743,66.7706828 97.8708289,67.2439868" id="Fill-391" fill="#081F2C"></path>
                    <path d="M96.087328,70.8575727 C96.0446032,71.9210088 96.0018783,72.9851938 95.959903,74.04863 C95.9404145,74.5301718 96.6899735,74.5294229 96.7094621,74.04863 C96.7514374,72.9851938 96.7941623,71.9210088 96.8368871,70.8575727 C96.8556261,70.3752819 96.106067,70.3760308 96.087328,70.8575727" id="Fill-393" fill="#081F2C"></path>
                    <path d="M94.049127,74.4316167 C94.1420723,75.5841718 94.3152205,76.7224978 94.5745679,77.8488414 C94.6825044,78.3184009 95.4050794,78.1199427 95.2971429,77.6503833 C95.0535362,76.587696 94.8863845,75.5175198 94.7986861,74.4316167 C94.7604586,73.9538194 94.0101499,73.9500749 94.049127,74.4316167" id="Fill-395" fill="#081F2C"></path>
                    <path d="M50.1241402,38.8121233 C77.2889109,38.5732247 104.540631,37.7277181 131.68966,38.9461762 C132.171627,38.9678943 132.170877,38.2189956 131.68966,38.1972775 C104.540631,36.9788194 77.2889109,37.824326 50.1241402,38.0632247 C49.6414242,38.0677181 49.6406746,38.8166167 50.1241402,38.8121233" id="Fill-397" fill="#081F2C"></path>
                    <path d="M46.5315035,40.6273789 C45.5705688,53.0546035 45.7781966,65.5327533 47.1536376,77.9210352 C47.2061067,78.3950881 47.9556658,78.4003304 47.9031966,77.9210352 C46.5277557,65.5327533 46.3201279,53.0546035 47.2810626,40.6273789 C47.3185406,40.1465859 46.5682319,40.1488326 46.5315035,40.6273789" id="Fill-399" fill="#081F2C"></path>
                    <path d="M143.084083,45.1646564 C144.437037,58.5212643 144.340344,71.9729824 142.797002,85.3086211 C142.741534,85.7864185 143.491093,85.782674 143.546561,85.3086211 C145.089903,71.9729824 145.186596,58.5212643 143.833642,45.1646564 C143.78567,44.6891057 143.035362,44.6846123 143.084083,45.1646564" id="Fill-401" fill="#081F2C"></path>
                    <path d="M59.3051146,128.151991 C60.5291446,131.329568 64.9732804,131.621639 67.8291005,132.217762 C72.4396384,133.178599 77.0988977,133.90578 81.7821429,134.404546 C91.5676367,135.444767 101.437831,135.434282 111.225573,134.439744 C111.700794,134.391066 111.706041,133.641419 111.225573,133.690846 C102.631878,134.564062 93.97597,134.682388 85.3642857,133.988907 C80.9748677,133.636176 76.6034392,133.076 72.2664903,132.311374 C70.1414903,131.936176 68.0247354,131.511551 65.919224,131.038247 C63.8579365,130.575427 60.8986772,130.214458 60.0276896,127.952784 C59.8560406,127.508687 59.1312169,127.701154 59.3051146,128.151991" id="Fill-403" fill="#081F2C"></path>
                    <path d="M55.6657055,128.935264 C59.7028307,133.421167 65.8739506,134.379758 71.568351,135.111432 C72.0458201,135.172841 72.0413228,134.423943 71.568351,134.362533 C66.0718342,133.655573 60.0948501,132.738172 56.1956437,128.405793 C55.8725838,128.046322 55.3441446,128.577291 55.6657055,128.935264" id="Fill-405" fill="#081F2C"></path>
                    <path d="M10.8564638,143.661608 C14.4018783,146.143458 18.7208377,146.457247 22.9236155,146.476718 C26.1317284,146.490198 29.9222487,146.535881 31.9962787,143.669097 C32.2788624,143.277423 31.6289947,142.903722 31.3486596,143.290903 C29.2656349,146.170419 24.8769665,145.779493 21.7235714,145.714339 C18.0334921,145.639449 14.3299206,145.181123 11.2349912,143.014559 C10.839224,142.737467 10.4644444,143.386762 10.8564638,143.661608" id="Fill-407" fill="#081F2C"></path>
                    <path d="M12.1930776,147.082877 C16.6169753,148.350762 21.1555556,148.818824 25.7466049,148.473581 C26.2240741,148.438383 26.2285714,147.688736 25.7466049,147.724683 C21.2222663,148.065432 16.7548942,147.61085 12.3924603,146.360189 C11.9277337,146.226885 11.7298501,146.949573 12.1930776,147.082877" id="Fill-409" fill="#081F2C"></path>
                    <path d="M26.3487257,132.00837 C26.967112,132.713084 27.5847487,133.419295 28.2031349,134.124009 C28.5216975,134.487974 29.0501367,133.957004 28.7330732,133.594537 C28.1146869,132.889824 27.4970503,132.183612 26.878664,131.478899 C26.5601014,131.115683 26.0316623,131.646652 26.3487257,132.00837" id="Fill-411" fill="#081F2C"></path>
                    <path d="M24.896455,134.077352 C25.8843739,135.113828 27.0162081,135.981053 28.2739683,136.665546 C28.6982187,136.896207 29.076746,136.249159 28.6524956,136.018498 C27.4472046,135.363211 26.3730864,134.540921 25.4263933,133.547881 C25.0928395,133.198145 24.5636508,133.728366 24.896455,134.077352" id="Fill-413" fill="#081F2C"></path>
                    <path d="M23.1279453,135.669436 C24.6443034,136.80252 26.1606614,137.934855 27.677769,139.067189 C28.0637919,139.356264 28.4378219,138.706969 28.0555467,138.42089 C26.5391887,137.287806 25.0228307,136.155471 23.5057231,135.023137 C23.1197002,134.734062 22.7456702,135.384106 23.1279453,135.669436" id="Fill-415" fill="#081F2C"></path>
                    <path d="M22.4325794,138.368167 C23.3530379,139.350722 24.4016711,140.186493 25.5642372,140.864996 C25.9817416,141.108388 26.3595194,140.461339 25.9427646,140.217947 C24.8326675,139.569401 23.8410009,138.777066 22.9632672,137.838696 C22.6327116,137.485965 22.1035229,138.016185 22.4325794,138.368167" id="Fill-417" fill="#081F2C"></path>
                    <path d="M20.9901279,140.550458 C21.2966975,140.752661 21.6025176,140.954115 21.9098369,141.156317 C22.3130996,141.421427 22.6893783,140.77363 22.2876146,140.50852 C21.981045,140.307066 21.6752249,140.104863 21.3679056,139.90341 C20.9646429,139.637551 20.5883642,140.285348 20.9901279,140.550458" id="Fill-419" fill="#081F2C"></path>
                    <path d="M34.4375926,158.417982 C34.056067,157.97089 33.535873,157.737982 32.9542152,157.708026 C32.4714991,157.682564 32.4729982,158.431463 32.9542152,158.456925 C33.3447354,158.477145 33.656552,158.653885 33.9069048,158.947454 C34.22097,159.314414 34.7494092,158.782696 34.4375926,158.417982" id="Fill-421" fill="#081F2C"></path>
                    <path d="M8.7937522,156.332899 L7.59670635,156.332899 C7.11473986,156.332899 7.1139903,157.081797 7.59670635,157.081797 L8.7937522,157.081797 C9.27646825,157.081797 9.27721781,156.332899 8.7937522,156.332899" id="Fill-423" fill="#081F2C"></path>
                </g>
            </g>
        </g>
    </g>
</svg>